<?xml version="1.0" encoding="UTF-8"?>
<svg id="Calque_2" data-name="Calque 2" xmlns="http://www.w3.org/2000/svg" viewBox="0 0 739.61 226.3">
  <defs>
    <style>
      .cls-1 {
        fill: #fff;
      }
    </style>
  </defs>
  <g id="Calque_1-2" data-name="Calque 1">
    <g>
      <g>
        <path class="cls-1" d="M491.6,68.83v111.38s-57.03,0-57.03,0l.03-110.22c-.19-6.06-4.47-10.24-9.93-10.35s-9.96,3.67-10.19,9.73l.03,110.82h-61.02s-.01-131.87-.01-131.87c-.06-26.28,18.58-48.14,44.5-48.13l130.09.04c20.4,0,37.26,13.58,42.38,32.73,2.01,7.51,2.23,14.41,2.21,22.32v124.89s-61.1.02-61.1.02l.03-110.81c-.32-5.69-4.34-9.58-9.42-9.79s-9.79,3.15-10.57,9.24Z"/>
        <path class="cls-1" d="M142.96,179.83l-127.3.32c-8.33-.78-15.24-6.53-15.27-15.16l-.2-52.63,122.76-.07c3.25,0,5.35-3.41,5.37-5.55.03-3.25-2.17-6.07-5.81-6.08l-83.11-.27c-16.45-.05-29.62-10.36-35.27-25.32C-1.72,59.58-1.88,32.22,7.04,17.85,13.68,7.18,25.7.3,38.91.28l115.29-.17c15.13.61,25.16,11.65,25.21,26.42l.14,40.61-131.66-.02c-3.41,0-5.47,3.08-5.59,5.47-.16,3.22,2.11,6.1,5.88,6.11l92.26.23c18.08.05,32.54,11.9,36.9,29.21,3.2,12.69,3.11,25.69,1.21,38.71-.99,6.83-3.39,13.23-7.67,18.89-6.24,8.25-16.39,14.07-27.92,14.1Z"/>
        <path class="cls-1" d="M678.77,127.86l-35.54-.21-.06,52.53-60.8.03.13-113.98c2.37-30.69,22.08-55.53,52.03-63.04,16.72-4.2,34.55-4.15,51.38-.44,31.13,6.86,51.69,32.52,53.6,64.26l.1,113.22-60.86-.04.03-52.33ZM678.76,123.91l-.18-67.9c-.03-9.85-9.17-16.93-18.11-16.65-8.68.28-17.09,7.21-17.11,16.8l-.15,67.78,35.55-.04Z"/>
        <path class="cls-1" d="M343.82,61.75c-.04,25.71-17.08,44.73-43.36,45.16v73.28s-67.6-.02-67.6-.02l.03-73.21c-12.56-.33-23.86-4.67-32.13-13.66-7.53-8.62-10.58-19.05-11.46-30.55l-.08-62.6,50.26.26c12.64.07,21.41,10.02,22.85,22.26l.04,64.23c0,2.74,1.82,4.93,4.12,5.33,1.72.3,5.65-1.57,5.66-4.05l.14-64.82c.63-12.69,10.32-23,23.33-23.06l48.3-.22-.09,61.67Z"/>
      </g>
      <g>
        <path class="cls-1" d="M6.94,226.3c-1.26,0-2.31-.21-3.14-.63-.84-.42-1.49-1.02-1.98-1.82-.48-.79-.83-1.75-1.03-2.87-.21-1.12-.31-2.38-.31-3.78l4.5-.42c0,.68.02,1.33.07,1.97.05.63.14,1.2.28,1.7.13.5.33.9.6,1.2.26.3.6.45,1.01.45.68,0,1.16-.31,1.44-.95.28-.63.43-1.39.43-2.28s-.23-1.82-.7-2.78c-.47-.96-1.03-1.88-1.68-2.74-1.1-1.47-2.07-2.84-2.9-4.1s-1.47-2.5-1.93-3.72c-.46-1.22-.69-2.49-.69-3.82,0-1.05.13-2.01.4-2.9.27-.88.66-1.66,1.18-2.32.52-.66,1.14-1.17,1.88-1.54.74-.37,1.58-.55,2.53-.55,1.18,0,2.17.2,2.99.59s1.47.96,1.98,1.7c.5.74.87,1.61,1.1,2.62.23,1.01.35,2.14.35,3.37l-4.5.42c0-.52-.02-1.05-.07-1.58s-.14-1.02-.27-1.46-.31-.79-.55-1.06c-.24-.27-.55-.4-.94-.4-.59,0-1.01.25-1.23.75-.23.5-.34,1.21-.34,2.13,0,1.19.32,2.34.96,3.44.64,1.1,1.49,2.39,2.57,3.87,1.29,1.74,2.34,3.34,3.15,4.8s1.22,3.07,1.22,4.84c0,1.12-.12,2.16-.36,3.11-.24.96-.62,1.79-1.14,2.5-.52.71-1.18,1.26-1.98,1.66-.8.4-1.77.59-2.9.59Z"/>
        <path class="cls-1" d="M40.08,225.96v-26.52h-4.33v-4.72h13.26v4.72h-4.33v26.52h-4.59Z"/>
        <path class="cls-1" d="M78.5,226.3c-1.29,0-2.39-.3-3.3-.89-.91-.59-1.61-1.4-2.09-2.42s-.72-2.17-.72-3.44v-24.82h4.59v24.82c0,.61.12,1.14.36,1.6.24.46.63.69,1.17.69.57,0,.96-.23,1.19-.69.23-.46.34-1,.34-1.6v-24.82h4.59v24.82c0,1.27-.24,2.42-.73,3.44-.49,1.02-1.19,1.83-2.1,2.42-.91.6-2.01.89-3.28.89Z"/>
        <path class="cls-1" d="M109.26,225.96v-31.23h4.67c1.47,0,2.72.24,3.74.72,1.02.48,1.84,1.3,2.46,2.46.62,1.16,1.07,2.76,1.35,4.78.28,2.03.41,4.58.41,7.67s-.14,5.66-.41,7.68c-.28,2.02-.73,3.6-1.35,4.76-.62,1.15-1.44,1.97-2.46,2.44-1.02.47-2.27.71-3.74.71h-4.67ZM113.85,221.38c1.13,0,1.93-.45,2.4-1.34s.75-2.17.85-3.82.15-3.63.15-5.91-.05-4.28-.15-5.92c-.1-1.64-.39-2.89-.86-3.76s-1.27-1.31-2.39-1.31v22.05Z"/>
        <path class="cls-1" d="M146.32,225.96v-31.23h4.59v31.23h-4.59Z"/>
        <path class="cls-1" d="M181.46,226.3c-1.27,0-2.37-.3-3.28-.89-.91-.59-1.61-1.4-2.1-2.42s-.73-2.17-.73-3.44v-18.4c0-1.29.24-2.44.73-3.45s1.19-1.82,2.1-2.41c.91-.6,2.01-.89,3.28-.89s2.37.3,3.28.89c.91.59,1.61,1.4,2.1,2.42s.73,2.17.73,3.44v18.4c0,1.27-.24,2.42-.73,3.44s-1.19,1.83-2.1,2.42c-.91.6-2.01.89-3.28.89ZM181.46,221.84c.57,0,.96-.24,1.19-.71.23-.47.34-1,.34-1.58v-18.4c0-.58-.12-1.11-.36-1.58-.24-.47-.63-.71-1.17-.71s-.91.24-1.16.71c-.25.47-.37,1-.37,1.58v18.4c0,.58.12,1.11.36,1.58.24.48.63.71,1.17.71Z"/>
      </g>
    </g>
  </g>
</svg>