<?xml version="1.0" encoding="UTF-8"?>
<svg id="Calque_2" data-name="Calque 2" xmlns="http://www.w3.org/2000/svg" viewBox="0 0 532.29 469.08">
  <defs>
    <style>
      .cls-1 {
        fill: #fff;
      }
    </style>
  </defs>
  <g id="Calque_1-2" data-name="Calque 1">
    <g>
      <path class="cls-1" d="M229.7,235.34l-213.05-.08c-9.07,0-16.56-7.56-16.57-16.3L0,157.37c0-3.76,2.43-7.04,6.65-7.04h177.83c5.24,0,8.24-4.54,8.13-8.47-.16-5.61-4.28-7.87-9.68-7.87l-120.55.03c-22.35,0-41.77-12.8-51.87-32.76C-4.46,71.68,4.25,34.16,30.41,13.7,41.49,5.03,54.6.08,68.86.08L246.07,0c13.84-.27,26.74,9.85,26.83,24.18l.4,60.02-179.37.06c-5.72,0-8.43,6.84-7.97,10.65.71,5.98,4.92,8.86,10.86,8.87l134.91.2c25.91.04,48.61,17.8,57.3,41.61,7.94,21.75,4.64,45.74-8.85,64.12-11.89,16.2-29.83,25.64-50.48,25.63Z"/>
      <path class="cls-1" d="M178.18,462.8c0,4.16-3.1,6.19-6.36,6.19l-61.47-.04c-2.89,0-5.45-2.85-5.45-5.82v-125.11c.01-6.72-4.79-11.45-10.91-11.36-6.64.1-10.86,5.2-10.86,12.16l.06,122.88c0,3.94-2.32,7.28-6.53,7.28H9.65c-4.87,0-9.57-3.63-9.57-8.98l.08-151.54c.02-33.27,30.91-62.39,62.27-62.47l154.86-.39c21.99-.06,41.95,9.99,53.92,28.04,8.43,12.72,10.83,26.09,10.81,41.26l-.17,144.98c0,5.9-4.94,9.21-10.14,9.21l-66.27-.06c-3.29,0-5.87-3.26-5.87-6.52l-.03-125.9c0-5.69-5.12-9.5-9.82-9.86-4.84-.36-11.45,2.91-11.46,8.93l-.09,127.14Z"/>
      <path class="cls-1" d="M532.29,14.75v68.34c-.01,34.33-31.12,65.66-66.5,67.32l-.16,73.82c-.02,6.89-6.46,11.09-12.59,11.09h-88.19c-5.19-1.01-11.07-4.89-11.08-10.86l-.12-74.2c-36.09-1.83-65.95-31.25-66.94-68.02l-.22-66.99c.84-8.97,7.48-14.92,16.42-14.87l78.32.48c10.77.07,19.07,11.87,19.12,22.31l.31,79.7c.02,4.89,4.66,8.28,8.87,8.2,3.9-.08,9.08-3.19,9.09-8.09l.09-77.36c.02-13.51,9.93-25.15,21.59-25.15h76.67c7.55,0,15.33,5.89,15.33,14.29Z"/>
      <path class="cls-1" d="M432.17,418.14h-55.01s-.09,43.59-.09,43.59c0,4.75-5.16,7.82-9.51,7.29l-67.86-.07c-4.27,0-7.52-4.75-7.51-8.82l.26-122.95c.05-22.33,10.07-42.87,24.83-59.11,19.1-21.04,45.99-32.45,74.27-33.35l31.73.05c47.88.07,93.94,39.46,94.04,89.25l.26,127.47c0,4.87-4.46,7.55-8.59,7.55l-67.9-.05c-5.34.36-8.97-3.58-8.89-8.82l-.02-42.03ZM432.18,366.71l-.09-35.16c-.02-6.99-2.29-13.61-6.29-19.09-7.86-9.06-20.19-11.69-31.24-7.24-10.06,4.05-17.03,13.99-17.13,25.84l-.31,35.67,55.07-.03Z"/>
    </g>
  </g>
</svg>