<?xml version="1.0" encoding="UTF-8"?>
<svg id="Calque_2" data-name="Calque 2" xmlns="http://www.w3.org/2000/svg" viewBox="0 0 209.54 184.7">
  <defs>
    <style>
      .cls-1 {
        fill: #fff;
      }
    </style>
  </defs>
  <g id="Calque_1-2" data-name="Calque 1">
    <path class="cls-1" d="M130.95,183.36c-8.11-2.59-13.29-9.24-14.06-17.51-.46-4.97.5-9.68,2.26-14.38,5.66-15.14,18.09-28.3,30.33-38.63,12.4-10.47,25.45-19.63,39.43-28.26l2.85-14.12c1.31-6.48,2.47-12.71,3.39-19.51-8.12,11.4-19.69,23.9-32.38,29.33-11.36,4.86-24.25,3.36-30.08-8.53-4.54-9.75-2.79-22.32-.13-32.88-12.84,8.29-25.83,15.16-40.15,19.65l-24.9,7.8c6.55,10.06,6.42,22.62-.47,32.05-3.53,4.84-8.03,8.34-13.28,11.29-12.73,7.01-34.45,9.73-46.81,1.09-5.92-4.13-8.24-11.16-6.25-18.12,1.34-4.7,4.29-8.5,8.04-11.7,10.18-8.71,27-14.45,40.08-18.76-4.37-2.98-8.59-5.29-12.92-7.81l-10.78-6.28c-3.23-2.21-6.16-4.44-8.7-7.42C7.3,29.99,10.72,15.43,22.13,7.28,28.61,2.65,36.13.43,44.06.05c10.01-.47,19.38,2.38,27.49,8.21,2.35,1.69,3.13,4.62,1.47,7.01-1.57,2.25-4.73,2.71-7.07,1-4.15-3.02-8.63-5.19-13.75-6.08-7.68-1.33-15.52-.29-22.28,3.5-3.32,1.86-5.92,4.29-7.57,7.62-2.21,4.46-1.56,9.35,1.65,13.17,2.34,2.78,5.28,4.7,8.38,6.7l15.98,9.07c4.27,2.42,8.09,5.07,12.05,8.24l29.39-9.25c13.39-4.21,25.74-10.38,37.23-18.34l12.26-8.49c1.9-1.32,4.52-.64,5.99.66,1.76,1.56,1.88,3.79,1.01,6.01-2.11,5.4-3.99,10.73-5.2,16.43-1.4,6.6-2.31,15.29.24,21.55,3.08,7.55,11.36,7.26,17.88,4.33,10.46-4.7,19.93-14.72,26.46-24.05,5.74-8.19,10.03-16.93,13.64-26.22.99-2.53,3.85-3.61,6.19-3.04,2.54.62,4.45,3.08,4,5.92l-3.9,24.86-9.9,50.29c-2.11,10.73-4.94,20.91-8.22,31.3-5.82,18.46-16.51,43.57-35.44,51.61-6.69,2.84-14,3.57-21.07,1.31ZM56.97,95.38c7.33-7.62,7.31-18.23.38-26.01l-8.5,2.86c-8.2,2.76-16.13,5.71-23.88,9.57-5.73,2.86-13.58,7.5-15.04,14.05-3.03,13.56,32.07,15.07,47.04-.47ZM134.86,174.47c4.36,1.12,8.6.63,12.67-.96,9.51-3.71,15.85-12.78,20.65-21.43,8.9-16.86,13.62-35.35,17.89-54.29-10.63,6.79-20.38,13.95-29.85,21.87-5.91,4.95-11.18,10.12-16.23,15.91-6.07,7.16-13.96,19.39-13.4,28.91.3,4.95,3.4,8.73,8.26,9.99Z"/>
  </g>
</svg>