<?xml version="1.0" encoding="UTF-8"?>
<svg id="Calque_2" data-name="Calque 2" xmlns="http://www.w3.org/2000/svg" viewBox="0 0 438.2 226.18">
  <defs>
    <style>
      .cls-1 {
        fill: #fff;
      }
    </style>
  </defs>
  <g id="Calque_1-2" data-name="Calque 1">
    <path class="cls-1" d="M127.36,37.28c-10.77-3.53-21.98-3.65-31.7,1.28-9.81,4.98-12.58,16.59-6.36,25.5,2.81,4.02,6.6,7.16,11.01,9.56,13.91,7.58,32.87,11.72,48.56,15.26l39.63,8.93c16.95,3.82,36.65,11.47,49.04,23.97,19.18,19.35,18.12,46.92-.33,66.51-9.61,10.2-21.17,17.43-34.41,22.53-30.04,11.58-65.41,14.92-97.52,13.25-17.5-.91-34.43-3.2-51.19-8.21-19.87-5.95-43.17-18.22-51.44-38.28-4.31-10.44-3.45-22.01,3.37-31.04,6.46-8.55,16.1-13.2,26.87-13.93,12.55-.85,24.38,3.2,34.51,10.47,11.27,8.1,15.44,14.97,25.32,23.41,10.75,9.18,24.31,14.15,38.51,13.7,11.58-.37,25.03-6.28,25.98-19.18,1.09-14.81-13.7-23.85-25.78-28.59-30.58-12-59.02-12.65-90.45-28.55-7.43-3.76-13.89-8.39-19.46-14.53-9.81-10.8-14.14-25.31-10.77-39.68C15.38,29.86,34.32,17.2,52.35,10.53c14.38-5.32,28.9-8.08,44.29-9.59,31.18-3.05,61.83,1.37,90.82,12.93,17.71,7.06,29.27,12.36,47.17,2.93,12.41-6.54,26.38-7.98,39.3-2.43,22.18,9.52,33.73,35.66,50.45,45.83,8.6,5.23,18.6,4.14,26.03-2.46,4.11-3.65,7.59-7.71,10.94-12.14l12.82-16.93c9.21-12.16,23.53-20.77,39.26-17.84s25.7,16.16,24.71,31.99c-.48,7.71-3.32,14.81-8.36,20.84-16.13,19.27-46.25,38.42-59.68,62.26-12.14,21.54,6.33,38.74,6.83,62,.28,13.1-5.66,24.94-17.04,31.83-13.47,8.15-30.84,8.52-44.84,1.28-12.72-6.57-19.71-19.56-19.12-33.73.23-5.63,1.44-10.89,3.21-16.15l5.78-17.17c6.55-19.45-4.06-38.15-17.77-51.52-11.77-11.48-25.34-20.67-40.59-26.75-20.97-8.36-29.54,2.29-50.17.69-10.94-.85-20.88-5.01-29.78-11.34-14.09-10.02-21.85-22.08-39.25-27.79Z"/>
  </g>
</svg>