<?xml version="1.0" encoding="UTF-8"?>
<svg id="Calque_2" data-name="Calque 2" xmlns="http://www.w3.org/2000/svg" viewBox="0 0 351.63 248.31">
  <defs>
    <style>
      .cls-1 {
        fill: #fff;
      }
    </style>
  </defs>
  <g id="Calque_1-2" data-name="Calque 1">
    <g>
      <path class="cls-1" d="M133.75,248.27l-16.99.04c-27.92.07-64.2-8.05-88.22-22.96-12.5-7.76-23.21-19.2-27.11-33.49-6.13-22.46,8.08-41.68,28.79-51.27l18.03-6.42-.89,1.76c-18.48,15.74-23.8,40.02-12.09,61.67,17.08,31.58,59.58,47.46,94.85,46.2,22.91-.82,44.54-7.84,62.81-21.37,21.81-16.14,37.29-40.48,46.23-65.89l10.79-36.78c-21.14.91-35.44-12.44-45.18-30.22l-11.88-24.65-16.78-34.48-7.35-12.09c-5.05-8.3-12.57-13.23-21.71-17.68h22c3.71-.02,7.95.91,11.47,2.01,9.23,2.9,16.13,9.11,20.26,17.87l27.08,57.48,5.76,11.45c5.61,11.15,14.51,23.64,27.17,23.02,23.21-1.13,32.8-42.67,35.05-64.15l2.36-22.56c.94-9,5.86-16.82,14.03-20.81,4.59-2.25,9.96-4.06,15.15-4.12l22.85-.29,1.4.17c-6.02,3.46-11.87,6.65-15.65,12.48l-11.02,16.99-14.79,25.65-16.34,30.33c-6.44,11.96-11.82,24.11-15.79,37.12l-2.92,9.56c-3.67,12.04-6.58,24.06-11.98,35.41l-6.03,12.69c-16.63,34.98-49.93,55.24-87.43,63.03-11.89,2.47-23.45,4.3-35.93,4.33Z"/>
      <path class="cls-1" d="M96.8,97.7l25.16,12.57c9.64,4.82,18.36,10.66,26.49,17.7,7.46,6.46,13.42,13.93,17.59,22.8,12.92,27.51,1.76,59.73-24.1,75.03,11.74-16.75,14.73-35.32,6.23-53.79-6.17-12.57-20.21-25.06-32.4-31.55l-18.79-10-36.06-17.59c-13.23-6.45-28.44-17.32-36.6-29.4-14.82-21.95-12.69-50.51,7.36-67.5C47.25,2.77,68.59-.33,88.92.03c9.8.17,19.17,1.44,28.42,4.45,13.41,4.37,25.82,14.42,23.52,28.37l-3.5,21.19-3.43,16.63c-1.32-8.5-1.93-15.62-3.98-23.5-4.6-17.68-14.87-33.03-32.08-39.72-14.09-5.47-29.26-5.65-42.92.55-12,5.45-19.67,16.35-20.46,29.49-1.94,32.37,36.81,47.46,62.31,60.2Z"/>
    </g>
  </g>
</svg>