<?xml version="1.0" encoding="UTF-8"?>
<svg id="Calque_2" data-name="Calque 2" xmlns="http://www.w3.org/2000/svg" viewBox="0 0 402.97 248.73">
  <defs>
    <style>
      .cls-1 {
        fill: #fff;
      }
    </style>
  </defs>
  <g id="Calque_1-2" data-name="Calque 1">
    <path class="cls-1" d="M372.64,10.07c-1.91.18-3.81.5-5.67.97-10.04,2.5-22.57,9.14-29.44,16.98-6.26,7.14-11.59,14.34-16.98,22.26-12.56,18.46-23.86,37-35.53,56.07l-25.88,42.3-16.79,26.32-10.41,14.67-8.16,9.85-14.5,14.44-15.21,11.41-19.6,10.29c-14.66,6.28-29.92,10.1-45.87,11.75l-19.71,1.12c-19.91,1.13-39.43-2.16-58.32-8.41l-9.6-3.71c-7.73-2.99-14.66-7.25-20.96-12.75-4.73-4.14-8.67-9.28-11.81-14.68-8.2-14.12-7.41-36.08.09-48.65l7.95-13.32,1.02.03.2,12.81c.22,14.08,9,31.12,19.27,41.66,20.42,20.96,55.6,33.7,84.73,33.94,21.16.17,43.92-8.08,49.38-29.38,4-15.6-1.53-29.56-14.68-38.56-14.68-10.04-30.83-13.42-47.32-18.52l-41.31-12.78c-9.85-3.05-18.86-7.27-28.04-11.92-6.09-3.08-11.67-6.95-16.93-11.22C3.93,97.88-4.09,74.83,2.02,51.44,8.99,24.8,31.74,9.91,57.76,3.84,67.11,1.65,76.44-.01,86.24,0l71.22.1c10.75.01,20.96,1.92,31.01,5.16,8.52,2.75,18.97,10.32,24.06,17.33l11.21,15.44,21.77,33.05,24.71,37.91,3.52,5.47s33.72-53.8,33.72-53.8c12.41-17.94,24.18-39.57,42.95-51.57,2.75-1.76,5.65-3.26,8.7-4.43,7.5-2.88,15.67-3.63,23.7-3.41,4.09.11,8.3.51,11.92,2.41,6.05,3.19,8.18,9.33,8.24,15.76-2.89-.69-5.06-3.48-7.66-4.86-2.82-1.49-5.81-2.63-8.9-3.42-4.48-1.14-9.16-1.52-13.76-1.09ZM190.32,218.39l-5.51,6.89c8.21-4.3,14.55-9.48,21.52-15.07,9.77-9.06,18.9-18.27,26.16-29.45l14.48-22.32-17.87-27.03-6.26-9.47-21.17-31.32c-9.01-13.33-17.85-26.11-27.95-38.6-5.46-6.75-11.29-12.59-17.75-18.34-16.33-14.55-35.91-23.68-57.52-27.08-16.91-2.66-40.21-.87-52.81,10.01-8.73,7.54-12.88,18.13-11.27,29.73,1.34,9.7,6.82,17.95,14.68,23.75,4.26,3.14,8.73,6.36,13.7,8.25l18.79,7.14,24.53,7.59,42.09,13.45,16.48,7.1c7.1,3.06,13.31,7.79,19.14,12.92,26.83,23.59,26.96,63.64,6.53,91.85Z"/>
  </g>
</svg>