<?xml version="1.0" encoding="UTF-8"?>
<svg id="Calque_2" data-name="Calque 2" xmlns="http://www.w3.org/2000/svg" viewBox="0 0 343.91 180.11">
  <defs>
    <style>
      .cls-1 {
        fill: #fff;
      }
    </style>
  </defs>
  <g id="Calque_1-2" data-name="Calque 1">
    <g>
      <path class="cls-1" d="M142.96,179.75l-127.3.32c-8.33-.78-15.24-6.53-15.27-15.16l-.2-52.63,122.76-.07c3.25,0,5.35-3.41,5.37-5.55.03-3.25-2.17-6.07-5.81-6.08l-83.11-.27c-16.45-.05-29.62-10.36-35.27-25.32C-1.72,59.49-1.88,32.13,7.04,17.77,13.68,7.09,25.7.22,38.91.2L154.2.03c15.13.61,25.16,11.65,25.21,26.42l.14,40.61-131.66-.02c-3.41,0-5.47,3.08-5.59,5.47-.16,3.22,2.11,6.1,5.88,6.11l92.26.23c18.08.05,32.54,11.9,36.9,29.21,3.2,12.69,3.11,25.69,1.21,38.71-.99,6.83-3.39,13.23-7.67,18.89-6.24,8.25-16.39,14.07-27.92,14.1Z"/>
      <path class="cls-1" d="M343.82,61.67c-.04,25.71-17.08,44.73-43.36,45.16v73.28s-67.6-.02-67.6-.02l.03-73.21c-12.56-.33-23.86-4.67-32.13-13.66-7.53-8.62-10.58-19.05-11.46-30.55l-.08-62.6,50.26.26c12.64.07,21.41,10.02,22.85,22.26l.04,64.23c0,2.74,1.82,4.93,4.12,5.33,1.72.3,5.65-1.57,5.66-4.05l.14-64.82c.63-12.69,10.32-23,23.33-23.06l48.3-.22-.09,61.67Z"/>
    </g>
  </g>
</svg>