<?xml version="1.0" encoding="UTF-8"?>
<svg id="Calque_2" data-name="Calque 2" xmlns="http://www.w3.org/2000/svg" viewBox="0 0 175.48 210.41">
  <defs>
    <style>
      .cls-1 {
        fill: #fff;
      }
    </style>
  </defs>
  <g id="Calque_1-2" data-name="Calque 1">
    <path class="cls-1" d="M175.39,87.78c-1.26-24.41-10.76-46.99-28.6-63.59C112.23-7.96,59.35-7.84,24.93,23.23c-8.04,7.26-14.3,15.65-18.48,25.57C2.82,57.44,0,66.25,0,75.83l.1,111.24c.01,13.17,12.47,23.17,24.7,23.26l9.94.08c13.2.1,24.98-7.62,30.02-19.91,2.72-6.64,7.15-11.93,14.69-14.16,10.53-3.11,21.27,2.47,25.14,12.49,2.62,6.8,6.47,12.29,12.62,16.35,4.28,2.82,9.23,5.08,14.61,5.06l28.63-.08c9.27-.03,15.04-8.01,15.03-16.82l-.09-105.55ZM94.8,166.54c-10.12,4.7-21.6,1.37-28.32-7.05-3.38-4.23-5.59-9.34-5.58-15.05l.15-76.1c.03-13.44,11.34-24.29,24.48-24.2,12.97.09,22.2,10.16,23.87,22.68l.06,74.91c0,10.47-4.65,20.17-14.66,24.82Z"/>
  </g>
</svg>