<?xml version="1.0" encoding="UTF-8"?>
<svg id="Calque_2" data-name="Calque 2" xmlns="http://www.w3.org/2000/svg" viewBox="0 0 762.38 210.83">
  <defs>
    <style>
      .cls-1 {
        fill: #fff;
      }
    </style>
  </defs>
  <g id="Calque_1-2" data-name="Calque 1">
    <g>
      <g>
        <path class="cls-1" d="M65.77,64.15c-7.43,0-13.41,4.83-15.69,11.09-1.85,5.07-1.12,10.32,2.13,14.88,2.47,3.47,7.07,6.97,12.61,6.99l86.19.22c13.88.03,26.74,6.12,36.83,15.43,24.76,22.84,23.79,62.79-3.27,85.26-10.27,8.53-23.08,12.78-36.54,12.78l-48.86.03-35.36-1.01c-10.49-.3-20.56-2.51-30.38-6.08-13.82-5.02-26.22-14.72-31.04-28.72-3.62-10.5-.62-22.26,7.94-29.37,7.01-5.83,16.49-7.34,24.87-4.06l9.34,3.66c12.15,4.76,25.05,6.49,38.13,7.19l16.52.89h37.13c4.61.02,8.5-2.79,11.26-6.14,3.86-4.68,4.5-10.96,1.76-16.66-2.21-4.58-7.04-8.76-13.19-8.78l-82.41-.35c-13.84-.06-26.7-7.12-36.16-16.56C-2.29,84.99-5.24,53.71,8.35,29.96,18.03,13.03,35.75.74,55.85.71l167.76-.29c6.45-.01,11.99.49,17.53,3.26,12.49,6.26,19.56,18.58,19.63,32.51l.18,32.35c.96,15.88,15.17,28.03,30.87,26.67,14.56-1.26,25.69-13.59,25.81-28.02l.26-32.6c.14-17.6,15.55-33.94,31.82-33.99l63.27-.21c18.2-.06,32.76,12.9,38.51,29.66,2.21,6.44,3.21,12.91,4.41,19.66l4.86,27.38c1.2,6.78,3.89,12.96,7.72,18.55,3.34,4.87,8.7,8.3,14.76,7.95,10.36-.59,16.93-13.07,19.16-22.92l9.01-39.86,2.5-9.86c4.44-17.49,22.08-33.27,42.52-30.67,7.29.93,13.36,4.58,18.16,9.97,6.13,6.87,8,15.33,8,24.6v86.06s-.05,19.13-.05,19.13l-.03,8.3-.04,32.48c-.02,15.87-12.44,28.97-28.34,29.83l-14.51-.05c-15.65-1.14-29.62-13.9-29.71-30.14l-.35-65.18c-.15-.72-.82-1.7-.8-1.04-4.66,9.2-10.1,16.6-18.06,22.3-12.89,9.22-26.75-9.88-33.42-22.94l-.89.28-.2,66.8c-.05,16.27-13.49,29.17-29.31,29.99l-13.28.05c-15.72.06-29.39-14.53-29.38-31.44l.03-90.03.02-20.04-.07-24.77c-.04-15.06,5.92-29.25,18.27-38.15.84-.61.85-.92-.05-.84-15.06,7.48-21.81,19.02-21.91,35.56l-.14,24.14c-.08,14.74-14.14,28.86-26.84,36.09l-19.83,11.29c-6.01,3.42-11.64,9.93-11.69,17.23l-.43,58.17c-.09,12.23-10.13,22.67-22.19,22.66l-20.56-.02c-12.12,0-22.15-10.63-22.18-23l-.12-55.63c-.02-8.76-4.73-15.84-12.17-20.08l-13.58-7.74c-6.53-3.72-12.59-7.68-18.22-12.77-7.71-6.96-13.63-16.53-13.75-27.09l-.3-26.68c-.16-14.25-8.84-27.52-22.52-32.45,9.9,7.98,17.77,18.15,17.87,31.17l.32,41.2c-12.2-8.32-27.36-13.3-42.1-13.31l-86.32-.05Z"/>
        <path class="cls-1" d="M666.35,176.76c-7.55,2.23-11.97,7.52-14.69,14.16-5.04,12.29-16.82,20.02-30.02,19.91l-9.94-.08c-12.23-.09-24.69-10.09-24.7-23.26l-.1-111.24c0-9.58,2.82-18.39,6.45-27.03,4.18-9.92,10.44-18.32,18.48-25.57,34.41-31.07,87.3-31.19,121.85.96,17.84,16.6,27.34,39.18,28.6,63.59l.09,105.55c0,8.81-5.77,16.79-15.03,16.82l-28.63.08c-5.37.02-10.33-2.24-14.61-5.06-6.15-4.06-10-9.55-12.62-16.35-3.87-10.02-14.61-15.6-25.14-12.49ZM681.7,166.96c10.01-4.65,14.67-14.34,14.66-24.82l-.06-74.91c-1.67-12.52-10.91-22.59-23.87-22.68-13.14-.09-24.45,10.76-24.48,24.2l-.15,76.1c-.01,5.71,2.2,10.83,5.58,15.06,6.73,8.42,18.2,11.75,28.32,7.05ZM752.23,187.87l.05-46.82-.05-21.38c0-3-1.96-6.49-4.18-8.13-3.94-2.9-8.3-3.36-12.68-1.31-3.35,1.57-6.63,5.2-6.63,9.98l-.03,66.63c0,6.8,5.56,11.57,11.61,11.71,5.55.13,11.9-3.93,11.91-10.68Z"/>
      </g>
      <g>
        <path class="cls-1" d="M739.23,126.66c-.44-.19-.79-.46-1.05-.81-.26-.36-.39-.77-.4-1.26h1.7c.02.32.14.58.35.77s.49.28.85.28.66-.09.87-.27c.21-.18.32-.41.32-.7,0-.23-.07-.43-.22-.58-.14-.15-.32-.27-.54-.36-.22-.09-.51-.18-.89-.29-.51-.15-.93-.3-1.25-.45-.32-.15-.6-.37-.83-.67-.23-.3-.35-.7-.35-1.19,0-.47.12-.88.35-1.22.23-.35.56-.61.99-.8.42-.18.91-.28,1.45-.28.81,0,1.48.2,1.99.59.51.4.79.95.84,1.66h-1.74c-.02-.27-.13-.5-.35-.67-.21-.18-.5-.27-.85-.27-.31,0-.56.08-.74.24-.18.16-.28.39-.28.69,0,.21.07.39.21.53s.31.25.52.34.5.19.88.3c.51.15.93.3,1.26.45.32.15.6.38.84.68.23.3.35.7.35,1.19,0,.42-.11.82-.33,1.18-.22.36-.54.65-.96.87-.42.21-.92.32-1.51.32-.55,0-1.05-.09-1.49-.28Z"/>
        <path class="cls-1" d="M743.55,131.41v1.28h-2.11v6.62h-1.58v-6.62h-2.11v-1.28h5.8Z"/>
        <path class="cls-1" d="M739.06,143.87v4.89c0,.54.14.95.42,1.23s.67.42,1.18.42.91-.14,1.19-.42.42-.69.42-1.23v-4.89h1.6v4.88c0,.67-.15,1.24-.44,1.7-.29.46-.68.81-1.17,1.05-.49.23-1.03.35-1.62.35s-1.12-.12-1.6-.35c-.48-.23-.86-.58-1.14-1.05-.28-.46-.42-1.03-.42-1.7v-4.88h1.58Z"/>
        <path class="cls-1" d="M742.33,156.81c.63.32,1.12.79,1.46,1.39.34.6.52,1.3.52,2.09s-.17,1.49-.52,2.08-.83,1.05-1.46,1.38c-.63.33-1.36.49-2.19.49h-2.76v-7.9h2.76c.83,0,1.56.16,2.19.49ZM742.01,162.2c.45-.45.68-1.09.68-1.91s-.23-1.47-.68-1.93c-.45-.46-1.09-.7-1.92-.7h-1.12v5.22h1.12c.83,0,1.47-.23,1.92-.68Z"/>
        <path class="cls-1" d="M741.45,168.78v7.9h-1.58v-7.9h1.58Z"/>
        <path class="cls-1" d="M738.63,188.69c-.62-.35-1.11-.83-1.47-1.44s-.54-1.31-.54-2.09.18-1.46.54-2.08.85-1.1,1.47-1.44c.62-.35,1.3-.52,2.04-.52s1.43.17,2.04.52c.62.35,1.1.83,1.46,1.44s.54,1.31.54,2.08-.18,1.47-.54,2.09-.85,1.1-1.47,1.44c-.62.35-1.3.52-2.04.52s-1.42-.17-2.04-.52ZM741.92,187.47c.36-.21.65-.52.85-.92.2-.4.31-.86.31-1.39s-.1-.99-.31-1.39-.49-.7-.85-.91-.78-.32-1.26-.32-.9.11-1.26.32-.65.51-.86.91c-.2.4-.31.86-.31,1.39s.1.99.31,1.39c.2.4.49.71.86.92.37.22.79.32,1.26.32s.89-.11,1.26-.32Z"/>
      </g>
    </g>
  </g>
</svg>