<?xml version="1.0" encoding="UTF-8"?>
<svg id="Calque_2" data-name="Calque 2" xmlns="http://www.w3.org/2000/svg" viewBox="0 0 752.45 294.69">
  <defs>
    <style>
      .cls-1 {
        fill: #fff;
      }
    </style>
  </defs>
  <g id="Calque_1-2" data-name="Calque 1">
    <g>
      <g>
        <path class="cls-1" d="M499.79,15.96c-16.82,15.19-25.05,42.55-25.07,65.28l-.12,157.87-27.19.05-.07-162.58c-.01-27.79-13.39-65.58-42.33-69.99-9.16-1.4-18.55,1.18-25.73,7.03-13.57,11.05-17.62,31.14-17.88,48.87l-.04,176.65-26.82.04.05-100.58.05-69.99c.02-25.13,15.56-48.53,37.43-60.49,24.2-13.24,53.14-9.32,72.97,9.98,6.6,6.68,11.77,14.11,16.48,22.93l10.1-12.84c7.3-9.28,17.1-15.94,27.65-21.21,21.21-10.6,46.84-8.9,64.67,7.35,15.08,13.75,22.21,32.09,23.66,52.72l.02,172.05-26.67.07V58.74c-.55-15.26-3.17-30.29-12.89-41.79-12.37-14.64-33.69-14.15-48.26-.99Z"/>
        <path class="cls-1" d="M133.75,248.27l-16.99.04c-27.92.07-64.2-8.05-88.22-22.96-12.5-7.76-23.21-19.2-27.11-33.49-6.13-22.46,8.08-41.68,28.79-51.27l18.03-6.42-.89,1.76c-18.48,15.74-23.8,40.02-12.09,61.67,17.08,31.58,59.58,47.46,94.85,46.2,22.91-.82,44.54-7.84,62.81-21.37,21.81-16.14,37.29-40.48,46.23-65.89l10.79-36.78c-21.14.91-35.44-12.44-45.18-30.22l-11.88-24.65-16.78-34.48-7.35-12.09c-5.05-8.3-12.57-13.23-21.71-17.68h22c3.71-.02,7.95.91,11.47,2.01,9.23,2.9,16.13,9.11,20.26,17.87l27.08,57.48,5.76,11.45c5.61,11.15,14.51,23.64,27.17,23.02,23.21-1.13,32.8-42.67,35.05-64.15l2.36-22.56c.94-9,5.86-16.82,14.03-20.81,4.59-2.25,9.96-4.06,15.15-4.12l22.85-.29,1.4.17c-6.02,3.46-11.87,6.65-15.65,12.48l-11.02,16.99-14.79,25.65-16.34,30.33c-6.44,11.96-11.82,24.11-15.79,37.12l-2.92,9.56c-3.67,12.04-6.58,24.06-11.98,35.41l-6.03,12.69c-16.63,34.98-49.93,55.24-87.43,63.03-11.89,2.47-23.45,4.3-35.93,4.33Z"/>
        <path class="cls-1" d="M596.58,192.57l.99-9.02c3.02-27.56,18.82-50.21,45.13-59.6,9.46-3.38,19.28-5.16,29.43-5.41l23.17-.57-14.91-62.15-5.8-21.47c-1.57-5.8-4.14-11.1-7.14-16.31-1.62-2.8-4.17-5.43-6.81-7.2-7.14-4.8-15.38.31-21.04,7.34-5.51,6.85-10.25,14.04-13.6,22.26l-16.44,40.33-.5,1.41c-.08.21-.54-.25-.75-.52l2.17-11.19c2.44-12.55,5.51-24.51,10.22-36.35,3.2-8.04,7.71-15.2,13.16-21.64,7.23-8.54,17.11-12.41,28.18-12.32,12.63.1,23.96,4.82,31.97,14.75,5.37,6.65,9.15,14.42,11.22,22.85l6.6,26.86,18.88,80.48,11.97,51.08,9.77,42.93-29.11.06-20.06-86.4-6.6-27.94c-28-4.66-49.12,9.26-64.99,31.62-9.12,12.86-16.03,26.53-21.89,41.21l-13.53,41.57-.17-21.36.48-25.29Z"/>
        <path class="cls-1" d="M96.8,97.7l25.16,12.57c9.64,4.82,18.36,10.66,26.49,17.7,7.46,6.46,13.42,13.93,17.59,22.8,12.92,27.51,1.76,59.73-24.1,75.03,11.74-16.75,14.73-35.32,6.23-53.79-6.17-12.57-20.21-25.06-32.4-31.55l-18.79-10-36.06-17.59c-13.23-6.45-28.44-17.32-36.6-29.4-14.82-21.95-12.69-50.51,7.36-67.5C47.25,2.77,68.59-.33,88.92.03c9.8.17,19.17,1.44,28.42,4.45,13.41,4.37,25.82,14.42,23.52,28.37l-3.5,21.19-3.43,16.63c-1.32-8.5-1.93-15.62-3.98-23.5-4.6-17.68-14.87-33.03-32.08-39.72-14.09-5.47-29.26-5.65-42.92.55-12,5.45-19.67,16.35-20.46,29.49-1.94,32.37,36.81,47.46,62.31,60.2Z"/>
      </g>
      <g>
        <path class="cls-1" d="M245.83,293.88c-1.2-.54-2.14-1.29-2.83-2.25-.68-.96-1.04-2.07-1.06-3.32h3.21c.11,1.08.56,1.99,1.34,2.73.78.74,1.92,1.11,3.42,1.11s2.56-.36,3.39-1.07c.83-.72,1.24-1.64,1.24-2.76,0-.88-.24-1.6-.73-2.15-.49-.55-1.09-.97-1.82-1.26-.73-.29-1.71-.6-2.94-.93-1.52-.4-2.74-.79-3.65-1.19-.92-.4-1.7-1.02-2.35-1.87-.65-.85-.98-1.99-.98-3.42,0-1.26.32-2.37.96-3.34.64-.97,1.54-1.72,2.7-2.25s2.49-.79,3.98-.79c2.16,0,3.93.54,5.31,1.62,1.38,1.08,2.15,2.51,2.33,4.3h-3.31c-.11-.88-.57-1.66-1.39-2.33-.82-.67-1.9-1.01-3.24-1.01-1.26,0-2.28.33-3.08.98-.79.65-1.19,1.56-1.19,2.73,0,.84.24,1.52.71,2.05.47.53,1.06.93,1.75,1.21.69.28,1.67.59,2.93.94,1.52.42,2.74.83,3.67,1.24.93.41,1.72,1.04,2.38,1.89.66.85.99,2,.99,3.46,0,1.12-.3,2.18-.89,3.17s-1.48,1.8-2.65,2.41c-1.17.62-2.55.93-4.13.93s-2.88-.27-4.08-.81Z"/>
        <path class="cls-1" d="M305.97,271.41v2.45h-6.28v20.6h-3.01v-20.6h-6.32v-2.45h15.61Z"/>
        <path class="cls-1" d="M342.38,271.41v14.58c0,2.05.5,3.57,1.5,4.56,1,.99,2.4,1.49,4.18,1.49s3.15-.5,4.15-1.49c1-.99,1.5-2.51,1.5-4.56v-14.58h3.01v14.55c0,1.92-.39,3.53-1.16,4.84-.77,1.31-1.81,2.29-3.12,2.93-1.31.64-2.78.96-4.42.96s-3.1-.32-4.42-.96c-1.31-.64-2.35-1.61-3.11-2.93-.76-1.31-1.14-2.93-1.14-4.84v-14.55h3.01Z"/>
        <path class="cls-1" d="M405.23,272.81c1.84.94,3.25,2.28,4.23,4.02.98,1.74,1.47,3.79,1.47,6.15s-.49,4.4-1.47,6.13c-.98,1.73-2.39,3.05-4.23,3.97-1.84.92-4.02,1.37-6.53,1.37h-7.18v-23.05h7.18c2.51,0,4.69.47,6.53,1.41ZM405.51,289.61c1.57-1.58,2.35-3.79,2.35-6.63s-.79-5.1-2.36-6.71c-1.58-1.61-3.84-2.41-6.8-2.41h-4.17v18.12h4.17c2.98,0,5.25-.79,6.81-2.36Z"/>
        <path class="cls-1" d="M447.67,271.41v23.05h-3.01v-23.05h3.01Z"/>
        <path class="cls-1" d="M487.16,293.18c-1.76-1-3.16-2.4-4.18-4.2-1.03-1.8-1.54-3.82-1.54-6.07s.51-4.27,1.54-6.07c1.02-1.8,2.42-3.2,4.18-4.2,1.76-1,3.71-1.5,5.85-1.5s4.12.5,5.89,1.5c1.76,1,3.15,2.4,4.17,4.18,1.01,1.79,1.52,3.81,1.52,6.08s-.51,4.3-1.52,6.08c-1.01,1.79-2.4,3.18-4.17,4.18-1.76,1-3.73,1.5-5.89,1.5s-4.09-.5-5.85-1.5ZM497.36,290.95c1.29-.75,2.3-1.82,3.04-3.21.74-1.39,1.11-3,1.11-4.83s-.37-3.47-1.11-4.84c-.74-1.38-1.75-2.44-3.03-3.19-1.28-.75-2.73-1.12-4.37-1.12s-3.09.38-4.37,1.12c-1.28.75-2.29,1.81-3.03,3.19-.74,1.38-1.11,2.99-1.11,4.84s.37,3.44,1.11,4.83c.74,1.39,1.75,2.46,3.04,3.21,1.29.75,2.74,1.12,4.35,1.12s3.06-.37,4.35-1.12Z"/>
      </g>
    </g>
  </g>
</svg>