<?xml version="1.0" encoding="UTF-8"?>
<svg id="Calque_2" data-name="Calque 2" xmlns="http://www.w3.org/2000/svg" viewBox="0 0 759.54 250.14">
  <defs>
    <style>
      .cls-1 {
        fill: #fff;
      }
    </style>
  </defs>
  <g id="Calque_1-2" data-name="Calque 1">
    <g>
      <path class="cls-1" d="M483.08,243.48c-24.54-6.16-42.2-27.14-41.19-52.84.28-6.98.66-13.92,3.55-20.21l10.82-23.57,22.7-42.23,10.28-21.1,5.12-14.48c2.65-7.49,2.14-21.03-5.39-24.21-3.05-1.29-7.19-.78-9.9,1.03-3.62,2.41-7.29,4.88-9.75,8.32l-11.13,15.53-4.93,8.38-11.47,23.9-19.23,44.92-14.2,33.54c-5.47,12.93-12.21,24.76-20.03,36.38-11.34,16.85-25.37,26.83-45.82,28.77-21.25,2.01-40.5-9.54-48.58-29.19-8.85-21.52-2.47-45.72,8.38-66.03,7.58-14.21,15.99-27.34,25.09-40.65l23.54-34.46,9.25-15.9c5.9-10.13,8.25-26.02,1.34-35.75-3.11-4.38-8.44-5.77-13.3-3.46-3.92,1.86-7.73,4.71-10.66,8.05-6.26,7.14-11.59,14.34-16.98,22.26-12.56,18.46-23.86,37-35.53,56.07l-25.88,42.3-16.79,26.32-10.41,14.67-8.16,9.85-14.5,14.44-15.21,11.41-19.6,10.29c-14.66,6.28-29.92,10.1-45.87,11.75l-19.71,1.12c-19.91,1.13-39.43-2.16-58.32-8.41l-9.6-3.71c-7.73-2.99-14.66-7.25-20.96-12.75-4.73-4.14-8.67-9.28-11.81-14.68-8.2-14.12-7.41-36.08.09-48.65l7.95-13.32,1.02.03.2,12.81c.22,14.08,9,31.12,19.27,41.66,20.42,20.96,55.6,33.7,84.73,33.94,21.16.17,43.92-8.08,49.38-29.38,4-15.6-1.53-29.56-14.68-38.56-14.68-10.04-30.83-13.42-47.32-18.52l-41.31-12.78c-9.85-3.05-18.86-7.27-28.04-11.92-6.09-3.08-11.67-6.95-16.93-11.22C3.93,98.09-4.09,75.05,2.02,51.66,8.99,25.01,31.74,10.13,57.76,4.05,67.11,1.87,76.44.2,86.24.22l71.22.1c10.75.01,20.96,1.92,31.01,5.16,8.52,2.75,18.97,10.32,24.06,17.33l11.21,15.44,21.77,33.05,24.71,37.91,3.52,5.47,33.72-53.8,19.56-28.27c5.22-7.54,11.6-13.88,18.54-19.8,11.96-10.19,27.59-14.66,42.94-10.86,17.34,4.3,28.8,19.54,28.04,37.46-.25,5.82-1.15,11.43-3.11,16.93-2.98,8.35-6.82,16.07-11.81,23.36l-10.84,15.82-7.5,10.62-24.74,37.14c-13.87,20.83-40.52,75.93-10.92,85.25,11.91,3.75,24.37-1.94,32.8-10.97,14-15.01,24.92-42.49,33.15-62.54l8.19-19.97,7.95-18.7,11.04-24.94,12.54-24.27,9.67-13.82c6.65-9.5,19.54-18.85,31.56-20.94,9.86-1.71,20.09.16,27.84,6.61,6,4.99,10.2,11.81,11.92,19.34l6.57,28.75,13.12,62.85.72,1.4,2.89-10.53,5.7-20.21,20.6-65.41,11.35-26.26c3.05-7.05,7.27-13.24,12.42-18.95,3.82-4.24,8.75-7.78,14.54-8.94,15.51-3.11,31.72.96,44.03,10.76,5.88,4.68,9.5,10.78,12.5,17.39l3.41,7.5,14.6,35.46,3.78,9.58,7.59,18.98,2.26,5.65,12.36,30.82,35.06,86.23.57,1.4c.14.35-1.03.8-1.48.79l-14.24-.3c-15.92-.34-33.67-10.65-42.89-25.19l-5.48-8.65-9.42-15.63c-6.46-10.71-13.15-20.89-21.24-30.44l-8.02-7.7c-5.11-4.91-15.78-7.3-23.28-4.29-6.05,2.43-11.32,6.46-14.59,12.01l-11.63,19.74-6.34,12.46-17.48,31.05-9.91,12.08c-18.32,19.79-43.37,25.37-70.06,25.3-6.48-.02-12.97-.98-19.22-2.55ZM190.32,218.61l-5.51,6.89c8.21-4.3,14.55-9.48,21.52-15.07,9.77-9.06,18.9-18.27,26.16-29.45l14.48-22.32-17.87-27.03-6.26-9.47-21.17-31.32c-9.01-13.33-17.85-26.11-27.95-38.6-5.46-6.75-11.29-12.59-17.75-18.34-16.33-14.55-35.91-23.68-57.52-27.08-16.91-2.66-40.21-.87-52.81,10.01-8.73,7.54-12.88,18.13-11.27,29.73,1.34,9.7,6.82,17.95,14.68,23.75,4.26,3.14,8.73,6.36,13.7,8.25l18.79,7.14,24.53,7.59,42.09,13.45,16.48,7.1c7.1,3.06,13.31,7.79,19.14,12.92,26.83,23.59,26.96,63.64,6.53,91.85ZM664.26,137.62l12.22,15.21,7.37,10.64c1.28,1.85,2.16,3.6,4.04,5.49l-21.99-62.63-13.04-37.16-8.58-25.06-6.68-20.04c-2.53-7.58-5.92-17.09-13.07-17.34-8.39-.29-15.46,8.3-19.91,15.95-6.29,10.79-11.45,21.92-15.58,33.76l-6.09,17.47-15.54,50.96-8.75,34.63c4.69-8.24,8.75-15.94,14.91-22.98,12.55-14.34,30.43-19.74,49.41-18.34,15.08,1.11,32.11,8.02,41.29,19.44ZM508.38,236.33c11.59-3.53,21.16-14.04,26.41-24.23l8.25-15.99,9.68-23.61-2.37-13.3-11.07-50.82-4.84-22.41-6.46,17.59-13.62,27-12.99,23.84-10.15,19.71c-8.33,16.17-13.58,39.03-3.98,54.28,4.49,7.14,12.64,10.53,21.16,7.94Z"/>
      <g>
        <path class="cls-1" d="M637.53,249.61c-.78-.35-1.39-.84-1.83-1.46-.44-.62-.67-1.34-.69-2.15h2.08c.07.7.36,1.29.87,1.77s1.25.72,2.22.72,1.66-.23,2.19-.7.8-1.06.8-1.79c0-.57-.16-1.03-.47-1.39s-.71-.63-1.18-.81-1.11-.39-1.91-.6c-.99-.26-1.77-.51-2.37-.77-.59-.26-1.1-.66-1.52-1.21-.42-.55-.63-1.29-.63-2.22,0-.81.21-1.53.62-2.16.41-.63,1-1.11,1.74-1.46s1.61-.51,2.58-.51c1.4,0,2.54.35,3.44,1.05.89.7,1.4,1.63,1.51,2.78h-2.14c-.07-.57-.37-1.07-.9-1.51-.53-.44-1.23-.65-2.1-.65-.81,0-1.48.21-1.99.63-.51.42-.77,1.01-.77,1.77,0,.54.15.98.46,1.33.31.34.69.6,1.13.78.45.18,1.08.38,1.89.61.99.27,1.78.54,2.38.8.6.26,1.11.67,1.54,1.22.43.55.64,1.3.64,2.24,0,.73-.19,1.41-.58,2.06-.39.64-.96,1.16-1.71,1.56-.76.4-1.65.6-2.68.6s-1.87-.17-2.64-.52Z"/>
        <path class="cls-1" d="M667.36,235.07v1.58h-4.07v13.34h-1.95v-13.34h-4.09v-1.58h10.1Z"/>
        <path class="cls-1" d="M681.83,235.07v9.44c0,1.33.32,2.31.97,2.95s1.55.96,2.71.96,2.04-.32,2.69-.96c.65-.64.97-1.63.97-2.95v-9.44h1.95v9.42c0,1.24-.25,2.29-.75,3.14-.5.85-1.17,1.48-2.02,1.89-.85.41-1.8.62-2.86.62s-2.01-.21-2.86-.62c-.85-.41-1.52-1.05-2.01-1.89-.49-.85-.74-1.89-.74-3.14v-9.42h1.95Z"/>
        <path class="cls-1" d="M713.42,235.98c1.19.61,2.1,1.47,2.74,2.6.64,1.13.95,2.46.95,3.98s-.32,2.85-.95,3.97-1.55,1.98-2.74,2.57c-1.19.59-2.6.89-4.23.89h-4.65v-14.92h4.65c1.63,0,3.04.3,4.23.91ZM713.6,246.85c1.01-1.02,1.52-2.45,1.52-4.29s-.51-3.3-1.53-4.35c-1.02-1.04-2.49-1.56-4.4-1.56h-2.7v11.73h2.7c1.93,0,3.4-.51,4.41-1.53Z"/>
        <path class="cls-1" d="M731.8,235.07v14.92h-1.95v-14.92h1.95Z"/>
        <path class="cls-1" d="M748.26,249.16c-1.14-.65-2.04-1.56-2.71-2.72-.66-1.16-1-2.47-1-3.93s.33-2.77,1-3.93c.66-1.16,1.57-2.07,2.71-2.72,1.14-.65,2.4-.97,3.79-.97s2.67.32,3.81.97c1.14.65,2.04,1.55,2.7,2.71.66,1.16.98,2.47.98,3.94s-.33,2.78-.98,3.94c-.66,1.16-1.56,2.06-2.7,2.71-1.14.65-2.41.97-3.81.97s-2.65-.32-3.79-.97ZM754.87,247.72c.84-.48,1.49-1.18,1.97-2.08.48-.9.72-1.94.72-3.13s-.24-2.24-.72-3.14c-.48-.89-1.13-1.58-1.96-2.07-.83-.48-1.77-.73-2.83-.73s-2,.24-2.83.73c-.83.49-1.48,1.17-1.96,2.07-.48.89-.72,1.94-.72,3.14s.24,2.23.72,3.13c.48.9,1.13,1.59,1.97,2.08.84.49,1.77.73,2.82.73s1.98-.24,2.81-.73Z"/>
      </g>
    </g>
  </g>
</svg>