<?xml version="1.0" encoding="UTF-8"?>
<svg id="Calque_2" data-name="Calque 2" xmlns="http://www.w3.org/2000/svg" viewBox="0 0 722.34 224.86">
  <g id="Calque_1-2" data-name="Calque 1">
    <g>
      <g>
        <path d="M252.4,22.18c-1.17-.53-2.09-1.26-2.75-2.19-.67-.93-1.01-2.01-1.03-3.24h3.13c.11,1.05.54,1.94,1.3,2.66.76.72,1.87,1.08,3.33,1.08s2.5-.35,3.3-1.05c.8-.7,1.21-1.59,1.21-2.69,0-.86-.24-1.56-.71-2.09-.47-.54-1.06-.94-1.77-1.22-.71-.28-1.67-.58-2.87-.9-1.48-.39-2.67-.77-3.56-1.16-.89-.39-1.65-.99-2.29-1.82-.63-.83-.95-1.94-.95-3.33,0-1.22.31-2.31.93-3.25s1.5-1.68,2.63-2.19c1.13-.52,2.42-.77,3.88-.77,2.1,0,3.83.53,5.17,1.58,1.34,1.05,2.1,2.45,2.27,4.19h-3.22c-.11-.86-.56-1.62-1.35-2.27-.79-.65-1.85-.98-3.16-.98-1.22,0-2.22.32-3,.95-.77.63-1.16,1.52-1.16,2.66,0,.82.23,1.48.69,2s1.03.91,1.71,1.18c.68.27,1.63.58,2.85.92,1.48.41,2.67.81,3.58,1.21s1.67,1.01,2.32,1.84c.64.83.97,1.95.97,3.37,0,1.09-.29,2.13-.87,3.09s-1.44,1.75-2.58,2.35c-1.14.6-2.48.9-4.03.9s-2.81-.26-3.98-.79Z"/>
        <path d="M301.32.29v2.38h-6.12v20.07h-2.93V2.67h-6.15V.29h15.21Z"/>
        <path d="M327.12.29v14.21c0,2,.49,3.48,1.47,4.45s2.34,1.45,4.08,1.45,3.07-.48,4.04-1.45,1.47-2.45,1.47-4.45V.29h2.93v14.17c0,1.87-.38,3.44-1.13,4.72-.75,1.28-1.77,2.23-3.04,2.85-1.28.62-2.71.93-4.3.93s-3.02-.31-4.3-.93c-1.28-.62-2.29-1.57-3.03-2.85-.74-1.28-1.11-2.85-1.11-4.72V.29h2.93Z"/>
        <path d="M378.69,1.66c1.79.91,3.17,2.22,4.12,3.91.96,1.7,1.43,3.69,1.43,5.99s-.48,4.29-1.43,5.98c-.96,1.69-2.33,2.98-4.12,3.87-1.79.89-3.92,1.34-6.36,1.34h-6.99V.29h6.99c2.45,0,4.57.46,6.36,1.37ZM378.96,18.03c1.53-1.54,2.29-3.69,2.29-6.46s-.77-4.97-2.3-6.54c-1.54-1.57-3.74-2.35-6.62-2.35h-4.06v17.66h4.06c2.9,0,5.11-.77,6.64-2.3Z"/>
        <path d="M410.37.29v22.46h-2.93V.29h2.93Z"/>
        <path d="M439.17,21.5c-1.72-.98-3.08-2.34-4.08-4.09-1-1.75-1.5-3.72-1.5-5.91s.5-4.16,1.5-5.91c1-1.75,2.36-3.11,4.08-4.09,1.72-.98,3.62-1.47,5.7-1.47s4.02.49,5.74,1.47c1.72.98,3.07,2.34,4.06,4.08.99,1.74,1.48,3.72,1.48,5.93s-.49,4.19-1.48,5.93c-.99,1.74-2.34,3.1-4.06,4.08-1.72.98-3.63,1.47-5.74,1.47s-3.98-.49-5.7-1.47ZM449.11,19.33c1.26-.73,2.24-1.77,2.96-3.12.72-1.35,1.08-2.92,1.08-4.7s-.36-3.38-1.08-4.72c-.72-1.34-1.7-2.38-2.95-3.11-1.25-.73-2.66-1.1-4.25-1.1s-3.01.37-4.25,1.1c-1.25.73-2.23,1.77-2.95,3.11-.72,1.34-1.08,2.92-1.08,4.72s.36,3.35,1.08,4.7c.72,1.35,1.71,2.4,2.96,3.12,1.26.73,2.67,1.1,4.24,1.1s2.98-.37,4.24-1.1Z"/>
      </g>
      <path d="M86.88,119.59c23.61,8.04,45.31,9.75,69.84,17.98,9.15,3.07,17.63,7.51,24.28,14.31,12.61,12.9,12.97,32.2,1.24,45.69-11.51,13.24-29.61,19.56-46.74,22.68-29.76,5.4-59.82,4.71-89.29-2.07-17.53-4.03-37.71-13.14-44.53-30.68-4.49-11.54.26-23.75,11.32-28.85,17.31-7.98,34.65.72,47.4,12.9,6.03,5.77,11.83,11.64,19.23,15.59,13.3,7.1,34.37,7.14,38.81-5.63,6.37-18.33-24.5-26.47-37.26-29.83l-31.37-8.26c-17.41-4.58-36.46-14.46-39.52-33.98-3.59-22.94,17.93-37.17,37.41-42.49,31.44-8.57,64.33-6.3,95.03,4.38l15.19,5.28c8.52,2.96,16.89,1.75,24.46-2.79,11.01-6.61,23.75-6.51,34.81-.09,21.65,12.55,32.64,39.32,55.76,38.63,8.82-.26,16.84-4.65,22.39-11.34l16.16-19.48c6.66-8.03,14.8-14.45,24.79-17.7,13.75-4.48,28.75-2.17,39.6,7.35,4.26,3.74,7.25,8.48,10.4,13.19,7.15,10.67,13.85,21.27,22.43,30.7,3.69,4.06,8.54,6.57,13.53,6.52,5.01-.05,9.97-2.36,13.3-6.56l10.73-13.53c7.21-9.08,14.04-18.07,22.94-25.59,8.9-7.52,19.4-12.8,30.9-14.23,14.44-1.8,28.43,3.32,36.4,15.44,10.02,15.24,7.26,32.37,5.61,49.73,4.15-5.53,8.49-10.21,11.43-15.88l12.14-23.39c12.36-23.8,38.79-36.48,65.33-31.17,17.37,3.47,31.7,14.59,40.06,30.28,8.91,16.72,18.34,32.31,28.06,48.61l14.53,24.36c3.93,6.59,6.68,13.57,8.02,21.01,3.07,17-4.97,33.25-20.8,40.19-20.52,9-43.42,0-53.63-19.83-3.47-6.74-7.69-12.76-14.42-16.51-12.2-6.79-27.17-5.49-38.65,2.52-5.43,3.79-9.91,8.34-14.41,13.19-10.15,10.93-22.35,18.66-37.16,21.78-19.52,4.1-39.43,3.72-58.59-1.63-7.67-2.14-14.53-5.27-20-10.77-6.3-6.33-7.66-15.43-3.03-23.14,2.12-3.52,4.98-6.7,7.99-9.67,9.92-9.77,23.52-24.45,19.56-39.41-.85-3.22-3.39-6.18-5.7-7.1-9.07-3.63-16.26,7.31-21.02,14.25l-20.78,30.27c-8.64,12.58-24.83,20.78-40.01,12-6.31-3.65-11.14-8.66-15.53-14.46l-24.69-32.63c-4.59-6.06-10.77-12.17-17.99-9.44-2.7,1.02-5.66,4.26-6.43,8.05-3.01,14.67,12.09,29.47,21.57,39.7,4.5,4.85,8.48,10.18,8.95,17.17,1.04,15.54-16.16,23.37-29.22,26.07-21.9,4.54-44.42,4.75-66.46.77-11.95-2.16-26.59-7.66-29.41-20.69-2.33-10.75,3.02-22.46,3.07-36.88.04-11.69-5.82-21.48-15.72-27.51-11.94-7.27-24.32-13.23-37.37-18.46-6.93-2.78-14.27-2.6-21.35-.81-15.59,3.95-31.08.6-43.5-9.61l-14.97-12.3c-16.73-13.75-42.69-10.65-44.95,2.37-1.88,10.82,9.96,18.08,19.84,21.45ZM631.79,148.61c10.28-7.4,13.85-20,8.24-30.78-5.79-11.12-17.62-17.13-30.05-16.09-16.71,1.39-30.75,13.04-34.53,29.42-2.46,10.67,3.53,20.73,14.08,24.13,14.02,4.52,30.03,2.13,42.27-6.68Z"/>
    </g>
  </g>
</svg>