<?xml version="1.0" encoding="UTF-8"?>
<svg id="Calque_2" data-name="Calque 2" xmlns="http://www.w3.org/2000/svg" viewBox="0 0 656.24 189.78">
  <defs>
    <style>
      .cls-1, .cls-2 {
        fill: #fff;
      }

      .cls-2 {
        font-family: Poppins-Regular, Poppins;
        font-size: 25.08px;
        letter-spacing: .6em;
      }
    </style>
  </defs>
  <g id="Calque_1-2" data-name="Calque 1">
    <g>
      <path class="cls-1" d="M598.92,50.45c-10.41,14.91-24.11,28.65-41.78,33.7-11.13,3.19-23.55.89-29.53-8.93-1.47-2.41-2.04-5.68-2.55-8.62-13.56,10.32-27.01,18.71-44.63,19.06-17.87.35-25.95-12.79-29.7-29.05l-3.42-14.81c-1.85-8.03-5.74-15.9-13.93-15.81-9.92.1-19.27,8.14-25.64,16.12-9.34,11.7-16.09,24.85-21.32,38.9-.96,2.59-2.51,4.26-5.5,4.1s-4.97-2.46-4.58-5.56c2.07-16.53,5.35-54.35-13.67-53.56-14.58.61-26.87,17.35-33.78,30.17-4.67,8.67-8.03,17.33-10.96,26.76-.58,1.86-3.7,2.54-5.28,2.31s-4.78-2.19-4.3-4.39c3.15-14.36,6.71-28.02,8.47-43.1l-26.53,20.81-34.58,26.46-9.75,7.12c-1.4,15.07-4.39,29.29-8.93,43.67-5.05,16.02-14.57,35.04-27.68,45.17-12.34,9.54-31.31,12.84-41.32,2.31-9.44-9.94-4.63-27.23,3.39-38.94,5.86-8.56,12.49-16.31,20.52-22.97l22.02-18.27,22.73-16.58,2.81-33.53.5-12.42c-10.83,16.87-24.7,33.97-43.54,41.72-12.72,5.23-27.59,4.63-36.36-5.49-3.63-4.19-6.38-9.45-7.06-14.97l-1.35-10.9c-.75-6.04.78-12,1.62-18.34-8.43,5.56-16.64,10.55-25.79,14.66-11.37,5.1-22.54,9.3-34.43,13.01l-27.34,8.54c5.75,9.3,6.31,19.86-.11,28.97-12.53,17.78-46.45,24.3-60.54,13.11-4.65-3.69-6.08-10.04-4.49-15.69,4.85-17.26,28.95-25.3,46-31.35l-10.92-6.24c-11.35-6.48-25.91-12.21-27.77-26.76C5.93,15.17,19.31,4.45,34.05,1.16c13.61-3.03,27.6-.11,38.44,8.52,2.22,1.77,2.56,4.8.81,6.88s-4.36,2.29-7.03.64l-6.39-3.94c-8.25-3.71-17.31-4.21-26.06-1.79-4.44,1.23-8.46,3.77-11.81,6.94-4.21,3.99-5.6,10.69-2.5,15.77,2.03,3.31,5.47,6.06,8.86,7.94l13.39,7.43c6.01,3.33,11.7,6.66,17.25,10.66l25.72-7.78,18.63-6.04c10.16-3.29,19.57-7.55,28.95-12.59s17.85-11.11,25.83-18.42c1.19-1.09,4.09-.83,5.32-.17,1.35.72,2.88,2.74,2.52,4.51-3.1,14.98-6.75,31.02-1.69,45.08,4.01,11.13,16.13,13.32,26.49,9.23,13.51-5.34,24.97-16.51,33.53-28.24,6.23-8.54,11.56-17.28,15.93-26.92.83-1.83,2.06-3.54,3.57-4.03,1.99-.65,4.77-.17,5.96,1.63s1.12,4.15,1.03,6.22l-1.51,34.75-1.57,20.94c14.33-10.12,27.42-20.53,40.9-31.29l20.28-16.18c2.32-1.85,5.45-3.41,8.26-4.01,4.65-1,9.36,1.9,9.35,6.61l-.02,7.89,8.67-10.87c6.77-8.49,22.23-16.77,33.63-13.53,15.57,4.71,18.4,21.31,19.22,37.03,7.35-12.57,15.31-24.09,27.18-31.86,10.33-6.76,24.1-8.68,32.56-.2,8.02,8.04,8.62,17.66,11.17,27.32l2.96,11.24c.83,3.14,2.64,6.45,4.51,9.02,7.55,10.43,24.85,6.52,36.18.27,8.58-4.74,16.35-10.64,23.12-17.74,2.03-9.91,10.31-21.82,17.73-28.42,9.02-8,19.89-13.02,31.92-14.16,11.96-1.13,24.72,3.14,35.28,8.93,1.6.88,1.58,4.3,1.3,5.91l-3.15,18.2c-.9,5.21.11,10.33,1.2,15.44,3.84,18.03,20.74,21.89,38.15,19.56,3.41-.46,6.43.92,6.65,4.27.21,3.07-1.91,5.47-5.35,5.53l-16.23.31c-9.12-.74-17.62-4.18-24.07-10.6s-9.45-16.06-9.92-25.38l-.23-1.21ZM559.06,73.34l10.09-5.76c14.26-10.44,25.66-25.89,32.55-42.83-19.61-10.21-38.88-6.69-54.37,8.65-8.61,8.61-15.74,23.19-12.37,34.54,2.92,9.85,17.78,9.02,24.1,5.41ZM34.39,105.47c6.9-1.34,13.38-4.06,18.72-8.51,8.25-6.87,9.18-16.46,2.51-25.35-9.31,2.68-18.2,5.79-27.01,9.87-7.48,3.46-15.76,8.6-18.42,16.01-.89,2.47.16,5.29,2.47,6.54,6.15,3.35,14.44,2.85,21.74,1.43ZM180.19,179.2c11.84,2.82,24.08-4.63,31.06-13.86,6.4-8.46,11-17.69,14.47-27.76,4.25-12.32,7.41-24.52,9.36-37.77l-29.53,22.74-11.96,10.87c-6.32,6.45-12.22,13.01-16.67,20.92-5.14,9.14-6.65,22.5,3.26,24.87Z"/>
      <text class="cls-2" transform="translate(492.17 120.86)"><tspan x="0" y="0">STUDIO</tspan></text>
    </g>
  </g>
</svg>