<?xml version="1.0" encoding="UTF-8"?>
<svg id="Calque_2" data-name="Calque 2" xmlns="http://www.w3.org/2000/svg" viewBox="0 0 532.29 520.09">
  <defs>
    <style>
      .cls-1 {
        fill: #f7f3e7;
      }
    </style>
  </defs>
  <g id="Calque_1-2" data-name="Calque 1">
    <g>
      <g>
        <path class="cls-1" d="M229.7,235.34l-213.05-.08c-9.07,0-16.56-7.56-16.57-16.3L0,157.37c0-3.76,2.43-7.04,6.65-7.04h177.83c5.24,0,8.24-4.54,8.13-8.47-.16-5.61-4.28-7.87-9.68-7.87l-120.55.03c-22.35,0-41.77-12.8-51.87-32.76C-4.46,71.68,4.25,34.16,30.41,13.7,41.49,5.03,54.6.08,68.86.08L246.07,0c13.84-.27,26.74,9.85,26.83,24.18l.4,60.02-179.37.06c-5.72,0-8.43,6.84-7.97,10.65.71,5.98,4.92,8.86,10.86,8.87l134.91.2c25.91.04,48.61,17.8,57.3,41.61,7.94,21.75,4.64,45.74-8.85,64.12-11.89,16.2-29.83,25.64-50.48,25.63Z"/>
        <path class="cls-1" d="M178.18,462.8c0,4.16-3.1,6.19-6.36,6.19l-61.47-.04c-2.89,0-5.45-2.85-5.45-5.82v-125.11c.01-6.72-4.79-11.45-10.91-11.36-6.64.1-10.86,5.2-10.86,12.16l.06,122.88c0,3.94-2.32,7.28-6.53,7.28H9.65c-4.87,0-9.57-3.63-9.57-8.98l.08-151.54c.02-33.27,30.91-62.39,62.27-62.47l154.86-.39c21.99-.06,41.95,9.99,53.92,28.04,8.43,12.72,10.83,26.09,10.81,41.26l-.17,144.98c0,5.9-4.94,9.21-10.14,9.21l-66.27-.06c-3.29,0-5.87-3.26-5.87-6.52l-.03-125.9c0-5.69-5.12-9.5-9.82-9.86-4.84-.36-11.45,2.91-11.46,8.93l-.09,127.14Z"/>
        <path class="cls-1" d="M532.29,14.75v68.34c-.01,34.33-31.12,65.66-66.5,67.32l-.16,73.82c-.02,6.89-6.46,11.09-12.59,11.09h-88.19c-5.19-1.01-11.07-4.89-11.08-10.86l-.12-74.2c-36.09-1.83-65.95-31.25-66.94-68.02l-.22-66.99c.84-8.97,7.48-14.92,16.42-14.87l78.32.48c10.77.07,19.07,11.87,19.12,22.31l.31,79.7c.02,4.89,4.66,8.28,8.87,8.2,3.9-.08,9.08-3.19,9.09-8.09l.09-77.36c.02-13.51,9.93-25.15,21.59-25.15h76.67c7.55,0,15.33,5.89,15.33,14.29Z"/>
        <path class="cls-1" d="M432.17,418.14h-55.01s-.09,43.59-.09,43.59c0,4.75-5.16,7.82-9.51,7.29l-67.86-.07c-4.27,0-7.52-4.75-7.51-8.82l.26-122.95c.05-22.33,10.07-42.87,24.83-59.11,19.1-21.04,45.99-32.45,74.27-33.35l31.73.05c47.88.07,93.94,39.46,94.04,89.25l.26,127.47c0,4.87-4.46,7.55-8.59,7.55l-67.9-.05c-5.34.36-8.97-3.58-8.89-8.82l-.02-42.03ZM432.18,366.71l-.09-35.16c-.02-6.99-2.29-13.61-6.29-19.09-7.86-9.06-20.19-11.69-31.24-7.24-10.06,4.05-17.03,13.99-17.13,25.84l-.31,35.67,55.07-.03Z"/>
      </g>
      <g>
        <path class="cls-1" d="M7.28,520.09c-1.26,0-2.31-.21-3.14-.63-.84-.42-1.49-1.02-1.98-1.82-.48-.79-.83-1.75-1.03-2.87-.21-1.12-.31-2.38-.31-3.78l4.5-.42c0,.68.02,1.33.07,1.97.05.63.14,1.2.28,1.7.13.5.33.9.6,1.2.26.3.6.45,1.01.45.68,0,1.16-.31,1.44-.95.28-.63.43-1.39.43-2.28s-.23-1.82-.7-2.78c-.47-.96-1.03-1.88-1.68-2.74-1.1-1.47-2.07-2.84-2.9-4.1s-1.47-2.5-1.93-3.72c-.46-1.22-.69-2.49-.69-3.82,0-1.05.13-2.01.4-2.9.27-.88.66-1.66,1.18-2.32.52-.66,1.14-1.17,1.88-1.54.74-.37,1.58-.55,2.53-.55,1.18,0,2.17.2,2.99.59s1.47.96,1.98,1.7c.5.74.87,1.61,1.1,2.62.23,1.01.35,2.14.35,3.37l-4.5.42c0-.52-.02-1.05-.07-1.58s-.14-1.02-.27-1.46-.31-.79-.55-1.06c-.24-.27-.55-.4-.94-.4-.59,0-1.01.25-1.23.75-.23.5-.34,1.21-.34,2.13,0,1.19.32,2.34.96,3.44.64,1.1,1.49,2.39,2.57,3.87,1.29,1.74,2.34,3.34,3.15,4.8s1.22,3.07,1.22,4.84c0,1.12-.12,2.16-.36,3.11-.24.96-.62,1.79-1.14,2.5-.52.71-1.18,1.26-1.98,1.66-.8.4-1.77.59-2.9.59Z"/>
        <path class="cls-1" d="M40.42,519.75v-26.52h-4.33v-4.72h13.26v4.72h-4.33v26.52h-4.59Z"/>
        <path class="cls-1" d="M78.84,520.09c-1.29,0-2.39-.3-3.3-.89-.91-.59-1.61-1.4-2.09-2.42s-.72-2.17-.72-3.44v-24.82h4.59v24.82c0,.61.12,1.14.36,1.6.24.46.63.69,1.17.69.57,0,.96-.23,1.19-.69.23-.46.34-1,.34-1.6v-24.82h4.59v24.82c0,1.27-.24,2.42-.73,3.44-.49,1.02-1.19,1.83-2.1,2.42-.91.6-2.01.89-3.28.89Z"/>
        <path class="cls-1" d="M109.6,519.75v-31.23h4.67c1.47,0,2.72.24,3.74.72,1.02.48,1.84,1.3,2.46,2.46.62,1.16,1.07,2.76,1.35,4.78.28,2.03.41,4.58.41,7.67s-.14,5.66-.41,7.68c-.28,2.02-.73,3.6-1.35,4.76-.62,1.15-1.44,1.97-2.46,2.44-1.02.47-2.27.71-3.74.71h-4.67ZM114.19,515.16c1.13,0,1.93-.45,2.4-1.34s.75-2.17.85-3.82.15-3.63.15-5.91-.05-4.28-.15-5.92c-.1-1.64-.39-2.89-.86-3.76s-1.27-1.31-2.39-1.31v22.05Z"/>
        <path class="cls-1" d="M146.66,519.75v-31.23h4.59v31.23h-4.59Z"/>
        <path class="cls-1" d="M181.8,520.09c-1.27,0-2.37-.3-3.28-.89-.91-.59-1.61-1.4-2.1-2.42s-.73-2.17-.73-3.44v-18.4c0-1.29.24-2.44.73-3.45s1.19-1.82,2.1-2.41c.91-.6,2.01-.89,3.28-.89s2.37.3,3.28.89c.91.59,1.61,1.4,2.1,2.42s.73,2.17.73,3.44v18.4c0,1.27-.24,2.42-.73,3.44s-1.19,1.83-2.1,2.42c-.91.6-2.01.89-3.28.89ZM181.8,515.63c.57,0,.96-.24,1.19-.71.23-.47.34-1,.34-1.58v-18.4c0-.58-.12-1.11-.36-1.58-.24-.47-.63-.71-1.17-.71s-.91.24-1.16.71c-.25.47-.37,1-.37,1.58v18.4c0,.58.12,1.11.36,1.58.24.48.63.71,1.17.71Z"/>
      </g>
    </g>
  </g>
</svg>