<?xml version="1.0" encoding="UTF-8"?>
<svg id="Calque_2" data-name="Calque 2" xmlns="http://www.w3.org/2000/svg" viewBox="0 0 505.17 949.8">
  <g id="Calque_1-2" data-name="Calque 1">
    <g>
      <path d="M187.35,594.37c-10.36,6.15-18.08,11.56-30.67,11.49-7.27-.04-13.75-2.63-19.01-7.32-13.74-12.27-11.36-32.44,1.54-43.48,22.06-18.86,50.88-9.52,66.6-24.31,4.39-4.13,6.91-10.33,7.38-16.3l1.33-16.89c.93-11.74,6.68-23.51,20.16-23.32,7.49.11,14.14,4.47,16.9,11.52,6.23,15.91-.8,21.92,16.98,39.91,7.44,7.53,16.08,15.89,16.77,27.16.74,12.18-7.27,22.29-18.82,25.52-17.29,4.84-28.83.2-46.01,2.1-7.19.8-14.34,2.75-20.44,6.37l-12.72,7.55Z"/>
      <path d="M369.05,416.73c-14.54-1.65-18.78.07-32.02,4.16-6.34,1.96-15.74,4.6-21.42-.2-2.8-2.36-4.68-5.85-5.93-9.05l-4.31-11.01c-1.83-4.66-6.51-8.86-11.44-10.05l-9.9-2.39c-2.66-.64-5.6-1.55-8.03-2.81-9.21-4.77-6.55-16.5-2.77-24.11,8.95-18.01,24.13-32.79,44.99-35.22,11.31-1.32,24.9,1.16,28.74,13.29,2.92,9.23,2.71,12.07,5.54,21.48,3.16,10.53,17.12,7.28,24.52,5.14l17.28-4.98c8.82-2.54,27.61-3.78,30.88,7.99,1.37,4.94.5,10.64-1.6,15.35-6.93,15.5-23.21,35.96-42.11,33.82l-12.42-1.41Z"/>
      <path d="M449.55,157.62c-2.82,18.83-22.69,30.35-38.47,37.59-18.55,8.51-39.52,13.74-56.65-.33-5.39-4.43-9.99-9.3-14.8-14.35-6.24-6.56-12.71-12.41-19.67-18.21-9.45-7.87-19.63-16.73-23.63-28.52-3.73-11-.45-22.97,8.36-30.08,6.47-5.22,14.71-5.35,21.4-.54,9.22,6.64,13.38,14.08,22.06,22.98,9.12,9.36,23.05,11.87,35.65,9.65l20.6-3.63c12.99-2.29,28.49-3.95,38.9,5.68,5.42,5.01,7.35,12.39,6.25,19.74Z"/>
      <path d="M468.16,810.05c-4.72,10.17-13.82,12.31-22.78,7.85-4.24-2.11-8.25-4.86-11.7-8.2-12.85-12.47-23.49-26.5-31.76-42.41-5.27-10.14-8.75-21.84-5.77-32.98,1.14-4.24,5.18-7.52,9.53-7.56l12.08-.12c7.4-.07,14.21-4.14,16.1-11.66,2.11-8.37.93-7.98,3.61-15.79,2.23-6.47,13.83-5.97,20.11-.56,3.68,3.17,6.8,6.61,9.72,10.37l20.1,25.9c9.5,12.24,19.2,25,17.44,41.63-.86,8.14-6.32,13.68-13.95,15.41-6.47,1.47-15.58,2.73-18.55,9.11l-4.18,9.01Z"/>
      <path d="M401.64,88.59c-13.42,11.49-28.73,10.3-42.34-.43l-11.27-8.89c-6.64-5.24-14.91-8.58-23.42-9.29l-15-1.25c-12.42-1.03-23.37-4.67-27.56-17.59-5.88-18.11,8.02-39.63,25.26-47.91,16.1-7.73,33.45-.26,45.67,11.03l10.34,9.55c14.09,13.02,27.05-7.84,43.9,6.09,18.37,15.18,11.01,44.47-5.59,58.68Z"/>
      <g>
        <path d="M454.26,946.05l-21.59,2.53c-14.05,1.64-30.43.62-36.53-14.34-5.16-12.65-.78-27.84,5.63-39.4,10.49-18.91,24.35-24.52,43.51-30.86l24.01-7.94c11.52-3.81,27.5-5.5,32.98,8.3,1.8,4.53,3.11,10.16,2.84,15.22l-1.2,23.07c-.56,10.69-2.41,26.4-10.63,33.52-4.63,4.02-10.72,6.72-16.82,7.41l-22.21,2.51Z"/>
        <path d="M378.14,928.03c-4.79,21.4-32.46,25.94-51.07,16.17-9.41-4.94-14.29-13.79-13.11-24.19l1.41-12.48c1.64-14.55-5.17-21.66-9.52-35.13-5.41-16.74-2.99-36.8,14.25-45.36,15.38-7.63,33.5-7.56,48.8.17,16.63,8.41,18.95,25.52,13.54,42l-4.75,14.45c-2.15,6.54-2.95,13.94-1.72,20.78l2.01,11.12c.7,3.85,1.03,8.62.16,12.47Z"/>
      </g>
      <path d="M305.04,296.14c-5.97,7.26-15.71,12.41-24.73,6.98-5.97-3.6-9.76-9.7-10.68-16.59l-1.3-9.75c-.65-4.89-3.65-9.47-8.06-11.76l-10.58-5.5c-5.36-2.79-9.65-7.61-11.73-13.25-2.65-7.17-.91-14.57,4.56-19.9,12.33-12,26.03-8.51,37.08-21.64l6.53-7.75c6.92-8.22,21.49-12.57,30.48-2.25,3.28,3.76,5.38,8.69,6.42,13.58l1.96,9.27c.93,4.4,4.32,9.06,8.33,11.1l8.77,4.46c4.44,2.26,8.55,5.49,11.19,9.75,7.02,11.34-3.22,24-12.69,27.58l-11.81,4.47c-5.86,2.22-11.05,5.76-15,10.56l-8.74,10.63Z"/>
      <path d="M377.09,561.1c-15.99,10.39-38.18,1.13-47.12-15.87-2.26-4.29-4.16-8.56-6.15-13-13.57-30.26-38.31-27.98-46.84-43.84-3.99-7.41-2.34-16.04,4.33-21.25,3.91-3.06,9.12-5.15,14.13-5.77l12.58-1.56c5.88-.73,11.21-3.39,15.76-7.05l9.49-7.65c5.44-4.38,13.25-5.01,19.47-1.72,10.77,5.71,17.38,18.65,12.34,31.52-3.6,9.18-7.96,18.31-.65,28.01s14.13,14.51,19.26,23.67c6.52,11.64,4.82,27.09-6.59,34.5Z"/>
      <path d="M409.08,687.18c-13.3,9.64-33.76,10.17-49.56,7.73-6.96-1.07-13.65-3.78-19.17-7.89-13.6-10.13-14.13-25.71-9.19-40.82,5.19-15.89,13.18-30.35,24.22-42.84,7.63-8.64,18.79-16.03,29.72-8.12,15,10.86,24.04,27.87,31.25,44.8,7.07,16.61,9.05,35.32-7.26,47.14Z"/>
      <path d="M46.65,462.7c-11.82,1.61-26.49,1.31-36.04-5.88-10.45-7.86-6.67-21.49.01-30.18,16.7-21.7,47.27-37.4,73.59-43.51,8.34-1.94,16.76-2.54,25.04-1.18,13,2.13,21.56,13.53,20.31,26.58-1.47,15.42-13.67,26.16-26.22,33.85-17.38,10.64-36.39,17.56-56.69,20.32Z"/>
      <path d="M75.32,227.27c-24.15,3.77-49.94-22.45-63.5-39.82-3.33-4.27-6.08-8.97-8.37-13.89-5.18-11.17-5.55-26.7,7.51-32.86,15.24-7.18,42.8-3.94,57.87,2.74,16.27,7.22,28.59,20.91,34.3,37.74,7.66,22.61-7.7,42.95-27.81,46.09Z"/>
      <path d="M350.65,771.57c-5.28,7.1,1.4,10.1,4.22,15.63,2.3,4.49-.1,9.88-3.95,12.7-20.42,14.92-61.75,4.38-83.53-5.86-12.88-6.05-24.97-14.81-31.85-27.34-13.52-24.61,11.08-49.38,33.03-58.34,7.85-3.21,19.54-3.51,23.01,7.28l2.72,8.44c1.33,4.12,6,7.8,10.5,8.09l14.33.93c12.72.82,27.39,5.57,34.12,17.07,4.87,8.34,2.34,14.77-2.59,21.4Z"/>
      <path d="M227.8,690.91c-11.17,4.02-22.2,9.2-31.64,1.88-8.44-6.55-8.6-20.69-1.78-28.37,2.58-2.9,5.46-5.39,8.39-7.8l8.77-7.2c4.58-3.76,7.28-9.4,8.79-15.14,2.12-8.06,6.69-14.94,14.4-18.59,7.12-3.37,15.26-.79,20.25-2.84,9.35-3.85,17.31-13.46,30.79-7.17,9.72,4.53,14.69,12.59,18.51,22.47,4.34,11.22,3.45,23.68-6.25,31.76-8.11,6.76-17.6,12.02-27.53,15.59l-42.72,15.4Z"/>
      <path d="M182.46,815.36c-10.54,12.81-27.44,19.32-41.55,8.96-25.96-19.06-22.76-78.43,5.52-99.82,12.57-9.5,29.25-6.43,39.04,5.38,18.78,22.64,15.85,62.56-3.02,85.48Z"/>
      <path d="M74.88,45.94c-12.41,2.32-16.7,16.41-20.68,27.06-3.01,8.04-8.76,13.81-17.18,16.12-12.7,3.47-27.55-.4-33.32-12.8C-3.57,60.71.99,38.15,9.24,23.3,16.01,11.11,27.39,3.2,41.24,1.06c14.96-2.31,29.68-.27,43.73,5.18,11.22,4.35,25.27,10.87,24.25,25.04-.32,4.45-3.12,8.78-7.22,10.75-8.52,4.1-15.35,1.71-27.11,3.91Z"/>
      <path d="M448.64,460.77c-21.47-2-31.58,11.35-47.33,13.53-5.56.77-10.36-3.43-10.23-9.03.23-9.68,6.29-19.22,12.25-26.95l13.95-18.11c3.16-4.1,7.01-7.7,10.96-11.13,11.77-10.25,25.08-13.54,40.07-8.08,14.12,5.15,32.44,17.19,36.15,32.72,2.55,10.67-2.35,21.02-12.11,25.75-8.76,4.24-16.89,3.8-26.53,2.9l-17.19-1.6Z"/>
      <path d="M95.92,930.69c-3.68,12.51-16.05,17.84-28.24,18.33-18.17.72-35.49-4.79-50.2-15.1-5.57-3.91-10.25-8.57-13.78-14.27-5.78-9.34-4.4-20.84,3.34-28.69,18.12-18.37,49.84-17.17,70.22-2.99,13.22,9.2,23.36,26.71,18.66,42.73Z"/>
      <path d="M80.04,849.08c-13.25,7.87-27.62,6.4-40.45-1.23-9.5-5.65-18.24-11.42-27.11-18-13.67-10.13-16.61-26.27-6.3-38.63,8.65-10.38,11.35-9.41,19.67-23.44,7.72-13,14.29-20.63,29.82-25.3,12.85-3.86,24.84,1.63,31.82,12.51,3.18,4.95,4.97,10.68,6.5,16.42l6.95,26.02c1.8,6.73,2.82,13.89,1.39,20.82-2.7,13.08-10.88,24.06-22.29,30.83Z"/>
      <g>
        <path d="M83.54,598.04c-8.46,5.95-15.95,11.58-23.63,17.84-2.91,2.37-6.17,4.66-9.52,6.27-7.67,3.68-16.47.67-20.26-6.93-5.09-10.2-4.39-17.54-9.06-28.02-1.98-4.44-6.04-8.13-9.62-11.27l-7.55-6.62c-4.23-3.71-4.98-10.45-1.77-15.06,7.28-10.46,12.65-14.66,14.99-27.97l2-11.36c1.34-7.62,5.23-16.37,13.48-18.51,5.19-1.35,10.48.9,12.85,5.63,3.57,7.12,4.26,15.96,7.95,17.53,8.37,3.58,11.74-13.52,21.43-11.74,1.68.31,4.62,2.49,5.35,4.27,5.77,14.12-1.86,25.51,11.43,42.54,2.14,2.74,4.13,5.3,5.97,8.11,4.94,7.55,3.97,17.11-1.7,24.06-3.42,4.2-7.57,7.85-12.35,11.22Z"/>
        <path d="M92.17,693.58c-5.06,10.83-21.06,15.74-31.6,19.04-20.53,6.42-39.66,5.91-51.77-14.23-6.93-11.52-12.53-32.06-5.34-43.81,2.76-4.51,8-6.67,13.11-4.9,13.37,4.62,18.97,17.52,37.01,17.14l16.21-.34c5.46-.11,11.24,1.28,15.7,4.39,7.04,4.92,10.66,14.21,6.69,22.7Z"/>
      </g>
      <path d="M181.36,489.92c-1.14,4.09-4.07,7.71-7.15,10.17-10.69,8.55-22.42,14.66-35.72,18.38-6.69,1.87-13.16-.48-16.1-6.49l-10.95-22.38c-5.5-11.25,1.88-23.11,11.62-29.66,8.74-5.88,25.66-9.81,29.72,2.81l1.5,4.66c1.12,3.47,4.5,6.45,8.14,7.35l12.21,3.02c4.95,1.22,8.29,6.55,6.74,12.14Z"/>
      <path d="M233.73,204.6c-11.63,11.86-26.54,23.74-40.66,32.5-14.67,9.09-36.04,16.01-49.85,1.93-6.59-6.71-6.54-15.55-4.69-24.37l2.8-13.34c4.58-21.83-10.5-30.9-17.12-45.36-3.84-8.39-2.22-17.74,3.84-24.34,5.45-5.93,14.88-9.13,23.26-5.74,18.41,7.47,19.58,31.25,28.07,44.09,4.09,6.18,11.45,9.41,18.73,7.86,14.04-2.98,23.2-10.38,36.23-3.07,5.96,3.35,8.88,9.92,7.14,16.77-1.2,4.71-4.25,9.49-7.76,13.06Z"/>
      <g>
        <path d="M208.81,72.03l-16.28-3.18c-5.81-1.13-12.04-.19-17.15,2.51l-10.56,5.57c-5.33,2.81-11.73,3.9-17.57,2.16-6.75-2.01-10.6-8.75-8.87-15.57.89-3.52,2.2-7.01,3.7-10.32,6.17-13.57,2.82-19.56,3.85-34.34.52-7.42,5.06-13.62,11.72-16.5,10.66-4.6,23.1-2.25,30.92,6.31l5.82,6.37c3.02,3.31,6.52,7.05,10.61,9.08,11.96,5.93,31.54,2.52,33.49,20.61.74,6.89-1.73,13.34-6.03,18.64-5.6,6.91-14.27,10.49-23.65,8.66Z"/>
        <path d="M238.63,150.91c-7.15-3.47-15.52-12.41-25.73-19.6-5.29-3.73-14.03-10.79-8.97-18.48,1.84-2.79,5.08-5.28,8.03-6.79l21.4-10.94c9.54-4.88,18.62-4.44,25.89,4.07,9.99,11.7,10.06,30.17,1.78,42.73-4.72,7.17-13.85,13.14-22.39,9Z"/>
      </g>
      <path d="M423.76,310.16c1.6-15.68,8.39-30.43,3.91-43.66l-4.61-13.61-2.35-6.75c-.47-1.36.23-4.53.31-6.24.48-9.99,7.95-17.7,18.06-17.91,6.73-.14,13.39,1.66,19.57,4.6,33.84,16.07,54.29,51.94,43.72,88.7-5.23,18.19-20.04,32.03-38.71,35.2-8.79,1.5-17.17-.57-24.31-5.53-11.07-7.68-17.03-20.7-15.59-34.8Z"/>
      <path d="M394.98,328.21c-3.55,6.11-9.78,8.63-16.35,7.41-15.58-2.88-25.47-24.76-17.52-42.44l5.65-12.57,3.67-7.45c2.07-4.21,5.91-11.12,10.68-10.73,5.88.49,7.66,10.85,8.97,15.76l5.51,20.64c2.49,9.33,4.69,20.26-.61,29.37Z"/>
      <path d="M498.25,58.75c-5.43,8.95-19.69-4.39-28.02-.87l-9.41,3.98c-4.27,1.81-9.38-.53-10.32-5.36-2.1-10.8-.64-16.5-7.87-22.83-5.2-4.55-10.61-8.86-9.71-16.63.46-3.95,3.82-7.42,7.79-7.69,11.56-.78,15.01,2.57,24.36-3.41,4.09-2.62,12.36-8.86,17.66-4.36,4.12,3.5,1.38,11.25,8.85,11.83l7.12.56c2.97.23,5.98,3.37,6.35,6.54.42,3.63-1.17,6.64-3.4,8.95l-6.09,6.31c-1.61,1.67-.81,6.62.12,8.78l3.42,7.98c.67,1.56-.04,4.88-.84,6.21Z"/>
      <path d="M482.28,176.92c-6.77.14-11.69-2.51-13.89-8.39-1.85-4.96-1.67-10.63-.96-16.07,1.73-13.31-.35-21.57,1.93-29.01,1.59-5.18,6.06-8.6,11.5-8.51,3.77.06,8.22,1.76,11.17,4.3,15.54,13.34,17.58,34.95,4.26,49.93-3.54,3.97-8.5,6.32-14.01,7.77Z"/>
      <path d="M157.82,668.71c-3.85,6.42-12.22,16.46-20.13,16.49-2.94.01-6.82-1.7-8.92-3.6-8.89-8.06-17.46-19.77-14.5-32.21,1.83-7.69,7.98-12.84,15.89-13.34,10.95-.69,26.06,5.05,29.83,16.14,1.89,5.55.8,11.58-2.16,16.52Z"/>
      <path d="M55.58,364.87c-24.47-4.97-18.41-23.74-30.13-25.82l-6.11-1.08c-6.11-1.08-11.99-4.22-15.45-9.53-6.17-9.46-4.61-21.56,2.77-29.74l4.02-4.45c3.96-4.39-1.27-10.74-1.88-17.78-1.03-11.97,5.77-23.28,16.46-28.29,8.09-3.79,17.25-2.56,24.53,2.14l11.63,7.49c11,7.08,26.61,3.56,40.55,17.43,13.07,12.99,11.84,33.67-2.41,45.28-7.21,5.88-9.86,11.24-11.73,20.08-3.29,15.56-16.9,27.39-32.28,24.27Z"/>
      <path d="M112.11,90.29c4.48,11.64-9.14,29.1-26.31,30.49-11.01.89-19.7-7.29-19.14-18.2.73-14.18,14.01-28.7,25.91-27.64,9.02.81,16.33,7.01,19.54,15.34Z"/>
      <path d="M128.73,942.6c-12.8-15.12-19.81-43.62.48-54.54,4.49-2.42,9.87-4.3,14.95-4.97l15.13-1.99c10.61-1.4,21.76-3.29,28.8-11.94,3.09-3.8,5.48-8.71,6.67-13.39l5.27-20.78c2.69-10.63,9.01-21.26,20.92-19.38,21.88,3.45,11.64,40.79,5.81,54.8-11.67,28.09-33.98,53.51-59.46,69.84-11.22,7.19-28.26,14.52-38.56,2.35Z"/>
      <path d="M272.82,949.44c-8.84-2.89-11.55-8.59-20.8-13.28-7.12-3.61-13.14-1.74-21.81-4.94-2.97-1.1-4.82-5.35-3.42-8.26,1.25-2.6,3.26-5.08,5.3-6.93,4.54-4.1,8.37-8.1,12.22-12.81,2.65-3.25,5.75-6.55,9.62-8.44,4.1-2,9.89-2.15,14.05-.66,10.89,3.89,16.37,14.36,14.8,25.55-.59,4.2-.76,8.56-.61,12.62l.39,10.31c.18,4.89-5.09,8.36-9.74,6.84Z"/>
      <path d="M277.79,857.48c-2.35,6.34-9.53,18.14-16.19,13.32-10.45-7.56-7.38-33.07,2.87-44.28,2.38-2.61,6.51-2.02,8.72.47,7.38,8.31,8.39,20.3,4.61,30.49Z"/>
      <path d="M502.71,670.93c2.18,3.96,4.05,12.69-.86,13.04-12.04.85-20.85-.25-30.81-7.67s-18.05-18.25-22.54-30.56c-3.11-8.53-9.09-28.83-5.35-37.72l6.23-.74c3.43,2.77,6.25,4.76,9.03,7.67,15.11,15.8,33.79,36.9,44.31,55.98Z"/>
      <path d="M482.03,567.2c-2.98.14-2.65,21.69-20.88,18.93-2.7-.41-5.58-3.61-7.1-5.76l-5.13-7.3c-3.6-5.12-10.58,1.42-19.61-1-5.42-1.45-8.6-6.64-7.37-12.12.67-3,2.53-6.18,4.37-8.55l3.65-4.69c1.66-2.13.41-6.08-1.71-7.68-3.63-2.73-6.46-6.26-7.53-10.63-1.21-4.93,1.6-10.17,6.65-11.29,8.62-1.91,13.96-.06,16.69-5.73l3.46-7.17c3-6.21,11.6-8.94,17.42-4.76,7.77,5.58,5.96,16.3,15.36,13.63,5.03-1.43,16.51-4.68,19.61,2.11,3.35,7.32-2.11,13.56-6.41,18.3-2.07,2.28-2.63,5.99-.06,8.14l6.2,5.18c2.48,2.08,4.72,5.29,5.39,8.87,1.53,8.19-9.52,10.88-16.33,11.21l-6.66.31Z"/>
      <path d="M249.94,381.46c3.74,16.08-3.45,32.39-14.06,44.3-5.92,6.65-17.05,15.76-25.16,18.95-5.49,2.16-11.99.94-16.89-2.17-9.98-6.34-18.79-13.63-26.81-22.32-11.31-12.25-18.02-28.19-9.94-44.11,6.51-12.83,20.37-15.74,33.51-10.58l8.81,3.47c1.82.72,6.25.44,8.09-.43l6.86-3.24c8.92-4.21,19.18-3.81,27.15,2.54,4.12,3.28,7.21,8.36,8.43,13.59Z"/>
      <path d="M222.87,303.65c-3.01,16.46-17.75,31.04-34.3,33.85-12.66,2.15-25.55-1.19-35.47-9.18-15.91-12.82-12.85-36.99,3.16-50.21,16.84-13.91,41.82-15.34,58.08-.25,7.2,6.68,10.31,16.06,8.53,25.79Z"/>
    </g>
  </g>
</svg>