<?xml version="1.0" encoding="UTF-8"?>
<svg id="Calque_2" data-name="Calque 2" xmlns="http://www.w3.org/2000/svg" viewBox="0 0 759.08 578.93">
  <g id="Calque_1-2" data-name="Calque 1">
    <g>
      <path d="M574.44,182.84c2.75,5.78-45.84,21.74-51.67,23.49-110.83,33.25-265.87,34.44-376.18-.68-14.25-4.54-27.45-10.23-40.5-17.34-7.15-3.9-13.17-8.66-18.92-14.32-2.43-2.4-2.06-5.99-.06-8.64,14.65-19.38,23.87-38.99,16.84-64.23-2.24-8.04-5.43-15.5-8.44-23.31-5.02-13.02-7.7-32,4.38-41.58,4.38-3.48,9.91-4.9,15.53-2.98,11.5,3.93,13.13,18.38,8.99,29.35-9.65,25.56,6.26,46.56,25.97,61.23,19.58,14.58,40.75,25.55,63.78,34.18,44.06,16.51,103.66,30.53,150.74,26.04,38.8-3.7,62.69-20.41,100.88-26.9,34.64-5.89,80.51-2,107,23.06.52.49,1.37,2,1.67,2.64ZM101.35,50.23c1.26-4.68,4.51-6.72,8.8-9.1-.71-1.43-3.42-1.77-4.88-.69-5.44,3.98-9.07,10.93-6.16,18.1l2.24-8.31ZM257.19,193.1c-20.36-5.61-39.99-11.16-59.59-19.35-15.46-6.48-29.15-14.19-43.73-22.57,23.6,21.56,71.33,39.84,103.32,41.92ZM370.55,205.53c18.16-.57,34.56-5.58,50.58-12.89,2.9-1.32,5.92-2.24,7.81-4.54-18.54,6.09-36.12,12.27-55.21,14.9l-13.71,1.89c3.29,2.44,6.69.76,10.52.64Z"/>
      <path d="M61.36,130.72c8.41-9.06,19.66-16.15,30.6-20.29,1.23-.46,3.73,1.38,3.62,2.43s-1.21,3.44-2.2,3.91c-16.43,7.9-36.31,20.69-37.38,41.36-.9,17.57-.77,34.29.45,51.85,4.31,61.92,15.66,128.55,39.64,186.06,28.23,67.67,75.32,118.56,147.81,138.09,62.7,16.89,136.68,17.76,199.22-.71,23.96-7.08,45.24-18.01,64.82-33.33,11.88-9.29,23.65-17.82,33.62-29.21,25.98-29.71,42.97-79.34,53.73-117.31,16.56-58.44,29.45-136.72,29.41-197.36,0-10.77-3.62-20.28-11.02-28.12-36.9-39.1-148.18-51.54-200.51-54.34-88.52-4.74-183.89,3.06-269.54,26.93-1.43.4-3.8-.27-4.41-1.25-.72-1.15.44-4.65,2.16-5.14,89.78-25.62,190.15-32.79,283.41-26.84,52.06,3.32,151.29,16,190.31,52.24,9.14,8.9,15.9,19.48,16.38,32.49.72,19.54-.77,38.22-2.58,58.21,48.3-19.29,101.68-6.9,122.17,44.51,22.83,61.93-5.35,125.25-54.99,164.55-36.98,29.27-86.18,37.6-132.04,31.5-6.93,11.4-13.88,21.85-23.51,30.87-15.93,14.91-32.92,27.79-51.13,39.45-2.07,14.43-5.1,21.83-18.27,29.23-16.91,9.5-34.62,15.7-53.88,20.03-54.89,12.36-111.73,11.13-165.97-3.7-16.07-4.4-30.63-10.14-44.56-18.49-8.67-5.2-13.88-13.23-14.73-23.36-.3-3.54-1.84-5.51-4.85-7.3-57.98-34.49-90.88-92.21-110.66-155.33-19.08-60.9-29.3-136.35-27.64-200.06.31-12.01,4.06-22.42,12.52-31.54ZM585.57,405.4l-17.55,38.85c22.96,2.74,45.3,1.79,67.51-3.47,48.98-10.71,90.95-50.18,108.35-96.38,10.75-28.56,11.27-59.6.32-87.86-10.06-25.97-32.44-43.51-60.03-46.96-19.22-2.27-38.49.64-56.04,8.57l-6.56,48.98c14.62-13.06,32.03-19.68,51.02-17.92,19.17,1.78,33.73,15.01,38.1,33.81,9.38,40.41-15.22,81.51-47.1,104.99-22.79,16.79-50.57,22.27-78.02,17.38ZM703.75,282.94c-4.36-16.07-17.52-26.38-34.19-27.11-19.85-.86-37.85,8.29-50.41,23.71-6.91,40.79-17.13,79.96-31.02,119.16,21.66,3.54,42.26.46,60.97-9.43,34.99-19.29,65.69-65.68,54.65-106.33ZM481.51,525.61c-77.66,39.23-204.66,37.22-282.54-1.09.11,7.41,4.14,13.58,10.28,17.35,14.24,8.76,29.38,14.45,45.99,18.8,50.79,13.3,103.84,14.65,155.35,4.07,15.43-3.17,73.08-17.45,70.92-39.13Z"/>
      <path d="M607.77,170.91c1.4-2.18,2.82-4.22,4.39-4.09,1.86.15,3.71,3.63,2.79,5.29-20.8,37.46-112.22,58.11-152.34,65-84.46,14.52-170.47,14.64-254.96.41-38.91-6.55-85.23-18.75-118.38-39.66s-25.9-42.27-20.51-41.93-1,8.34,4.95,17.65c21.4,33.51,102.26,51.71,140.08,57.77,88.88,14.25,178.98,12.74,267.25-4.82,33.24-6.61,107.87-26.19,126.74-55.62Z"/>
      <path d="M162.03,25.31c-13.5,2.85-12.77,10.84-17.38,10.91s-3.66-31.75,15.26-35.88c5.19-1.13,10.21.54,13.01,4.6,2.67,3.87,3.11,9.56-.25,14.08-2.37,3.19-6.65,5.44-10.65,6.28Z"/>
      <path d="M19.73,166.77c.02.77-.95,2.64-1.33,3.17-4.64,6.4-5-26.26,6.15-49.46,3.48-7.23,16.71-28.41,23.67-27.72.72.07.98,2.79.14,3.51-19.27,16.76-29.39,43.25-28.63,70.5Z"/>
      <path d="M19.64,103.23c-15.23,20.49-14.09,40.79-17.01,42.34-8.8,4.64,6.47-44.17,15.75-45.87.82-.15,1.91,2.66,1.26,3.54Z"/>
      <path d="M579.92,161.99c-8.67-11.32-24.28-19.84-37.24-22.97-1.08-.26-2.11-1.74-2.35-2.33-1.99-4.81,26.64,2.71,41.17,20.55.46.57,1.15,2.06,1.3,2.62.2.75-1.42,1.47-2.88,2.14Z"/>
      <path d="M192.55,122.29c.98.72,1.42,2.98.83,3.65s-3.12,1.4-3.87.86l-18.57-13.41c-.86-.62-1.63-2.51-1.57-3.42.07-1.1,3.53-2.07,4.55-1.32l18.62,13.64Z"/>
      <path d="M587.27,149.05c-6.15-7.48-13.95-13.92-22.58-17.58-.72-.31-1.85-2.09-1.77-2.81.67-5.98,27.22,11.83,27.77,19.96.04.65-3.01.94-3.42.44Z"/>
    </g>
  </g>
</svg>