<?xml version="1.0" encoding="UTF-8"?>
<svg id="Calque_2" data-name="Calque 2" xmlns="http://www.w3.org/2000/svg" viewBox="0 0 674.72 715.08">
  <g id="Calque_1-2" data-name="Calque 1">
    <g>
      <path d="M416.67,715.08c-21.11-1.59-42.23-25.98-56.78-39.82-32.44,2.52-64.56.29-96.41-6.26-102.36-21.06-188.33-89.42-231.73-184.56-45.76-100.33-42.15-216.3,11.41-313.38C78.29,107.39,133.35,57.56,200.15,29.06,267.81.19,342.43-7.08,414.64,6.86c75.43,14.56,142.85,55.51,189.5,116.53,14.25,18.64,26.5,38.16,36.51,59.6,34.26,73.44,42.92,156.53,24.9,235.46-13.03,57.08-40.69,108.75-80.6,151.31-43.23,46.11-97.51,78.87-159.28,94.63,12.87,11.89,21.56,30.46,9.99,43.38-4.54,5.07-10.92,7.42-18.99,7.31ZM92.11,397.21c29.31-7.22,62.79,11.11,82.38,31.76,13.32,14.05,20.53,31.4,22.45,50.66.92,9.31,4.89,17.85,12.58,23.3l32.79,23.25,122.55,88.08c19.26,13.84,36.94,28.69,54.74,44.39,113.41-27.04,204.94-115.53,235.82-228.21,31.01-113.15,4.05-241-77.45-326.91-36.24-38.2-81.62-66.29-132.16-81.55C366.81-1.88,281.53,2.81,205.45,34.46,66.68,92.18-10.77,238.98,10.3,386.41c7.01,49.03,23.89,96.18,51.09,137.54,64.46,98.01,174.56,151.5,291.53,144.61l-73.7-72.35-56.87-51.09c-18.3-13.69-31.42-28.27-55.96-24.49-22.31,3.44-43.92-2.04-61.94-15.72-21.89-16.62-42.31-48.39-39.52-76.17,1.55-15.41,11.69-27.72,27.17-31.54ZM432.36,702.36c8.62-12.64-4.28-27.78-14.04-36.66-19.19-17.46-38.62-33.72-59.85-48.97l-126.69-91.01-26.96-19.25c-22.34-15.95-4.85-42.19-36.44-74.45-17.99-18.38-48.48-34.51-74.59-28.58-22.06,5.01-26.42,27.88-19.68,48.04,12.45,37.19,47.74,69.25,89.28,63,13.72-2.06,26.22-.14,37.8,7.89,10.57,7.34,20.55,14.92,30.5,23.4,18.32,15.61,35.71,31,53.01,47.89l77.31,75.44c10.54,10.29,20.36,19.99,31.7,29.18,10.42,8.45,29.79,17.05,38.64,4.09Z"/>
      <path d="M506.02,601.77c-3.53,2.04-3.23.82-3.88.52-.51-.23.66-2.24,1.19-2.55,23.41-13.96,44.67-32.18,62.82-52.54.5-.56,2.03-1.04,2.62-1.16s.6,2.45-.27,3.46c-16.69,19.49-39.53,38.99-62.47,52.26Z"/>
      <path d="M46.21,243.01c-.25.83-2.1,2.67-2.26,2.11s-.77-2.59-.61-3.17c6.29-22.66,15.86-45.53,27.75-65.69.3-.51,1.73-1.49,2.17-1.78.58-.38,1.3,2.03.91,2.74-11.5,20.77-21.12,42.76-27.96,65.8Z"/>
      <path d="M114.88,122.6c-9.93,8.85-20.76,25.58-31.34,36.41-1.02-7.09,26.63-38.07,31.18-39.23.44-.11.92,2.15.16,2.83Z"/>
      <g>
        <path d="M146.99,504.56c-21.4,6-60.07-28.42-63.26-50.76,9.34,12.28,15.33,24.78,27.01,34,10.61,8.38,21.56,13.33,36.25,16.76Z"/>
        <path d="M111.59,410.69c40.05,5.79,61.08,38.75,57.32,38.42-.58-.05-2.14-.44-2.83-1.4-22.84-31.6-56.49-34.38-56.82-34.74-.24-.26-.26-.96-.24-1.31.03-.52,2.01-1.06,2.57-.98Z"/>
        <path d="M416.78,699.44c-1.77,9.12-34.83-17.75-27.62-16.96.47.05,1.73.3,2.25.75l9.87,8.61c4.72,3.24,9.38,5.21,15.5,7.6Z"/>
      </g>
      <g>
        <path d="M608.82,326.58c-20.84,9.02-48.76,9.11-71.63,11.08-7.86,45.71-30.95,87.8-66.64,117.72-79.27,66.46-198.47,62.4-271.77-11.62-48.02-48.49-66.94-119-51.21-185.29,13.6-57.35,51.45-105.56,104.26-131.86,45.94-23.35,99.32-28.24,148.51-12.59,64.52,20.53,113.82,71.78,132.01,137.35l42.86-3.75c7.91-.69,15.61-.59,23.36.05,27.89,3.56,31.9,36.56,26.9,57.9-2.18,9.3-8.11,16.12-16.66,21ZM533.17,304.18c0-106.15-86.05-192.2-192.2-192.2s-192.2,86.05-192.2,192.2,86.05,192.2,192.2,192.2,192.2-86.05,192.2-192.2ZM539.18,316.92l-1.05,14.26c21.03-1.92,49.93-1.96,68.14-10.86,7.17-3.51,11.5-10.02,13.13-17.72,3.37-15.88,1.7-42.72-18.12-47.68-6.89-1.2-13.84-1.36-21.13-1.04l-45.89,4.18c3.93,17.81,5.62,35.18,5.22,53.19l48.62-3.44,14.56,2.53c5.1,10.38-3.24,3.17-16.53,3.42-15.86.3-30.98,1.45-46.95,3.15Z"/>
        <path d="M340.75,142.01c-89.83,0-162.65,72.82-162.65,162.65,0,31.57,9,61.03,24.57,85.97l.02.05.04.05c28.74,45.98,79.8,76.58,138.02,76.58,89.83,0,162.65-72.82,162.65-162.65s-72.82-162.65-162.65-162.65ZM271.19,179.82c.23-.59.88-2.08,1.7-2.6,13.74-8.69,30.99-14.33,47.55-15.44,3.37-.22,6.61-.47,9.23,2.1-19.24,3.28-37.17,7.65-54.79,16.33-.59.29-3.91.18-3.68-.4ZM195.72,295c1.57-34.66,16.16-67.23,40.56-91.83,19.2-19.35,23.04-13.75,18.65-10.29-27.72,21.83-52.4,62.01-54.71,101.26l-2.49,12.7c-2.14-4.25-2.21-7.45-2.01-11.84Z"/>
      </g>
    </g>
  </g>
</svg>