<?xml version="1.0" encoding="UTF-8"?>
<svg id="Calque_2" data-name="Calque 2" xmlns="http://www.w3.org/2000/svg" viewBox="0 0 491.42 684.99">
  <g id="Calque_1-2" data-name="Calque 1">
    <g>
      <g>
        <path d="M199.45,97.17c-1.4,3.81-4.17.92-5.11-1.19l-2.98-6.74c-.88-1.98-1.5-9.69,1.05-12.63.4-.46,2.15,1.19,2.16,1.77l.26,12.2,4.62,6.6Z"/>
        <path d="M446.34,124.83c-3.09,3.67-13.34,11.14-16.84,8.45-2.72-2.09,11.13-5.92,14.31-11.27l2.08-.85c.72-.29,1.02,2.99.45,3.67Z"/>
      </g>
      <g>
        <path d="M206.35,427.34l-12.14,135.31c-.47,5.28-8.19,7.35-11.8,7.37-4.34.03-11.68-2.27-12.8-7.91l4.05-139.91-89.07-13.96-11.06,41.98-48.28,182.18c-1.69,6.39-11.58,7-15.95,5.86-6.72-1.75-10.37-6.96-9-13.4l14.42-67.6,41.06-187.07c-18.05-8.51-48.8-25.9-33.49-49.14,16.56-25.15,82.6-39.7,111.55-44.49,17.57-2.91,33.87-2.89,51.55.02,2.03-6.62,3.02-12.33,4.07-19.09l18.39-118.19c-23.9-9.11-43.68-22.53-44.86-49.91-.75-17.43,2.32-34.86,7.52-51.47,5.49-17.52,18.83-29.71,36.49-34.13,24.2-6.05,54.32-3.59,79.73-1.24l113.55,10.53c23.71,2.2,52.62,5.25,72.9,16.92,12.27,7.06,17.7,19.06,18.24,33.33-1.33,21.78-4.48,43.62-11.49,64.42-5.35,15.88-16.72,27.49-32.22,33.09l-3.9,115.71c-.43,12.79-1.42,25.07-2.77,37.09,5.15,3.06,9.83,7.43,10.92,12.41,3.52,16.05-14.16,24.31-26.03,31.64l16.37,62.33,45.12,177.29c1.92,7.54-.32,13.98-8.39,15.92-5.83,1.4-12.51-.26-15.65-6.17l-65.16-212.22-83.53,36.66,13.39,238.38c.59,4.31-.12,8.07-2.46,10.74-2.42,2.76-6.11,4.24-10.21,4.36-5.19.15-13-2.53-13.7-8.92l-15.42-142.61-9.57-95.34-70.39-10.78ZM475.15,122.65c5.63-19.17,9.31-38.72,9.88-58.54.4-13.96-6.43-25.05-18.81-30.74-23.4-10.75-55.3-12.8-81.67-15.25l-101.6-9.47c-24.46-2.28-54.4-4.71-77.61,2.11-13.92,4.09-24.04,14.12-28.66,27.87-5.42,16.14-8.38,33-7.72,50.14.61,15.75,9.36,28.33,22.72,35.99,13.42,7.69,27.52,12.41,42.96,16.07,53.3,12.63,142.55,25.67,195.94,17.72,22.31-3.32,38.05-13.7,44.57-35.9ZM205.04,280.27l5.18-34.11,14.24-101.51-11.13-3.31-18.45,118.1c-1.02,6.5-2.23,12.12-3.53,18.1l13.7,2.73ZM418.27,294.63l3.77-68.89,3-59.54c-16.43,1.42-31.89,1.76-48.47,1.09-30.97-1.64-60.72-5.07-91.29-9.82l-55.35-11.35-14.65,105.55-4.58,30.1c33.35,7.28,66.08,13.43,99.96,17.62,21.98,2.72,42.87,4.16,64.72,5.42l40.86,2.35c1.05-4.02,1.74-8.25,2.03-12.52ZM435.48,311.07c1.14-8.8,1.85-16.17,2.14-24.6l4.25-123.46-10.89,2.35-6.68,122.24c-.38,7.02-1.06,13.16-2,20.24l13.16,3.22ZM341.16,388.31c30.85-10.82,59.53-23.96,87.69-39.41,7.88-4.32,19.65-12.27,17.31-21.28-2.19-8.42-16.73-12.26-24.11-13.19-12.3-1.55-23.81-2.36-36.58-2.87-56.13-2.22-110.9-9.44-165.67-21.67-28.53-6.37-52.24-11.88-81.5-7.47s-86.35,17.39-107.59,37.77c-7.97,7.65-8.42,18.56-.45,26.17,20.1,19.2,61.88,32.87,89.14,39.51,65.55,15.98,156.66,25.25,221.76,2.42ZM467.29,600.62c1.31,4.29,3.27,6.75,6.98,7.19,2.54.3,9.4-1.47,8.36-5.57l-45.36-178.5-16.69-63.24-20.8,10.2,4.33,15.92.12,7.8,63.07,206.21ZM77.78,412.01c.93-3.49.93-5.93,1.38-9.31.91-6.86,3.19-14.02,4.73-20.81l-22.62-8.96-40.5,184.04-14.81,71.3c.27,5.07,11.75,6.72,13.96,1.98l57.86-218.25ZM314.43,425.25l84.28-37.26-4.27-14.59c-27.86,12.18-51.74,22.72-81.8,29.34l1.78,22.51ZM273.77,407.6l-44.17.53c-47.87-2.42-94.52-10.09-140.19-24.42l-4.59,18.68,191.26,29.63-2.32-24.41ZM322.58,673.52l-13.32-234.88-2.43-34.64-27.08,3.23,20.01,196.95,7.6,71.31c1.82,2.51,6,3.75,8.55,3.35,2.04-.32,6.9-1.21,6.66-5.32ZM188.66,561.08l12.04-134.48-21.3-3.25-4.16,136.92c0,4.8,12.61,5.76,13.41.82Z"/>
        <path d="M402.93,336.34c-4.62,2.83-33.16,19.1-36.09,16.26-.49-.48.45-2.45,1.27-2.81,10.59-4.69,22.3-10.52,32.27-16.11.79-.44,2.07-.64,2.62-.67.73-.04.65,2.89-.06,3.33Z"/>
      </g>
    </g>
  </g>
</svg>