<?xml version="1.0" encoding="UTF-8"?>
<svg id="Calque_2" data-name="Calque 2" xmlns="http://www.w3.org/2000/svg" viewBox="0 0 759.59 423.5">
  <g id="Calque_1-2" data-name="Calque 1">
    <g>
      <path d="M455.88,332.86c-18.11,17.75-74.75,27.85-98.95,21.35-39.74,14.28-91.3,23.9-132.7,10.74-32.79,15.25-70.23,32.35-106.9,25.65-17.4,9.79-34.53,18.91-53.09,26.47-20.99,8.55-47.69,12.16-58.63-12.63-10-22.68-5.02-50.24,2.49-73.52-3.55-20.72.77-40.41,11.55-58.4,11.12-18.57,24.51-34.63,39.57-50.58.27-15.44,2.72-30.1,9.38-44.06,23.95-40.9,72.7-75.76,115.41-94.52,15.4-37.76,45.78-51.8,81.58-65.73C300.25,5.37,336.15-.54,373,.04c38.39,2.24,66.51,9.64,90.09,41.4,23.78.81,46.16,4.48,68.18,12.36,13.39,4.84,25.53,10.8,36.56,19.65,14.79,11.74,23.91,27.72,27.67,46.13,20.82,5.3,39.97,12.88,58.03,23.94,12.97,8.19,24.22,17.7,33.27,29.95,8.08,10.55,12.78,22.2,14.37,35.41,27.74,16.62,57.71,49.74,58.42,83.03.35,16.58-10.36,28.76-26.74,30.75-13.88,1.68-27.43-.33-41.06-4.2-17.64-5.01-34.69-9.57-52.76-13.14-22.75,16.18-77.53,11.94-105.04,9.71-23.34,13.42-51.98,17.1-78.1,17.84ZM340.14,160.35c-17.49-31.26-45.31-64.01-78.87-77.76-32.11-13.15-50.28,2.11-50.07-5.72.03-1.18,1.71-3.42,3.08-3.83,18.88-5.61,38.39-2.77,55.98,6.09,42.99,21.66,73.88,67.03,91.43,110.82,16.43,40.99,26.51,93.94,13.35,136.76-2.46,7.99-6.13,14.43-11.13,21.74,21.73,3.07,48.38-2.53,68.85-9.77,11.12-3.93,19.64-10.82,26.29-20.53,8.32-12.14,14.73-24.86,19.7-39.19,19.7-56.84,21.5-118.71,5.25-176.64-5.6-19.97-13.42-38.11-24.95-54.9C431.8,7.71,388.67,4.86,344.04,7.71c-25.88,2.01-50.47,7.55-74.88,15.84-11.38,4.34-21.77,8.66-32.28,14.56,18.56-1.87,34.77,1.79,50.8,10.96,20.03,11.47,37.76,28.55,51.94,46.42.78.99.65,3.61-.17,3.89s-3-.24-3.55-.93c-14.71-18.33-31.42-34.16-51.76-45.7-18.74-10.64-39.36-13.16-60.03-7.17-13.39,8.21-24.21,20.27-30.8,34.08,1,1.59,1.95,3.2,2.43,4.1.39.73-1.42,2.74-2.56,3.2-38.99,15.45-81.56,45.25-108.33,78.78-11.43,14.32-18.16,30.95-18.38,49.68,26.02-27.82,62.53-27.15,94.41-8.85,38.79,23.24,66.96,62.47,74.84,107.14,2.81,15.96,1.17,31.01-5.89,45.54,36.36,11.01,89.66,1.92,124.68-11.6,7.36-6.69,11.72-14.88,14.5-24.39,15.12-51.68-3.19-117-28.87-162.91ZM556.17,275.92c19.2-35.12,30.6-73.14,34.25-112.55,2.33-25.19.31-52.82-15.4-73.21-23.27-28.57-71.41-39.95-106.63-41.52,8.83,14.99,15.18,29.41,20.09,45.72,19.32,62.55,17.2,129.54-4.87,191.1-5.57,14.41-12.03,26.97-21.45,40.12,19.07-.12,56.79-6.02,71.01-19.18,9.44-8.74,16.53-18.63,22.99-30.46ZM645.58,289.12c19.36-24.73,36.2-50.65,48.51-79.25.07-11.22-5.61-21.23-11.39-30.52-19.73-27.75-53.85-43.52-85.72-52.54,1.29,15.95.94,30.22-.64,45.66-4.7,36.37-15.38,70.99-32.28,103.37-6.59,11.99-13.77,22.26-22.79,32.82,23.77,2.12,47.11,2.14,70.55-.51,14.06-1.59,24.81-7.6,33.75-19.03ZM120.89,384.03c32.31,6.41,72.35-11.93,100.87-25.37,10.98-14.06,9.96-36.48,5.66-53.06-8.96-34.52-29.8-64.72-58.59-85.71-9.51-6.93-19.03-11.98-30.24-15.79-20.04-6.81-43.47-4.61-60.14,9.45-20.93,17.66-38.27,38.71-52.54,61.83-8.75,14.17-13.48,29.48-11.9,45.74,16.05-17.43,39.5-17.15,59.03-7.63,23.77,11.74,49.16,42.51,47.84,70.53ZM752.73,293.09c.12-29.87-27.94-61.88-53.3-77.38-14.57,30.37-32.28,58.39-54.05,83.83l31.37,7.68c20.79,5.09,73.38,24.37,75.99-14.13ZM58.55,411.98c19.1-7.64,37-16.31,54.58-27.08,1.42-3.54,1.38-8.18.27-12.22-6.91-25.09-25.32-46.03-49.56-55.69-17.57-7-41.88-2.24-48.32,13.98-8.02,20.18-13.13,50.35-3.64,70.69,8.98,19.24,30.14,16.93,46.67,10.32Z"/>
      <path d="M244.24,291.08c-9.51-29.17-24.4-55.06-46.08-76.68s-49.43-37.56-79.55-39.14c-.66-.03-1.99-1.07-2.47-1.45-5.04-3.93,30.66-7.16,70.87,24.8,27.25,21.66,47.31,50.79,58.13,83.87.92,2.82,2.84,5.57-.89,8.6Z"/>
      <path d="M395.08,239.06c-6.75-43.77-22.86-87.61-47.12-124.77-.45-.68-.21-2.74.39-3.29s2.86.13,3.38.93c24.98,38.13,41.31,81.13,47.36,126.34.12.92-.89,2.87-1.62,3.15s-2.26-1.54-2.39-2.36Z"/>
      <path d="M398.56,256.62c5.13-9.08,3.18,54.76-4.65,57.12,1.33-18.66,5-37.54,3.33-53.94-.1-1.01,1.01-2.62,1.32-3.18Z"/>
      <path d="M445.51,295.14c5.63-2.75-10.84,33.01-13.99,25.12,4.52-7.46,8.91-15.67,12.02-23.22.25-.62,1.48-1.67,1.97-1.9Z"/>
      <path d="M263.6,325.25c1.55,5.46,1.31,18.63-3.91,21.65-2.77,1.6,1.7-10.02,1.6-19.53l-.03-2.39c0-.52,2.15-.39,2.34.27Z"/>
      <path d="M428.27,311.6c-5.38,15.22-14.87,18.58-11.18,12.63l8.04-12.96c.31-.51,1.04-1.4,1.34-1.78s1.98,1.6,1.8,2.11Z"/>
      <path d="M338.73,208.07c9.21,19.26,3.09,17.46,1.86,14.41l-5.03-12.47c-.26-.64-.08-2.16.07-2.8s2.81.27,3.1.86Z"/>
      <path d="M104.86,175.26c-3.75,2.05-10.54,3.91-15.26,3.93-.64-5.89,22.47-7.88,15.26-3.93Z"/>
      <path d="M350.95,252.86c-1.96-3.55-3.89-12-2.95-15.15,1.26-4.22,8.26,13.84,2.95,15.15Z"/>
      <path d="M394.93,24.42c.68.47-1.94,2.46-2.75,2.17l-9.2-3.43c4.07-3.9,8.65-1.01,11.95,1.27Z"/>
      <path d="M115.47,335.85c-7.67-10.5-17.74-20.77-28.36-28.16-11.36-7.9-22.77-12.15-36.44-14.99-1.99-.41.3-7.89,24.82,3.36,16.76,7.69,32.27,21.94,41.84,37.15.47.75.7,2.52.79,3.01s-2.12.35-2.64-.37Z"/>
      <path d="M173.18,255.87c-.62-6.2,18,15.05,12.64,13.55-.45-.13-2.07-.45-2.4-.8l-9.38-9.92c-.48-.51-.8-2.19-.86-2.83Z"/>
      <path d="M195.68,288.04l-6.71-11.52c-.35-.6-.27-2.17.1-2.72s2.64.4,3,1.05l6.49,11.84c.24.43-.41,3.06-.84,2.82s-1.74-.97-2.04-1.47Z"/>
      <path d="M180.13,283.02l-6.94-8.72c-.32-.4-.46-1.83-.44-2.33.03-.66,2.73-.64,3.15-.09l6.75,8.93c.27.35.06,2.1.03,2.54-.04.59-2.1.24-2.54-.32Z"/>
      <path d="M136.96,373.76c-1.8-4.72-2.88-9.65-3.72-15.16,5.46,2.07,7.32,9.35,3.72,15.16Z"/>
      <path d="M41.37,291.19c-3.55,2.69-7.8,3.14-12.88,3.15,2-4.12,7.79-6.05,12.88-3.15Z"/>
      <path d="M570.5,147.99c.85,5.86,1.41,12.66-1.03,17.46-.19.38-1.72-.98-1.74-1.42l-.39-14.06c-.01-.51.8-1.09,3.15-1.98Z"/>
      <path d="M571.59,178.99l-1.83,11.13-1.21,1.41c-.41.47-2.43-1.03-2.33-1.65l2.02-11.65,3.35.76Z"/>
      <path d="M677.63,220.18c-.95,1.92-24.21,48.06-25.34,42.01-.11-.56-.36-2.33-.02-2.95l22.38-41.05c.45-.82,2.61-1.66,2.77-1.21.24.67.65,2.31.21,3.2Z"/>
      <path d="M595.99,269.36c2.67,3.2-11.83,25.79-17.83,24,4.91-7.81,11.55-15.37,15.49-22.95.28-.53,2.01-1.45,2.35-1.05Z"/>
      <path d="M604.28,284.71c-3.67,3.13-4.1,8.55-10.52,7.05l7.86-9.36c.26-.3,2.73-.44,2.72-.05l-.06,2.35Z"/>
      <path d="M30.47,389.8c.17.61.01,2.46-.03,2.95-.66,7.44-8.09-10.69-2.69-12.69l2.72,9.74Z"/>
      <path d="M702.76,285.52c-8.09,9.34-22.44,11.2-19.95,8.04,2.67-3.4,8.53-2.66,17.65-10.51.51-.44,1.99-.7,2.49-.69.66.01.47,2.4-.19,3.15Z"/>
      <path d="M709.65,297.28c-3.51,2.75-7.61,3.92-10.48-.48l8.73-2.6c.74-.22,2.45.15,3.07.37s-.78,2.29-1.32,2.71Z"/>
    </g>
  </g>
</svg>