<?xml version="1.0" encoding="UTF-8"?>
<svg id="Calque_2" data-name="Calque 2" xmlns="http://www.w3.org/2000/svg" viewBox="0 0 944.77 539.65">
  <g id="Calque_1-2" data-name="Calque 1">
    <g>
      <path d="M490.73,137.93c-.22,1.7-1.9,3.31-3.24,3.36-1.08.04-2.85-1.56-3.07-2.88-1.4-8.42-2.85-16.1-5.73-23.96-8.02-21.87-24.6-34.74-47.45-39.11-1.5-.29-3.1-1.65-3.42-3.03-.3-1.26,1.27-3.54,2.74-3.88,19.91-4.57,36.28-12.78,44.85-32.23,2.95-6.7,5-13.66,6.27-20.89l2.22-12.58c.3-1.68,2.77-3.56,4.46-2.34,1.18.86,1.92,3.25,2.05,4.88,2.07,25.23,9.54,48.92,34.8,59.12,6.64,2.69,13.08,4.21,20.3,5.39,1.24.2,2.81,1.66,2.89,2.76.1,1.47-1.52,3.09-3.1,3.32-37.23,5.51-49.91,25.83-54.56,62.07Z"/>
      <path d="M480.4,340.27c-2.56-10.41-4.49-20.94-6.41-31.2-.07-.35-.55-1.33-.71-1.61s-1.1.22-1.4.42l-25.09,16.89c-1.56,1.05-4.53,1.68-6.07,1-2.4-1.06-2.54-4.17-1.16-6.27l16.69-25.57c.18-.28.45-1.06.51-1.28.09-.33-.9-.57-1.38-.67l-32.88-6.18c-1.5-.28-3.18-2.33-3.38-3.52-.28-1.62,1.31-4.01,3.17-4.4l19.43-4.12,14.47-3.27-16.61-21.96c-2.21-2.92-5.54-6.81-3.24-9.81.77-1,3.78-1.75,5.09-.98l27.36,16.01c.44.26,1.21.5,1.54.49s.9-1.05.95-1.36l4.77-34.08c.28-2.01,2.74-3.73,4.21-3.75,1.55-.02,3.68,1.72,4.17,3.66l7.77,31.01c.13.51.62,1.44.91,1.45s1.05-.19,1.3-.36l25.28-17.53c1.59-1.11,4.42-1.95,5.95-1.13,2.62,1.4,2.68,4.71,1.23,7l-15.99,25.37c-.25.39-.63,1.3-.71,1.53-.12.35,1.01.77,1.42.86l30.82,6.85c1.27.28,2.86,1.78,3.28,2.75.48,1.11-.66,4.19-1.87,4.48l-14.94,3.68-17.81,4.29,15.37,23.85c1.73,2.69,3.56,6.62.88,8.86-.85.71-3.55,1.19-4.56.57l-22.73-14.01c-1.78-1.1-3.55-2.13-5.61-3.25l-6.24,35.03c-.23,1.3-2.45,2.91-3.58,3.14s-3.77-1.14-4.2-2.89Z"/>
      <path d="M484.58,535.87c-8.52,1.34-6.86-29.68-27.85-43.87-13.62-9.21-28.64-8.15-29.34-14.05-.43-3.67,4.71-5.26,7.57-6.32,5.23-1.94,10.25-3.76,15.24-6.16,15.02-7.24,19.36-19.7,23.93-34.61,1.58-5.15,3.32-14.2,8.3-13.99,1.35.06,3.86,1.74,4.35,3.23l4.83,14.44c1.76,5.25,3.92,10.31,6.93,14.98,7.47,11.6,18.49,15.45,30.67,19.79l7.8,2.78c1.2.43,2.64,3.14,2.52,4.41-.15,1.58-1.95,3.56-3.72,4.1-5.48,1.67-10.45,3.12-15.7,5.05-10.45,3.84-18.64,11.27-23.2,21.47-2.94,6.59-4.84,13.25-6.85,20.27-.98,3.42-1.92,7.94-5.49,8.51Z"/>
      <path d="M79.58,113.93c-3.43-2.47-6.2-2.12-9.08.23l-18.61,15.15c-4.23,3.44-9.53,6.26-14.28,3.78s-5.33-9.81-4.13-14.68l6.56-26.56c.68-2.77-.58-5.19-2.71-6.8l-20.62-15.55c-1.52-1.14-3.12-3.06-4.22-4.6-3.06-4.31-1.43-10.11,3.56-12.17,2.99-1.24,6.55-2.28,9.87-2.57l23.16-2.02c2.9-.25,4.86-2.17,5.66-4.82,2.45-8.16,4.94-15.86,7.89-23.84,2.3-6.2,5.94-12.95,12.81-12.35,2.15.19,5.32,2.13,6.64,4.53,2.45,4.45,4.57,8.94,6.2,13.69l6.04,17.61c.67,1.96,3.62,3.47,5.73,3.56,11.21.5,21.01.7,31.69,3.54,2.34.62,4.78,3.02,5.47,4.82,2.46,6.4-3.42,11.5-8.73,15.65l-16.07,12.55c-2.35,1.84-3.27,4.57-2.5,7.55l6.31,24.57c.78,3.02.74,6.75-.06,9.69-1.31,4.78-6.23,7.26-10.95,5.65-3.15-1.07-6.46-2.8-9.24-4.8l-16.4-11.8Z"/>
      <path d="M82.21,295.11l-5.3,53.73c-.07.67-1.54,1.98-2.2,2.03s-2.02-1.23-2.1-1.91l-5.41-49.82c-.12-1.1-.56-2.61-.89-3.47l-30.61,22.85c-.62.46-2.79.15-3.1-.47s.13-2.01.75-2.73l24.39-28.2-55.69-5.19c-.91-.08-1.96-1.32-2.06-1.87s1.1-1.92,1.67-1.97l56.07-5.58-24.51-27.68c-.52-.58-.41-2.62-.02-2.86.52-.31,1.84-.48,2.38-.09l30.68,22.14c.31-.78.72-1.83.79-2.52l5.55-50.74c.09-.86,1.46-2.07,2.09-2.06s2,1.25,2.09,2.21l5.35,52.64c2.19-1.36,4.5-2.91,6.81-4.64l23.54-17.67c.59-.45,2.1-.6,2.71-.38.76.27.74,2.69.15,3.35l-19.39,21.78c-1.6,1.8-3.05,3.66-4.52,5.82l54.46,5.68c.86.09,2.51,1.47,2.16,1.93l-1.61,2.13-32.32,2.64-23,2,23.52,26.96c.39.44.8,1.69.93,2.26.16.71-2.49,1.72-3.09,1.28l-27.9-20.53c-.76-.56-1.9-1.04-2.39-1.04Z"/>
      <path d="M894.35,113.03c-6.59-4.17-12.63-7.56-19.69-11.22-11.25,11-19.77,21.82-31.04,33.2-1.06,1.07-3.99,1.44-5.22.91-4.17-1.79-2.35-9.74-1.4-14.89l6-32.47c.03-2.75-21.49-8.01-24.66-8.8-1.41-.35-3.02-1.73-3.22-2.78-.26-1.33.83-3.99,2.19-4.55l30.18-12.64c1.03-.43,2.07-1.86,2.34-3.08l9.9-44.38c.4-1.78,2.64-3.63,4.01-3.81,2.01-.27,4.23,1.31,5.02,3.36l12.83,33.41c.68,1.78,2.26,2.21,3.87,1.81l27.75-6.89c5.75-1.43,11.12-2.14,17.2-2.92,1.38-.18,3.84,1.3,4.34,2.43.61,1.36.03,4.31-1.23,5.47l-22.76,20.9-13.48,13.2c-.6.59-.37,2.77-.03,3.51l6.99,15.65,7.45,16.98c.47,1.07-.3,3.73-1.18,4.46-1.08.9-3.48.94-4.95.23l-11.2-7.08ZM876.11,49.69l-11.2-29.13c-.74,2.08-1.35,3.84-1.75,5.71l-6.35,29.82,19.3-6.4ZM893.34,73.34l30.35-28.3c-12.46,2.32-24.93,5.29-36.96,8.6-.46.13-1.03,1.74-.96,2.11l7.57,17.6ZM874.95,91.65l12.73-12.86c-.18-1.07-.55-2.8-.89-3.6l-7.94-18.99-23.9,8.17-3.72,17.05c-.18.85.79,2.18,1.57,2.54l18.88,8.66c.76.35,2.54-.22,3.27-.96ZM844.61,80.68l2.94-13.69-19.36,8.19,16.42,5.5ZM899.5,108.06c.55.33,1.38,1.03,2.15,1.61l-10.67-24.28-11.15,11.07,19.67,11.6ZM850.25,118.02l17.93-19.5-18.39-8.53-6.53,35.1c2.87-2.43,4.91-4.56,7-7.06Z"/>
      <path d="M882.33,340.19c-.1.64-1.26,1.95-1.8,2.21-.68.33-2.39-1.08-2.52-1.84l-5.87-34.34-22.36,27.5c-.44.54-2.53.92-2.95.4s-.81-2.12-.49-2.96l10.04-26.5c.54-1.44.92-2.84,1.28-4.54l-32.05,12.32c-.63.24-1.81.16-2.24.1-.58-.08-.83-2.17-.28-2.63l27.19-23.01-35.13-4.93c-.73-.1-1.91-1.4-1.77-1.91s1.17-1.62,1.78-1.74l35.15-6.71-27.53-21.31c-.62-.48-1.03-2.06-.9-2.49.17-.57,1.68-1.3,2.28-1.09l27.79,9.6c2.18.75,3.8,1.24,5.72,1.81l-1.51-3.96-11.07-27.1c-.26-.64.26-2.32.75-2.74s2.19-.16,2.66.38l22.92,26.62,5.31-34.36c.08-.52,1.24-1.5,1.67-1.79s2.29.64,2.42,1.36l6.16,34.35,22.25-26.17c.51-.6,1.9-1.02,2.36-1.14.62-.15,1.52,1.89,1.21,2.68l-7.65,19.91c-1.56,4.06-2.92,7.26-4.23,11.7l32.2-12.17c.54-.21,2.92.35,2.78.91l-.48,2.03-18.25,14.98c-2.77,2.27-5.54,4.73-8.31,7.3l34.11,4.82c.82.12,1.94,1.66,1.76,2.12s-1.01,1.46-1.7,1.59l-34.24,6.41,27.39,20.77c.52.4.89,2.18.43,2.49s-1.88.74-2.46.55l-33.06-10.78,12.99,30.86c.24.57-.21,2.15-.63,2.56s-2.19.24-2.84-.48l-23.05-25.74-2.63,16.45-2.63,17.64Z"/>
      <path d="M876.44,485.54c-1.21,5.03-1.99,9.23-2.58,14.24l-3.43,29.65c-.17,1.47-1.86,3.39-3.05,3.59-5.3.89-4.75-9.7-4.49-13.46.69-9.76,1.85-19.08,3.18-28.75.32-2.32.46-4.21.48-6.84l-18.83,11.99-14.48,9.24c-1.46.93-4.88.97-6.02-.13-1.91-1.84-.64-4.6,1.15-5.86l35.01-24.59c-1.33-1.14-2.71-2.25-4.11-3.13-9.97-6.25-19.3-12.79-28.23-20.39-1.82-1.55-2.71-4.71-.26-6.26,1.39-.88,3.86-.21,5.65.97l30.3,19.86c.27.18,1.21.46,1.4.48.28.04.61-.74.61-1.06.33-14.03.87-27.42,2.28-41.34.32-3.15,1.32-10.93,5.27-10.39,1.2.16,2.64,1.71,3.48,3.11l-.45,8.15c-.71,12.79-1.44,25.16-1.49,38.38,12.08-10.22,21.44-19.76,34.79-27.14,1.65.4,3.24.92,4.1,1.97.74.9-.22,3.29-1.35,4.24-9.36,7.84-18.13,15.47-26.91,23.87-1.2,1.15-2.38,2.65-3.39,3.93,16.8.79,28.79.91,44.52,4.58.99.23,2.28,2.01,2.49,2.86,1.09,4.57-8.33,3.34-9.89,3.25l-22.78-1.29c-5.11-.29-9.57-.34-15.22.12,3.54,4.4,6.72,7.89,10.32,12.01l13.86,15.83c.66.76.58,3.23.18,4.13-.46,1.03-3.16,1.9-4.14,1.34-1.9-1.08-3.65-2.14-4.95-3.46l-12.08-12.22-10.94-11.49Z"/>
      <path d="M684.81,343.45c-1.57,1.82-3.24,3.35-5.15,3.39-1.62.03-4.57-1.83-5.1-3.72-1.97-7.01-3.43-13.63-5.08-20.68l-2.57-11-19.61,12.16c-3.83,2.37-10.15,6.85-13.97,3.06-1.16-1.16-1.98-4.63-1.1-6.2l9.27-16.54,6.51-11.22-5.66-1.59-25.49-6.88c-1.57-.42-3.28-2.9-3.48-4.25-.26-1.77,1.06-4.23,2.6-5.6,2.72-.95,5.16-1.86,7.84-2.53l24.25-5.99-14.18-24.67c-1.45-2.52-2.45-6.66-.14-9.08,2.96-3.11,8.3-.03,11.57,2.02l21.07,13.15c.84-2.68,1.39-4.67,1.97-7.08l5.36-22.49c.34-1.41,1.87-3.68,2.9-4.65,2.41-2.27,6.32-1.58,7.78,1.39.95,1.93,1.79,4.38,2.29,6.54l5.3,22.75c.21.9.92,2.24,1.43,3.16l20.73-12.72c3.57-2.19,8.77-5.53,12.05-2.47,3.48,3.23.08,9.31-2.18,13.17l-11.91,20.36,13.85,3.67c5.74,1.52,11.03,2.85,16.8,4.63,1.77.55,3.41,3.53,3.43,5.07.02,1.97-1.8,4.73-3.99,5.33l-29.85,8.14c5.52,11.11,9.48,16.57,14.68,27.55,1.34,2.83.27,6.81-2.94,7.89-1.77.59-4.8-.16-6.47-1.2l-24.7-15.3-5.57,22.82-2.53,9.61ZM681.2,340.01l7.13-29.5c.44-1.82,1.5-3.73,2.66-4.07.96-.28,3.21.05,4.14.62l22.41,13.9c1.15.71,3.03,1.51,4.8,2.18.35-.56.37-2.78-.02-3.49l-13.77-25.09c-1.41-2.58-.69-5.94,2.71-6.85l29.08-7.79c.34-.09,1.27-1.07,1.11-1.29s-.88-1.03-1.62-1.23l-29.31-7.95c-1.45-.39-2.99-1.77-3.19-2.76-.17-.85.23-2.84.7-3.64l13.64-23.28c.74-1.26,1.05-2.66,1.38-4.77-3.37,1.37-5.69,2.53-8.48,4.26l-13.18,8.21-6.13,3.53c-2.02,1.17-5.86.79-6.56-2.12l-4.29-17.92-3.12-12.49c-.14-.55-1.05-1.31-1.39-1.49-.25-.14-1.3.9-1.38,1.22l-4.07,15.74-3.56,15.27c-.24,1.02-1.48,2.47-2.38,2.81-.75.28-3.07.17-3.91-.35l-23.43-14.62c-1.02-.64-2.62-1.07-3.83-1.19.23,1.47.64,3.29,1.26,4.37l13.53,23.56c.61,1.07.59,3.56.02,4.53-.5.86-2.27,1.85-3.72,2.21l-28.62,7.26c-.63.16-1.72,1.37-1.44,1.6s1.09.91,1.79,1.09l29.06,7.79c1.25.34,2.9,1.71,3.22,2.62s.07,2.99-.48,3.95l-14.54,25.31c-.44.76-.45,2.7-.04,3.46,2.44-1.06,4.62-2.09,6.74-3.41l20.94-12.98c.82-.51,3.2-.65,4.09-.34.74.26,1.7,1.56,1.94,2.59l7.17,30.79c.12.53.97,1.57,1.31,1.39s1.48-1.09,1.62-1.67Z"/>
      <path d="M287.19,339.29c-.45,2.92-2.22,8.01-5.64,7.81-3.96-.23-5.68-6.56-6.25-10.15l-5.01-31.37-7.06,4.88c-7.2,4.98-14.03,9.87-21.48,14.5-2.21,1.38-5.15.59-7.1-.99-.65-2.13-.67-4.87.75-6.78l19.77-26.43-37.79-6.73c-1.72-.31-3.52-2.65-3.6-3.97-.29-5.13,8.78-5.93,14.08-6.69l27.25-3.91-3.25-4.66-15.49-22.04c-.96-1.36-.51-4.7.57-5.79,3.33-3.35,9.44,1.47,13.03,3.99l20.33,14.26,5.02-30.42c.64-3.9,2.2-10.41,6.24-10.88,4.88-.57,5.97,10.19,6.69,14.73l4.12,26.2,19.22-13.33c4.07-2.82,10.57-7.92,14.15-5.28,3.81,2.81-1.39,9.65-3.73,12.85l-14.3,19.52,15.27,2.33c7.67,1.17,14.87,2.31,22.52,3.91,1.74.36,3.38,3.03,3.28,4.49s-1.82,3.84-3.64,4.15l-37.11,6.21,9.67,13.13c3.65,4.95,7.15,9.54,10.37,14.91.58.97.3,3.56-.19,4.55-1.6,3.25-6.57,1.64-9.42-.28l-25.83-17.39c-.63,3.21-1.14,6.41-1.65,9.74l-3.8,24.92ZM283.25,338.97l4.25-27.08,1.57-10.1c.11-.68,1.4-2.04,2.08-2.05.54-.01,1.84.3,2.39.68l16.23,11.03,12.59,8.2c.37.24,1.97.38,1.88.04-.06-.23-.16-1.26-.3-1.47l-6.24-8.89-14.12-18.84c-.46-.61-.7-2.37-.42-2.92s1.52-1.29,2.24-1.4l34.89-5.54c1.42-.23,2.82-.87,4.43-1.76-3.61-.89-6.28-1.52-9.79-2.08l-30.26-4.82c-.69-.11-2.06-1-2.2-1.57s.21-1.94.56-2.41l14.78-20.03c1.97-2.67,3.45-4.88,5.35-8.12-1.67.29-2.99.64-4.01,1.35l-25.75,17.76c-.77.53-2.56.87-3.28.47-.6-.33-1.39-1.86-1.51-2.58l-5.46-34.42c-.2-1.23-1.01-2.7-1.76-3.78-1.14,3.02-1.9,5.31-2.36,8.13l-5.26,32.21c-.16,1-3.27,1.38-4.13.77l-15.08-10.77-12.42-8.43c-.4-.27-2.02-.47-1.85-.16.12.21.17,1.33.38,1.65,2.61,4,6.76,10,9.99,14.32l9.18,12.29c.51.68.88,2.35.55,2.97-.27.5-1.53,1.24-2.24,1.35l-34.68,4.97c-1.89.27-3.21.75-5.38,1.95,3.71,1.08,6.17,1.7,9.63,2.28l30.9,5.17c.6.1,1.74,1.1,1.82,1.66.06.42-.24,1.64-.6,2.12l-21.06,28.2c-.31.41-.32,2.1.05,1.99,3.64-1.15,8.45-4.61,12.14-7.17l18.9-13.09c.73-.51,2.98-.35,3.34.21.27.42.65,1.34.76,2.01l5.67,35.45c.17,1.09.99,2.45,1.97,3.97.65-1.14,1.42-2.38,1.63-3.7Z"/>
      <path d="M286.34,115.38c-2.9-1.92-5.77-1.88-8.46,0l-19.08,13.35c-2.68,1.88-6.09,3.42-9.28,3.97-5.6.97-10.31-2.84-10.93-8.4-.35-3.1-.09-6.79.63-9.93l5.51-23.91c.49-2.14-.5-4.71-2.17-6.06l-17.94-14.56c-2.24-1.81-4.49-4.19-5.91-6.62-3.15-5.39-.85-11.95,5.01-14.05,3.18-1.14,6.8-2.05,10.26-2.38l21.42-2.04c2.49-.24,4.45-1.4,5.35-3.71l8.28-21.28c1.28-3.3,3.28-6.61,5.58-9.17,4.15-4.61,11.07-4.5,15.11.27,1.99,2.34,3.78,5.43,4.95,8.36l8.4,20.99c.88,2.2,2.67,3.96,5.16,4.2l24.04,2.27c2.71.26,5.73,1.24,8.26,2.27,5.74,2.34,7.85,8.99,4.45,14.25-1.63,2.51-4.04,4.99-6.44,6.93l-16.27,13.17c-2.69,2.17-3.81,4.9-2.94,8.24l3.53,13.57c1.97,7.56,4.91,17.84.11,23.6s-12.8,2.46-17.8-.85l-18.84-12.47ZM288.59,109.91l14.02,9.24c3.66,2.41,12.43,8.7,15.63,6.15,2.72-2.18,1.49-9.06.68-12.36l-5.22-21.26c-1.19-4.84.45-9.18,4.22-12.25l13.44-10.93c3.52-2.86,10.2-7.79,9.1-11.76-.85-3.07-7.65-4.24-10.55-4.54l-23.13-2.39c-4.13-.43-7.13-2.71-8.66-6.53l-8.16-20.39c-1.28-3.2-4.47-10.23-8.18-9.74-3.99.52-6.91,7.33-8.45,11.32l-7.61,19.62c-1.16,3-4.17,5.62-7.46,5.96l-22.04,2.3c-3.91.41-11.96,1.22-12.8,5.07-.72,3.29,3.73,6.95,6.53,9.24l17.91,14.61c2.69,2.2,3.44,6.18,2.7,9.46l-6.3,27.79c-.49,2.16-.13,6.07,1.52,7.31,1.87,1.41,5.6.68,7.45-.58l14.11-9.64c6.57-4.48,13.09-11.11,21.25-5.72Z"/>
      <path d="M684.36,135.92c-.17,1.67-2,3.36-3.24,3.29s-2.85-1.8-3.04-3.16c-1.41-9.86-3.58-18.83-7.77-27.73-8.51-18.1-24.72-30.32-44.65-33.2-1.46-.21-3.14-2.18-3.15-3.35,0-1.4,1.41-3.18,2.94-3.55,33.61-8.19,47.06-28.95,50.75-62.21.16-1.42,1.63-3.23,2.76-3.4,1.7-.25,3.45,1.36,3.59,3.32,2.56,36.13,18.78,57.57,55.27,63.63,1.14.19,2.74,1.98,2.77,3.03s-1.43,3.07-2.57,3.24c-23.08,3.34-40.96,14.31-48.94,36.82-2.68,7.55-3.86,14.78-4.74,23.26ZM725.64,72.66c-19.85-6.3-33.42-16.32-42.27-36.33l-4.41-13.43c-5.35,21.81-17.75,37.95-39.42,46.39l-5.3,2.07c24.84,6.78,40.09,25.7,46.54,49.32,6.6-24.85,19.21-40.14,44.87-48.01Z"/>
      <path d="M717.39,489.33c-27.69,12.9-24.2,48.48-34.85,50.24-5.52.91-8.23-6.4-10.08-10.96-2.63-6.48-5.09-12.7-8.31-18.87-5.29-10.15-13.63-18.06-24.45-21.82l-13.64-4.73c-3.17-1.1-6.97-2.77-6.82-6.62.39-10.04,27.55-6.47,40.89-28.42,7.48-12.31,7.86-21.21,13.69-32.62.94-1.84,4.01-3.31,5.77-3.18s4.67,1.98,5.39,3.86l5.28,13.93c8.87,23.39,17.93,29.24,40.65,36.92,4.62,1.56,11.09,3.43,11.16,8.74.06,4.98-5.81,6.68-9.7,7.93-5.17,1.66-10.11,3.33-14.98,5.6ZM699.83,496.66c8.93-10.96,20.43-14.41,33.43-18.43,1.24-.38,2.86-1.56,3.81-2.7-1.82-1.36-3.22-2.19-4.81-2.73-16.35-5.56-29.84-10.01-39.51-25.62-3.78-6.11-6.09-12.55-8.64-19.32l-3.35-8.91c-.17-.44-1.32-1.38-1.71-1.21-6.24,2.77-5.51,37.94-35.44,50.84-4.96,2.14-9.67,3.87-14.84,5.77-1.37.5-2.53,1.26-3.9,2.52,1.28.82,2.68,1.56,3.8,1.91,5.56,1.73,10.68,3.3,15.85,5.67,15.03,6.87,22.78,18.21,28.9,33.12l5.62,13.69c.46,1.11,1.97,2.65,3.1,3.31,7.27-14.93,6.71-24.38,17.72-37.89Z"/>
      <g>
        <path d="M322.9,435.23c-.53.63-2.47.86-3.08.53s-.73-2.27-.24-2.88l6.94-8.62c.49-.62,2.46-1.01,3.03-.51s.82,2.56.31,3.16l-6.96,8.31Z"/>
        <path d="M218.81,504.53c-.63.18-2.59-.76-2.63-1.39s.79-2.25,1.5-2.44l9.6-2.59c.66-.18,2.11.71,2.33,1.26s-.63,2.18-1.34,2.39l-9.46,2.77Z"/>
        <g>
          <path d="M285.72,508.11c-1.61-1.02-3.78-1.17-5.07-.15l-11.99,9.54c-2.15,1.71-4.86,3.33-7.4,4.44-4.51,1.97-9.47-.51-10.65-5.25-1.62-6.53,1.77-17.27,3.77-24.57.35-1.28-.42-2.91-1.48-3.73-4.65-3.58-8.73-6.82-12.93-10.82-2.01-1.91-2.96-5.52-2.18-8.12.6-1.97,3.07-4.72,5.69-5.4,6.31-1.64,12.21-2.4,18.72-3.2,1.95-.24,3.17-1.64,3.66-3.48,1.95-7.19,4.01-13.75,6.61-20.73.86-2.31,2.71-4.97,4.52-6.49,3.01-2.52,7.26-2.16,9.89.63,1.13,1.2,2.66,3.3,3.22,4.84l7.39,20.09c.4,1.1,1.79,2.2,2.97,2.27,6.55.4,12.37.89,18.73,2.07,2.69.5,5.35,2.63,6.17,4.89.82,2.27.46,5.67-1.27,7.77-3.75,4.55-7.78,8.19-12.27,12.12-1.11.97-2.08,2.95-1.73,4.31l4.62,17.65c.57,2.18.32,5.48-.2,7.67-.83,3.47-4.02,5.61-7.63,5.19-1.62-.19-4.32-.86-5.62-1.69l-15.55-9.86ZM277.44,505.15c3.28-2.5,6.75-3.03,10.15-.88l15.73,9.98c1.35.86,4.4,1.68,5.75.82,1.54-.98,2.19-4.14,1.84-5.9-1.32-6.64-2.95-12.61-4.84-19.06-.85-2.9.09-5.55,2.17-7.47,4.23-3.91,8.2-7.78,12.27-11.98.8-.83,1.17-3.62.65-4.59-1.7-3.19-16.23-3.57-20.83-3.89-3.63-.25-5.81-1.67-6.91-5.07-2.43-7.49-5.08-14.56-8.27-21.77-.71-1.62-3.66-3.15-5.08-2.08-1.49,1.12-3.08,3.18-3.63,4.88l-6.88,21.17c-1.09,3.34-3.09,5.12-6.52,5.52-5.99.7-11.62,1.61-17.6,2.88-1.72.36-4.21,2.76-3.54,4.51.83,2.16,2.72,4.17,4.46,5.55l10.76,8.52c1.89,1.49,1.96,4.32,1.31,6.58-1.39,4.77-6.84,22.48-2.13,24.84,1.61.81,4.53.11,5.87-.91l15.26-11.64Z"/>
          <path d="M246.02,433.65c.51.65.2,2.69-.36,3.07-.67.45-2.55.07-3.09-.6l-7-8.69c-.53-.66-.63-2.14-.36-2.8.32-.78,2.98-1.02,3.54-.29l7.27,9.32Z"/>
          <path d="M234.53,448.25c.63.27,1.39,1.98,1.26,2.63-.16.8-2.31,1.44-3.08,1.12l-9.38-3.95c-.67-.28-1.33-1.82-1.32-2.48s2.03-1.78,2.69-1.5l9.84,4.19Z"/>
          <path d="M228.73,525.77c-.49.47-2.39.49-2.93.25-.68-.31-.72-2.44-.15-2.98l7.59-7.19c.55-.52,2.3-.63,2.85-.29.65.41.74,2.47.11,3.07l-7.47,7.14Z"/>
          <path d="M338.14,522.78c.45.43.49,2.19.18,2.63-.38.55-2.3.72-2.8.26l-7.63-7.05c-.55-.51-.61-2.4-.28-2.96s2.29-.71,2.78-.24l7.75,7.36Z"/>
          <path d="M341.61,447.98l-9.59,3.89c-.65.26-2.34-.44-2.56-1.05s.51-2.47,1.12-2.72l9.26-3.82c.54-.22,2.18.33,2.61.66.56.44-.16,2.77-.84,3.04Z"/>
          <path d="M345.8,500.66c.61.17,1.62,2.49,1.25,2.98-.46.6-1.8,1.19-2.58.94l-8.56-2.74c-.58-.18-1.44-1.31-1.64-1.8-.26-.62,1.54-2.18,2.29-1.97l9.24,2.6Z"/>
        </g>
      </g>
      <g>
        <path d="M112.34,435.19c-.44.58-2.44.77-2.9.35s-.76-2.12-.37-2.63l6.83-9.23c.4-.53,2.4-.79,2.87-.37s.83,2.26.42,2.8l-6.85,9.09Z"/>
        <path d="M26.75,507.94l-9.66,4.32c-.42.19-1.86-.37-2.29-.59-.57-.29-.11-2.62.5-2.89l9.53-4.26c.56-.25,2.18.32,2.7.57s-.2,2.58-.79,2.84Z"/>
        <g>
          <path d="M81.38,503.48c-2.52-1.73-4.68-1.78-6.84.08-4.16,3.57-8.24,6.96-12.7,10.19-2.77,2.01-6.99,2.48-9.59-.22-4.26-4.42-.38-16.64,1.27-22.9.42-1.59-.45-3.32-1.77-4.28-5.27-3.84-13.59-9.06-12.04-14.67s12.93-6.27,19.15-7.02c1.99-.24,3.49-1.46,3.96-3.43,1.58-6.61,3.17-12.67,5.53-18.95.97-2.58,3.43-5.33,6.02-5.91,3.49-.78,6.68,1.71,8.03,4.69,2.67,5.89,4.66,11.48,6.69,17.78,1.7,5.26,19.74-.04,23.28,7.19,2.89,5.9-5.09,12.38-10.07,16.84-1.52,1.36-2.13,3.12-1.48,5.13,2.05,6.36,7.25,20.44.33,23.97-5.17,2.64-14.31-4.72-19.79-8.48Z"/>
          <path d="M43.26,434.19c.37.51.11,2.46-.39,2.81-.61.43-2.61.05-3.08-.58l-7.1-9.51c-.43-.57-.07-2.46.43-2.8.62-.42,2.62-.16,3.07.46l7.06,9.63Z"/>
          <path d="M38.23,522.77c-1.88,2.86-6.52,11.12-9.4,9.61-.6-.31-.9-2.37-.45-2.97l6.39-8.6c.3-.41,1.98-.76,2.47-.84.66-.1,1.43,2.14.99,2.79Z"/>
          <path d="M126.59,523.75c.46.45.58,2.08.36,2.61-.27.67-2.67.92-3.18.4l-7.19-7.29c-.36-.36-.43-1.97-.3-2.46.18-.66,2.42-.95,2.97-.41l7.33,7.15Z"/>
          <path d="M31.08,452.37l-9.6-4.04c-.57-.24-1.22-2.01-1.12-2.6.56-3.18,10.48,2.26,11.9,3.04.44.24,1,1.6,1.21,2.04s-1.89,1.77-2.39,1.56Z"/>
          <path d="M131.06,447.09l-8.44,3.73c-.66.29-2.06-.09-2.52-.43-.58-.43,0-2.73.68-3.04l8.56-3.88c.62-.28,2.4.39,2.83.78.53.48-.39,2.52-1.1,2.84Z"/>
          <path d="M134.96,502.75c.7.21,1.73,2.03,1.43,2.58s-1.91,1.45-2.55,1.25l-8.39-2.62c-.75-.23-1.63-1.84-1.49-2.5s1.97-1.4,2.69-1.18l8.3,2.48Z"/>
        </g>
      </g>
    </g>
  </g>
</svg>