<?xml version="1.0" encoding="UTF-8"?>
<svg id="Calque_2" data-name="Calque 2" xmlns="http://www.w3.org/2000/svg" viewBox="0 0 789.8 919.55">
  <g id="Calque_1-2" data-name="Calque 1">
    <g>
      <circle cx="780.29" cy="266.37" r="3.91"/>
      <g>
        <path d="M363.28,385.1c-.71,1.86,2.66,11.77-1.25,22.13l15.44,56.28c.38,1.38-4.81,2.32-5.3.9-2.74-7.99-4.2-19.45-8.61-22.52-21.39-5.8-24.21-11.96-33.22-29.6-.76-1.49.62-6.53,2.18-6.13,7.05,1.8,13.96,5.2,19.2,10.31,4.64,4.53,6.88,10.21,11.61,15.34-1.69-8.32-3.27-16.17-6.76-23.41-2.4-4.98-8.8-8.32-9.57-15.27l-6.81.16c-7.71.18-15.52-1.62-22.5-4.88-14.6-6.81-16.35-17.7-19.52-32.22l-15.54,12.82c13.31,5.85,20.61,10.11,29.89,20.67,7.57,8.63,14.24,25.35,13.4,37.52l4.12,7.53c.37.67.27,2.3-.08,2.88-2,3.36-6.9-7.11-9.58-7.83-16.56-2.4-28.97-9.77-40.27-21.73l-16.68,5.39c-8.98,2.9-23.34-2.98-31.97-6.85-1.99-.89-3.02-4.81-1.72-6.55,2.49-3.32,5.38-5.31,9.85-6.15-1.05,3.92-3.15,5.2-6.8,7.99,5.41,6.03,22.03,10.75,30.83,8.21l14.29-4.12-10.15-14.58c-3.43-4.93-10.13-7.99-14.18-12.64-4.87-5.6-13.37-7.99-20.28-6.48-18.46,4.03-34.38,4.35-51.04-5.32-2.05-1.19-2.88-4.9-1.26-6.78,7.47-8.63,12.26-7.99,23.52-11.23-8.39-2.53-16.42-4.3-24.23-8.08-17.62-8.52-29.55-30.84-20.74-32.66,16.82-3.48,36.91.26,49.64,12.18l4.45-1.08.04,8.17c.08,14.46-1.24,10.72,5.27,20.8,11.64,18.02,33.23,28.76,54.38,20.65,31.2-11.97,29.27-40.37,36.02-43.99,5.97-3.2-6.64,23.63-7.1,24.07l-.57,13.35c-.11,2.55,6.02,14.34,10.4,18,13.09,10.96,32.78,13.45,47.38,3.68,6.89-4.62,12.6-11.37,16.93-18.43,1.78-2.91,2.5-8.25,3.29-11.76,3.92-17.4-4.61-33.7-19.96-42.65l-20.96-3.7c-.37-.07-1.64-1.45-1.94-1.63s1.58-1.23,2.04-1.28c16.78-1.94,17.47,7.94,34.86,1.98,14.9-5.1,25.65-15.8,31.35-30.26.4-1,1.48-2.66,1.9-3.29.64.57,1.91,1.53,1.94,2.18l.15,2.88c11.04.47,21.76,5.85,27.33,15.56.39.68,3.19,1.81,3.12,1.09l-2.37-23.35c-14.08-12.77-17.74-33.43-9.22-49.59.62-1.17,2.59-2.46,3.53-2.62,1.09-.18,3.04,2.1,2.91,2.94-2.67,1.99-4.35,3.89-5.32,6.93-3.58,11.21-2.07,23.76,4.69,33.11.6.83,3.03,2.38,3.19,2.22l.35-6.16,2.46,5.62c4.66-12.37,4.55-20.4-1.46-33.21.87-.55,3.73.77,4.63,2.51,10.03,19.37-2.31,35.18-1.99,38.24l2.66,25.93c5.79-9.11,10.37-15.56,20.1-19,2.65-.94,7.08-1.92,9.52-.98.55,3.17-.74,6.77-2.34,9.3-11.07,17.47-27.94,12.45-26.58,21.99,3.28,1.23,7.85,2.02,10.77,3.59,3.07,1.66,5.57,2.14,8.15-.34,8.6-8.25,13.94-.58,19.4-3.42,5.17-2.69,10.1-3.96,16.27-5.74l-15.18-13.78-4.13,11.78c-.31.89-1.58,1.95-2.87,2.07.03-10.85,7.08-13.87,1.56-23.69-.94-1.67-.84-4.02.72-5.32,5.49,11.01,13.23,19.26,23.12,26.5,2.71,1.99,5.4,3.56,8.74,4.38,5.37,1.33,9.76,3.86,14.84,5.94,6.36,2.61,14.1,3.34,21.69,4.05-20.78-18.57-5.62-16.42-24.8-33.13-5.94-5.17-11.76-9.4-19.52-11.72-8.91-2.67-15.89-9.29-18.01-18.29-.72-3.07-.53-6.34,1.4-8.92,2.49,9.57,2.88,16.88,12.1,21.22l12.27,5.78c4.91,2.31,9.07,5.14,13.28,8.4,6.88,5.31,11.01,10.88,13.95,19.09,2.59,7.25,9.18,14.41,16.87,16.22,6.42,1.52,12.59-2.49,17.91-5.17l10.18,2.45c11.02,2.66,21.76.19,29.93-7.95,5.19-5.17,7.39-10.71,8.52-18.23.83-5.53,15.37-16.05,7.2-28.73-1.95-3.03-5.3-5.57-8.61-7.74-3.71,8.15-8.68,13.16-16.06,16.5-6.27,2.83-12.52,5.67-20.17,3.84,16.93-7.07,21.19-4.01,31.85-19.2,8.6-12.25,4.18-29.34-8.85-35.85-1.05-.52-3,1.94-3.84,3.14-.22-.49-.78-3.59-.6-4.82,1.47-9.98-1.95-18.85-9.09-25.61-7.05-6.68-10.25-5.88-19.31-7.51-7.81-1.4-10.58-6.92-21.89-5.15-8.57,1.34-15.38,5.23-20.56,11.99l-7.47,9.74c-.84-2.99,0-4.41,1.24-6.88-6.64-4.47-14.43-3.11-21.36.1-11.92,5.52-18.91,16.8-16.3,30.37.29,1.52-.32,5.16-.87,6.49-14.54,4.32-14,20.34-11.59,32.43l2.46,12.32c-.79-.23-2.92-1.84-3.2-2.89l-3.68-13.99c-1.1-4.19-.6-9.75.05-13.92,2.23-14.35,14.01-14.24,13.2-20.07-1.61-11.63,2.4-21.95,11.07-29.48l.6-11.26c.3-5.57-11.28-1.65-11.06-15.78-3.19-1.21-7.46-2.85-8.92-5.22-2.13-3.46-2.43-7.7-1.37-11.43,1.54-5.41,5.78-8.17,11.55-8.15-.46-8.23,5.46-13.85,13.14-13.51,6.91.31,12.73,6.4,11.8,14.59,6.62,1.49,10.62,6.14,10.84,12.26s-5.53,11.36-10.1,12.46c-1.62.39-2.75,3.5-3.31,4.85-1.33,3.24-5.45,5.13-8.03,7.55-1.8,1.69-.83,8.44-.1,9.87,6.25-2.15,10.84-3.32,16.74-4.16l6.69-14.65,5.56-12.17c-1.81-4.23-3.09-20.33.03-20.31l4.53.02s-.58-1.13-.86-1.68c-4.01-2.43-6.72-5.81-7.28-9.98-1.09-8.17,8.47-13.61,6.57-9.69l-.67,1.39c-1.96,3.08-3.15,7.11-1.71,10.88,1.19,3.13,4.86,4.74,8.04,4.67l1.45,1.16c-1.27,2.71-3.49,8.19-1.46,9.78,3.82,2.98,9.05,7.89,14.45,2.54,2.04-2.02,2.5-5.44,2.88-9.14,2.7,3.15,7.21,3.71,10.62,1.23,3.71-2.7,5.4-6.78,3.71-10.85-1.53-3.7-5.24-5.92-10.44-6.1,1.7-2.64,3.34-5.83,2.88-8.33-.62-3.36-2.99-6.6-6.3-7.81-3.06-1.12-6.89.09-9.06,2.26-1.97,1.97-2.48,5.5-2.66,9.2l-7.2-2.47c-.03-.44.25-1.82.74-1.83l3.06-.08c1.61-6.44,6.77-11.48,13.79-10.64,5.95.71,11.67,6.05,10.6,13l-.5,3.22c-.27,1.78,12.67,3.95,8.01,17.14-2.19,6.19-7.94,9.74-14.55,8.16-2.06,5.35-6.1,7.6-11.02,9.82l-10.03,4.53c-4.23,1.91-4.93,3.53-6.71,7.14l-9.8,19.95,7.54,2.65c9.11-12.56,25.94-18.71,41.49-12.18l4.19-11.64c2.76-7.68,12.04-29.3,16.38-35.07,1.74-2.31,3.31-4.22,3.36-6.93.46-21.49,2.94-22.51-.65-45.18-.07-.46.18-1.83.27-2.28.11-.59,2.44.13,2.64.82,2.6,8.7,2.53,19.64,3.27,30.2,3.19-4.28,5.26-8.85,7.48-13.61,2.61-5.58,7.27-11.02,8.62-17.42,2.95-13.95,2.49-31.02,2.86-44.47.03-.96.56-3.37,1.92-2.52.7,3.31,1.83,7.49,1.72,11.23l-.81,25.83c9.31-12.76,13.96-22.04,25.19-32.77-.88-3.32-.56-6.73,1.92-8.42s6.36-1.61,8.39,1.15c1.4,1.91,1.19,5.18-.1,7.05s-4.98,2.49-7.42,2.26c-1.48-.14-3.26,2.19-4.27,3.59-7,9.65-13.77,18.85-19.97,29.6,4.78-.99,22.09-10.52,24.37-6.47.42.74-.88,2.46-1.96,2.78-9.56,2.82-19.53,5.58-27.1,12.44-4.17,4.89-6.78,12.34-9.91,18.06-2.55,4.66-4.65,9.01-6.34,14.46l19.34-8.85c.59-.27,2.2.33,2.53.65,3.17,3.16-15.68,7.18-26.88,18.11-1.95,1.9-3.57,5.35-4.61,7.62l-8.45,18.51-7.06,18.03-5.32,12.66c-.26.61-.34,2.5.07,3.03,2.2,2.87,9.41-1.9,18.17,6.45.82.78,3.5,1.85,4.49,2.57,13.35,9.73,8.38,25.64,12.63,26.93,9.24,2.8,15.85,15.35,14.57,24.22-.98,6.8,5.98-3.79,6.6-4.92,2.66-4.87.51-9.81-1.95-14.07-6.56-11.4-11.33-23.64-10.64-36.8.51-9.6,3.29-18.31,8.97-25.82,2.6-3.44,6.32-6.92,11.04-6.88,8.22.07,29.53,31.79,3.1,68.2-2.55,3.52-4.46,6.32-5.36,11.14l5.28-4.16c.62-.49,3.08-.44,3.72-.28l-2.85,5.52c13.13-5.83,25.8-9.04,39.56-5.64,7.21,1.78,13.83,5.27,18.21,11.09,3.05,4.06,2.4,9.18-1.88,11.95-17.31,11.17-36.28,4.55-53.12-3.93-3.51-1.77-8.22-4.59-12.11-3.42-2.22,1.21-11.7,7.81-6.51,10.73,4.65,2.63,9.14,7.95,9.62,13.56.7,8.23-3.17,13.23-7.4,20.69l20.33-6.54c.95-.69,3-2.53,3.98-3.36s4.39-.12,5.21.92c.94,1.18,1.19,4.38.36,5.97-2.5,4.83-6.95-1.18-11.77.53l-20.14,7.17c-2.34,13.13-13.55,25.19-26.32,27.34-3.26.55-6.96,1.99-10.04,1.38l-14.71-2.93c-18.77,6.33-21.28,7.77-43.17,3.62,4.27,6.49,7.71,12.21,9.08,20.04.61,3.51,5.04,2.68,13.61,5.89,5.55,2.08,9.41,6.02,13.71,11.34,2.52-5.04,12.73-29.36,15.51-30.4.61-.23,2.02.21,2.36.78,1.46,2.41-11.05,19.97-11.49,26.79,9.08-6.67,10.09-12.02,22.27-15.07,4.5-1.13,3.66,8.73,2.38,11.5-2.83,6.12-13.02,15.52-19.7,15.19l11.73-9.35c3.63-2.89,6.42-9.04,4.59-13.29-.96-.81-5.01-.22-6.02.7l-15.63,14.35c-3.14,2.88-4.18,4.18-4.14,8.92.05,5.9,1.22,11.85,4.71,16.44.1.45.56,2.32.18,2.14-13.48-6.19-4.56-20.6-11.49-29.07-5.02-6.14-11.85-9.57-20.15-10.74,2.57,9.3,3.42,18.39-1.21,26.81-.89,1.62-1.7,4.69-.74,6.28,5.27,8.69,4.02,18.67-2.66,25.96-7.72,8.43-18.22,11.99-29.46,13.32-11.41,1.35-18.19,2.82-27.87,8.91-8.61,5.42-18.01,5.89-27.55,2.57s-21.4-8.5-20.8-21.73c.35-7.63-8.04-2.03-14.48-7.98l8.61-.11c-3.21-4.95-5.96-9.7-7.39-15.48-2-8.04,1.31-17.43,7.92-22.43,2.62-1.98,3.64-3.71,4.03-6.82l.6-4.68,1.91.32,1.05,6.21,14.26-6.68c.4-.19,2.54.98,2.22,1.27s-1.25,1.19-1.75,1.47l-16.55,9.15c-1.28.71-3.55,1.87-4.42,2.69-10.02,9.44-6.95,26.05,1.91,33.04,10.9,8.61-2.39,20.66,23.14,28.24,27.62,8.2,21.16-9.52,57.84-11.87,1.5-.1,4.54-1.3,6.18-1.67,8.11-1.85,15.18-5.73,19.98-12.52,3.7-5.22,4.1-11.64,1.27-17.42l-3.36-6.86c4.26-6.41,7.7-14.59,5.51-22.32l-4.39-15.46c-4.14-14.58-12.42-23.88-27.82-26.7-7.28-1.33-15.81-.79-22.36,2.43-3.35,1.65-6.3,3.49-9.78,1.87-4.65-2.17-7.64-.34-11.25,2.33-12.3,9.09-18.07,10.31-28.32,24.03l-1.54-2.08c2.67-4.94,6.27-9.61,10.75-12.83l9.51-6.83c-7.66-4.29-15.34-5.08-23.3-5.15-10.05-.08-17.5,4.7-21.78,13.67-1.32,2.77-6.35,4.6-9.1,6.19-10.89,6.3-11.25,22.43-8.26,33.6,1.1,4.11,3.12,7.41,5.28,10.98,12.27,20.27,15.74,10.94,16.3,20.95l-9.46-6.8c-3.5-2.52-6.26-6.29-8.69-10.06-6.19,7.21-5.84,15.41-2.74,23.4,1.11,2.85,1.42,7.39,3.04,9.87,2.91,4.45,5.21,8.3,7.05,13.08,3.17,8.23,8.51,15.08,16.58,18.93,12.98,6.19,14.13-3.27,23.01,6.85,5.42,6.18,15.31,9.17,23.4,7.28,13.79-3.23,19.85,1.15,30.79-9.6,7.79-7.65,11.94-5.82,20.79-19.33.94-1.43,2.27-3.22,3.16-4.36l1.31-.14c.25-.03.32,1.19.15,1.67-2.49,6.82-8.51,15.04-16.29,19.24l.18,1.73c7.59,1.26,16.42.39,22.86-1.86.5-.18,2.05.21,2.43.41,3.09,1.6-11.22,8.32-28.29,3.73-5.13-1.38-8.63,10.06-25.36,10.38-6.09.12-2.29,5.76-11.14,12.25-9.8,7.19-16.25,6.41-17.67,11.94l-8.8,34.31c-.19.75.01,2.76.35,2.54,4.07-2.56,14.44-12.02,22.87-17.67,8.83-5.92,17.2-11.41,26.47-16.61,17.89-10.03,35.72-19.1,54.54-27.21l11.27-4.86c34.82-15,61.41-24.05,99.55-28.11,11.22-1.19,21.66-2.41,32.79-4.32,5.27-.9,8.78-3.09,12.34-1.82.65.23-.45,2.44-1.29,2.69-9.64,2.94-20.91,4.95-31.28,6.05-52.62,5.55-63.99,10.68-111.79,29.09-5.25,2.02-9.68,4.01-14.75,6.49-36.72,17.93-72.84,35.45-102.84,64.11-6.08,5.81-12.55,12.55-15.99,19.8,4.62,21.77,7.66,37.56.73,59.16h-2.45c-.57,0-.82-2.21-.65-2.94,4.59-19.71,4.16-30.44-.56-50.7-5.51-23.66-16.63-44.39-33.31-62.02-16.46-17.4-35.54-30.71-57.24-40.96-12.88-6.09-25.75-10.37-39.34-14.65l-40.3-12.69c-38.08-11.99-79.31-37.34-107.5-66.25l2.42-1.87c.6-.46,2.13,1.35,2.71,1.89,22.11,20.38,44.63,36.24,71.34,49.74,2.66,1.35,5.09,2.36,7.92,3.46,21.71,8.49,43.09,15.65,65.57,22.2,43.73,12.74,83.79,35.16,110.7,72.63,8.05,11.21,12.92,23.03,18.15,36.91,18.62-19.24,10.46-14.64,16.94-33.81.3-.88.37-3.3.03-4.11-.41-1.01-2.39-2.24-3.71-2.48-12.9-2.31-24.18-9.11-31.06-20.5-2.14-3.55-7.67-16.14-6.38-19.26,1.78-4.31,18.3.55,22.9,2.79,10.67,5.19,17.41,14.67,20.91,25.86l.59,1.9c.1.33,1.41-1.13,1.52-1.51,4.82-16.76,4.12-11.16-1.29-22.82-2.29-4.92-3.37-9.19-3.05-14.86.46-8.13-12.6.56-26.79-10.96-8.84-7.17-13.29-24.57-12.75-15.56l1.18,19.57c.07,1.22-.03,2.05-.11,2.58s-2.84.31-2.92-.22c-.71-4.5-2.15-18.4-1.26-22.73.79-3.85,1.96-6.1-.69-9.66s-3.28-7.44-4.29-11.66-3.74-8.72-3.11-13.35c.84-6.12,3.18-11.67,6.32-16.67-7.13-12.5-9.14-26.43-2.38-39.64,2.7-5.27-1.23-10.15-2.24-15.56l-3.04-16.22c-12.96,6.31-10.08,1.53-20.14,6.34,23.43,18.2,23.23,45.28,5,67.13,7.32,24.89,13.8,49.34,19.62,74.58.23.99-.27,2.71-.86,3.27-.7.67-3.37.51-4.17-.06l-7.63-33.13c-2.77-12.04-8.04-27.36-11.28-37.73-.38-1.21-3.42-1.05-3.72-.28ZM489.31,158.58c-2.66,4.96-1.5,8.5,1.21,11.05,3.41,3.2,7.34,2.8,11.12,1.03,4.52-2.13,5.31-6.51,4.5-10.73,3.81.53,8.24.28,10.77-3.74,1.73-2.74,2.04-6.8-.96-10.94-1.66-2.29-5.56-3.09-9.66-2.54.42-2.14,1.2-5.38,1.09-7.11-.43-6.4-7.01-9.31-12.64-7.25-4.22,1.55-7.19,6.37-5.38,12.34l-4.58.03c-4.64.03-7.62,4.42-7.88,8.55-.24,3.75,2.33,9.32,7.04,9.32h5.38ZM468.19,280.75c-9.03,2.61-17.23,7.4-19.99,17.27,7.02-.52,21.25-8.88,19.99-17.27ZM415.44,313.21c7.49-4.86,15.66-5.93,24.59-4.68,1.28-7.89-10.07-4.92-20.51-11.92-9.83-6.6-10.46-18.57-14-12.26-3.68,6.56-9.02,12.86-15.07,18.03,2.31,9.78,3.36,19.1,3.31,29.57l10.6-6.04c6.82-3.88,5.19-8.89,11.07-12.7ZM435.03,298.25c-4.06-9.25-11.71-15.31-21.8-15.25,3.7,9.22,11.99,14.9,21.8,15.25ZM361.07,438.39c-1.1-4.32-2.43-5.47-3.73-8.35-4.34-9.66-12.13-17.93-22.97-19.62,2.08,9.98,7.87,16.3,14.02,22.71l12.68,5.26Z"/>
        <path d="M459.7,763.43c1.28,7.85-2.62,13.33-9.28,15.94l-6.65,2.6,14.74,84.95c.37,2.15-1.49,4.76-3.17,4.87-1.59.1-4.05-1.65-4.39-3.7l-12.74-77-6.69-47.39c-.8,8.47-5.95,16.84-5.61,25.33.98,24.73,4.29,48.41,7.76,72.9l9.39,66.36c.21,1.5-1.66,3.9-2.95,4.11s-4.02-1.58-4.23-3.11l-9.56-71.32-6.46-49.88c-.28-2.16-1.04-4.72-1.77-7.15-.87,19.52-.77,38.91.01,58.98l1.45,37.2,1.22,33.2c.04.99-1.4,2.54-1.78,2.98s-2.6-.61-2.64-1.47l-1.2-26.89-2.04-100.81c-2.06-.42-4.34-.44-6.52-.05l-5.58,99.22-1.53,31.72c-.13,2.74-2.31,4.77-5.02,4.53-2.4-.21-3.97-2.68-3.77-5.45l4.78-65.12,2.58-39.92,1.44-24.17c.11-1.91-1.39-3.99-3.81-3.87l-7.37,32.01c-.63,2.73.96,6.24,1.15,9.47.37,6.27-.14,27.88-2.66,32.94-4.3,8.65,3.74-32.25-.65-32.22l-23.26,91.86c-.9,3.57-5.31,4.48-7.72,3.78-3.06-.89-5.7-4.38-4.86-7.87l8.95-37.31,23.01-98.37c.27-1.17-3.49-3.37-4.65-3.49l-10.02,30.28-32.79,96.78c-.76,2.23-3.35,3.31-5.12,2.81-1.45-.41-2.79-3.34-1.98-5.33,13.32-32.94,23.88-66.03,35.08-99.62l8.93-26.8c.56-1.67-4.67-4.95-5.35-3.49l-33.34,70.78-24.49,49.36c-.89,1.79-4.07,2.95-5.49,2.36-1.65-.69-3.68-4.06-2.81-5.74l12.48-23.86c16.72-31.97,32.43-63.51,46.24-97.37l-9.18-5.07c-4.3-2.37-7.4-5.07-11.23-9.11l-13.05,7.6c-13.7,7.98-27.24,15.39-42.28,20.44-33.38,11.2-51.49,2.56-68.86,8.23-14.34,4.69-27.58,10.64-41.27,16.86-2.14,16.08-4.75,29-20.41,36.53l-83.57,40.14c-.92.44-2.91.63-4,.36-.53-.13-.08-2.53.79-2.99,20.53-10.61,43.85-22.51,65.32-32.15,16.92-7.59,31.34-10.99,35.35-28.78,7.61-33.77.19-74.63-12.64-106.48-3.6-8.94-7.92-16.95-13.9-24.42-3.76-4.7-9.81-7.43-16.02-7.08-7.22.41-14.34,1.34-21.39,3.12l-46.33,11.72-53.03,12.96c-.8.2-3.3-.75-3.27-1.51s1.22-2.05,2-2.24l54.34-13.49c19.42-4.82,56.75-17.03,74.53-13.81,9.01,1.63,12.22,10.17,16.42,8.85,10.68-3.36,22.28-6.97,32.91-11.09,37.41-14.48,64.18-48.83,96.11-66.8,7.73-4.35,15.06-6.78,24.58-10.89l-32.15-27.52c-10.92-9.35-21.66-17.87-32.06-27.86-13.15-12.63-23.68-27-33.35-42.35l-9.38-14.89c-22.74-36.1-42.85-73.1-62.17-111.27-12.82-25.32-23.09-49.77-30.92-77.07-1.49-5.21-2.28-11.44-.52-16.62s6.96-8.14,12.01-9.38c20.72-5.13,52.24-6.92,72.48.11,13.35,4.63,25.65,12.12,36.38,20.71.07.97-1.59,2.88-2.39,2.37l-16.22-10.39c-14.64-9.38-30.88-13-48.15-13.24-14.35-.2-28.43,1.02-42.27,4.54-6.22,1.58-9.81,7.09-8.75,13.54,7.34,44.77,68.24,155.11,93.97,195.03l13.02,20.19c11.06,17.15,23.99,32.26,39.61,45.46l32,27.05c15.89,13.43,30.79,26.9,45.56,41.5l40.3.42c29.37.31,32.2,5.67,55.08,5.93l21.86.24c7.72.09,12.93,6.37,12.64,13.79-.56,14.41-13.2,21.67-24.96,26.26l-1.44,1.46c4.55.53,8.26,1.14,11.16.81l7.41-2.83,23.92-23.93,12.74-13.4c26.61-28,43.73-48.02,77.55-67.16.63-.36,2.38.04,2.26.34-.17.39-.68,1.46-1.43,1.95-18.84,12.2-37.63,27.3-53.26,43.96l-24.31,25.91c-7.39,7.88-15.85,14.55-21.9,24.57,43.77-21.04,84.21-43.8,123.89-69.18,17.71-11.33,32.63-24.38,46.22-40.05l11.22-12.94c38.31-44.18,72.23-84.49,103.24-134.58,2.47-4,4.39-7.86,6-12.3.97-2.67-1.31-6.74-4.16-7.01-4.86-.47-9.5-.2-14.17.63l-28.84,5.15c-2.51.45-20.94,2.86-19.07-3.51l11.1.35c10.37.33,35.45-7.78,49.89-6.78,6.5.45,10.95,6.49,9.04,12.89-1.01,3.39-2.65,6.94-4.67,10.2-18.57,29.97-38.83,58.07-61.15,85.49s-43.27,51.45-66.3,76.47c-8.18,8.88-16.98,16.16-26.87,23.03-15.49,10.74-30.83,20.11-47.23,29.68-30.56,17.84-61.23,33.84-92.91,49.87-1.97,1.16-1.79,1.43.26,1.94l23.8-6.32c17.64-4.68,39.22-9.49,56.99-5.38,14.01,3.24,26.44,15.75,21.11,30.81-4.87,13.76-21.94,14.79-34.59,11.98-9-2-17.27-4.81-25.82-8.14-13.24-5.15-26.35-9.41-40.54-12.97-1.97.85-2.32,1.48-.44,2.25l27.18,18c15.36,10.17,27.79,22.94,38.81,37.78,6.5,8.75,12.51,17.23,19.46,25.59,11.18,13.44,27.21,21.93,43.84,21.84,1,0,2.53,2.27,2,2.68s-1.95,1.13-2.66,1.13c-21.2.13-38.38-11.83-50.49-28.07l-14.95-20.04c-10.67-14.3-26.46-30.4-41.38-39.91-7.81-4.98-14.58-10.12-23.72-14.31,2.63,6.17,6.43,9.56,9.68,14.49.78,1.19,1.95,4,2.83,5,4.39,4.98,7.13,10.27,10.37,15.79,14.41,24.56,19.16,37.66,24.43,66.17l4.67,25.29c2.33,12.59,8.1,24.13,16.41,33.66l-1.29,2.36c-.27.49-1.42-.21-2.22-.65-8.37-9.23-14.16-20.47-16.51-32.97l-6.01-32c-8.1-43.11-25.39-68.21-51.91-100.7-.46-.57-2.33-1.51-2.58-1.07-2.7,4.74,5.67,48.76,7.22,58.27l5.29,32.43ZM338.09,667.39c12.48-7.26,34.82-10.13,48.6-8.46,20.31,2.45,43.67,1.82,59.96-11.92,4.37-3.69,6.72-9.2,6.88-14.84.14-4.8-3.4-8.98-8.36-8.87l-20.42.43c-1.1.02-3.86.7-4.26,1.7s-.84,3-1.22,4.6l-.56,2.38c-.21.87-2.04-1.61-2.03-1.98l.23-7.11-30.19-5.19c-8.16-1.4-16.41-.71-24.74-.79l-46.16-.45c-7.38-.07-12.58,4.2-16.32,1.63-.48-.33.98-2.35,1.69-2.5l19.53-4.02-15.68-15.42c-27.01,7.82-38.97,17.75-59.7,34.8-20,16.44-43.36,36.39-68.09,44.58l-29.58,9.8c18.61,33.02,27.44,71.62,26.03,110.15,13.43-5.51,25.36-11.17,38.56-15.28,24.16-7.53,37.77,3.17,73.81-10.19,11.92-4.42,22.96-9.72,33.86-16.24l16.82-10.06c.09-4.98.18-10.09,2.06-14.52l22.56-53.3c1.69-4,1.62-7.9.35-12.51-7.28,1.17-13.32,2.98-20.1,6.12-13.9,27.73-42.09,54.95-72.36,62.9-.9.24-2.7-.49-2.94-1.11-.18-.46.87-1.8,1.52-2.01,29.9-9.39,56.62-33.82,70.27-62.33ZM557.81,680.07c2.44-4.99,2.42-10.32.02-14.89-10.6-20.12-46.85-14.17-64.77-9.14l-33.55,9.41c17.16,4.54,32.19,9.27,47.82,15.42,12.63,4.97,42.68,15.19,50.48-.8ZM426.13,663.82c-3.47-.34-6.55-1-9.62-.58-10.68,1.46-20.79.86-31.59-.54-3.14-.41-6.44.04-9.21,1,22.03,7.77,43.13,6.75,64.62,3.64.76-.11,2.15-1.78,1.71-1.85s-1.52-.26-2.11-.32l-13.8-1.35ZM407.22,779.75c7.01,1.11,11.93-3.28,13.68-9.09,3.32-11,5.63-21.91,7.71-33.36l7.67-42.22c1.46-8.03,3.31-15.84,5.59-24-25.55,2.69-52.13,3.57-75.96-7.25-.08,4.32,1.19,9.16-.15,12.27l-13.6,31.55c-3.91,9.07-7.54,17.9-10.82,27.26-5.23,14.97,15.58,20.92,25.64,26.35l20.07,10.83c6.19,3.34,12.65,6.47,20.16,7.65ZM454.14,772.36c1.98-1.49,1.83-7.74,1.39-10.32l-9.56-55.67c-1.19-6.91-1.89-12.89-3.84-19.83l-6.48,34.56,7.36,56.78c4.68-1.86,7.55-2.83,11.12-5.52ZM308.41,879.82l9.94-17.82c.9-2.45,1.45-4.32,1.31-7.4-2.78,4.03-4.53,7.19-6.88,11.66l-6.58,12.51c-.2.39.13,1.92.17,2.36s1.81-.91,2.03-1.3ZM394.77,914.19c1-2.73,1.2-5.5,1.43-8.15l.91-10.22-2.17,1.28-.17,17.09Z"/>
        <path d="M415.33,228.25c-.08.8-3.01.74-2.95-.06l.81-10.82c.21-2.8-.15-6.08.21-8.92,2.2-17.26,4.65-33.66,8.07-50.7,4.51-22.45,11.01-43.26,17.86-65.28,0-2.63-3.44-6.32-5.5-7.89-10.31-7.87-17.71-17.57-21.73-30.03-.67-2.07-8.67-32.16.08-27.45,18.43,9.92,31.72,31.59,30.92,54.95l12.18-27.28c1.45-3.24,2.56-6.34,1.73-9.99-4.42-19.36,4.16-33.31,19.32-44.55,1.13-.84,4.33.83,4.49,2.05.84,6.47,1.68,12.09,1.85,18.31.64,22.77-20.28,28.69-21.93,32.07-7.65,15.63-13.79,31.13-19.5,48.37,1.44.35,3.14-.52,4.38-1.64,15.55-14.11,36.49-19.51,56.79-13.09,1.67.53.36,4.17-.59,5.32-15.91,19.27-31.9,22.65-56.05,20.8-2.53-.19-6.17,1.17-8.97,2.24-9.38,30.24-15.19,60.56-19.05,91.91l-1.38,11.24-1.03,10.44Z"/>
        <path d="M655.03,394.15c-10.35,1.42-24.26,8.16-27.55,6.71-.46-.2.34-1.95.86-2.14l17.64-6.62c-11.4-4.82-15.58-8.6-25.94-14.05l-8.96,6.12-1.84-1.66c-.9-.81,2.99-4.24,1.59-12.86-2.9-17.84-1.9-34.66,10.36-48.5.51-.57,2.27-1.31,2.93-1.31s2.06,1.05,2.45,1.87c4.31,9.25,5.04,21.17,1.79,31.64-2.02,6.53-5.07,11.51-8.09,18.96l31.97-19.47c2.4-1.46,5.98-5.82,7.55-8.3,5.74-9.1,12.65-28.6,9.28-38.54-3.42-1.7-5.93-4.92-4.58-8.52,1.14-3.03,4.64-5.16,8.02-4.15s5.86,5.27,3.62,8.86l-2.75,4.41c1.23,9.05-1.49,18.54-3.92,28.41l31.28-25.67,5.5-14.57,2.89-7.59-.65,16.2,14.64-10.43c16.12-11.48,11.04-.06,21.78-25.88.32-2.46,1.08-2.21,1.5.17l-2.72,13.76,14.51-7.82c1.34-.95,3.4-3.91,4.63-5.33l8.25,3.38c-5.23,5.57-14.49,6.43-20.78,11.55,2.94.58,24.63,4.98,20.79,7.94-3.48,2.68-18.47-6.4-27.87-3.6-10.48,3.12-18.89,11.09-28.38,17.14,8.46,1.17,15.21,1.1,21.99,4.14,2.18.98,5.25,1.9,7.04.83,3.85-2.29,6.96-1.24,9.08,2.23,1.52,2.49.42,6.34-3.18,8.27-1.3.7-4.19.73-5.42.14-6.42-3.07.82-8.81-9.87-9.47-8.76-.54-19.54-4-28.06.78-10.74,6.01-19.58,14.88-29.49,23.39,11.32-.98,21.09-1.31,31.19.84,2.18-1.27,5.56-2.88,7.69-1.79,2.3,1.18,4.67,4.1,3.81,6.99-.64,2.18-3.22,4.58-4.93,5.07-2.02.58-5.66-.67-6.5-2.26l-2.49-4.73c-12.35-1.68-25.31-1.92-36.75,4.01-5.83,3.02-9.68,9.98-14.86,13.84-7.07,5.27-15.49,7.45-22.37,14.09,18.82-1.78,34.84-.64,46.87,13.84,1.04,1.25.07,4.5-1.26,5.15-7.27,3.51-13.89,3.38-22.3,4.53Z"/>
        <path d="M355.64,211.95c4.12-6.02-8.43-10.86-12.7-18.95-26.36.57-45.99-17.25-52.81-41.88-1.89-6.83-7.69-13.35-10.28-20.2l-4.69-12.4c4.77-.58,10.16,17.2,13.48,20.64.85-10.81,1.54-19.41,4.36-28.86,4.01-13.46,1.09-12.39,9.25-24.69,6.32-9.52,20.12-10.76,14.72-6.16-3.31,1.98-9.7,3.49-11.84,7.12-8.22,13.92-10.2,26.18-11.82,41.95-1.36,13.34.74,26.45,7.58,37.86,9.74,16.23,28.26,24.94,46.42,21.93l.1-10.5c.02-1.66,2.88-4.96,4.21-4.41,1.71.71,3.58,2.71,5.58,4.68,13.75-19.38,6.93-44.32,7.52-47.05.11-.5.95-.52,2.34-.55,4.44,15.39,3.38,32.24-5.54,45.81-1.57,2.4-3.49,7.14-1,8.56,14.58-.64,29.39-21.9,31.87-34.26,1.96-9.77,1.66-19.5-1.33-28.93-3.91-12.31-9.2-24.05-16.43-34.47-6.27-9.04-17.83-9.75-25.63-2.71-.57.51-2.57,1.97-2.19,2.6l1.93,3.26-2.42,1.52c-.65.4-2.29-1.2-2.8-1.84-5.22-6.57-12.19-9.81-20.87-11.64,5.16-5.12,15.62,1.78,20.69,5.31l6.87-4.56c9.01-5.98,21.34-3.44,27.45,5.57,8.13,11.98,14.14,24.87,17.85,38.82,4.26,16.03,1.08,33.11-8.37,46.45-1.29,1.83-2.19,3.41-3.46,6.05,5.04-1.46,7.96-4.07,11.37-7.38,10.75-10.41,15.57-28.58,13.74-42.38-.11-.82,1.07-2.4,1.64-2.76.72-.45,2.75,1.61,2.78,2.54.87,27.92-10.52,49.93-38.66,58.06-2.55.74-6.17,3.12-8.41,4.37-.24,11.4-8.66,15.46-2.75,21.73,7.43-.39,14.81-.46,21.61,2.32,8.74,3.57,17.27,8.35,21.22,17.39,3.36,7.67,11.22,33.16,2.11,40.21l.59-11.71c.37-7.5-2.09-14.27-4.36-21.24-1.14-3.49-1.53-7.28-4.11-10.13-10.76-11.89-26.94-16.52-42.45-11.74-4.94,1.52-10.19,3.64-14.41,6.76-4.82,3.57-8.03,9.91-11.65,10.82-1.06-4.11-1.52-6.48-2.97-10.44l-9.05-24.77c-.24-.65,1.03-2.8,1.56-2.6s2.06,1.14,2.27,1.73l10.59,28.88c6.21-5.83,13.47-10.28,21.29-13.74Z"/>
        <path d="M629.24,418.96c-12.77,6.24-26.03,5.72-38.66,1.23-4.69-1.67-8.68-2.88-13.89-4.26-10.21,11.72-20.36,24.78-29.09,36.61-.54.73-2.13,1.81-2.69,1.94-.71.15-1.6-.58-2.76-1.51,8.36-12.15,17.71-23.49,27.4-34.93,7.11-8.4,29.19-33.4,40.4-33.62l-5.45,4.7c-5.3,4.57-10,9.16-15.59,14.78,16.58-1.53,27.21-2.25,40.03,9.39,1.18,1.07,2.05,4.83.31,5.68Z"/>
        <path d="M578.15,268.19c1.93.17-1.3,5.65-20.5.42l-16.14-4.4c-3.47-.94-9.73-.04-13.48.32l-5.47.53c2.64-2.24,6.66-3.43,10.58-4.42,2.88-2.54-8.05-6.68-4.8-16.33-7.86-9.29-13.87-25-9.47-36.49.54.5,1.51,1.47,1.72,1.77.5,16.07.42,18.83,10.05,32.24,12.77-7.22,32.3.42,38.26,12.11,2.49,4.87,1.53,9.04-2.48,13.23l10.31.89,1.42.13Z"/>
        <path d="M266.48,102.84l-6.77-16.1c-9.33-4.81-17.92-9.51-26.36-15.71-1.49-1.09-4.28-4.09-5.88-3.46-3.39,1.51-6.79,1.65-8.78-1.16-1.8-2.55-1.52-6.59,1.55-8.73,1.44-1,5.01-.82,6.62.49,1.41,1.16,2.08,3.83,2.54,6.73.27,1.73,4.34,2.61,6.02,3.57l21.84,12.45-9.82-31.32c-.17-.55.54-2.89,1.1-2.68s1.95,1.25,2.28,2.24c4.66,14,10.02,29.9,16.13,44.77,4.99-9.3,7.15-25.27,9.29-36.22-1.95-2.78-5.21-6.48-1.87-10.28,1.13-1.29,4.46-1.96,6.73-1.3,1.79.52,3.48,3.43,3.66,5.9.14,1.89-2.65,4.52-4.64,6.04-2.35,13.51-5.4,27.05-9.52,40.65-1.03,3.4,4.36,7.79,2.83,16.43-1.95-2.54-3.61-6.59-5.51-7.41l-21.65-4.83c-2.52-.56-4.35-.31-6.83,1.23-1.76,1.09-4.9-.17-5.85-1.85-1.13-2-.52-5.02.8-6.23,1.75-1.61,5.27-1.35,6.69.05l3.28,3.23,22.12,3.49Z"/>
        <path d="M364.53,604.78l-2.26,2.48c-10.05-10.14-25.2-34.55-32.3-48.15l-27.01-51.67c-.48-.91-.29-2.35-.23-2.83s1.9.38,2.19.92l16.37,30.06c12.77,23.46,26.56,48.16,43.24,69.18Z"/>
        <path d="M337.26,852l-12.54,29.1c-2.41-2.06-2.75-4.09-1.74-6.33l18.63-41.3,11.11-24.91c1.8-4.04,4.11-7.32,6.93-10.73-.1,1.84-.34,2.99-.81,4.18l-4.61,11.64-4.88,12.15-12.08,26.21Z"/>
        <path d="M192.05,509.26c-15.59-15.15-28.07-32.13-38.57-51.17-.89-1.62-.89-4.09-.04-5.93,11.42,21.1,25.1,40.16,42.45,57.67-.55.75-2.75.49-3.85-.58Z"/>
        <path d="M609.42,594.65c12.97-9.7,26.84-16.59,38.09-27.38l13.26-12.73c.89.71,1.28.87,1.33,1.28.75,5.54-41.78,38.75-52.69,38.83Z"/>
        <path d="M278.68,182.31c-9.06-6.58-21.07-8.68-21.9-11.12-.21-.62,1.67-2.01,2.38-1.77l13.24,4.62c-.55-4.61-7.48-9.29-4.45-13.41l12.99,18.02,8.08,11.11c.29.4.03,2.19-.41,2.19-4.56,0-4.87-5.97-9.92-9.63Z"/>
        <circle cx="746.28" cy="254.48" r="6.2"/>
        <circle cx="708.32" cy="274.71" r="6.19"/>
        <circle cx="779.46" cy="296.73" r="5.97"/>
        <circle cx="245.87" cy="36.85" r="5.96"/>
        <circle cx="617.95" cy="14.3" r="5.89"/>
        <path d="M477.84,487c-.43.79-1.83,2.03-2.31,2.43s-2.21-1.56-1.86-2.33l8.69-18.99,1.72-1c2.69-1.57-1.02,10.42-.21,8.95l-6.03,10.94Z"/>
        <path d="M394.6,482.99c.07.63-.59,3.08-1.2,3.18s-1.81.2-2.4.22l-2.41-17.98c-.09-.68-.02-2.57.04-3.08.08-.69,1.86-.82,2.53-.64s1.48,1.66,1.6,2.69l1.83,15.61Z"/>
        <circle cx="255.09" cy="144.42" r="4.67"/>
        <circle cx="245.74" cy="167.51" r="4.61"/>
        <path d="M266.78,393.46c-6.92,1.77-9.17-1.24-16.6-.35-3.52.42-5.86.8-9.49-.05,2.12-3.43,22.63-3.02,26.09.4Z"/>
        <circle cx="634.98" cy="94.39" r="4.52"/>
        <path d="M377.67,61.46c5.75-2.86,16.2,11.99,15.45,15.22-.06.26-.6.9-.78.7-4.32-4.76-3.07-7.67-14.68-15.92Z"/>
        <circle cx="549.49" cy="124.2" r="4.02"/>
        <path d="M464.28,796.85c.15,1.05-3.57,2.1-3.69,1.14-.22-1.79-.25-5.37.2-8.39,2.05,2.36,3.21,5.35,3.49,7.25Z"/>
        <g>
          <path d="M478.31,406.51l-10.59-12.99c-6.86-2.55-13.27-5.93-15.03-13.75-1.09-4.85,1.65-9.95,2.78-14.66,1.19-5,2-8.77,5.41-13.46l-5.18-3.28,7.05-.1c14.15-8.57,10.55-.18,19.8-6.15,5.87-3.78,13.99-4.65,21.03-1.3,6.3,2.99,9.93,9.23,11.95,16.7s2.44,15.29-2.63,22.3c-5.27,7.29-14.25,8.75-23.13,8.04-6.64-.53-13.64,1.74-19.72,3.77l6.42,8.05c2.67,3.35,5.9,6.15,9.42,8.69l1.08,1.08c2.76,2.75-5.72.67-8.65-2.93ZM503.32,382.45c9.41-3.14,11.31-12.15,9.58-20.43-1.19-5.66-2.35-10.79-6.79-15.04-6.56-6.28-16.34-6.38-23.9-1.37-5.49,3.64-8.77,9.68-7.07,16,5.1-3.68,11.09-6.11,16.73-3.88l7.78,3.08c5.79,5.19,7.09,12.89,3.68,21.65ZM488.58,383.61c-12.04-10.67-20.52-11.98-15.56-30.7-2.05-3.22-10.38,6.27-11.66,8.06-2.94,4.1-5.09,10.24-5.4,15.21-.4,6.53,5.35,11.55,10.68,13.48,8.53-4.73,12.52-4.14,21.94-6.05ZM482.27,366.48c3.86-.77,4.1,1.49,5.87,4.02,1.6-.29,5.2-2.36,5.47-4.26.53-3.64-3.09-6.34-6.89-6.12s-9.3,1.79-10.58,5.4c-.5,1.81,1.97,6.2,3.84,6.64,1.6.38,4.9-.65,5.95-1.15l-3.67-4.53ZM492.07,382.8c1.04.95,3.01,2.05,4,1.81,6.24-1.57,7.63-17.92,1.32-20.32-2.61,7.61-5.48,8.04-12.75,11.71l7.44,6.81Z"/>
          <path d="M536.11,447.03c-.99-.65-.65-3.36.67-4.46,7.92-5.15,5.17-14.1,14-18.9l9.94-5.41c-.68,2.73-1.83,4.42-4.01,5.75-17.56,10.71-4.74,11.76-20.6,23.03Z"/>
          <path d="M576.85,389.16c2.55,6.88-3.44,20.62-7.72,21.91-.65.2-1.26-2.03-.89-2.76l5.31-10.56c1.27-2.53.84-6.45.53-9.33l2.77.74Z"/>
          <path d="M455.16,432.22c1.56.7-2.71,3.75-12.01-2.85l-.57-1.88c-.1-.32,1.44-.27,1.8-.11l9.44,4.23,1.34.6Z"/>
          <path d="M527.66,414.83c.68,1.74.56,5.49-2.33,6.49l-.04-6.87c0-.36,2.17-.11,2.37.39Z"/>
        </g>
        <circle cx="497.74" cy="150.04" r="3.9"/>
        <path d="M444.23,640.61c-6.43,2.39-13.6,2.32-20.69.58l.05-2.11c10.65,1.44,14.71-.69,21.69-.42.48.02-.67,1.54-1.04,1.95Z"/>
        <path d="M399.35,683.58c3.31-5.44-1.51,24.93-4.01,21.11-.32-.5-.99-2.04-.84-2.71l3.62-16.47c.1-.44,1.04-1.61,1.22-1.92Z"/>
        <g>
          <path d="M678.34,185.96l-21.83,23.4-7.61,7.49-2.22.88c-.57.22-.81-2.73-.35-3.13l6.67-5.87c.81-.72,2.13-3.19,3-4.15,5.07-5.61,11.17-12.12,15.59-18.16,1.38-1.89,1.12-7.78.1-9.86l-6.16-12.56c-4.64-9.46-7.36-19.34-6.89-29.87.23-5.16,1.65-15.32,7.13-17.02,8.75-2.71,24.57,21.98,16.35,49.3-1.14,3.8-2.69,7-2.32,11.67,12.97-13.97,24.98-27.13,36.43-42.22,4.7-6.19-7.2-21.82-4.65-41.66,1.24-9.64,5.59-23.36,16.51-23.17,3.61.06,7.75,2.52,9.91,6.12,6.39,10.68,3.57,22.02.52,33.73,11.51-10.3,27.91-19.82,42.71-13.7,4.4,1.82,7.57,5.57,8.36,9.73,2.34,12.31-13.09,19.97-24.66,21.56-8.6,1.18-17.73-.17-26.31-1.04-3.02-.31-9.34.43-11.53,2.49-4.19,3.96-8.34,9.52-12.09,14.03l-19.73,23.68c9.17-2.16,15.2-4.38,22.92-5.25,14.03-1.58,36.33,6,32.54,19.71-1.39,5.04-6.02,8.54-10.98,10.26-17.59,6.08-35.77-1.95-51.71-8.12-2.01-.62-8.13.08-9.68,1.75ZM720.75,130.04c9.75-9.84,14.13-20.42,17.6-32.29,2.28-8.5-2.06-22.8-10.24-23.09-1.97-.07-5.74,1.7-6.94,3.39-7.68,10.75-7.52,25.76-4.27,37.79l3.85,14.21ZM784.03,114.73c1.79-2.66,2.08-6.94.79-9.53-4-8.03-17.57-6.98-25.97-3.62-9.52,3.81-22.74,15.53-28.44,23.08,7.54-.36,12.19-.57,18.17.07,11.3,1.2,28.65.06,35.44-10ZM676.41,130.95c-1.46-3.17-6.84-11.86-10.18-9.82-5.49,3.35-4.62,21.5-2.15,29.59,3.87,12.67,6.77,14.19,11.1,28.37,6.58-14.93,8.32-32.77,1.23-48.13ZM746.21,182.95c6.8-8.92-16.66-26.95-51.12-10.3-4.73,2.29-8.96,4.95-12.85,8.58,5.96.53,10.33.94,15.25,2.66l11.25,3.93c10.4,3.64,29.48,5.62,37.48-4.87Z"/>
          <rect x="703.65" y="174.5" width="20.98" height="2"/>
          <rect x="755.77" y="109.51" width="12.79" height="2.38" transform="translate(-4.06 188.51) rotate(-14.06)"/>
          <path d="M724.83,117.82c-1.26.15-1.84.38-1.83,0,.02-.41.06-1.9.13-2.28l4.14-20.58c2.65,8.18-1.08,15.33-2.45,22.86Z"/>
        </g>
        <g>
          <path d="M200.99,231.13c-24.45,10.93-48.39-1.5-47.14-4.99.25-.71,1.49-2.43,2.19-2.79,15.2-7.79,33.33-4.4,47.89,3.15l5.58-2.61-4.84-13.63c-5.5-15.49-6.61-34.05,3.28-48.02.66-.93,2.57-2.22,3.56-2.14s3.09,1.39,3.72,2.25c12.13,16.6,11.67,37.54,3.25,55.8-3.01,6.53-2.67,12.52.5,19.43-5.07,2.48-8.87-10.53-17.99-6.45Z"/>
          <path d="M172.21,204.65c13.71,2.52,8.45,4.93,17.33,4.75-5.02-6.53-9.36-11.95-14.67-17.79-7.6-8.35-25.52,3.19-46.23-12.76-2.77-2.13-6.45-5.95-6.93-8.96.54-2.9,5.55-4.19,8.39-4.26,14.78-.4,27.81,6.72,37.47,17.46l2.31-4.55,7.96,9.27-.96-11.57c-1.1-13.23,7.67-26.63,11.32-25.27s3.11,14.99.31,21.28l-5.19,11.65c-1.09,2.44-1.49,8.88.02,11.1,3.39,4.96,8.35,10.59,11.85,14.92l.56,5.24c-4.41-3.42-9.4-4.97-15.57-5.49-3.95-.33-8.23-2.15-11.99-2.66-2.41-.33-5.8.46-8.39-.43-1.12-.39-1.75-3.66-1.08-4.89,2.05-3.74,4.91,1.38,13.5,2.95Z"/>
          <path d="M164.03,176.22l-8.3-13.36-4.99-7.83c-9.77-5.77-16.85-13.48-20.84-24.08-1.15-3.05-1.96-7.19-.49-10.3.71-1.51,5.15-.81,6.57.17,10.47,7.27,15.53,18.55,17.84,30.79,2.05,10.84,16.13,19.32,10.23,24.6Z"/>
        </g>
        <g>
          <path d="M452.24,265.87c-1.6-2.12-1.77-4.67-1.33-7.46l6.61-42.29c-4.37.46-7.23.73-10.26-.65-2.44-1.11-5.28-4.67-5.04-7.72.3-3.85-.18-5.17-3.15-6.9-3.35-1.95-4.76-6.8-4.44-10.5s2.62-7.73,6.4-9.25l5.53-2.23c.75-6.02,5.44-9.82,10.82-9.9,5.94-.08,10.23,4.09,11.37,10.62,7.26-1.24,13.14,3.97,13.23,10.96.07,4.98-3.21,8.87-6.95,11.91.11,1.79.46,5.17.02,6.8-1.44,5.44-7.23,8.62-13.58,7.97l-5.99,37.19c-.61,3.78-1.06,6.63-3.24,11.44ZM459.23,208.59c1.47,1.97,3.71,4.69,5.66,4.93,3.11.38,6.58-2.5,7.21-4.72.74-2.61-.33-5.78-1.76-8.61,4.63-.97,8.03-4.11,8.21-8.36s-2.31-8.95-7.13-9.24c-1.58-.09-4.42.99-7.37,1.79,2.47-4.04,1.11-8.79-2.74-11.18s-9.34-.96-11.23,4c-.59,1.55-.6,4.93-.64,7.15-3.42-1.6-7.33-1.27-9.87,2.2-1.78,2.44-2.19,5.87-1.31,8.75.67,2.18,5.09,4.44,7.28,4.67,2.79.3-4.59,8.9,3.94,12.66,3.55,1.57,7.56-.16,9.74-4.05Z"/>
          <circle cx="458.32" cy="194.24" r="4.05"/>
        </g>
        <g>
          <path d="M255.06,283.19c-5.47-5.6-10.27-11.58-14.15-18.57-3.59-6.48-8.96-5.02-9.83-5.09-5.94-.46-12.02-1.11-17.97-1.25-3.52-.09-7.14,1.08-8.92-2.62,1.27-1.28,3.43-1.67,5.07-1.26,3.79.95,6.92,1.19,10.89,1.61l9.68,1.02c.47.05,2.65-.59,2.39-.95l-1.08-1.54c-3.69-3.53-6.62-6.83-7.15-12.26l4.88,4.3,8.49,7.63c-.19-12.61,1.31-21.72,6.82-31.97,2.22-4.12,8.47-13.65,13.15-13.99,5.13-.37-13.38,15.69-12.95,17.57l-2.17,9.98c-3.07,14.12.46,28.48,10.17,39.28,15.83,17.59,35.98,15.05,38,20.78,1.65,4.68-20.24-3.97-24.41-6.38-3.24-1.86-5.34-2.38-9.01-2.6-18.25-1.08-34.74,9.76-41.18,26.5-.16.42-1.06,1.11-1.42,1.31-.49.27-1.46-1.97-1.31-2.69,1.48-6.96,7.02-14.7,13.36-19.04,7.73-6.86,17.09-9,28.65-9.76Z"/>
          <path d="M326.95,319.53l-4.25-5.88-5.99,1.21c-3.27.66-.8,1.81-4.56,4.84-2.14,1.72,2.24-4.13-2.85-7.78-2.02-1.45-3.91-1.71-6.19-.57-4.55,2.3-13.52,7.35-17.74,7.15-.61-.03.48-2.63,1.12-2.93,4.97-2.3,12.78-5.39,18.17-7.44,1.34-1.06.63-6.1-.93-6.58-2.63-.82-6.23-1.87-7.03-4.4l8.64.92,4.02-6.47-10.98-16.57c-1.36-2.06.58-3.55.4-3.26.28-.47,1.96.88,2.29,1.39l10.5,16.66,8.11-1.49,1.86-6.31,1.41,5.33c.52,1.97,5.14,5.36,6.58,4.02l12.77-11.88c.29-.27,1.78-.84,2.11-.85.49-.02,1.27.74,1.11,1.2s-.88,1.61-1.34,2.04l-13.41,12.26,1.1,5.49c.36,1.78,1.01,4.09,1.57,5.81-1.31.84-3.98,2.58-5.39,4.15-4.57,5.07.17,3.95-1.11,9.94Z"/>
          <path d="M323.36,275.44c-7.16,1.8.71-31.78,2.25-33.93-.8-15.3-13.67-31.81-27.68-36.28-22.8-7.27-31.39,4.66-32.87-2.19,13.94-6.51,28.14-4.75,41.25,2.4,13.41,7.32,21.82,21.32,22.77,36.32-2.6,9.12-4.51,17.68-5.22,26.99l-.51,6.69Z"/>
        </g>
      </g>
    </g>
  </g>
</svg>