<?xml version="1.0" encoding="UTF-8"?>
<svg id="Calque_2" data-name="Calque 2" xmlns="http://www.w3.org/2000/svg" viewBox="0 0 535.93 702.64">
  <g id="Calque_1-2" data-name="Calque 1">
    <g>
      <path d="M209.29,690.97c-14.48-10.41-22.05-24.7-27.36-41.27l-45.28-141.29-44.91-138.94-31.54-97.3-40.77-127.03L2.39,92.3c-3.81-11.83-3.18-25.52,2.74-36.32,4.74-8.64,11.42-15.68,18.12-22.61,8.48-8.76,18.81-13.31,31.12-15.3L243.83,3.26,285.01.16c11.21-.84,22.26,1.59,31.83,6.98,14.59,8.21,23.67,20.68,29.06,36.4l76.67,223.91,60.9,176.86,47.8,138.04c5.54,15.99,6.92,31.15-.14,46.96-9.4,21.07-18.87,35.72-43.68,39.3l-160.4,23.15-70.96,10.11c-16.92,2.41-32.61-.69-46.8-10.89ZM272.27,671.24l158.53-22.36,71.55-10.5c9.91-1.45,18.91-7.36,24.02-15.69,6-9.78,7.13-21.75,3.32-32.8l-38.13-110.82-51.92-150.63-75.28-219.44-21.06-61.88c-5.19-15.24-13.49-28.34-27.57-36.43-10.65-6.12-21.46-7.74-33.83-6.76l-144.72,11.47-78.88,6.14c-15.18,1.18-27.31,9.56-30.72,24.93-1.64,7.37-.75,14.8,1.56,22l19.36,60.36,7.13,22.13,35.36,109.22,9.85,30.61,111.95,345.32c10.58,24.92,32.06,39.02,59.48,35.15ZM341.42,664.72l-67.32,9.36c-22.58,3.14-40.34-2.97-54.8-20.32-7.26-8.71-10.48-18.71-13.93-29.35l-24.9-76.95-59.15-183.45-22.69-71.44-6.09-17.91-27.01-83.62-16.64-51.59-12.65-38.37-11.34-35.6c-3.48-10.94-.77-20.92,3.01-31.37-8.14,7.25-14.42,14.86-19.24,23.6-5.96,10.8-6.05,23.61-2.2,35.56l49.21,152.52,102.83,318.32,27.4,85.76c10.57,33.07,35.28,53.5,71.11,48.31l52.73-7.64,87.23-12.56,94.13-13.72c18.02-2.63,29.67-19.24,35.68-35.17-7.17,6.36-14.45,11.45-24.33,12.85l-161.05,22.79Z"/>
      <path d="M360.33,678.67c-1.04.14-3.17-.51-3.73-1.04s-.83-2.76-.5-3.46c1.26-2.72,4.58-5.07,7.75-5.51l39.86-5.55c.92-.13,3.14,1.13,3.5,1.94,1.64,3.67-4.02,7.69-7.82,8.21l-39.07,5.4Z"/>
      <path d="M90.41,302.37c-.36,1.3-3.34,3.08-4.67,2.94-1.52-.16-4.61-2.19-5.12-3.79l-14.2-44.56c-1.18-3.69-1.51-8.59.85-11.66.83-1.08,3.97-1.86,5.13-1.4s3.25,2.31,3.64,3.53l13.87,43.03c1.2,3.73,1.78,7.29.5,11.9ZM86.94,302.33c.87-4.32,1.16-5.9.41-8.25l-8.27-25.88-6.01-18.75c-.25-.78-2.13-2.45-2.85-2.19-1.9.69-1.72,5.71-1.08,7.66l7.03,21.29,7.18,22.67,3.58,3.45Z"/>
      <path d="M41.37,153.91c-.69.93-3.5,1.82-4.49,1.54s-2.78-1.85-3.11-2.89l-8.64-27.45c-.72-2.28.53-6.05,2.3-7.4,1.91-1.47,6.04-.51,6.72,1.65l8.72,27.54c.52,1.66-.1,5.1-1.51,7.01ZM39.54,148.02l-8.5-27.35c-2.14-.09-3.07,2.54-2.53,4.22l8.13,24.89c.18.54,1.02,1.59,1.47,1.81.32.16.52.06.74-.17.24-.25.85-2.89.7-3.39Z"/>
      <path d="M59.51,233.46l5.31-2.38c.73-2.82-.05-6.83-1.21-10.36l-6.12-18.63c-.22-.66-.13-2.42-.08-3.03s2.82-.8,3.02-.15l6.54,20.37c1.61,5,3.52,14.99-2.34,16.2-1.3.27-3.91-.82-5.11-2.01Z"/>
      <path d="M46.87,184l4.32,13.05c.22.67-.21,2.29-.39,2.8-.24.69-2.77-.64-3.04-1.51l-4.48-14.44c-.6-1.92-.06-5.85.83-7.74s4.28-2.94,6.12-2.41c2.07.6,4.27,3.57,3.48,5.69l-5.77-2.27c-1,1.09-1.73,4.82-1.07,6.83Z"/>
      <path d="M466.19,656.69c.11,5.48-5.5,5.67-7.17,3.9-.78-.83.9-3.74,2.04-3.95,1.2-.23,3.6-.14,5.13.05Z"/>
      <path d="M477.99,655.58c.84.77-.23,3.47-1.31,3.85-1.22.43-4.71.57-4.94-.57-.19-.95.49-2.95,1.13-3.54.81-.74,3.83-.92,5.12.26Z"/>
      <path d="M453.27,659.43c.69,2.95-4.73,5.33-6.27,3.19-.7-.98.7-3.55,1.79-4.15,1.01-.55,4.2-.25,4.48.96Z"/>
      <path d="M326.38,679.87l-3.18,1.98c-.81.5-3.47-1.11-3.42-2.07.09-1.66,3.58-3.9,5.06-3.44l1.67.52c.52.16.33,2.72-.12,3Z"/>
      <path d="M313.7,679.31c.55,3.3-4.78,5.46-6.75,3.21-.75-.99.69-3.3,1.74-3.91s4.74-.5,5,.7Z"/>
      <path d="M301.16,680.74c-.41,4.81-5.08,5.37-6.9,3.75-.98-.87.62-4.01,1.78-4.41,1.35-.47,3.86-.04,5.12.67Z"/>
      <path d="M287.02,685.56c-1.12,1.51-5.24,2.04-5.75.56-1.06-3.09,2.86-5.51,4.94-4.59.54.24,1.37.65,1.73.83.54.28-.27,2.32-.92,3.2Z"/>
      <path d="M441.14,660.58c-.04,5.25-4.94,5.5-6.43,3.91-.76-.82.47-3.52,1.51-3.9,1.16-.42,3.56-.32,4.92,0Z"/>
      <path d="M269.49,664.02c-21.07.42-38.94-10.76-47.59-29.25-3.15-6.73-4.92-13.22-7.33-20.62l-50.33-154.33-62.41-190.32L35.89,66.84c-2.87-8.81-2.99-18.08.89-26.06,4.99-10.28,15.45-14.91,26.45-15.81l64.37-5.26,91.55-7.2,62.64-4.69c24.19-3.82,46.68,10.41,54.54,33.42l76.03,222.43,62.67,182.11,45.34,131.65c2.31,6.69,4.52,12.66,5.5,19.41,2.44,16.92-8.79,32.15-25.74,34.6l-56.64,8.21-115.41,16.3-58.6,8.09ZM130.3,337.99l52.52,160.29,41.52,127.34c3.84,11.77,11.26,21.26,21.97,27.08,6.88,3.74,15.61,6.11,23.62,5.02l56.44-7.67,172.8-24.45c13.27-1.88,21.68-14.21,20.97-26.57-.29-5.11-1.25-8.98-2.94-13.88l-89.73-260.7L331.7,44.66c-3.21-9.38-7.88-16.75-15.39-22.74s-17.28-9.68-27.28-8.91l-30.13,2.33c-1.42.11-3.43,2.37-3.14,3.77l2.02,9.49c1.62,7.65-3.79,16.27-12.38,16.97l-115.12,9.44c-13.34,1.09-24.07-7.85-26.57-20.48-.4-2.04-3.21-6.55-5.37-6.37l-38.88,3.29c-6.56.56-13.08,5.08-16.23,10.51-4.09,7.04-4.43,15.23-1.83,23.24l52.36,161.2,36.55,111.57ZM223.36,30.01c0-2.04-1.65-3.7-3.7-3.7s-3.7,1.65-3.7,3.7,1.65,3.7,3.7,3.7,3.7-1.65,3.7-3.7ZM177.62,33.01l14.57-.93c2.77-.18,5.82-.81,9.01-1.48-4.22-.4-8.46-.02-13.09.36l-12.08,1.01c-3.62.3-6.99.09-10.53,1.46l12.13-.42Z"/>
    </g>
  </g>
</svg>