<?xml version="1.0" encoding="UTF-8"?>
<svg id="Calque_2" data-name="Calque 2" xmlns="http://www.w3.org/2000/svg" viewBox="0 0 356.82 715.52">
  <g id="Calque_1-2" data-name="Calque 1">
    <g>
      <path d="M4.59,271c-3.74-1.27-4.5-2.84-4.5-5.88v-41.35c.02-3.2,1.05-4.56,4.45-5.92l.06-11.88c-4.09-.75-4.43-3.05-4.43-6.11v-40.47c0-3.19.73-4.99,4.37-6.21l.03-19.93C1.42,131.97,0,130.45,0,127.33l.06-20.9c0-2.32,1.62-3.85,4.49-4.45l.18-46.24C4.84,25.88,29.5,0,58.96,0h238.24c31.18,0,55.24,26.15,55.27,56.33l.11,107.86c4.22,1.24,4.24,3.95,4.24,7.68v66.75c-.01,3.4.12,6.36-4.21,7.45l-.14,414.11c0,28.05-23.85,55.35-52.86,55.34l-243.66-.05c-13.51,0-26.03-7.07-34.97-16.21-10.6-10.83-16.35-25.17-16.36-40.53l-.04-387.73ZM342.53,684.06c4.95-9.59,6.33-18.36,6.33-28.71l.04-456.87v-30.92s-.15-112.21-.15-112.21c-.01-8.66-2.64-16.81-6.54-24.2-8.54-16.21-24.96-27.21-43.71-27.23l-236.16-.22c-22.5-.02-42.13,11.89-50.26,33.38-2.91,7.7-3.85,15.48-3.85,24.34v203.73s.12,395.17.12,395.17c0,26.5,22.61,51.5,48.86,51.49l242.47-.05c18.52,0,34.64-11.83,42.83-27.69ZM5.54,129.42l-.12-25.01c-2.02-.61-3.6,1.18-3.6,3.07l.06,19.57c0,.73.77,2.42,1.02,2.95s2.64.13,2.63-.57ZM5.56,202.76l-.05-46.43c-1.41-.38-2.12-.63-2.49-.25s-1.19,2.09-1.19,2.73l.05,41.7c0,.64.89,2.31,1.18,2.78s1.84.03,2.5-.52ZM355.28,166.91h-4.32s.05,76.33.05,76.33h4.32s-.05-76.33-.05-76.33ZM5.52,267.33l-.03-45.81c0-.76-2.62-1.19-2.8-.59-.13.45-.83,1.77-.83,2.45v41.43c0,.89.74,2.53.94,3.1s2.71.28,2.71-.59Z"/>
      <path d="M338.61,661.1c0,20.59-17.79,40.59-40.58,40.59H58.91c-22.6,0-40.49-19.31-40.49-41.38l.1-605.51c0-23.25,19.54-40.93,41.98-40.93l236.77.06c21.93,0,41.03,17.39,41.07,39.97l.32,169.98-.04,437.21ZM298.89,19.09l-35.5-.12c-2.89-.01-5.36,2.77-5.16,6.07.57,9.37-6.03,19.97-16.58,19.98l-125.68.08c-10.7,0-17.69-9.82-17.23-19.64.18-3.8-2.45-6.62-6.03-6.6l-34.12.2c-18.59.11-35.22,16.12-35.22,35.67l-.07,605.63c0,10.97,5.06,20.7,12.7,27.67,6.79,6.2,15.19,8.77,24.6,8.77h234.9c8.3,0,15.43-1.43,22.16-6.15,9.62-6.74,16.15-17.86,16.15-30.35l-.09-605.57c0-19.33-16.19-35.58-34.83-35.64ZM222.23,29.53c0-2.08-1.69-3.77-3.77-3.77s-3.77,1.69-3.77,3.77,1.69,3.77,3.77,3.77,3.77-1.69,3.77-3.77ZM199.65,30.3c.4,0,1.43-.73,1.71-.95s-1.28-1.21-1.68-1.21l-42.32.04c-.34,0-1.76,1-1.54,1.18s1.12.93,1.49.93h42.34Z"/>
    </g>
  </g>
</svg>