<?xml version="1.0" encoding="UTF-8"?>
<svg id="Calque_2" data-name="Calque 2" xmlns="http://www.w3.org/2000/svg" viewBox="0 0 759.58 665.74">
  <g id="Calque_1-2" data-name="Calque 1">
    <g>
      <g>
        <path d="M505.32,611.6l-72.37,20.05-115.01,31.92c-16.59,4.6-34.56,2.3-46.62-10.89l-63.39-69.3-106.04-115.59c-4.65-5.07-2.78-10.67-5.2-15.75s-8.4-8.6-10.11-15.43l-17.54-69.91-11.1-44.07L.91,97.06c-3.61-14.28,3.83-27.87,16.78-29.9L336.85,17.03,445.91.23c11.06-1.7,19.3,6.41,21.88,16.88l12.62,51.3,41.66,169.14,23.19,93.68c.94,3.79,1.35,7.43,1.89,11.38,8.25-.08,16.14,2.36,22.58,8.03l63.82,56.18,120.21,105.31c5.61,4.92,6.65,12.02,5.3,18.55-1.8,8.65-7.68,13.44-15.98,15.71l-46.03,12.56-16.57,4.6-175.14,48.07ZM256.24,406.24l97.22-21.05,113.25-24.66,36.52-7.89,7.04-2.66,31.9-6.91c1.24-2.57,1.04-5.72.39-8.37l-9.69-39.3-34.88-140.86-16.34-66.72-15.13-61.76c-1.01-4.14-1.93-8.73-3.28-12.2-3.41-8.75-11.16-11.08-19.44-9.76l-45.78,7.29-96.96,15.05L23.15,70.07c-11.98,1.88-15.68,13.5-13.5,22.32l19.51,78.61,33,130.73,32.92,130.66c.91,3.6,5.16,8.64,8.44,7.58s6.44-3.02,9.51-3.68l35.2-7.63c3.59-.78,6.96-1.19,10.8-1.29l97.21-21.13ZM91.96,430.74l-25.4-100.57-14.78-59.02-19.36-76.74L13.7,120.21l-6.75-28.31c-1.41-5.92.82-11.53,2.41-17.24-5.09,5.66-7.24,13.06-5.31,20.71l51.9,205.75,33.71,133.72c1.37,5.45,4.2,9.01,8.61,12.98l3.16-4.9c-5.14-2.93-7.99-6.32-9.47-12.18ZM189.89,541.08l72.88,80.42,17.62,19.27c9.51,10.4,23.54,12.67,37.08,8.98l195.36-53.2,125.96-34.01,109.81-29.85c3.83-1.04,7.76-4.28,7.72-8.25-.03-3.47-2.33-7.37-5.03-9.74l-77.12-67.65-106.79-93.72c-5.48-4.81-13.31-8.43-20.62-7.34-12.71,1.89-24.73,4.84-37.03,7.63-2.48,1.36-4.46,2.05-7.59,2.73l-283.86,61.56-59.21,12.94c-1.2-.04-4.02-.3-5.16-.04l-39.97,8.77c-3.07.67-6.46,2.18-8.48,4.39-1.19,1.31.32,5.47,1.51,6.71l8.77,9.12,12.05,13.08,62.1,68.18ZM746.84,535.64l-63.88,17.4-112.52,30.38-233.03,63.41c-13.3,3.62-24.99,7.82-37.59,6.43-8.75-.97-16.93-5.55-22.78-12.02l-52.62-58.21-10.55-11.63-45.55-50.2-33.89-37.22-26.33-28.45c-2.08-2.25-3.88-4.44-5.86-6.89-3.55,6.53-1.3,13.14,3.48,18.24l19.4,20.71,50.15,54.69,97.48,107.03c11.14,12.23,27.13,15.57,42.59,11.29l110.38-30.52,105.64-29.23,119.82-32.89,59.75-16.26,34.96-9.79c4.13-1.16,7.52-5.25,8.67-8.61l-7.72,2.33Z"/>
        <path d="M449.65,602.1c-4.09,1.07-10.8,2.99-14.41-.17-9.3-8.13-17.19-17.19-25.77-26.1l-24.05-24.96-23.22-23.78c-.81-.83-1.4-3.69-1.06-4.76s2.23-2.76,3.33-3.02l23.58-5.68,109.53-26.16,29.23-7.08c3.08-.75,9.56-1.97,12.27.61l60.42,57.53,13.46,12.87c.87.83,1.58,3.33,1.25,4.34-.38,1.18-2.63,2.89-4.01,3.27l-41.69,11.33-97.51,26.18-21.35,5.57ZM464.94,596.31l23.5-6.24,88.21-23.62,33.46-9.15c.94-.26,2.32-1.67,2.29-2.37-.03-.52-.62-2.01-1.07-2.45l-12.06-11.58-42.94-40.87-17.99-17.2c-1.51-1.44-6.18-1.86-8.68-1.26l-104.73,25.06-58.99,14.15c-1.05.25-2.79,1.5-3.02,2.39s.76,3.03,1.46,3.76l7.8,8.21,32.08,32.96,30.13,31.36c1.41,1.46,5.78,3.06,7.59,2.6l22.93-5.75Z"/>
        <path d="M139.23,499.55l-8.61-7.83c-2.16-1.97-1.99-5.81.14-8.19,2.75,3.16,14.05,10.51,8.47,16.02Z"/>
        <path d="M121.1,472.44c2.21,2.3,3.61,4.19,1.1,8.28l-5.31-4.32c-7.46-6.07-5.33-13.46-3.3-11.61.51.47,1.41,1.29,2.12,2.02l5.4,5.62Z"/>
        <path d="M153.09,512.1c-2.02.14-5.27-3.77-5.99-5.68-.27-.72,1.03-2.7,1.46-2.93,2.57,2.94,3.59,3.47,4.53,8.61Z"/>
        <g>
          <path d="M359.83,509.83c-2.51.6-5.96,1.14-7.14-.07l-11.03-11.27c-.44-.45-1.04-1.88-1.1-2.5s1.66-1.64,2.28-1.79l32.19-7.73,102.7-24.24c1.62-.38,4.45.85,5.45,1.8l10.23,9.77c.48.46,1.18,1.67,1.4,2.17s-1.44,1.81-2.07,1.96l-21.46,5.3-111.44,26.6Z"/>
          <path d="M212.47,522.55c-2.67.63-5.52-.28-6.79-1.64l-8.7-9.37c-.4-.43-.94-1.87-.87-2.4s1.36-1.49,1.9-1.62l59.95-14.14c2.08-.49,4.53.84,5.88,2.2l8.95,9.01c.46.46,1.07,1.71,1.25,2.25s-1.66,1.58-2.27,1.73l-59.3,13.99Z"/>
          <path d="M568.03,438.56c-2.53.59-5.14-.38-6.53-1.61l-9.56-8.53c-.28-.25-1.06-1.25-1.29-1.54-.37-.45,1.24-1.94,2.17-2.15l52.89-12.09c1.94-.44,4.69.71,5.91,1.8l9.1,8.17c.43.38,1.21,1.83.94,2.29s-1.64,1.52-2.5,1.72l-51.13,11.94Z"/>
          <path d="M196.4,505.33c-2.71.64-5.28-.25-6.49-1.54l-8.32-8.91c-.43-.46-1.28-2.3-.92-2.83s1.62-1.4,2.41-1.58l43.97-10.24c1.96-.46,4.61.88,5.9,2.21l8.83,9.13c.24.25.82,1.19.98,1.46.24.41-1.38,1.73-2.13,1.91l-44.22,10.39Z"/>
          <path d="M603.06,410.84l-42.29,9.62-12.19-10.15c-.46-.38-1.16-1.8-1.34-2.2s1.06-1.42,1.68-1.56l38.93-8.91c2.46-.56,5.08.42,6.76,1.93l8.89,8c.32.29.98,1.2,1.19,1.48s-1.28,1.7-1.63,1.78Z"/>
          <path d="M181.4,488.45c-3.24.76-5.64-.28-7.24-2.02l-7.52-8.19c-.39-.43-.99-1.71-1.14-2.16s1.32-1.67,2.25-1.88l38.81-8.85,11.34,11.17c.3.29.89,1.24,1.05,1.53.25.43-1.29,1.95-1.9,2.09l-35.64,8.32Z"/>
          <path d="M321.67,519.12c-1.02.24-4.19.04-4.92-.7l-12.87-13c.45-.92,2.41-2.58,3.4-2.81l25.74-6.1c1.07-.25,3.8.57,4.54,1.32l10.41,10.61c.44.45,1.11,2,1.03,2.56-.11.75-1.62,1.96-2.49,2.17l-24.84,5.96Z"/>
          <path d="M569.6,381.17l-33,7.56c-4.29.98-11.82-6.85-16.47-11.79l35.56-8.16c1.49-.34,4.65.33,5.57,1.15l9.02,7.94c.61.54.07,3.13-.68,3.31Z"/>
          <path d="M502.99,475.62c-1.29.32-4.52-.08-5.34-.85l-11.74-11.13c-.28-.26-.9-1.28-1.06-1.59-.24-.46,1.4-1.74,2.22-1.93l24.76-5.73c1.55-.36,4.51.43,5.49,1.32l11.29,10.36-.19,3.31-25.44,6.22Z"/>
          <path d="M231.43,540.96c-1.94.48-6.21.93-7.49-.43l-11.56-12.37c-.69-.74.92-3.2,1.84-3.42l21.17-4.98c2.14-.5,4.45.78,5.94,2.32l9.8,10.16c.47.48,1.34,2.25.97,2.72s-1.57,1.32-2.21,1.48l-18.46,4.52Z"/>
          <path d="M290.99,526.58c-2.55.62-5.2-.65-6.83-2.34l-9.65-9.98c-.4-.41-.94-1.78-1.06-2.22s1.32-1.72,1.92-1.86l23.67-5.53,13.04,12.33c.62.58,1.4,2.51,1.1,3.08s-1.57,1.53-2.32,1.71l-19.87,4.8Z"/>
          <path d="M260.34,533.92c-1.89.45-4.89-.89-5.84-1.89l-9.7-10.24c-.52-.55-1.15-2.11-1.01-2.7s1.56-1.6,2.19-1.75l19.93-4.83c.99-.24,3.75.3,4.46,1.02l11.07,11.41c.35.36.96,1.62.96,2.07,0,.68-1.55,1.99-2.2,2.15l-19.86,4.75Z"/>
          <path d="M538.63,467.11c-3.49.88-5.96-.1-8.28-2.26l-10.14-9.48c-.63-.58-.29-3.09.53-3.29l22.02-5.22,13.55,12c.44.39,1.03,1.79,1.07,2.26s-1.33,1.61-1.83,1.73l-16.92,4.25Z"/>
          <path d="M282.68,505.98c-2.35.56-5.22-.13-6.53-1.43l-10.43-10.29,1.13-2.83,18.74-4.43c1.25-.29,4.84-.75,5.85.18l11.27,10.4c.39.36,1.06,1.96.8,2.42s-1.46,1.36-2.02,1.49l-18.79,4.49Z"/>
          <path d="M250.29,492.73c-1.44.33-4.41-.49-5.24-1.32l-9-8.99c-.45-.45-1.11-1.77-1.17-2.34-.09-.76,1.9-2.14,2.84-2.34l22.04-4.82,11.33,11.19c.38.38,1.05,1.59,1.22,1.98.26.6-1.47,1.98-2.1,2.13l-19.92,4.52Z"/>
          <path d="M165.75,472.3c-2.05.47-4.68-.4-5.78-1.59l-8.19-8.77c-.35-.38-.93-1.51-1.06-1.92-.19-.61,1.53-1.78,2.18-1.93l20.9-4.7c1.02-.23,3.78.46,4.49,1.18l8.89,9.04c.5.51,1.35,2.05,1,2.53s-1.7,1.45-2.43,1.62l-20.01,4.55Z"/>
          <path d="M310.66,499.2c-1.12.27-3.99-1.02-4.75-1.76l-9.48-9.12c-.4-.38-.95-1.84-1.05-2.3s1.34-1.53,1.91-1.67l18.98-4.61c1.89-.46,4.32.3,5.73,1.62l9.66,9.08c.45.42,1.04,2.02.93,2.51s-1.26,1.33-1.84,1.47l-20.07,4.77Z"/>
          <path d="M340.62,492.13c-1.37.32-4.26-.42-5.08-1.2l-10.04-9.58c-.38-.36-.97-1.88-1.02-2.29s1.01-1.3,1.86-1.5l19.37-4.62c1.85-.44,4.5.57,5.85,1.85l9.68,9.14c.35.33.9,1.69.82,2.1s-1.24,1.34-1.66,1.44l-19.77,4.67Z"/>
          <path d="M593.62,453.96c-1.96.48-5.31-.36-6.61-1.52l-10.65-9.52c-.45-.41-1.36-1.53-1.69-1.95-.44-.56,1.67-1.86,2.63-2.08l18.59-4.35c1.28-.3,3.84,1.07,4.75,1.86l10.78,9.34c.53.46,1.24,1.75,1.35,2.31s-1.55,1.6-2.25,1.77l-16.9,4.14Z"/>
          <path d="M369.83,485.27c-1.59.39-4.39-.45-5.23-1.27l-10.16-9.88c-.3-.3-.93-1.71-.65-1.98.42-.4,1.95-1.58,2.57-1.73l21.21-4.81,12.82,11.24c.42.37,1,2.03.72,2.33s-1.35,1.18-2.04,1.35l-19.24,4.75Z"/>
          <path d="M280.41,485.79c-1.66.4-4.65-.39-5.52-1.25l-9.47-9.45c-.35-.35-.87-1.61-.97-2.05s1.3-1.56,1.73-1.66l19.34-4.57c2.53-.6,4.91.68,6.74,2.45l8.48,8.16c.29.28.84,1.34.97,1.65.21.45-1.11,1.83-1.73,1.98l-19.58,4.74Z"/>
          <path d="M399.13,478.14c-1.32.3-4.57-.67-5.41-1.4l-10.01-8.75c-.36-.31-1.05-1.56-1.2-1.96-.23-.6,1.39-1.99,2.07-2.15l18.31-4.36c1.21-.29,4.53,0,5.41.81l10.23,9.37c.49.45,1.16,1.77,1.28,2.32s-1.54,1.73-2.27,1.9l-18.41,4.23Z"/>
          <path d="M226.83,477.92c-1.27.29-4.55-.63-5.55-1.6l-9.01-8.79c-.32-.31-.88-1.2-1.03-1.47-.23-.41,1.13-2.06,1.71-2.19l19.1-4.33c1.18-.27,4.55-.17,5.42.63l9.75,8.98c.45.42,1.17,2.36.82,2.85s-1.65,1.41-2.42,1.59l-18.78,4.33Z"/>
          <path d="M284.57,464.56c-1.15.25-3.86-.99-4.72-1.81l-8.81-8.27c-.42-.4-1.13-1.78-1.05-2.31s1.48-1.51,2.12-1.66l20.29-4.67c1.35-.31,3.88,1.05,5.02,2.13l8.45,8.05c.35.33.93,1.63,1.01,2,.12.56-1.35,1.92-2.02,2.07l-20.29,4.48Z"/>
          <path d="M368.76,465.19c-1.44.34-4.59.35-5.48-.43l-10.32-9.09c-.46-.41-1.2-2.03-1.3-2.62s1.45-1.66,2.1-1.81l19.39-4.6c1.91-.45,4.64,1.09,6.07,2.48l8.57,8.35c.28.27.82,1.29.94,1.61.18.48-1.39,1.75-2,1.89l-17.97,4.21Z"/>
          <path d="M196.67,465.24c-2.24.51-4.93-.42-6.42-1.98l-9.04-9.45c-.26-.66,1.93-2.57,2.8-2.76l21.74-4.73,11.92,11.26c.78.73-.84,3.11-1.77,3.32l-19.22,4.33Z"/>
          <path d="M310.45,478.76c-2.18.52-5.31-.26-6.3-1.22l-9.28-8.92c-.47-.45-1.27-1.94-.99-2.4s1.6-1.46,2.27-1.62l18.64-4.48c.99-.24,4.05.22,4.78.93l9.98,9.62c.28.27.84,1.13.99,1.4.23.41-1.08,2.13-1.69,2.27l-18.4,4.42Z"/>
          <path d="M339.43,472.1c-2.18.52-5.13-.2-6.42-1.43l-9.18-8.78c-.37-.36-.93-1.24-1.1-1.59-.26-.54,1.31-2.04,2.05-2.22l17.39-4.25c1.36-.33,5.04-.48,6.09.49l10.21,9.37c.45.41,1.15,1.86,1.32,2.38s-1.49,1.5-2.18,1.67l-18.18,4.37Z"/>
          <path d="M428.65,471.27c-1.62.4-4.83.07-5.77-.78l-9.81-8.91c-.5-.46-1.16-1.9-1.26-2.45s1.42-1.74,2.02-1.89l18.27-4.43c.96-.23,3.94.26,4.71.95l10.3,9.13c.45.4,1.14,1.76,1.32,2.22s-1.29,1.63-1.9,1.78l-17.91,4.39Z"/>
          <path d="M256.38,471.09c-2.25.52-5.15-1.08-6.42-2.32l-8.11-7.92c-.34-.33-.93-1.47-1.06-1.85-.2-.57,1.44-1.68,2.17-1.85l19.88-4.63c1.34-.31,4.09,1.09,4.99,1.92l8.9,8.19c.45.41,1.15,1.84,1.09,2.39s-1.51,1.49-2.13,1.63l-19.31,4.44Z"/>
          <path d="M456.88,464.67c-1.95.45-5.17-.5-6.41-1.63l-9.81-8.95c-.32-.29-.92-1.58-.83-1.93s1.09-1.18,1.58-1.3l19.44-4.74c1.66-.41,4.61,1.22,5.83,2.32l8.95,8.07c.53.47,1.43,2.08,1.12,2.53s-1.52,1.37-2.12,1.51l-17.75,4.14Z"/>
          <path d="M225.95,458.65c-1.56.36-4.41-.64-5.41-1.58l-9.21-8.71c-.33-.31-1.07-2.08-.74-2.38s1.33-1.04,1.83-1.15l18.77-4.27c2.35-.53,4.99.48,6.67,1.99l8.32,7.51c.38.35,1.09,1.65,1.28,2.08.27.64-1.54,1.95-2.37,2.14l-19.14,4.37Z"/>
          <path d="M396.96,458.64c-1.29.3-4.38-.18-5.26-.96l-10.41-9.28c-.33-.29-1.02-2.09-.71-2.36.48-.41,1.78-1.32,2.53-1.49l18.74-4.3c1.12-.26,3.95.77,4.77,1.54l9.29,8.6c.4.37,1.15,1.36,1.4,1.72.38.53-1.32,2.1-2.09,2.28l-18.26,4.26Z"/>
          <path d="M503.29,453.79l-21.65,4.85-12.08-10.62c-.32-.28-1.09-1.55-1.29-1.93-.3-.56,1.25-2.07,1.92-2.21l21.16-4.52,12.63,10.54c.37.31.98,1.77,1.04,2.19s-1.31,1.6-1.73,1.7Z"/>
          <path d="M283.18,445.69c-1.19.26-4.27-1.38-5.23-2.28l-8.15-7.66c-.31-.29-1-1.31-1.23-1.68-.34-.55,1.5-2.08,2.13-2.23l19.38-4.4c1.32-.3,4.32.72,5.27,1.62l8.64,8.14c.39.37,1.13,1.55,1.35,1.9.33.54-1.2,2.06-1.87,2.21l-20.29,4.37Z"/>
          <path d="M426.24,451.92c-2.16.53-5.12.18-6.4-.99l-9.41-8.62c-.53-.49-1.21-1.76-1.38-2.22s1.32-1.76,2.07-1.94l18.9-4.43c.78-.18,3.42.23,4.02.78l11.98,10.87c-.73.89-2.39,2.27-3.1,2.45l-16.67,4.11Z"/>
          <path d="M371.61,444.68c-1.21.27-4.14-.89-5.11-1.76l-9.72-8.69.71-3.03,19.68-4.45c1.35-.31,4.3.32,5.18,1.09l9.58,8.36c.39.34,1.12,1.54,1.33,1.91.31.55-1.22,2.08-2.03,2.26l-19.63,4.33Z"/>
          <path d="M274.59,447.6l-22.11,5.06-13.22-11.95c.97-1.18,2.92-2.68,3.96-2.9l20.45-4.28,11.45,10.23c.49.44,1.18,1.91,1.34,2.33s-1.29,1.39-1.87,1.52Z"/>
          <path d="M314.86,457.69c-1.09.25-4.09-.41-4.89-1.14l-10.09-9.3.7-3.09,22.46-4.97,11.84,10.39c.44.38,1.36,1.98.95,2.36s-1.97,1.39-2.6,1.54l-18.36,4.23Z"/>
          <path d="M471.73,441.25l-18.72,4.35c-.77.18-3.32-.32-3.82-.75l-11.2-9.66.17-3.31,19.78-4.62c1.52-.36,4.56,1.19,5.8,2.3l8.79,7.84c.41.37,1.07,1.44,1.25,1.75.27.46-1.37,1.96-2.05,2.11Z"/>
          <path d="M532.23,446.72l-19.96,4.85c-1.28.31-4.02-.57-4.89-1.35l-9.64-8.59c-.51-.46-1.49-1.89-1.34-2.53s1.67-1.65,2.35-1.81l17.16-4.11c1.38-.33,4.47.66,5.57,1.6l9.51,8.16c.67.58,2.07,3.57,1.23,3.78Z"/>
          <path d="M482.17,438.81c-2.4.57-5.37-.58-6.72-1.78l-8.89-7.94c-.53-.47-1.35-1.59-1.65-1.99s1.49-1.66,2.12-1.81l18.52-4.37c1.08-.25,3.81.4,4.61,1.1l10.65,9.29c.61.53.38,2.97-.45,3.16l-18.2,4.34Z"/>
          <path d="M558.45,440.87l-21.07,4.63-12.39-10.52c-.46-.39-1.22-1.8-1.38-2.13s1.03-1.6,1.54-1.72l20.63-4.8,12.86,10.79c.46.39,1.21,1.57,1.41,1.9s-1.23,1.77-1.61,1.85Z"/>
          <path d="M362.37,446.75l-18.4,4.32c-1.42.33-4.42.03-5.37-.86l-8.87-8.32c-.4-.38-1.14-1.44-1.38-1.82-.37-.58,1.29-2.37,2.12-2.57l18.41-4.39c1.44-.34,4.36.95,5.48,1.96l8.71,7.85c.37.34,1,1.76,1.12,2.18s-1.36,1.53-1.84,1.64Z"/>
          <path d="M389.23,421.94l-21.5,4.58c-1.96-2.11-19.42-12.31-10.66-14.11l20.8-4.29,12.64,10.56c.62.52-.43,3.09-1.27,3.27Z"/>
          <path d="M527.45,428.33l-21.27,4.58-12.87-10.93c-.68-.58.98-3.08,1.81-3.27l20.59-4.6,12.54,10.75c.69.59.37,3.22-.8,3.47Z"/>
          <path d="M342.01,432.52c-1.35.31-4.31-.21-5.08-.91l-11.25-10.31c1.16-1.29,3.36-2.53,5.09-2.89l18.78-3.93,11.31,9.92c.36.32,1.15,1.37,1.4,1.71.36.5-1.22,2.05-1.92,2.21l-18.32,4.21Z"/>
          <path d="M401.37,437.89c-2.32.55-4.89-.52-6.01-1.52l-9.37-8.37.25-3.11,19.73-4.63c1.38-.32,4.35.75,5.35,1.6l9.26,7.86c.29.24,1.01,1.13,1.24,1.4.34.41-.94,2.12-1.57,2.27l-18.88,4.5Z"/>
          <path d="M315.21,438.63c-1.44.34-5.18.49-6.18-.37l-10.04-8.68c-.55-.48-1.59-2.01-1.26-2.51s1.7-1.5,2.3-1.63l18.75-4.16c.9-.2,3.76.52,4.48,1.16l9.77,8.65c.34.3.92,1.71,1.01,2.1s-1.1,1.19-1.52,1.29l-17.32,4.15Z"/>
          <path d="M399.1,419.61c-1.16.26-4.02-.08-4.77-.7l-10.17-8.52c-.54-.46-1.24-1.57-1.49-2.09s1.76-1.82,2.44-1.98l18.76-4.17c1.87-.42,4.43,1.04,5.89,2.29l9.1,7.78c.38.32,1.07,1.55.89,1.85s-1.12,1.07-1.75,1.22l-18.92,4.33Z"/>
          <path d="M428.93,431.42c-1.09.24-4-.52-4.81-1.22l-9.57-8.27c-.33-.28-1.06-1.48-.95-1.88.17-.6,1.53-1.74,2.26-1.91l17.81-4.18c1.51-.35,4.3.22,5.36,1.16l9.58,8.51c.33.29,1,1.24,1.22,1.53.33.44-1.28,1.85-1.95,2l-18.97,4.25Z"/>
          <path d="M455.92,425.19c-1.33.29-4.2-1.67-5.08-2.5l-9.71-9.15c2.68-1.41,4.69-2.34,6.91-2.8l16.83-3.45,11.84,9.85c.41.34,1.19,1.6,1.06,1.95-.19.53-1.44,1.69-2.12,1.84l-19.73,4.26Z"/>
          <path d="M536.36,426.3c-1.07.27-4.11-.61-4.92-1.33l-10.01-8.79c-.37-.33-.98-1.7-.89-2.12s1.19-1.23,1.7-1.35l16.75-3.89c1.17-.27,4.28-.25,5.19.48,3.82,3.02,8.57,6.94,13.03,11.67l-20.85,5.32Z"/>
          <path d="M445.9,409.26l-21.68,4.4-12.57-10.31.96-3.04,21.48-4.65,12.88,10.52c.52.43-.4,2.94-1.08,3.08Z"/>
          <path d="M516.87,411.67c-1.94.45-6.2,1.25-7.56.17l-11.46-9.11c-.3-.24-1.13-1.37-.95-1.65.28-.43,1.62-1.68,2.18-1.8l18.44-4.14c.98-.22,3.79.75,4.52,1.38l9.41,8.09c.35.3,1.16,1.4,1.38,1.69.32.43-1.01,1.9-1.6,2.04l-14.36,3.35Z"/>
          <path d="M500.74,415.19l-18.66,3.78-11.42-9.84c-.4-.34-.94-1.46-1.07-1.82s1.35-1.59,1.92-1.72l19.39-4.4c1.47-.33,4.62,2.15,5.8,3.18l9.55,8.34c-1.81,1.08-3.69,2.12-5.5,2.49Z"/>
          <path d="M585.44,395.88l-17.78,4.11c-1.08.25-4.26-.4-5.15-1.2l-11.82-10.54c8.23-2.37,13.81-3.61,21.6-5.38,1.53-.35,4.58.94,5.85,2.1l7.88,7.15c.44.39,1.12,1.61,1.32,2.05s-1.32,1.6-1.91,1.73Z"/>
          <path d="M483.13,400.73c-1.54.35-4.45-.25-5.4-1.04l-9.7-8.11c-.43-.36-1.12-1.19-1.36-1.48-.36-.44,1.31-2.08,2.04-2.24l20.66-4.43,12.2,9.97c.41.33,1.11,1.4,1.32,1.71s-1.26,1.4-1.69,1.5l-18.07,4.11Z"/>
          <path d="M473.13,402.96l-17.5,3.95c-2.1.47-5.5-.54-6.91-1.83l-10.88-9.99,22.19-5.21c1.4-.33,4.17,1.34,5.19,2.22l8.49,7.32c.35.3,1.06,1.51,1.24,1.85s-1.24,1.55-1.83,1.68Z"/>
          <path d="M541,406.12c-2.33.59-5.51-.95-7.16-2.36l-8.01-6.87c-.35-.3-1.51-1.93-1.23-2.16l1.8-1.41,16.35-3.82c1.27-.3,4.75-.48,5.88.39,3.61,2.77,8.22,6.65,12.56,11.07l-20.2,5.16Z"/>
          <path d="M528.46,390.53l-20.91,4.7-13.07-10.31c-.61-.48.97-3,1.74-3.17l17.47-3.87c.93-.21,3.53.31,4.21.88l10.57,8.82c.44.37.68,2.8-.02,2.96Z"/>
          <path d="M148.35,456.83c-2.03-.65-5.5-3.7-6.65-5.23-.61-.82.95-3.47,1.89-3.68l26.38-5.66c3.06,1.61,5.6,4.23,7.62,7.9l-29.23,6.67Z"/>
          <path d="M565.52,460.65c-4.64,1.11-8.03-2.57-11.72-7.74l23.01-5.96c2.66,1.16,6.55,4.69,7.95,6.67.5.71-1.46,2.78-2.28,2.97l-16.95,4.06Z"/>
          <path d="M183.36,448.73c-2.98.62-6.86-4.02-7.88-6.07-.28-.57,1.84-2.18,2.61-2.34l22.03-4.66c2.07,1.3,5.62,4.18,7.13,5.67.45.44-1.47,2.74-2.26,2.9l-21.63,4.51Z"/>
          <path d="M638.49,443.12l-20.1,4.8c-2.59-1.03-6.92-4.27-8.5-6.31-.44-.56,1.55-2.66,2.35-2.86l16.62-4.11c1.21-.3,4.32-.35,5.21.36l5.19,4.18c.68.55.32,3.68-.77,3.94Z"/>
          <path d="M216.15,441.66c-5.3,1.24-8.41-2.32-10.21-5.59-.37-.66,1.69-2.23,2.44-2.4l18.63-4.16c4.95-1.1,9.5,3.38,10.31,7.2l-21.17,4.95Z"/>
          <path d="M242.35,435.65l-6.41-5.1c-.68-.54,1.09-3.11,1.99-3.31l21.99-4.75c2.34,1.22,5.49,3.92,7.17,5.98-.33.7-2.5,2.32-3.25,2.48l-21.49,4.7Z"/>
          <path d="M530.96,371.98c-2.58-.89-5.87-3.91-7.97-6.95,8.42-2.22,15.5-3.82,23.93-5.38,3.26-.6,6.89,2.89,8.75,6.77l-24.72,5.55Z"/>
          <path d="M302.65,422.43c-2.38.53-6.62-3.71-7.77-5.76-.41-.73,2-2.29,2.83-2.47l18.27-3.93c4.35-.93,9.12,3.44,9.7,7.05l-23.02,5.1Z"/>
          <path d="M273.14,428.79c-2.18.46-6.63-3.33-7.33-5.3-.29-.81,1.54-2.69,2.48-2.88l20.7-4.27c1.62-.33,4.87,2.93,5.93,4.22l1.3,1.58c.39.47-1.38,2.09-2.08,2.24l-21.01,4.41Z"/>
          <path d="M360.22,409.26c-1.15.24-6.89-2.9-7.17-6.06-.23-2.61,19.79-5.51,23.13-6.19,2.68.25,6.03,3.87,7.54,7.23l-23.49,5.01Z"/>
          <path d="M354.89,410.53c-10.48,1.8-23.77,8.9-29.49,1.65l-1.62-2.05c-.34-.44,1.37-2.1,2.12-2.25l21.7-4.56c2.87,1.47,4.82,3.45,7.29,7.22Z"/>
          <path d="M393.64,402.33c-3.98.97-7.26.36-9.97-2.43l-1.93-1.98c-3.11-3.19,20.67-6.6,23.11-6.95,2.85-.42,6.58,4.14,8.08,6.65l-19.29,4.72Z"/>
          <path d="M418.14,396.65c-2.17-.76-5.85-3.5-7.17-5.04-2.87-3.38,21.2-6.69,22.97-6.93,2.67-.38,5.9,3.59,7.47,6.64l-23.27,5.34Z"/>
          <path d="M448.29,390.19c-1.94.46-5.67-1.98-6.82-3.11l-1.99-1.95c-.45-.44,1.14-2.45,1.97-2.62l21.24-4.33c2.83,1.05,5.64,3.87,7.78,6.81l-22.19,5.21Z"/>
          <path d="M475.71,383.83c-2.06.34-5.91-3.32-7.36-4.79-.46-.46.89-2.66,1.5-2.78l20.31-4.19c2.7-.18,6.36,3.66,8.14,6.71-7.72,2.11-15.14,3.84-22.59,5.05Z"/>
          <path d="M503.9,377.71c-2.03.46-6.32-3.33-7.61-4.95-2.62-3.32,19.97-6.5,21.77-6.78,2.8-.43,6.56,4.09,7.89,6.71l-22.06,5.02Z"/>
        </g>
      </g>
      <g>
        <path d="M247.23,388.53l-76.98,16.34-60.14,12.84c-3.91.83-6.43-1.66-7.26-4.9l-10.92-42.97-6.87-27.34-26.88-106.85-20.96-82.92-5.27-20.87-9.06-36.86c-.85-3.44,1.77-6.86,5.03-7.38l66.98-10.78,22.64-3.64,120.22-19.34,11.22-1.79,31.06-4.93,49.92-7.98,36.35-5.8,82.54-13.14c3.37-.54,7.01-.03,8.01,3.99l23.4,94.19,13.78,56.22,17.63,71.12,2.34,9.78,6.69,26.45,5.47,22.34,4.29,17.52c1.03,4.23-2.17,6.43-5.59,7.14l-19.88,4.1-24.44,5.36-32.97,7.02-22.32,4.81-16.27,3.57-20.76,4.38-59.2,12.77-55.84,12.02-25.96,5.56ZM105.57,415.77c3.78-.21,5.75-.24,8.88-.91l189.07-40.48,56.75-12.29,47.82-10.25,15.66-3.33,14.81-3.18,24.6-5.29,27.98-5.99,34.75-7.45c1.7-.37,3.03-2.98,2.62-4.64l-8.59-34.7-7.91-31.86-5.76-23.24-16.04-64.96-15.99-64.97-19.03-76.84c-.52-2.11-3.06-3.8-5.47-3.42l-174.78,27.93-100.85,16.1-31.04,5.03-21.62,3.48-11.04,1.8-11.34,1.84-71.22,11.39c-1.53.24-3.38,2.83-3.03,4.29l7.23,30.31,6.68,26.14,11.06,43.84,6.98,27.1,9.26,37.71,23.08,91.64,5.45,21.67,1.78,7.17,6.04,23.78,3.19,12.57Z"/>
        <circle cx="248" cy="43.53" r="3.42"/>
      </g>
    </g>
  </g>
</svg>