<?xml version="1.0" encoding="UTF-8"?>
<svg id="Calque_2" data-name="Calque 2" xmlns="http://www.w3.org/2000/svg" viewBox="0 0 804.67 551.67">
  <g id="Calque_1-2" data-name="Calque 1">
    <g>
      <g>
        <path d="M786.28,551.66H18.91c-8.73,0-18.8-5.68-18.85-15.46L0,525.92c-.01-2.47,1.07-5.21,2.59-7.53l69.11-104.8c2.23-3.39,4.56-5.92,7.41-8.26-.93-3.6-1.68-6.96-1.68-11.14l.03-376.2c0-9.96,8.2-17.98,18.05-17.98L710.26,0c9.87,0,18.68,7.77,18.68,18.02l.06,377.02c0,3.33-.71,5.95-1.55,8.58l-.52,1.64c-.16.49,3.51,1.84,6.51,6.5l69.84,108.17c.79,1.22,1.41,3.94,1.39,5.26l-.15,12.64c-.09,7.47-9.47,13.83-18.25,13.83ZM712.07,403.57l11.66.34c1.05-1.59,2-4.43,2-7.23l-.07-379.23c0-8.98-8.07-14.32-16.25-14.31l-614.67.06c-8.06,0-13.19,6.55-14.19,14.02v380.34c0,2.41.99,4.81,1.81,6.41,2.33-.13,3.9-.44,6.55-.44l623.16.03ZM468.31,530.97l116.33.03,203.96.02c3.85,0,7.27-.95,10.2-2.43,2.62-1.33,3.36-4.59,1.75-7.09l-71.04-110.17c-2.21-3.43-6.3-3.99-10.28-4.78l-632.52.02c-3.74.81-7.62,1.44-9.74,4.65L4.27,521.46c-1.76,2.67-1.04,5.9,1.76,7.24s5.86,2.32,9.49,2.32l304.65.03,21.16-.19,126.98.11ZM3.28,530.97l.08,6.85c.07,6.33,8.61,10.64,15.55,10.64h767.98c5.96.01,11.35-3.02,13.66-7.88,1.07-2.24,1.09-5.72.94-8.08l-.09-1.53c-.02-.25-6.34,3.1-12,3.1l-319.96-.02c-1.53,4.14-4.55,7.92-9.35,7.92h-114.41c-5.12,0-8.39-3.3-10.1-7.92l-318.35.02c-5.36,0-8.85-1.09-13.94-3.1ZM459.8,539.11c3.56,0,5.92-2.84,6.26-5.31h-127.1c.58,2.89,3.17,5.31,6.53,5.31h114.31Z"/>
        <path d="M554.97,526.93h-6.46s-293.79,0-293.79,0c-2.18,0-6.82-.38-6.05-3.31l7.12-27.16,3.58-14.56c.87-3.53,2.63-5.11,6.69-5.8h274c4.28.73,6.26,3.12,6.78,6.94l7,27.13,3.42,12.63c.3,1.1-.94,4.15-2.29,4.14ZM555.45,523.35l-7.44-29.87-3.66-13.99c-1.56-1.04-4.07-1.74-6.61-1.74h-269.69c-2.3,0-4.78,1.09-6.23,2.17l-6.54,24.5-4.79,19.11c.63,1.06,2.74,2.54,4.28,2.54h295.46c1.6,0,5.5-1.41,5.24-2.73Z"/>
        <g>
          <rect x="268.11" y="459.43" width="230.62" height="11.28"/>
          <path d="M722.66,456.85c-1.2.65-2.95,1.48-3.81,1.48l-43.07-.03c-4.58-.71-9.13-.56-13.67.15-4.75-.72-9.32-.65-14.21-.37-4.87.28-9.13.2-14.44.08-1.65-.04-4.02-3.27-4.4-4.87l-.61-2.63c-.16-.71,1.98-1.56,2.82-1.56l22.5.18,20.77.04,15.07-.09,19.97.09c7.65.03,7.85-2.05,13.08,7.54Z"/>
          <path d="M164.29,440.28c.9,1.16-.38,7.52-5.6,7.52h-61.62c-2.37-.01-4.77-.11-7.04-.61.87-2.81,2.18-5.9,4.22-7.09,2.57-1.51,6.46-.68,9.44-.69l44.12-.08,14.04-.1c.64,0,2.13.66,2.44,1.05Z"/>
          <path d="M713.32,447.78l-23.77.08c-1.09,0-3.25-1.3-3.78-2.24l-4.18-7.39-6.47-.86c-1.72-.23-4.26-4.09-4.5-6.6-.06-.6,1.8-1.31,2.65-1.31l30.32-.04c1.02,0,3.17,1.01,3.59,1.71l4.08,6.79,4.04,6.63c.2.33.45,1.65.48,2.01.04.55-1.64,1.21-2.46,1.21Z"/>
          <path d="M548.27,470.67l-41.18.02c-1.24,0-3.93-1.18-4.13-2.24l-1.28-6.63c-.17-.88,2.38-2.37,3.37-2.36l40.76.15c1.04,0,3.21,1.81,3.5,2.8l1.67,5.63c.21.72-1.44,2.07-2.72,2.63Z"/>
          <path d="M260.09,470.63h-40.32c-1.14.01-3.71-1.16-3.49-1.94l1.75-6.26c.23-.82,2.33-2.66,3.44-2.67l40.13-.31c1.01,0,3.6,1.07,3.5,1.85-.39,2.93-.29,9.34-5,9.34Z"/>
          <path d="M152.32,437.77h-53.59c-.55.01-1.85-.38-2.28-.58-1.27-.58,2.81-7.07,4.14-7.72l54.54-.12c.67,0,2.72.86,2.58,1.44l-.66,2.72c-.39,1.59-2.34,4.26-4.72,4.26Z"/>
          <path d="M392.64,442.04c.39,3.62-1.01,5.91-4,5.9l-51.58-.12c-2.36,0-3.56-1.99-3.48-4.16.22-5.65,3.79-4.54,15.08-4.48l21.71.12,19.28-.23c.97-.01,2.86,1.86,2.98,2.97Z"/>
          <path d="M141.21,449.8c.45,3.32-1.65,7.34-4.14,8.41l-36.89.26c-5.66.04-10.69.1-16.51-.68,1.54-3.63,2.59-6.3,4.76-7.8,2.42-1.68,6.52-.57,9.41-.57l36.62-.07c1.98,0,4.72,0,6.75.46Z"/>
          <path d="M161.16,470.68h-33.25c-.92,0-3.46-1.11-3.17-1.85l2.69-6.43c.48-1.16,3.11-2.69,4.44-2.71l10.2-.13c8.63-.11,17.3-.31,26.01.36,1.81.14.71,10.76-6.91,10.76Z"/>
          <path d="M120.21,468.24c-.52,1.16-3.46,2.42-4.9,2.42l-35.57-.05c-.6,0-2.27-.71-2.36-1.15-.12-.6.05-1.84.39-2.45l2.45-4.36c.57-1.01,2.83-2.94,4.16-2.95l16.64-.13,19.22.14c.92,0,3.13,1.47,2.82,2.17l-2.85,6.36Z"/>
          <path d="M704.91,427.2c-7.74,1.4-17.21.31-27.8.84-12.08.61-16.8-.52-25.94.08-4.63.31-6.16-4.13-6.32-6.5-.05-.76,2.31-1.55,3.4-1.55l43.8.2c2.92.01,6.63-.75,9.04.95,1.66,1.17,2.6,3.5,3.83,5.98Z"/>
          <path d="M208.22,470.61l-34.24.08c-.69,0-2.35-.74-2.49-1.19s-.09-1.49.09-1.97l2.04-5.44c.4-1.07,2.81-2.38,3.99-2.39l14.95-.1,19.27-.11c.96,0,2.41,2.31,2.15,3.14l-1.43,4.65c-.4,1.31-2.12,3.33-4.34,3.33Z"/>
          <path d="M681.64,470.63l-33.81.05c-2.01,0-3.8-2.02-4.35-3.57l-1.49-4.19c-.22-.63-.44-1.44-.54-1.93s1.78-1.42,2.39-1.42l33.03-.14c1.61,0,3.58,1.62,4.05,2.76l2.18,5.33c.16.38.83,1.32.59,1.5l-2.05,1.61Z"/>
          <path d="M590.75,460.65c1.46.84,4.12,8.15,2.94,9.04-.44.34-1.83.91-2.47.91l-32.52.06c-1.49,0-3.78-1.88-4.09-3.06l-1.57-5.86c-.25-.93,2.27-2.35,3.49-2.34l26.4.23c2.27.02,6.15.05,7.82,1.02Z"/>
          <path d="M540.07,457.69c-4.69.91-7.93,1.18-11.84.52-10.26-1.73-12.77,2.16-25.45-.37-2.39-.48-3.19-5.98-1.98-8.07,1.57-.43,4.45-.64,6.26-.63l24.17.04c1.63,0,5.58-.1,6.51,1.18,1.14,1.58,1.68,4.21,2.31,7.33Z"/>
          <path d="M265.69,457.9c-13.16,2.06-9.26-1.45-22.36.31-4.91.66-9.39.34-14.98-.28-.02-2.63.5-5.93,2.04-7.74,1.03-1.21,4.87-1.04,6.55-1.04h23.46c1.92-.07,6.1-.42,6.89,1.61.68,1.77-.59,4.66-1.59,7.14Z"/>
          <path d="M349.46,458.17c-9.04.19-16.02.44-24.07.18l-8.43-.27c-.92-.03-2.7-.19-3.39-.45-1.5-.55-.62-5.12.72-7.25.56-.89,3.13-1.29,4.36-1.29l20.11.02,9.18.08c.85,0,3.25.39,3.47,1.17.82,2.94.37,7.76-1.94,7.81Z"/>
          <path d="M496.7,456.5c-.07.89-2.81,1.79-3.72,1.8l-20.94.29c-3.67.05-8.04-.04-11.59-.72-1.4-1.42-2.3-5.48-1.45-7.51.61-1.43,4.68-1.2,6.32-1.21l23.43-.09c1.65,0,4.84.09,6.09.96s1.99,4.79,1.86,6.47Z"/>
          <path d="M454.74,456.9c-2.29,3.23-10.75.02-14.4,1.6-7.49.76-11.32-.7-17.49-.47-1.39.05-4.4.06-5.1-.9-1.16-1.61-1.55-5.89-.16-7.15s5.05-.79,6.93-.8l23.44-.09c1.54,0,4.81.15,5.78,1.09,1.27,1.24,1.96,5.36.99,6.72Z"/>
          <path d="M625.27,453.66l1.04,2.96c.21.6-1.85,1.61-2.55,1.61l-32.51.07c-5.5.01-6.92-8.06-4.94-9.04l24.05-.09,8.4-.09c3.23-.03,5.3,1.14,6.51,4.57Z"/>
          <path d="M583.01,457.14c-1.95.72-4.13,1.46-5.6,1.36l-7.93-.54c-11.18-.77-13.16,1.33-24.08-.04-1.48-1.76-2.76-5.19-2.25-7.5.3-1.35,4.19-1.32,5.59-1.31l24.24.1c1.64,0,5.55-.32,6.59.85,1.41,1.58,2.01,3.57,3.44,7.08Z"/>
          <path d="M412.29,450.09c.9.66,2.39,7.36-1.44,8.36l-16.78-.18c-5.33.42-10.8.38-16.29,0-1.09-2.23-1.79-5.97-1-8.03.49-1.28,4.02-1.16,5.3-1.16l24.16.03c1.76,0,4.77.06,6.07,1.01Z"/>
          <path d="M179.17,457.82c-9.52,1.49-15.84-.59-23.99.49-4.2.55-7.9.32-12.47-.71,1.17-2.73,2.24-5.13,3.57-7.38.8-1.35,4.94-1.06,6.53-1.06l24.2-.07c1.51,0,5.08.07,5.53,1.41.61,1.8-1.49,6.85-3.38,7.31Z"/>
          <path d="M308.6,457.71c-3.35.35-5.9.33-9.09.28l-17.48-.25c-3.2.99-7.55,1.18-10.73-.19-1.05-1.64-.26-6.03,1.33-7.41,1.09-.95,4.45-.98,6.07-.98l24.16-.05c1.75,0,5.56-.13,6.2,1.66.55,1.56-.05,3.76-.46,6.95Z"/>
          <path d="M223.07,457.92c-12.15,1.22-15.2-.72-26.89.23-3.76.31-6.88.17-11.07-.37.62-2.85,1.65-6.19,3.33-7.75,1.04-.97,4.57-.89,6.07-.89l25.02.02c1.34,0,5.28.05,5.52,1.36.34,1.89-.83,5.1-1.99,7.4Z"/>
          <path d="M663.35,437.84h-28.97c-1.69.01-4.18-2.82-4.52-4.38l-.58-2.73c-.11-.53,1.56-1.36,2.11-1.35l33.06.11c1.97,1.86,3.42,4.33,4.28,7.05-1.31.92-3.37,1.3-5.39,1.3Z"/>
          <path d="M247.77,443.33c-.51,2.3-2.25,4.44-4.11,4.45l-31.71.07c-.57,0-2.26-.24-2.38-.77-.16-.7-.13-2.29.04-3.13.72-3.64,3.08-5.02,6.64-4.8,4.97.3,9.89.22,14.89.15l12.65-.18c2.17-.03,4.53,1.73,3.99,4.21Z"/>
          <path d="M541.74,437.88l-18.79-.04h-11.9c-4,.02-4.64-4.06-4.58-6.89.02-.79,2.28-1.54,3.19-1.55l29.9-.04c2.55,0,4.6,2.05,4.89,4.44l.33,2.76c.09.73-1.85,1.31-3.03,1.3Z"/>
          <path d="M557.45,443.59l.52,2.81c.12.64-1.85,1.5-2.51,1.5l-30.91-.11c-2.18,0-4.36-1.85-4.57-3.84l-.35-3.18c-.09-.84,2.37-1.51,3.24-1.51h18.32s11.05-.13,11.05-.13c2.33-.03,4.77,2.03,5.22,4.47Z"/>
          <path d="M595.73,439.35c1.53.01,3.53,3.26,3.71,4.52l.4,2.64c.11.72-1.91,1.43-2.75,1.43l-31.64-.22c-1.39,0-3.5-2.66-3.7-3.87l-.51-3.13c-.14-.84,2.4-1.43,3.34-1.43l18.34-.02,12.81.09Z"/>
          <path d="M289.15,444.05c-.42,2.01-2.08,3.8-3.78,3.8h-31.65c-.71-.01-2.63-.9-2.55-1.55l.35-3.01c.26-2.18,2.38-4.09,4.57-4.08l15.9.08,13.42-.17c2.28-.03,4.31,2.19,3.73,4.93Z"/>
          <path d="M641.07,443.51l.91,2.73c.19.56-1.97,1.63-2.74,1.63l-29.56.03c-5.17,0-6.84-4.54-6.8-7.2.01-.85,2.44-1.46,3.35-1.46l15.8.06,12.66-.17c2.85-.04,5.4,1.43,6.38,4.38Z"/>
          <path d="M474.99,442.77l.27,3.39c.05.63-1.93,1.63-2.56,1.63l-30.54.04c-3.18,0-4.7-2.05-4.59-5.21.07-1.88,1.58-3.38,3.53-3.38h18.42s11.03-.19,11.03-.19c1.97-.04,4.26,1.62,4.43,3.72Z"/>
          <path d="M433.79,443.03v3.27c0,.69-1.74,1.57-2.67,1.57h-30.76c-2.21,0-3.93-2.15-3.91-4.16.03-2.68,1.42-4.47,3.86-4.47l17.53.03,11.88-.19c2.02-.03,4.08,1.81,4.08,3.95Z"/>
          <path d="M205.75,442.87c-.82,3.28-2.75,4.99-5.45,4.98l-29.93-.03c-.77,0-2.86-.72-2.75-1.39.71-4.12,1.98-7.29,6.85-7.25l15.82.12,12.73-.13c1.34-.01,3.1,2.21,2.72,3.7Z"/>
          <path d="M579.91,437.83h-27.86c-2.65,0-3.82-4.4-3.98-6.86-.05-.79,2.27-1.6,3.29-1.59l30.63.16c2.15,1.05,3.65,4.67,3.89,7.65-1.64.41-3.77.64-5.97.64Z"/>
          <path d="M460.4,437.83l-21.67.02-10.63-.12c-1.68-1.5-1.92-5.08-1.57-6.72.16-.75,2.19-1.64,3.01-1.64l29.23.03c2.26,0,4.2,1.92,4.37,4.07l.23,2.83c.06.75-2.15,1.53-2.97,1.53Z"/>
          <path d="M515.83,443.42l.31,2.82c.07.62-1.81,1.63-2.65,1.62l-29.74-.02c-2.53,0-4.53-1.75-4.63-4.11l-.12-2.85c-.03-.78,2.24-1.62,3.09-1.62l17.38-.02,11.88-.13c1.91-.02,4.26,2.47,4.47,4.31Z"/>
          <path d="M421.89,437.74l-32.38.14c-.57,0-2.09-.28-2.49-.57-.95-.7-1.6-5.36-.4-6.99.55-.75,2.46-1.05,3.69-1.04l30.56.34c1.77,1.22,2.07,5.21,1.01,8.12Z"/>
          <path d="M329.8,442.84c-.32,4.1-2.36,5.07-5.26,5.06l-28.32-.07c-.83,0-2.33-.38-2.81-.86-1.24-1.24-.22-4.8.87-6.69.53-.93,3.08-1.11,4.35-1.1l10.85.12,16.81-.28c1.78-.03,3.65,2.15,3.52,3.83Z"/>
          <path d="M275.63,437.79l-32.27.09c-.97,0-2.75-.48-2.75-.96l-.02-2.15c-.02-1.49,1.8-5.24,3.29-5.25l30.45-.15c1.07,0,3.5,1.45,3.31,2.34-.29,1.34-1.19,3.97-2,6.07Z"/>
          <path d="M626.38,437.73l-31.06.2c-4.75.03-6.02-2.9-6.61-7.1-.09-.66,2.04-1.39,2.91-1.39l28.83-.06c4.02,0,6.21,3.82,5.93,8.35Z"/>
          <path d="M232.11,437.84l-15.91.04-15.79-.15c-1.09-2.25.69-8.05,3.48-8.07l30.3-.23c.88,0,2.91.81,2.89,1.49-.08,3.12-.58,6.92-4.97,6.93Z"/>
          <path d="M677.11,439.32c2.09,0,4.87,5.91,4.94,7.09.04.62-1.98,1.37-2.81,1.37l-27.96.04c-4.63,0-6.27-2.99-7.21-6.94-.17-.71,2.36-1.61,3.35-1.61h17.98s11.71.05,11.71.05Z"/>
          <path d="M502.57,437.35c-1.88.42-4.99.57-7.15.55l-26.51-.22c-1.99-1.14-2.76-5.99-1.08-8.12l31.76-.18c2.34.7,3.74,4.96,2.99,7.97Z"/>
          <path d="M191.25,437.86h-20.07s-10.95-.26-10.95-.26c-.36-2.76,1.35-6.46,3.6-8.07l29.89-.13c.65,0,2.41.57,2.84,1.04.78.83.38,7.42-5.3,7.42Z"/>
          <path d="M558.4,428.12l-7.25.1c-4.28.06-8.53.17-12.75,0-10.27-.43-11.88,1.27-13.89-2.91-.49-1.03-1.02-4.04-.13-4.42,1.56-.66,4.88-.74,6.84-.73l27.45.15c1.88.01,4.03,4.71,3.87,6.57-.08.94-2.75,1.22-4.14,1.24Z"/>
          <path d="M314.28,437.51l-18.09.4c-4.78.11-9.95-.15-14.56-.39-1.5-1.76-.24-7.82,2.17-7.86l25.73-.39c1.91-.03,4.53-.03,6.18.85s.56,7.34-1.42,7.38Z"/>
          <path d="M353.62,437.18c-1.65.97-4.73.66-6.63.67l-25.93.07c-1.83-1.83-1.21-6.34.67-8.26l27-.48c1.57-.03,4.52.27,5.43,1.26,1.32,1.44,1.24,5.71-.53,6.75Z"/>
          <path d="M137.62,427.48c-.84.93-4.32.36-5.58.37l-22.54.04-7.98.11c.95-3.03,1.76-5.21,3.98-7.01,1.36-1.1,5.3-.72,7.34-.72l20.81-.08c2.32,0,4.73,0,6.84.97-.2,1.96-1.21,4.51-2.87,6.33Z"/>
          <path d="M640.83,428.21l-21.24-.07c-10.34-.03-12.79.97-14.66-3.32l-1.14-2.6c-.31-.7,1.74-2.03,2.72-2.04l28.1-.1c3.63-.01,5.98,1.36,7.36,4.67l.73,1.77c.16.38-1.42,1.69-1.87,1.69Z"/>
          <path d="M333.6,428.55l-14.9-.23-10.91-.2c-1.64-.03-5.12.31-6.2-.81-1.15-1.19-.27-5.63,1.2-6.36s4.18-.81,5.87-.81l24.24.07c.87,0,2.68.25,2.96.93s.55,1.99.86,3.61c.23,1.2-1.78,3.83-3.13,3.81Z"/>
          <path d="M515.88,428.58l-18.88-.46c-8.26-.2-11.47,1.32-12.32-3.3-.18-.96-.28-2.49-.15-3.18.16-.86,2.42-1.48,3.37-1.47l29.87.07c1.72.62,3.34,4.92,2.78,6.68-.31.99-3.32,1.7-4.68,1.66Z"/>
          <path d="M471.23,428.23c-4.24.08-8.34.11-12.5-.07-9.6-.44-13.09,1.49-13.52-3.74-.08-.99.03-2.82.53-3.36s2-.83,2.97-.83l27.61-.04c2.61,0,4.86,1.6,5,4.44.04.82,0,1.97-.07,2.54s-1.85.91-2.47.93l-7.54.14Z"/>
          <path d="M286.59,428.22h-13.53s-6.02-.11-6.02-.11c-1.16-.02-4.12.03-4.69-.89-.92-1.47.2-5.55,1.88-6.83l30.24-.26c.72,0,2.57.66,2.77,1.24.26.72.33,2.02.24,3.21-.19,2.73-2.14,3.61-4.52,3.62l-6.37.02Z"/>
          <path d="M256.94,427.53c-.92.94-4.46.62-5.75.62l-23.37.07c-1.31,0-4.65.03-5.32-1.01-.87-1.35.71-5.19,1.99-6.2.7-.55,3.12-.83,4.16-.83l26.66-.05c.89,0,3.35.96,3.49,1.8.23,1.34-.6,4.29-1.87,5.59Z"/>
          <path d="M179.61,424.07c-1.32,4.66-4.08,4.23-13.38,4.18l-12.61-.07-8.24-.05c-.57,0-2.58-.28-2.57-.81.02-2.9,1.69-7.11,6.76-7.12l28.01-.04c.66,0,2.66.85,2.57,1.45s-.36,1.84-.54,2.45Z"/>
          <path d="M217.21,427.46c-1.65.93-4.45.67-5.99.68l-23.42.09c-1.29,0-3.61-.28-4.99-.55-.26-2.1.83-5.52,2.51-6.64.94-.63,3.69-.79,5.04-.79l25.77-.07c.93,0,3.28,1.06,3.36,1.88.13,1.29-1.03,4.7-2.28,5.41Z"/>
          <path d="M439.52,428.07l-8.26.15h-12.58s-7.5-.17-7.5-.17c-.87-.02-3.12.24-3.38-.46s-.57-1.81-.95-3.29c-.53-2.04,1.4-4.28,3.48-4.25l11.71.13,15.98-.07c2.42-.01,3.87,1.78,4.2,4.39.21,1.71-1.05,3.54-2.68,3.57Z"/>
          <path d="M726.83,470.63l-33.98.05c-2.57,0-5.33-3.02-5.08-5.16.08-.71,2.14-1.96,3.01-1.96h31.94c2.81.01,5.3,1.87,6.28,4.23.29.7-1.27,2.84-2.16,2.84Z"/>
          <path d="M636.76,470.64l-33.95.04c-2.41,0-4.86-2.63-4.64-4.82.1-.96,2.18-2.27,3.22-2.27l32.39-.06c2.17,0,4.02,1.7,5.01,3.88.45.98-.67,2.65-2.03,3.22Z"/>
          <path d="M599.87,428.24l-21.05-.08-9.45-.12c-2.69-.03-4.64-3.94-3.79-6.96,1.5-.74,4.43-.88,6.51-.88l22.55-.05c3.19,0,5.46,1.55,6.57,4.58l.65,1.78c.14.38-1.49,1.74-1.99,1.74Z"/>
          <path d="M371.95,428.1l-8.19.08-13.42.08-6.67-.05c-.74,0-2.35-.06-2.75-.49-.53-.58-.69-1.86-.88-3.49s1.82-4.09,3.43-4.08l6.95.03,20.81-.08c2.44,0,3.77,1.76,3.77,4.38,0,2.07-1.12,3.61-3.05,3.63Z"/>
          <path d="M379.18,437.86l-17.14-.06c-.63,0-2.41.01-2.54-.47l-.82-3c-.35-1.28,1.02-4.89,2.34-4.88l20.06.08c.48,2.13,2.4,8.36-1.89,8.34Z"/>
          <path d="M402.57,427.94l-7.27.13c-4.91.09-10.74.53-15.6-.43-1.6-.32-1.68-5.88-.2-6.52,1.69-.74,4.67-1.05,6.65-1.06l10.08-.03c1.26,0,4.78-.37,5.58.59,1.23,1.48,1,4.51.76,7.31Z"/>
          <path d="M506.01,418.8l-16.5.06-16.5.12c-.76,0-2.38-1.71-2.46-2.48s1.69-2.45,2.46-2.46l30.76-.17c2.25-.01,4.42,1.17,4.57,3.5.04.58-1.65,1.42-2.32,1.42Z"/>
          <path d="M288.74,418.76c-5.75-.23-11-.18-16.75.03-1.57.06-5.06.43-5.65-1-.89-2.13,1.82-3.92,4.12-3.92l30.29.1c.91,0,2.46,1.44,2.78,1.96,2.6,4.32-14.01,2.84-14.79,2.81Z"/>
          <path d="M549.1,416.79c.35.77-2.05,2.17-2.8,2.13-12.97-.72-18.67.29-31.62.09-1.06-.02-2.81-1.69-3.02-2.55s1.88-2.47,2.84-2.47l30.18-.08c1.39,0,3.57.98,4.42,2.89Z"/>
          <path d="M466.54,416.67c.77,3.06-9.92,2.26-16.2,2.24l-18.95-.05c-.91,0-2.46-1.55-2.52-2.32s1.65-2.56,2.64-2.56l32.12-.02c.92,0,2.69,1.86,2.9,2.71Z"/>
          <path d="M142.77,418.31c-3.16,1.1-6.82.54-9.96.44-10.26-.32-16.18.13-25.63-.09-.68-3.1,2.13-4.76,4.85-4.75l28.73.04c.89,0,2.47.75,2.98.97.68.29-.19,3.12-.98,3.39Z"/>
          <path d="M699.02,418.06c-1.01,1.34-4.88.66-6.88.67l-22.49.02c-.05,0-7.31,1.53-7.65-3.01-.05-.65,1.96-1.81,2.82-1.81l29.78.02c2.03,0,5.05,1.6,4.42,4.1Z"/>
          <path d="M421.97,418.93l-9.88.04-12.6.06-9.27-.08c-.9,0-2.71-1.49-2.67-2.38s1.85-2.65,2.83-2.65l31.59.05c.84,0,2.45,1.92,2.6,2.72s-1.75,2.22-2.6,2.23Z"/>
          <path d="M381.33,418.94l-10.92-.07c-6.97-.05-13.06-.32-20.16.1-.91.05-2.81-.81-3.22-1.57-.49-.91,1.45-3.4,2.56-3.4h31.37c1.02,0,2.66,1.82,2.77,2.62s-1.58,2.33-2.4,2.32Z"/>
          <path d="M340.51,419.04l-14.3-.33c-4.83-.11-17.32.39-18.9-.26-.64-.26-.48-2.76.07-3.21s2.16-1.31,3.04-1.31h30c1.05.01,2.98,1.66,3.06,2.6s-1.91,2.53-2.97,2.51Z"/>
          <path d="M261.68,417.94c-3.43,1.79-7.74.92-11.33.81-5.94-.19-11.52-.17-17.45.01-1.95.06-4.95.65-6.23-.62s1.05-4.18,3.03-4.18h30.19c.7,0,2.19.96,2.58,1.16.52.28-.23,2.53-.79,2.82Z"/>
          <path d="M586.76,418.91c-14.15-.59-18.87.41-31.95-.03-.73-.02-2.36-1.73-2.41-2.45-.06-.91,1.91-2.43,2.84-2.43l29.5-.05c1.39,0,4.01,1.55,4.55,2.89.21.52-1.87,2.11-2.53,2.08Z"/>
          <path d="M221.47,418.31c-2.66,1.04-21.45.22-28.59.44-1.83.06-5.07.74-6.14-.7s1.78-4.08,3.6-4.08h29.98c.72-.01,2.47,1.08,2.65,1.71s-.85,2.38-1.5,2.63Z"/>
          <path d="M182.14,417.95c-2.56,1.59-6.79.87-10.14.78-9.72-.27-15.07.18-24.06-.09-1.31-2.42,1.49-4.74,4.19-4.73l28.59.07c.67,0,1.94.67,2.3.86.54.28-.15,2.67-.88,3.12Z"/>
          <path d="M372.51,458.22l-14.86-.11c-1.27,0-2.42-3.21-2.14-4.37l.89-3.59c.18-.74,2.21-.96,3.11-.97l8.26-.03c.96,0,3.9.48,4.1,1.36.36,1.59.49,4.21.63,7.71Z"/>
          <path d="M655.22,419.04l-17.45-.06c-2.27,0-4.08-1-6.29-2.85.77-.97,2.24-2.23,3.2-2.23h19.13c2.36,0,4.21,1.6,5.2,3.78-1.15.63-2.79,1.36-3.8,1.36Z"/>
          <path d="M615.72,416.9l-4.23,2.33-14.61-.21c-1.77-.03-3.59-1.13-4.94-2.64.76-.99,2.42-2.48,3.41-2.48l14.36.02c1.9,0,2.96.72,6.01,2.98Z"/>
          <path d="M630.13,419c-3.79.02-8.03-.13-11.33-.46-1-.1-1.63-3.96-.69-4.09,1.82-.23,5.16-.47,7.31-.65,2.47,1.01,3.86,1.16,4.71,5.19Z"/>
        </g>
      </g>
      <g>
        <path d="M714.84,23.82v360.31s-623.18.02-623.18.02V23.84s623.18-.02,623.18-.02ZM712.94,25.92H93.67v356.26h619.27V25.92Z"/>
        <circle cx="403.05" cy="13.66" r="4.46"/>
      </g>
    </g>
  </g>
</svg>