<?xml version="1.0" encoding="UTF-8"?>
<svg id="Calque_2" data-name="Calque 2" xmlns="http://www.w3.org/2000/svg" viewBox="0 0 1005.45 693.05">
  <g id="Calque_1-2" data-name="Calque 1">
    <g>
      <path d="M260.33,564.4c-2.59,2.32-5.34,5.25-7.62,7.94l4.62,2.4c.83.43.89,2.73.53,3.59-2.16,5.23-17.71-3.53-22.04-6-38.67-22.1-72.69-50.98-100.66-85.73-13.27-16.49-23.9-33.66-31.83-53.13-1.56-3.83-5.89-16.3-1.54-18.22,4.59-2.02,2.99,3.58,10.15-5.17-8.7-3.05-18.01-.69-25.35,5.54-19.65,16.69-39.33,32.28-60.68,46.91l-20.74,14.21c-1.12.77-4.12.2-4.76-.72-.74-1.07-.5-4.25.57-4.99l15.53-10.9c21.76-15.28,42.8-30.44,62.83-47.99,11.19-9.8,24.68-13.35,39.04-7.9,21.36-22.06,37.36-41.54,50.13-69.64l21.34-46.97c10.27-22.61,21.39-43.97,34.32-65.11,10.19-16.65,22.39-30.29,37.38-42.82,24.24-20.26,47.31-40.67,70.01-62.59,27.94-26.98,48.66-20.04,78.39-29.05,10.43-3.16,29.57-16.39,48.51-22.24,11.2-3.46,22.6,1.11,27.71,11.79,2.08,4.34,2.91,9.25,3.68,14.1,23.84-7.98,48.35-7.13,72.12-.58l.63-14.19c.42-9.51,5.77-17.77,12.24-24.58,22.82-24.03,69.3-36.36,101.46-42.61,75.17-14.6,167.8-12.96,242,6.19,24.64,6.36,56.18,17.56,74.16,35.95,6.62,6.78,12.97,15.82,12.97,25.81v78.82c.01,30.34-1.84,59.47-5.13,89.48-5.18,47.18-16.7,94.34-44.65,133.33-11.73,16.36-25.85,29.52-43.46,39.61-8.24,22.23-37.47,33.49-59.3,38.75-44.1,10.62-89.92,10.69-134.24,1.14-15.34-3.31-29-8.59-42.35-15.62-10.65-5.61-15.27-14.72-22.39-23.3-7.02-8.47-19.57-12.37-26.51-22.04-13.85-12.92-23.75-28.67-32.51-45.24-14.09-2.3-27.09-5.54-41.37-9.86,1.12,18.51-6.6,35.82-22.14,45.85,15.29,29.36-5.09,62.22-34.35,73.72-18.94,7.45-37.5,13.34-57.32,17.41-44.63,27.94-78.57,51.44-131.73,59.13-16.14,2.33-30.82,8.42-42.01,20.15,6.62,13.39,7.72,27.14-2.61,38.4-22.41,24.44-45.07,47.61-68.93,70.73l-25.38,24.58c-.83.8-4.31,0-4.89-.99-.68-1.14-.55-3.91.79-5.19,31.7-30.14,62.14-60.61,92.01-92.53,7.76-8.29,9.77-18.32,3.35-29.62ZM894.49,419.87c21.95-9.65,40.05-24.23,54.21-43.5,22.8-31.01,35.19-69.9,41.16-107.77,4.8-30.43,7.39-60.15,7.67-91.13l.9-98.78c.08-8.67-5.94-16.39-11.68-22.11-19.83-19.75-58.21-30.94-85.3-36.81-35.64-7.72-70.95-11.29-107.63-12.06-48.08-1-95.09,3.57-141.56,15.26-26.13,6.57-80.09,23.84-82.96,55.79l.47,75.75c.18,29.2,1.14,57.22,4,86.18,4.61,46.8,14.87,94.66,42.56,133.32,27.53,38.42,66.33,54.67,112.22,61.66,52.08,7.94,117.11,5.67,165.92-15.8ZM489.44,445.14c.94-.03,3.28,1.95,2.77,2.51-9.26,10.07-69.33,1.18-89.95-18.36-9.14-8.67-12.37-21.4-7.4-33.24-9.38-10.3-11.26-24.46-5.64-37.38-8.02-5.31-12.7-13.19-13.79-22.53-2.72-23.26,13.89-38.13,33.88-48.38-8.79-3.5-14.93-10.9-17-20.7-5.14-24.39,11.92-43.03,31.13-55.61-1.66-14.51-.83-28.6,3.08-42.54-9.68,3.84-18.17,6.65-27.91,9.22l-26.37,37.25c-7.61,11.35-11.35,23.38-11.13,37.09.19,11.81.33,23.08-.22,35-2.5,53.83-23.21,109.9-69.36,141.01-1.52,1.02-4.2.68-5.26-.54-.84-.97-.68-4.07.63-4.93,41.82-27.51,61.84-78.19,66.1-126.54,1.32-14.94.98-29.1.9-44.01-.21-15.01,3.88-28.68,12.44-40.87l27.98-39.84c31.24-6.45,58.18-23.53,77.06-48.9,8.63-11.6,15.56-29.73,7.83-43.12-4.05-7.01-11.6-9.59-18.99-6.99-6.42,2.26-12.68,4.8-18.71,7.91l-23.81,12.3c3.8,7.37,11.87,11.11,20.21,8.29,9.12-3.09,19.14-8.62,27.05-13.47.83-.51,2.85-.27,3.22.31,3.04,4.78-23.33,18.13-34.11,19.96-9.99,1.7-17.58-4.87-22.96-12.17l-34.49,6.08c-15.4,2.72-28.01,8.98-39.32,19.82-22.93,21.96-46.06,42.69-70.5,63.06-14.87,12.4-26.88,25.77-36.9,42.34-11.82,19.54-22.2,39.03-31.65,59.87l-21.95,48.39c-16.66,36.65-39.02,61.51-68.67,88.61,19.89,58.72,84.45,116.41,137.81,145.32,18.78-20,31.2-33.06,59.74-37.32,54.39-8.11,85.6-30.55,131.38-58.78,21.4-5.02,41.89-10.6,62.07-19.68,21.97-9.89,40.2-38.92,26.08-61.78-35.48,13.22-67.01,15.41-104.76,13.91-6.55-.26-12.63-2.3-19.02-4.67-5.3,14.11,5.82,25.57,18.22,31.17,22.08,9.98,45.47,13.66,70.3,12.92ZM462.81,163.8c-9.52,8.46-11.36,19.43-14.93,30.74-1.76-1.61-2.7-4.61-2.21-7.3,4.49-24.65,22.72-43.4,47.07-49.29,24.98-5.86,50.84.22,69.65,18.88l-.08-57.89c-23.7-7.16-48.96-8.05-72.87.42-5.3,27.45-30.51,50.9-53.8,64.56-4.98,14.03-7.41,28.36-5.16,42.86,9.48-5.87,17.7-10.75,26.93-15.26.1-9.5,2.46-18.83,5.4-27.72ZM425.63,281.11c21.55-5.65,41.84-12.2,61.97-20.19,11.49-4.56,19.71-11.36,27.69-20.43,35.57-40.39,17.64-93.31-1.71-96.74-10.49-1.85-24.44.61-33,7.36-11.02,8.68-15.21,25.02-15.81,37.71,1.79,1.2,4.25,2.9,3.93,4.67-19.02,9.99-38.04,19.95-54.44,33.92-11.32,9.64-17.94,23.71-15.2,37.95,2.47,12.8,13.77,19.09,26.57,15.73ZM553.09,282.87l20.16,5.55c-7.78-41.58-9.64-78.98-10.66-120.43-8.22-10.93-19.29-18.7-32.81-21.96,16.28,21.77,16.12,53.11,5.49,77.38,17.43,14.03,27.19,36.96,17.83,59.47ZM409.81,355.48c19.5-3.06,65.86-13.48,80.91-22.63,19.18-11.66,35.84-26.36,49.83-43.74,15.81-19.64,9.3-43.5-8.5-59.31-13.38,18.88-21.08,29.04-42.67,38.18-20.98,8.47-42.12,14.88-64.06,20.48-19.48,8.38-43.09,19.41-43.06,43.82.02,14.85,12.02,25.63,27.56,23.19ZM591.04,344.67c-6.94-16.51-11.95-32-15.9-48.25l-25.87-6.89c-8.71,11.54-18.69,21.55-29.9,31.52,23.27,11.67,46.77,19.24,71.67,23.62ZM417.71,398.36c35.61,1.52,76.45-.23,108.24-15.46,15.69-7.52,22.56-26.61,19.86-42.54l-32.7-14.34c-10.03,7.44-19.61,14.71-31.4,18.86-21.64,7.61-43.33,12.9-65.88,16.98-6.65,1.2-12.92.89-19.84-.27-4.02,7.64-3.92,17.28.8,25.2,3.84,6.45,11.5,11.17,20.93,11.57ZM724.91,452.4c40.48,7.94,81.69,7.67,122.01-1.03,15.13-3.27,41.83-11.48,52.27-25.17-52.03,22.85-120.57,25.75-177.95,15.91-18.8-3.23-35.49-8.64-53.53-15.97,10.16,14.23,40.94,23.06,57.2,26.25Z"/>
      <path d="M955.76,102.71c11.87-6.81,25.94-16.6,21.82-31.77-.26-.95.88-3.59,1.66-3.45,5.71,1,8.38,14.23.79,24.39-18.79,25.15-72.96,38.52-103.34,43.66-56.68,9.59-113.98,10.18-170.88,2.29-32.58-4.52-103.81-18.86-120.22-49.68-5.27-9.91-.83-21.84,3.72-20.54,4.96,1.42-11.07,17.16,22.56,34.9,23.85-14.55,55.2-22.89,82.52-27.57,41.6-7.12,82.88-8.74,125-6.01,42.39,2.74,99.72,11.11,136.35,33.78Z"/>
    </g>
  </g>
</svg>