<?xml version="1.0" encoding="UTF-8"?>
<svg id="Calque_2" data-name="Calque 2" xmlns="http://www.w3.org/2000/svg" viewBox="0 0 843.71 756.09">
  <g id="Calque_1-2" data-name="Calque 1">
    <g>
      <path d="M422.43,723.64c-6.83-.15-9.86-6.66-12.68-11.7-5.57-9.98-4.07-26.91-.81-28.23.31-.12.74-.08.78.28l.22,1.96c-3.88,14.31.64,27.37,12.49,37.69Z"/>
      <path d="M392.35,699.37c-.19,25.36,13.21,28.66,16.09,34.24,1.79,3.48-8.31-2.54-12.81-10.06-4.3-7.18-8.22-16.16-3.28-24.18Z"/>
      <g>
        <path d="M206.23,628.08c-.81,13.38,2.1,28.09-11.72,35.75l-148.27,82.16c-.73.4-3.09-.18-3.53-.79-.55-.77.16-2.95,1.22-3.54l148.35-82.16c5.26-2.91,8.19-8.54,8.52-14.4.8-14.24-.02-27.67-1.76-42.03-4.4-36.38-15-70.86-31.47-103.46-6.16-12.2-12.65-23.29-20.62-34.12-8.29-11.28-20.61-5.75-31.38-.43-36.48,18.02-73.55,32.95-112.42,45.49C2.38,510.8,0,509.69,0,508.88s1.08-2.71,1.95-3c27.34-9.37,54.48-18.72,80.73-30.91l39.06-18.14c12.96-6.02,23.8-3.36,31.89,9.35,22.25-12.49,38.92-23.69,48.76-48.49,10.87-27.38,22.51-53.67,37.57-78.98,8.45-14.21,19.19-25.53,32.95-34.39l21.84-14.07c9.86-6.35,18.57-13.85,27.46-21.49,5.47-4.71,10.57-9.43,16.44-13.47,10.34-7.13,23.23-8.34,34.58-3.34l12.65,5.56c29.44,12.95,48.15-3.92,61.33,11.33l30.33-.31c4.92-.05-.7-7.44,10.77-9.79l7.29-71.14-7.46-2.58c-5.44-1.88-7.92-6.71-7.14-12.28l1.45-10.41c.83-5.99,6.16-9.63,12.34-8.28,1.13.25,2.97-.86,3.36-2.02,9.51-28.78,25.07-49.39,52.59-62.68,28.77-13.9,59.1-16.88,90.88-16.7,2.06-3.95,4.9-6.89,10.41-6.68.4-2.26.74-5.71.82-8.41-9.66-4.46-16.58-11.86-18.63-22.35-2.44-12.45,3.77-24.9,15.2-30.86,13.31-6.94,29.87-5.46,41.53,3.76,7.2,5.69,11.18,13.65,11.35,22.13.29,14.37-9.88,25.98-24.7,29.85-.48,1.72-.76,5.79-.57,7.86,4.69,1.48,6.94,4.81,8.15,8.97,27.78,5.26,54.89,12.57,78.42,28.54,29.04,19.7,39.46,50.52,42.64,83.8,6.9-.95,12.67,3.69,12.23,10.35l-.8,12.06c-.71,10.68-10.62,7.94-5.85,11.39l24.39,17.6c5.62,4.06,9.1,9.7,6.86,15.49-.87,2.24-3.71,4.89-6.83,5.82-15.55,4.65-29.12,12.98-39.09,25.91-1.9,2.46-4.94,6.38-5.33,9.61l-12.02,100.81-7.06,60.2-23.73,194.44c1.8,3.8,3.35,7.97,3.07,12.14-1.96,28.97-6.35,25.76-8.42,32.59-2.47,8.12-2.14,17.42-3.76,25.88-.36,1.9-3.84,4.44-5.19,5.88-2.42,9.25-.62,21.36-14.55,24.46-10.51,2.34-21.73,2.81-32.51,1.52-8.23-.99-13.63-7.22-13.89-16.03-58.14,1.1-117.22-4.88-173.66-20.7-6.22,22.38-37.63,7.94-49.59.66-4.3-2.62-7.36-7.96-6.65-13.13l1.82-13.19c.21-1.49-.56-5.09-.43-6.68l1.88-23.09c-5.39-8.94-3.2-24.18-1.11-34.8,1.45-7.35,5.9-1.61,6.35-21.16-5.08-1.19-7.89-4.64-6.79-10.54-39.55-6.65-75.82-26.44-101.49-57.62-.52-.05-1.73-.06-2.09-.01-13.12,20.53-32.28,32.41-54.9,40.14-17.46,5.97-32.92,14.29-47.87,25.07l-32.95,23.77ZM679.75,76.09c-1.52-3.4-3.55-4.59-5.7-4.77l-21.55-1.87c-1.62-.14-4.23,1.36-5.79,3.08l33.03,3.57ZM703.56,185.51c32.71,2.55,64.17,3.94,97.26,3.75-1.08-20-6.38-39.09-16.86-56.02-7.9-12.76-19.11-21.65-31.98-29.17-30.69-16.59-70.02-24.1-104.73-25.93-31.48-1.66-64.7,2.21-93.51,15.48-26.43,12.18-43.3,33.59-51.34,61.99,66.92,14.95,133.22,24.61,201.17,29.91ZM807.7,216.69c1.63-.03,4.65-2.61,4.78-4.13l1.08-13.02c.26-3.14-3.07-5.51-5.93-5.46-14.48.26-27.66.55-42.24.04-90.69-3.23-183.16-14.43-271.61-35.43-2.84-.47-6.16,1.53-6.49,4.33l-1.48,12.69c-.17,1.48,2.38,4.45,3.92,4.83,16.07,4.04,31,7.53,47.33,10.7,81.92,15.89,187.1,27.08,270.64,25.45ZM500.64,218.79l2.19-21.58c.08-.76-1.19-3.16-1.51-2.73s-1.12,1.64-1.2,2.48l-2.45,24.58c-.19,1.92,1.78,4.47,3.18,4.49-.06-2.25-.49-4.37-.2-7.23ZM607.88,656.82l-1.59,12.76c34.19,3.22,77.07,4.76,110.49-2.16,8.16-1.69,15.57-4.37,22.88-8.25,2.2-1.17,4.11-3.98,4.44-6.75l34.3-284.87,8.77-71.8c.6-4.89,5.71-10.21,8.72-13.81,10.29-12.29,23.45-19.97,38.65-24.4,1.98-.58,4.28-2.92,4.32-4.52.03-1.4-1.07-4.82-2.2-5.65l-30.69-22.58c-3.57-2.62-7.22-4.64-11.67-1.9l35.76,25.75c.8.57,1.16,2.37.98,3.12s-3.03,1.2-3.73.7l-33.66-23.83c-4.74-3.35-11.46-8.23-16.73-6.54l-4.13,35.39c-.58,4.99-3.49,7.84-8.41,9.2-37.22,4.73-75.55,2.43-113.28-.83l-18.72,169.25-6.34,60.08c15.44-3.8,29.87-4.64,45.2-2.48,7.87,1.11,15.66,1.32,23.59,1.19,8.1-1.46,15.69-4.02,21.23-10.16,11.66-12.92,4.27-27.36,14.36-38.44,3.45-3.78,8.22-5.8,13.27-4.77,9.97,2.04,11.67,12.1,10.54,21.49l-15.08,125.89-6.85,55.15c-.9,7.21-9.25,9.92-15.72,11.24-34.19,6.95-74.01,5.14-108.69,2.52ZM590.22,654.62c-34.89-5.26-73.05-11.48-104.44-24.25-6.02-2.45-17.19-7.46-16.39-15.26l11.54-111.8c.49-4.77,2.22-8.36,6.95-10.2,13.56-5.29,28.31-.26,40.92,6.21,6.59,3.38,13.08,6.57,20.16,8.74,16.5,5.07,33.47,3.31,49.07-3.48l9.78-4.26,15.56-140.95,10.42-95.58c-38.31-5.25-71.83-10.49-108.44-20.72l-29.44-10.99-2.94,29.84c5.74,2.19,9.83,6.21,9.33,12.65-1.22,15.59-2.76,30.98-4.82,46.4-.73,5.43-5.3,8.91-10.87,8.99l-17.17,161.15-5.06,50.75c5.07,3.11,7.63,7.91,7.07,13.36l-4.44,43c-.55,5.36-3.7,9.09-9.54,9.79l-1.69,14.15c-.8,6.72,19.6,17.44,25.37,19.89,32.89,14.01,71.78,20.24,107.82,25.67.67-4.59,1.09-8.7,1.26-13.09ZM328.89,352.89c14.03-11.8,26.94-24.11,37.95-37.91l-6.35-11.06c-.49-.85.32-3.55,1.24-3.59.73-.03,2.43.8,2.91,1.58l6.47,10.61c22.12,2.44,53.33-2.96,67.54-21.27,3-3.87,5.03-8.94,5.24-13.63.32-7.02-4.78-10.8-11.11-10.65l-29.58.71c2.02,13.14,19.11,10.7,28.5,9.06.96-.17,2.61.62,3.08,1.15s-1.36,2.37-2.21,2.58c-12.05,3.02-32.56,4.15-34.58-13.44-31.25-9.66-38.58-25.1-68.04,1.61-14.28,12.95-29.37,23.88-45.52,34.33l-10.86,7.03c-11.82,7.65-20.92,17.72-28.25,29.78-8.96,14.75-17.08,29.37-23.8,45.32l-14.7,34.87c-9.84,25.23-27.48,37.06-50.22,50.37,29.17,46.02,45.84,97.41,49.16,151.89l35.2-25.12c13.36-9.54,27.46-16.7,43.05-21.87,23.69-8.53,42.05-19.03,55.64-41.32-13.48-19.13-22.74-40.03-28.51-63.26-7.6,12.9-15.76,23.75-26.95,32.83-1.47.49-3.07.7-3.95.19-.7-.41-.12-3.03.51-3.56,38.55-32.12,55.18-99.24,48.14-147.21ZM493.51,314.81l4.08-39.37c.26-2.54-1.22-6.32-2.95-7.4l-7.2-4.48c-.88.29-2.88,3.22-3.02,4.63l-5.54,54.75c3.57,2.44,9.6,3.17,12.32,0,1.22-1.42,2.06-5.63,2.32-8.13ZM638.35,264.38l-29.85,273.24,7.92.87,29.85-273.24-7.92-.87ZM432.2,493.86c.03,13.74-9.67,24.35-22.87,25.97-5.72.7-11.38.64-17.87.94,16.98,14.46,37.76,23.57,59.6,25.73.65-5.59,3.82-8,8.63-8.52l17.42-165.3,4.32-43.35c-5.46-.86-7.55-4.71-7.31-9.62-17.54-1.78-40.25.18-56.56,8.4,7.27,2.73,13.36,5.02,17.61,10.82,9.26,12.64,7.22,29.68-5.32,39.78,8.69,5.24,13.38,13.7,13.73,23.6.39,10.9-4.27,20.45-13.75,26.4,1.5,1.7,3.58,3.6,4.97,5.5,10.25,14.04,5.44,34.1-10.36,42.07,4.85,4.96,7.73,10.1,7.75,17.57ZM345.74,377c.5,8.38,7.24,14.33,15.31,13.92,11.91-.62,23.56-1.8,35.38-4.03,9.81-1.85,19.05-5.7,27.78-10.37s13.39-15.22,11.37-25.13c-2.75-13.54-17.49-20.93-28.27-17.69.55,2.06.79,2.91.95,3.72.69,3.31-64.45,7.16-62.53,39.59ZM329.19,425.32c2.6,6.69,7.77,11.44,14.86,11.69,32.05,1.12,50.75,1.8,80.28-10.9,11.43-4.91,16.53-17.35,13.59-28.83-1.82-7.08-6.21-12.63-13.11-15.43-12.66,6.48-25.72,10.6-39.82,11.86l-23.91,2.13c-8.25.74-15.89,3.39-22.84,8.05-1.63,1.1-5.18,4.11-5.61,6l-3.44,15.42ZM368.87,479.16c17.42,1.18,34.42-.39,50.77-6.21,12.45-4.42,18.5-17.69,14.36-30.03-1.67-4.99-5.15-9.27-9.78-11.07-31.95,11.65-43.05,10.79-76.34,10.19-3.3-.06-6.14-.08-9.08,1.22-9.33,4.14-14.45,14.55-9.88,24.08,5.55,11.57,26.45,10.91,39.94,11.82ZM744.09,446.7c-2.52-2.33-5.96-1.64-8.21.15-3.84,3.05-6.23,7.73-5.53,12.76,5.81-7.54,1.45-8.7,13.74-12.91ZM408.56,515.16c12.2-1.62,20.07-12.38,18.57-24.14-.66-5.14-3.74-10.45-8.22-12.61-16.27,4.87-32.22,6.97-49.07,5.7-5.57-.42-11.52-1.18-17-.72-4.59.38-6.54,7.11-6.69,10.37-.2,4.33,1.8,8.82,5.74,11.47,12.74,8.6,40.98,11.99,56.67,9.91ZM668.13,500.4c9.45-4.48-35.14-3.96-32.91,2.24,11.06-2.59,21.03-4.07,32.91-2.24ZM710.09,512.53c-4.06,2.9-7.11,5.48-10.58,9.28,4.95-.34,9.01-4.51,10.58-9.28ZM685.17,530.34c-23.47,10.68-45.37,18.01-70.54,16.91-18.95-.83-36.61-5.33-53.88-12.93-19.34-8.52-37.66-14.73-58.78-10.37.12.77.65,2.44,1.12,2.26,8.38-3.23,26.86-.47,36.25,2.55,8.98,2.89,17.04,6.47,25.77,9.98,14.65,5.9,29.6,10.14,45.57,10.53,25.57.64,53.69-2.66,74.5-18.92ZM462.23,598.05l4.49-41.78c.96-8.95-8.27-13.61-9.1-12.99-.61.45-1.92,2.32-2.04,3.36l-5.6,51.41c-.23,2.07,2.13,4.74,3.7,4.96,1.95.28,4.72.36,5.8-.28s2.57-2.99,2.75-4.68ZM499.61,578.9c-.1-.55-1.48-1.9-2.52-2.61,1.11,12.78,10.28,25.9,24.02,27.6-10.68-5.96-19.34-12.72-21.5-24.99ZM504.98,607.61c-4.4-3.37-7.71-7.36-11.75-11.92.92,6.94,6.63,11.03,11.8,13.64l-.05-1.71ZM746.87,659.94c-5.04,3.35-9.13,6.19-14.42,8.05-50.64,17.8-142.47,6.96-195.41-3.98-24.8-5.13-69.33-16.38-85.06-36.36-2.87,3.95-3.5,17.18-3.54,22.5-.05,6.33,2.83,12.04,7.42,16.11,13.2,11.7,33.46,18.4,50.69,23.05,52.45,14.14,114.74,21.63,169.03,19.77,17.81-.61,44.21-2.93,59.38-11.53,12.19-6.91,12.09-24.2,11.91-37.6ZM601.76,669.04l1.18-13.02-7.68-.57-1.22,12.51,7.72,1.08ZM452.86,714.1c-3.87-11.09,2.39-15.78-1.26-20.53-2.38,5.04-4.83,18.71,1.26,20.53ZM720.93,747.67c7.71-1.19,8-12.52,7.4-18.32-5.23,3.62,1.03,7.96-7.4,18.32Z"/>
        <path d="M514.37,465.79c6.94,5.63,8.99,16.28,6.61,17.36-3.49,1.59-2.06-1.9-14.21-5.03-2.44-.63-5.2-2.86-5.97-4.73-1.02-2.5-.26-7.03,2.17-8.58,3.58-2.28,8.17-1.63,11.4.98Z"/>
        <rect x="464.56" y="375.02" width="66.67" height="2.91" transform="translate(71.62 832.45) rotate(-84.02)"/>
        <path d="M693.57,473.25c-7.3,1.26-5.6,4.06-11.02,5.71-3.32,1.01-2.5-11.05,3.18-18.35,3.38-4.34,8.08-6.88,13.69-5.74,2.41.49,5.27,3.43,5.74,5.44.61,2.58.04,6.47-1.81,8.39-2.64,2.75-6,3.88-9.78,4.54Z"/>
        <rect x="731.01" y="338.57" width="68.99" height="2.79" transform="translate(337.64 1060.04) rotate(-83.23)"/>
        <path d="M738.53,414.13c-22.49-1.72-28.24,22.82-29,19.61-.1-.43-.33-1.73-.22-2.26,3.23-15.74,25.48-23.66,31.4-18.26.41.37-1.54.97-2.18.92Z"/>
        <path d="M728.32,399.23c-21.9,5.82-22.06,13.96-26.16,17.2-.3.24-1.53-.16-1.52-.54.09-6.55,19.08-21.28,27.68-16.66Z"/>
      </g>
    </g>
  </g>
</svg>