<?xml version="1.0" encoding="UTF-8"?>
<svg id="Calque_2" data-name="Calque 2" xmlns="http://www.w3.org/2000/svg" viewBox="0 0 523.73 424.33">
  <defs>
    <style>
      .cls-1 {
        fill: #18233f;
      }
    </style>
  </defs>
  <g id="Calque_1-2" data-name="Calque 1">
    <g>
      <path class="cls-1" d="M249.2,407.14c1.26-.55,2.35-.51,1.48.9-2.29.69-15.98,1.38-16.76-.88l4.9.21c.97.04,3.04.63,3.86.53l6.52-.76Z"/>
      <g>
        <path class="cls-1" d="M342.2,241.95c-13,2.82-18.19,17.34-19.94,29.04l-4.31,28.71-3.09,23.67-5.96-.3c-9.92,19.99-1.69,15.99-2.63,31.18l-.53,8.53c-.07,1.16-1.24,3.03-2.59,3.36-4.14,1.02-9.13,1.9-13.15,2.29-.92.09-2.36-1.75-3.1-2-.78-.27-2.55.47-3.42.95-10.53,5.79-22.75,6.18-34.3,3.78-.14,7-.42,13.81.21,20.76.14,1.59,1.47,3.76,1.93,5.79l7.77.92c8.04.95,15.74,2.14,23.51,4.42,2.38.7,4.69,2.01,6.79,3.5,1.5,1.06,1.96,3.62,1.75,5.47-.54,4.88-10.1,7.63-14.51,8.55-20.82,4.35-43.34,4.22-64.48,2.01-7.26-.76-21.42-3-26.77-7.69-1.88-1.65-1.97-5.87-.24-7.65,5.22-5.38,26.21-7.74,33.96-8.32l7.67-.58,7.31-.63,1.86-4.19c.72-1.61,1.02-2.63,1.02-4.76l-.05-139.88-.13-19.94c0-.57-.28-1.79-.67-2.13s-1.54-.38-2.31-.43l-5.85-.36-14.52-.4-6.44-.42-6.43-.44-6.88-.4-6.38-.64-5.74-.63-5.13-.56-9.73-.98,3.37,11.21,3.35,12.02,3.31,13.25c2.45,9.8.49,9.56,1.85,13.4l9.15,25.87,5.15,14.8c.33.95,1.09,3.38.28,4.1l-6.92,6.15c.16,1.75.79,4.35,1.39,6.28l2.1,6.72,3.3,1.53c1.36,10.67,11.37,27.25,19.96,33.23,7.66,5.33,14.6,3.84,16.45,12.6.48,2.28,0,4.35-2.46,5.3-9.22,3.56-20.57,4.36-30.27,2.47-4.43-.87-7.48-3.27-9.55-7.43-8.86,3.62-5.62,4.21-15.51,1.33-.53-.15-1.35-1.76-1.44-2.33l-2.19-14.24c-2.08-13.54,2.81-14.33-.67-23.61-1.77-4.73,1.89-3.08-1.68-9.35l-10.99,2.02c-1.64.3-4.9-.06-6.69-.52-.87-3.08-1.54-6.12-2.2-9.19l-2.58-12.12-2.27-10.31-.75,10.27-.53,6.99-.59,7.72-.43,7.52-.38,5.79-.61,7.09c-.2,2.31.57,6.57-1.25,8.43s-10.44,2.81-13.38,2.92l-5.11.21c-2.61,10.66.27,5.57-.05,11.18-.25,4.51-.09,8.73,1.34,12.85,3.47,10,5.7,16.41,14.43,22.4,2.06,1.41,4.31,3.07,5.66,5.33,1.17,1.96,1.61,5.98.98,8.15-.31,1.08-3.08,2.12-4.2,2.27-9.33,1.25-18.62.09-27.14-3.64-6.26-2.74-4.16-9.16-6.43-8.67l-5.89,1.28c-2.76.6-5.89-1.89-8.34-3.4l-.19-16.49c-.15-12.97,4.84-12.47,4.89-24.55.02-5.51,3.89.95,3.14-9.97l-8.55-3.65c-.9-.38-.33-3.03-.17-4l1.71-10.36,9.81-57.5c-4.38,1.96-7.37,5.2-9.99,8.92-3.4,4.84-4.53,10.46-6.4,16.03-.65,1.92-1.57,3.62-1.72,5.82l-.4,5.85-.27,12.55-.48,2.81-.27,12.58-.45,8.93-.44,8.91-.42,11.41-.39,7.71c-.16,3.1-.2,5.86-.55,8.97-.26,2.32.34,5.89-.6,7.96-1.2,2.64-6.66,2.19-8.28.12-.4-1.27-.33-4.06-.25-5.53l.5-8.95.72-17.22.72-17.2.52-8.92.26-11.32.49-2.76c.69-3.93-.08-8.6.32-12.52.37-3.63.14-6.17-1.03-9.52-1.79-5.09-2.9-10.39-5.21-15.24-3.3-6.94-8.69-11.58-15.81-14.01,3.1-.49,5.82.78,8.21,2.53,8.7,6.39,11.65,16.91,14.09,26.62l.5-6.62c.19-2.59.64-5.98-.18-8.47-1.66-5.04-4.49-9.44-8.5-13-1.39-1.23-4.8-1.18-6.68-1.48-6.24-1-11.86-2.66-18.26-3.27-3.87-.37-10.1,8.34-11.43,14.75l-2.18,10.52.29.86c4.46-1.38,2.21-9.2,9.39-17.74,2.82-3.35,6.67-6.14,11.28-5.3-10.6,3.42-13.83,9.63-16.51,20.27-1.31,5.2-4.79,2.72-5.67,6.51l-4.67,20.23-6.8,29.43-4.33,19.39c-.23,1.05-2.88,1.7-3.95,1.75-1.2.06-3.59-1.25-4.04-2.64l6.44-28.1,2.72-11.97,6.78-29.63,7.2-33.13c-4.25-6.07.46-8.8-3.16-10.32-1.76-.74-2.97-2.5-2.52-4.35l3.4-14.06c-4.72-20.79-9.9-40.72-15.82-61.07-2.61-8.98-4.56-15.01-3.71-24.2,1.62-17.65,18.23-22.62,32.46-23.98.28-.03,1.19.75.97.78l-1.1.19c-9.17,1.59-11.89,1.52-19.73,5.81-7.07,3.87-11.36,11.01-11.57,19-.17,6.18.88,11.53,2.48,17.44l14.13,52.11,2.8,10.89,3.54-11.56c-2.7-12.51-5.85-24.31-9.18-36.57l-3.56-13.1c-2.1-7.73-3.54-11.87-3.05-19.75s6.03-13.48,13.2-15.51c4-1.14,7.84-2.11,12.04-2.4-.14.72-.91,1.04-1.67,1.18l-7.61,1.49,7.48,50.21,1.26,7.74c.35.16.83.36.58.25l3.22-8.25.79.1c4.87,13.64,24.31,17.76,36.99,20.1-1.99,4.19-4.12,8.43-5.4,12.91l-6.06,21.26-4.76,15.38c22.18,6.46,34.38-2.31,51.21-14.11,6.21-4.36,10.1-6.05,17.25-5.97.35-3.96,1.62-7.21,3.54-10.92l1.23.07-1.08,2.3c-1.14,2.43-3.21,6.21-1.73,8.93.97,1.32,4.13,2.76,5.03,4.38,7.21,12.9,5.12,30.48,5.75,33.63l.56,2.82c.63,3.17-.87,12.61-.39,15.03l2.7,13.73,5.09,22.57c7.2-4.83,14-8.58,21.5-11.81l8.95-3.85c4.26-1.83,8.28-2.97,12.81-4.47-.61-2.17-1.28-4.44-2.05-6.63l-3.51-9.93-5.83-16.5-2.84-7.98-10.89-30.46c-2.79-7.81-5.79-14.97-9.35-22.44l-10.49-2.44c-2.37-.55-12.49-3.62-12.61-6.58l-.41-9.56c-10.67-1.21-24.4,1.9-35.71,4.34l-5.36,7.19c-.44.59-2.54,1.27-3.27,1.15-8.69-1.37-17.69-3.42-26.12-5.86-17.14-4.96-25.47-10.25-26.79-29.51-1.04-15.25-1.5-30.12-.89-45.31.34-8.5,1.6-16.51,4.22-24.47,4.93-15.01,16.18-17.78,29.35-23.34,1.35-.57,4.7-.76,5.15.7l-3.16,13.16,9.26,4.54-.49,1.36-7.17,5.48,10.88,22.13c5.5,11.2,8.77,23.02,9.69,35.53.11,1.55.06,2.39,1.13,3.35.05-2.05.05-3.64-.23-5.36l-1.44-8.9c-1.95-12.08-9.61-28.96-15.52-39.84l-2.71-4.99c-.21-.39-.58-1.48-.3-1.73l1.18-1.05,6.7-5.95-8.84-4.09c-.63-.29-1.36-1.81-1.16-2.49l3.16-10.74-.68-1.19c-2.53-1.17-5.29-3.26-6.7-5.52l-.5-.95,1.51,3.77c-4.57-.29-7.39-2.81-9.26-6.28-3.94-7.31-.91-14.1,1.98-21.66-5.79,6.62-8.95,13.87-3.32,23.03-3.36-.73-4.82-3.75-5.5-6.6-2.02-8.46,2.46-14.85,7.12-21.4,10.88-15.27,7.8-24.88,18.95-37.71C89.49.3,105.2-3.44,119.04,3.42c1.87.93,3.5,1.32,5.64,1.58,7.75.97,13.94,6.74,16.64,13.95,2.99,7.97.52,11.38,3.03,16.69,1.82,3.87,1.77,7.26,1.39,11.53-.46,5.26,7.8,12.29,1.45,24.55-1.16,2.24-1.39,5.23-.8,7.64l2.31,1.67c.03,1.27-2.52.59-2.46.7l-2.41-4.44c.29-1.14.16-.6-.06.23-1.95,4.29-6.36,8.66-11.33,7.47l-4.43,1.54,6.36,9.93c.29.45,1,1.88.62,2.19l-1.62,1.32-4.4,3.54,8.09,5.49c.81.55.1,3.21.01,4.16l-.67,7.56c-1.02,11.58-3.52,22.53-6.55,33.66l-4.96,18.21c0,1.02.09,2.1.78,1.07l7.45-28.05c1.96-7.37,3.05-14.66,3.99-22.18l.58-4.68c.4-3.24.8-7.23.2-10.28l-7.44-5.1,4.33-3.34c.45-.35,1.17-1.05,1.47-1.43s-.45-1.48-.78-1.99l-5.71-9.06c.26-.69,2.45-2.22,3.3-1.92,10.38,3.7,18.89,6.12,23.07,17.26,2.6,6.93,4.29,14.01,6.09,21.3.3.47.82,1.28.39.61l1.59-4.7,3.36-10.16,2.3-7.67c.81-2.7,2.9-4.67,5.87-4.32l16.4,1.94c1.74.21,3.26,2.5,2.75,4.16l-5.52,18.25c2.21,2.73,2.52,5.87,2.18,9.29-.19,1.83.57,4.41-.28,6.31l-5.22,11.57c-.59,1.31-1.31,3.35-1.05,4.71.78,4.1,2.7,8.72.73,12.71-3.23,6.52-7.38,12.48-11.95,18.05-6.18,7.54-15.73,8.35-23.32,1.79-3.09-2.67-5.13-6.17-6.85-9.91-1.15-2.5-.89-5.1-.61-7.77l.72-7.01.63-5.73.67-5.74.6-5.12.64-6.46c.44-4.4-.36-13.22.77-14.91.13-.2-1.13-.13-1.14.11l-.25,7.9-.64,9.66c-.13,2.02-.39,4.22-.65,6.25l-.57,4.48-.7,5.74-.66,5.75c-1.18,10.18-.55,21.33,3.75,31.07l9.28-1.66c5.72-1.02,11.29-1.72,17.07-2.26l5.73-.53,7.7-.64,8.29-.64,8.28-.48,7.12-.41,11.26-.28,2.75-.57,44.37.07,5.04.15-2.79-13.13-5.64-24.9c-.5-2.19-1.18-5.14,1.68-6.25,2.75-1.07,6.38-.25,9.45-.05l8.96.59,10.78.72,8.92.63,7.25.52,10.26.51c.4.02,1.31.12,1.28-.16-.2-1.99-5.31-13.29-7.11-14.61l-12.2-4.04c-5.78-1.91-10.77-5.53-15.67-9.11l-4.09-2.98c-.54-.39-1.94-1.11-1.83-1.69l.57-2.92c.11-.58-.15-1.94-.1-2.54s1.54-1.25,1.83-1.78c.66-1.23,1.79-3.5,4.01-3.05l18.51,3.7c1.95.39,4.53.43,6.1.58-2.42-2.18-6.31-9.07-3.17-10.66s5.78,3.75,9.72,7.52c3.04,2.91,5.88,5.28,7.47,9.3.82,2.08.75,5.78,1.83,7.56l9.87,16.36,3.22,1.33,5.08,8.22,5.23,2.02c1.77-3.51,3.86-7.23,5.31-11.01l4.61-11.98,6.69-18.81c2.11-5.93,4.99-11.07,10.61-14.46,4.1-2.47-4.02-6.45,2.35-19.29,3.8-7.66,5.42-9.57,4.22-18.36l-3.42-1.73c-1.91-.97-2.05-3.55-.63-5.04,3.3-3.46,7.86-8.04,5.53-13.84-.91-2.28-2.01-4.68-1.92-7.21.2-6.11,3.36-11.08,8.18-14.4,5.05-3.48,10.69-4.62,16.73-5.24,5.91-.61,11.76-1.22,17.58.16,16.06,3.81,21.16,17,24.52,31.21l4.25,17.93c3.51,14.81,14.3,17.5,12.52,33.29,2.8,1.85,5.73,3.51,8.04,5.94,10.63,11.2,10.15,35.59,11.04,35.73l1.84.28c11.02,1.66,24.38,3.24,30.13,14.04,4,7.52,3.7,15.85,1.36,23.94l-5.15,17.82-5.31,17.54-5.02,16.65-11.14,36.02c-.7,2.26-1.15,4.18-1.03,6.72.27,5.48-2.7,4.58-2.14,7.42l3.65,18.36,2.13,10.01,9.28,44.12,6.55,33.39c-.26,2.24-6.67,3.35-7.61.88-1.13-2.95-1.47-6.31-2.12-9.42l-5.28-25.23-4.81-23.26-3.3-15.92c-.61-2.95-4.77-1.83-5.79-5.37-2.9-10-5.7-17.96-17.54-20.58-1.5.44-.83-.33-.04-1.06,5.65.65,10.31,3.46,13.41,7.96,5.46,7.92,4.25,13.83,7.33,15.12l1.53.64c.96.4-1.63-10.33-2.36-12.35-1.76-4.85-6.2-12.11-11.42-13.85-4.51.33-9.65.9-13.37,3.24l-3.91,2.46c-12.38,7.78-19.2,11.07-23.86,32.55-.48,2.23-2.45,3.66-4.18,4.92-.66,3.2-.18,7.29-.51,10.89l-.53,5.78-.19,17.7-.53,2.71-.1,20.25-.57,3.8c-1.26,8.34.14,16.39-.78,24.89-1.09,2.38-9.51,2.37-9.48-1.13l.21-21.02.55-5.17-.16-11.48c0-.3-.1-1.24-.12-1.47-.04-.47-5.05.28-5.58-1.49-.37-1.25-.53-3.34-.54-4.72l-.18-38.8-.37-7.11c-.19-3.65.11-8.24-.27-11.65-5.86-12.68-17.86-20.18-31.41-21.02-.59-.04-2.2-.48-2.9-.47-4.61.08-9.14,2.23-12.7,5.17-2.6,2.15-1.16-3.09,8.12-5.95l-6.27-1.53c-.9-.22-3.38-1.2-3.52.52l-6.7,82.62c-.09,1.08-1.05,2.46-1.91,2.57l-4.91.62c-.93,4.97-1.53,14.77.76,19.15.7,1.34,1.8,2.79,2.21,4.22,1.2,4.21,1.66,7.96,1.7,12.38.02,2.29.94,6.56-.95,8.39-2.31,2.25-6.89,3.18-9.73,4.27-2.35.9-3.88-2.26-6.24.02-3.22,3.12-6.51,5.29-10.75,6.6-8.09,2.5-23.84,4.94-30.66-.02-1.37-.99-.81-4.06-.61-5.52.46-3.37,1.89-5.45,4.53-7.35,5.55-3.98,11.17-7.82,15.1-13.51l4.15-6.01c.53-.77,3.03-1.09,4.09-1.4,2.14-2.9,4.26-7.56,4.58-11.4l.51-6c.1-1.18-.18-3.22-.42-4.66-2.89-1.35-16.01-2.69-15.51-6.84l4.66-38.48.76-5.86,3.14-22.98,3.23-19.61c1.69-10.25,6.98-25,18.93-26.25,3.96-.41,7.97.25,11.41,1.92l7.37,3.56,20.79,10.38,6.14,2.71,5.73,2.57-15.06,6.43c-1.06-.34,0,.21.81.6l4.97.93,19.08,2.63,5.43.39c1.76.13,3.59.38,5.35.37l17.3-.14c2.07-.02,4.63-.53,6.75-.73l1.1-.1c.33-.03.85-.08,1.14-.13,16.75-2.9,32.85-6.89,49.23-12.01,1.17-.59.82-.07.12.86-3.45,1.21-6.98,2.5-10.55,3.39l-24.44,6.1c-1.68.42-3.6.76-5.3,1.05l-9.29,1.55c-1.79.3-3.8.5-5.61.64l-7.13.58c-3.89.31-8.07.31-12.01.03l-8.95-.64c-2.22-.16-4.73-.33-6.87-.64l-17.29-2.45c-1.67-.24-3.96-1.01-5.51-1.52l-11.12,4.65.49.64,11.5,2.15,18.25,2.73c3.67.55,7.26.89,10.95,1.13l16.2,1.05c2.56.17,5.18-.06,7.69-.35l7.05-.82c6.43-.74,12.52-1.99,18.79-3.53l20.41-5.01c4.69-1.15,9.16-2.56,13.84-4.19,1.11-.39,1.58-3.28,1.57-4.46-.03-2.66.57-4.69,1.33-7.2l25.69-84.37c4.84-15.91,3.76-30.12-13.53-36.59-2.07-.77-17.97-5.12-17.77-2.42l.37,5.09,6.12.95c8.54,1.32,17.99,4.53,19.82,14.05,1.35,7.03-.37,13.64-2.31,20.41l-4.56,15.88-7.9,26.46-5.22,17.8-7.2,24.33c-.11.37-.63,1.2-.76,1.03l-.7-.89c-.29-.37-1.49-.99-2.06-1.11l-10.73-2.09c-2.06-.4-4.26-.67-6.3-.91-13.63,16.61-49.06,14.74-67.43,9.27-7.13-2.12-13.49-5.49-20.21-8.55-8.95-4.07-14.73-7.76-24.27-12.13-4.05-1.86-8.71-3.38-13.15-2.41ZM104.81,37.57c1.33-4.32,4.72-5.98,8.21-6.18s6.7,2.15,8.47,5.42l5.57-.28c1.64-4.13,5.22-5.36,9.42-6.02-2.15-2.08-8.22.31-7.58-.82,1.46-2.58,4.34-1.97,7.12-1.62-1.38-5.95-4.97-11.51-10.67-14.32-1.13-.56-1.78-1.79-2.11-3.17-2.65,7.26-6.73,11.8-12.21,17.49,5.49-1.03,8.15,2.03,6.69,2.02-3.66-.02-7.17-.64-11.53,1.99l-7.22,4.36c-.4.24-1.07,1.33-1.05,1.6l6.89-.47ZM412.28,101.11c2.08.22,4.6-.28,6.29-.64.98-10.58,7.26-23.94,4.99-34.21-.5-2.28-4.1-5.33-.53-7.98.31.36,1.05,1.31,1.38,1.06l1.52-1.13c.92.93,1.12,3.94.34,5.1-.19.29-1.33.72-1.52.43l-.99-1.55c-.23-1.04-.43-1.59-.7-.23.07,1.29,1.13,2.8,2.09,2.86.85.05,2.57-1.36,2.54-2.25l-.15-4.07c3.18-2.58,5.27-6.28,4.36-10.53-.29-1.37-1.47-3.07-2.51-3.44-4.85-1.77-3.89,4.08-9.19,2.59-3.04-.86-3.48-4.37-5.44-6.13-7.19-6.44-13.53-12.58-14.68-23.21-2.38,1.14-5.14,3-6.86,5.61-6.01,9.14-2.72,13.69-3.71,17.31-1.68,6.15-7.47,8.69-6.71,10.8.82,2.29,4.62,2.03,4.89,3.72.19,1.2.18,3.83.49,4.88,1.17,3.94,2.27,7.9,2.82,11.81,1.32,9.39,18.23,2.12,23.31-1.14.34-.22,1.56-.46,1.4-.2-1.91,3.23-5.05,3.57-8.75,5.57l2.46,12.17c.19.96-.38,2.99-.84,3.95l-1.07-5.17c-1.01,1.36-2.93,3.57-3.16,5.14-.68,4.65,3.32,8.39,7.95,8.89ZM137.41,47.47c4.75-2.5,5.93-8.91,2.83-12.91-2.18-2.81-6.32-2.59-8.85-1.07-2.75,1.65-3.94,4.8-3.33,8.28.34,1.91,1.63,4.17,2.9,5.09,1.61,1.18,4.37,1.71,6.45.61ZM120.35,42.07c.61-3.7-.85-6.88-3.71-8.35-2.58-1.32-6.22-1.02-8.54,1.16-1.99,1.87-2.56,5.18-1.72,8.04,1.03,3.55,3.74,5.77,7.25,5.63,3.2-.13,6.07-2.54,6.72-6.47ZM92.51,98.58c4.12,5.65,20.99,7.81,26.66-.36l-1.71-10.67c-.12-.74-1.17-2.11-1.71-2.48l-1.2,4.83c-.38-.79-.77-2.26-.64-2.93l2.05-9.83c-5.13-2.11-10.61-2.69-13.76-7.54,6.06,3.05,10.94,6.14,17.53,6.38,2.7.1,6.4-.32,8.31-2.35,6.16-6.55,9.18-15.32,9.74-24.37-2.57.15-4.91-.06-7.33-.75.2.97.03,2.91-.78,3.62-.91.79-3.06,1.32-4.03,1.13l-1.49-.3c-.27-.05.08-1.11.35-1.04l1.28.3c.85.2,2.7-.33,3.19-1.04,1.39-2.02-2.29-3.93-3.1-12.13-.08-.83-2.19-1.21-3-.76-1.8,1,.33,8.29-6.22,10.97-3.03,1.24-6.67.86-9.2-1.67-2.17-2.17-2.78-5.01-3.2-8.23l-7.15.66c-1.38,2.28-2.68,4.37-4.31,6.04l-3.18-3.16c-1.9,1.64-3.77,3.58-4.66,5.99s1.26,6.1,3.25,6.69c.49.14,2.33-.42,2.45.04l.36,1.47,2.32-.86c.49,1.8.53,3.57.21,5.62-1,6.42-.86,16.9,5.37,20.86-1.48,4.04-6.99-.96-8.37-1.52l3.14,3.59-4.29,1.61c1.14,3.57.78,8.96,3.13,12.18ZM146.8,64.75c.98-4.51-.4-8.76-2.88-12.05l2.88,12.05ZM91.38,61.12c-.15.55-1.85.3-2-.22-.11-.39-.25-1.47-.19-1.88l.41-2.73c-.9.82-1.88,2.46-1.7,3.39.15.82,1.33,2.42,2.13,2.89.66.39,2.17-.69,2.55-1.34.43-.75.42-2.37-.36-3.23l-.83,3.11ZM462.13,72.05c1.92,5.23,4.83,9.72,4.9,15.58.01,1.08.3,1.93,1.03,2.6,1.04-5.43-1.87-14.01-5.93-18.17ZM383.64,74.8l-.98,1.09c-1.3,4.39-2.2,8.42-.83,12.45l1.81-13.54ZM375.34,138.3l2.51-14.04c.12-1.51.76-1.27,1.18-.07l-2.36,13.2c-.58,3.23-.35,7.29,0,10.66.7,6.81,6.21,18.63,6,25.59-.15,4.76-1.94,7.43-1.05,10.4,11.74-1.97,6.81-1.97,17.19,1.52l7.29,2.45c3.52,1.18,7.47,1.06,11.15.26l13.29-2.87c1.27-8.55,12.84-6.8,19.21-9.82l3.8-4.06c.89-3.05.63-8.28.67-11.86.03-2.83.33-5.18.43-7.8l.43-11.33.4-5.8.42-5.25c.2-2.51.23-4.86,1.89-7.34l-.85,8.15-.61,7.07-.37,12.6c-.06,1.92-.41,3.86-.43,5.77l-.17,15.38c4.06-1.11,7.99-2.31,12.16-.61-8.06,1.89-4.74-1.51-13.8,2.8-.75.36-1.78,1.88-2.22,2.83,5.79,2.05,9.23,5.7,11.53,11.05.51,1.18.8,2.98.54,4.13-1.88-5.94-6.39-13.48-13.65-13.82-4.73-.22-9.6,2.06-14.45,2.93-1.41.25-2.83,2.91-3.15,4.2,1.84.97,3.15-2.48,5.95-.37,4.92,3.71,6.18,8.98,5.94,14.9-.13,3.1-.46,6.41-3.44,6.94-.23.04-.66-.71-.48-.85l1.15-.86-6.54.2c1.86,4.45,5.78,4.84,9.8,4.58,14.41-.95,32.54-3.03,38.25-18.29,1.93-5.16,3.11-10.51,3.6-16.07l.62-7.02.37-10.69c.09-2.5.66-5.17.52-7.68l-1.07-19.01c-.52-9.33-2.06-18.41-6.21-26.88-2.94-5.99-8.21-10.34-14.44-12.62l-14.8-5.41c.47,9.38.93,17.38-3.49,25.79-2.51,4.78-6.81,8.33-12.15,8.84l2.3-4.45c-3.02,5.14-8.96,7.85-14.46,5.44,2.43-2.27,6.38-6.76,5.51-9.94-1.08,2.33-1.99,5.07-3.65,6.9-2.3,2.54-5.68,3.26-8.6,1.26,6.08-6.54,3.73-7.61,2.82-14.04-.9,3.27-2.51,6.66-4.26,9.97l-1.62.16,3.2-6.66c-6.56.1-14.48-.73-16.62-7.86,4.47,5.28,9.67,8.65,16.97,6.18l1.09-4.85-5.79.02c-4.92.02-8.42-2.88-10.06-7.92-2.65,3.81-5.02,7.7-6.55,12.1-3.42,9.8,3.11,12.89.84,13.51-2.88.79-6.1-1.14-6.97-4.02l-1.05.13,3.18,4.18c-2.67.96-5.51.59-7.39-1.53s-2.58-4.97-3.2-7.45c-.07,2.44.46,4.41,1.09,7-1.56-.43-3.43-1.72-4.29-3.37-3.44-6.63-.9-12.32,1.1-20.04-3.99,3.18-7.13,7.54-9.01,12.9l-5.1,14.5c-3.45,9.81-7.2,19.13-11.65,28.68,4.29-.02,8.6,1.51,10.13,5.51-2.67-2.19-5.15-4.25-8.29-4.24,2.68,3.95,5.17,7.19,5.94,11.61-3.77-5.61-6.27-12.52-13.91-14.7l.77,4.73c-.01.2-1.09.43-1.15.14l-.34-1.52c-.5-2.24-.88-4.61-2.09-6.41l-3.88-5.78c-1.34,2.85-2.82,4.97-4.94,7.17,2.44.27,5.69,1.27,6.25,3.85l7.83,36.16c13.77,7.39,24.98-11.78,29.85-22.26-1.1-5.68-4.03-12.02-4.54-17.74-.25-2.76-.53-6.16,0-9.11ZM421.79,97.38c.11-4.95.43-.81.32-4.81-.19-6.68-3.37,11.89-.56,15.38l.24-10.58ZM291.22,114.71l7.74,3.85c1.05.52,1.94.49,2.36,2.06l-10.84-4.81c-.46-.21-1.59-.09-1.91.18s.28,1.47.71,1.75l9.05,5.82c7.06,4.53,12.02,4.05,19.16,7.03,3.01,5.26,5.33,10.44,7.68,16.01,6.56.93,10.31,1.86,13.69-5.54-3.15-6.44-7.81-12.55-10.59-19.13-1.9-4.49-2.11-9.31-5.88-12.8-3.38-3.13-6.61-6.59-9.69-10.08-.44-.49-1.44-.82-1.99-.82-.44,0-.83,1.92-.62,2.42,2.92,6.74,6.84,6.63,5.01,11.18l-1.29-2.36c-6.89-.95-14.47-2.46-21.34-4.06-2.41-.56-4.63-1.22-6.64.91l17.06,5.02c.92.75-.31,1.14-1.03.8l-7.76-2.29c-2.5-.74-6.77-1.66-9.1-1.67-.41,0-1.24,1.25-.95,1.38.19.08.92.5,1.16.57l15.68,4.75c.89.41,1.56,1.48.29,1.22l-9.13-2.9c-1.18-.37-8.87-2.28-8.37-.36.08.29.38,1.12.57,1.35,2.48,3.14,4.07-.9,6.95.53ZM94.25,179.7c9.35,2.21,14.19-.74,19.01-.31,3.72.33,7.1.92,10.55-.48-1.62-21.09,1.26-37.87-1.64-59.47l-2.62-19.51c-6.18,6.64-17.53,6.18-26.98,1.06l3.61,19.19c4.14,21.99,3.28,38.15-1.92,59.51ZM168.7,126.91c-.81-1.96,1.26-3.79,2.59-3.4l7.19,2.12,5.65,1.83c-1.2-2.97-11.12-5.97-7.29-9.69.85-.82,3.5-.3,4.62.24l6.76,3.24,5.55-17.06c.17-.52-.09-2.19-.5-2.52-.31-.25-1.16-.55-1.61-.59l-5.1-.54-8.33-.63c-1.27-.1-4.18.64-4.66,1.85-2.19,5.58-3.81,10.67-5.61,16.28l-7.88,24.6c-.28.88.88,2.59,1.85,2.6l13.47.19c-3.35-3.83-5.25-3.19-7.69-7.04-.27-.43-.11-2.04.4-2.17l1.84-.48c-1.43-.58-3.38-2.52-3.63-4.11-.11-.73,1.05-2.45,1.72-2.4.56.04,1.44.23,2.31.44l2.17.51c-1.3-.78-3.19-1.8-3.81-3.28ZM170.88,101.37l-13.2,41.47,1.53.49,13.2-41.47-1.53-.49ZM170.11,139.47l5.95,4.48c.52.39,1.47,2.02,1.38,2.35l-3.3.98c-1.43,1.7-.41,3.97.68,5.95-1.27-.23-2.04-1.58-2.59-3.19-1.16,1.5-3.79,4.43-4.32,6.34-.07,5.67,3.92,10.02,9.1,11.59,5.06-10.21,7.1-17.22,11.73-27.82,2.37-5.41,1.82-6.13,1.6-13.17-.12-4.02-8.76-8.69-12.81-8.52-.8,5.08,8.17,3.93,9.45,12.58-2.6-1.62-16.59-8.39-16.97-5.37-.05.44.5,1.81.99,2.07l10.03,5.34c1.52.81,2.82,2.12,3.58,3.56l-12.62-5.13c-.95-.39-2.73-.8-3.81-.71-.79.07.23,2.48.94,2.89l12.42,7.02c-.07.77-1.05.73-1.96.32l-9.42-4.24c-.39-.17-1.41,1.08-1.15,1.37.19.22.79,1.11,1.07,1.33ZM66.68,170.96l.11-10.71c-.5-2.59-.6-5-.63-7.7-.03-2.42-.28-4.68-.4-7.07l-.42-8.13-.69-7.83c-.7.7-.7,1.52-.62,2.73l.48,7.52.4,7.69.43,7.71c.18,3.35.21,6.69.25,10.07l1.1,5.71ZM469.58,209.64c4,15.78,5.99,30.44-1.26,44.88l8.38,1.52,6.84-31.54,5.16-23.55,11.23-51.68,1.05-5.75c-3.78-1.29-7.73-1.98-11.95-2.2l.24,6.27c.05,1.42-.46,3.48-.5,5.01l-.35,13.27-.56,6.46-.72,6.21c-.6,5.17-1.94,10.22-3.9,15-2.5,6.08-7.95,10.04-13.86,12.48-.19.78-.1,2.44.2,3.62ZM26.2,223.71l7.09-20.32-.75-6.37-8.05-54.83-3.19,1.24c-9.3,3.62-12.71,13.79-10.41,22.36l9.43,35.17,5.88,22.76ZM490.81,245.27l3.47-11.92,12.82-43.16c3.01-10.13,5.85-19.55,7.71-30.07.22-1.22-.76-3.94-1.1-5.18-1.56-5.75-5.63-9.67-11.4-10.92l-2.06,8.78-18.97,87.18-3.49,16.29,8.99,1.95,4.03-12.97ZM352.79,208.32l-4.87-24.08-6.54-31.01c-.56-2.68-2.35-4.27-5.03-4.46l-6.37-.44-11.46-.79-6.45-.48-7.53-.45-5.79-.4-7-.49-8.92-.63-7.68-.42c-2.38-.13-6.35-.59-8.39-.04-.83.23-1.49,2.73-1.31,3.52l9.43,41.58,2.73,11.61c.42,1.81,3.42,2.68,5.08,2.87l6.45.73,5.7.66,12.91,1.54,5.71.63,6.96.71,14.5,1.6,4.73.57c3.62.44,8.84.91,12.47,1.04.67-.12.86-2.48.68-3.38ZM151.17,167.76l1.09.49c1.09-2.52,1.85-4.83,3.27-6.5l3-3.53c2.18-2.56,4.74-4.65,6.62-7.5l-8.18,7.16c-1.76,1.54-5.2,1.07-5.91,3.63l5.63-2.8c-.97,1.37-1.95,2.39-2.47,3.35l-3.05,5.7ZM374.31,187.46c1.34-1.26,3.93-2.35,5.39-2.88l1.72-11.11c.21-1.34-.68-4.11-1.06-5.57-5.75,9.69-9.55,17.36-19.83,22.15l9.88,1.1,3.89-3.68ZM118.83,192.55c2.69.3,5.66.03,7.79-.06l-2.74-12.07c-7.24,1.11-10.41-.01-16.59.82l-.02,8.59c-1.58-2.98-.95-5.43-.98-8.22l-10.34-.57c-1.28-.07-2.45.83-3.46,2.27l-20.43-6.43c-2.55-.8-2.88-1.11-4.12-3.43-1.61-3.01-6.42-3.68-9.85-2.61.06.25.63.78.86.84,3.02-.07,5.03,0,7.64.77.86.25,1.77,2.87.92,3.02-4.12.71-8.19.67-10.97,3.88l5.68-2.09c3.32-1.22,6.25-.93,9.48.26,5,1.84,9.7,3.43,14.95,4.95l16.39,4.74c.74.21,1.54,2.2,2.07,2.47,1.95.76,5.81,1.97,8.14,2.24l5.59.63ZM385.74,195.78c2.48-1.19,5.26-1,8.29-1.7.2-.05.46.39.91.92-5.5.85-9.78,1.33-15.24,5.84,7.75,2.02,8.79-4.67,21.25,1.01,10.65,4.85,13.44,1.1,15.72,1.11l25.25.15c3.28-3.87-.28-15.53-4.55-17.8l-21.34,4.3c-3.54.71-7.06.77-10.49-.48l-13.68-4.96c-2.72-.99-11.81,1.59-14.4,2.88-1.46.73-11.11,8.7-9.28,10.15l7.65-6.52c1.88-1.6,4.41-2.85,6.8-3.31l5.64-1.09c0-.07-.05.56-.1.98-2.35.68-5.47.88-7.59,1.93-4.28,2.13-8.01,5.7-11.21,9.09.61,1.01,2.04.92,2.8.4l8.87-6.01c1.69-1.14,9.35-3.32,10.75-2.3-2.49,1.17-5.12,1.15-7.44,2.04-4.06,1.55-7.49,4.37-10.85,7.15.84.59,2.48.87,3.21.52l9-4.32ZM260.79,215.02l17.52-.1c4.89-.82,8.02-.58,14.12-.98l6.25-.42,6.46-.59,6.92-.69,5.74-.6,6.62-.63,1.13-.86-8.33-.83-6.37-.76-6.94-.78-5.73-.64-5.1-.58-5.73-.66-5.74-.62c-2.16-.23-4.65-1.46-5.18-3.69l-2.98-12.3c-2.56-.22-4.6-.44-7.28-.44h-46.31s-2.82.57-2.82.57l-11.84.27-6.48.41-7,.49-8.28.65-7.66.65c-1.94.17-3.84.4-5.76.69l-18.93,2.87c-1.95.3-14.86,3.1-15.19,5.7-.45,4.22,20.06,8.23,23.33,8.69l14.65,2.04c2.31.32,4.63.56,6.94.74l7.71.61,8.93.65,7.64.48,7.13.4,15.72.26,2.8.58h27.07s2.99-.59,2.99-.59ZM370.72,200.52c-1.5-.04-4.45-1.89-4.19-3.81.16-1.22,1.5-2.8,2.53-4.31l-18.48-2.55,1.75,9.12,19.84,2.45c-.08.25.84-.83.56-.84l-2-.06ZM135.42,199.34c-6.77-7.82-13.29-5.32-21.47-6.16-4.06-.42-7.83-1.63-12.13-2.56-2.94,4.11-5.06,8.1-6.85,12.9,3.84.62,7.07.06,10.78-.56l15.85-2.63,8.97-.95-3.77-3.32c4.5.34,4.79,5.47,8.62,3.27ZM375.66,204.83l16.82-2.73c1.1-.18,1.82-.35,2.56-.85-8.77-2.13-12.68,4.18-16.39-.03l-4.75.58,2.7.98c-7.67,2.71-15.27,1.84-22.65,4.98,7.55-.6,14.3-1.72,21.71-2.92ZM356.88,211.44l39.42-6.92c.51-.09,1.64-.74,1.53-.99l-.48-1.1-27.57,4.64-13.24,2.02-1.85.27c-.41.06-.49,1.29-.56,1.86.02.32,1.67.41,2.73.23ZM338.59,211.58c-4.44-.58-8.36-.38-12.52.11l-8.15.96-5.75.59-6.44.62-7.02.63-6.99.54-5.84.39-10.65.28-2.72.53-19.47.06-2.86.6h-12.49s-2.78-.6-2.78-.6l-19.55-.06-2.84-.54c-2.99-.57-7.28,0-10.54-.25l-7.76-.62-7.66-.62-7.01-.62-6.75-.75c-11.4-1.27-27.88-3.6-37.36-8.95-.35,2.17-1,5.57.71,7.37,2.96,3.14,13.6,5.96,17.55,6.59l22.66,3.63c2.32.37,4.65.54,6.96.74l7.08.6,7.65.64,6.99.5,6.44.39,10.13.36,3.79.46,36.34.02c2.17,0,4.33-.32,6.43-.41l10.08-.44,7.07-.39,7.63-.49,7.65-.64,6.44-.63c11.36-1.11,34.29-4.26,44-8.78l-7.6-1.17-4.89-.64ZM458.97,228.69l-5.27-9.27-3.3-5.81c.79,5.82,6.2,10.49,7.97,16.7.07.26,1.07-.12,1.01-.38s-.26-.98-.41-1.24ZM176.86,265.83c-1.81-12.37-5.43-23.17-8.42-34.57l-3.33-10.08-5.7-.83,4.9,11.84,6.74,18.1,5.81,15.55ZM249.05,349.5c0,1.75.24,2.93.4,3.96,7.59-2.34,13.96-6.37,19.25-12.55,1.15-1.35,3.67-1.3,5.01-1.78,7.63-5.4,12.03-14.77,14.29-23.87l-6.16-4.94c-.58-.46-.87-2.43-.62-3.11l25.87-68.99c2.07-5.51,4.25-10.04,6.68-15.46-1.97.07-4.06.17-6.13.37l-6.32.62-7,.63-8.29.6-10.2.66-15.22.38-7.76.42c-.96.05-2.26.1-2.81.42-.45.26-.85,1.58-.85,2.16l-.08,19.18-.03,101.3ZM136.19,357.78l.28-7.7.42-6.43.48-7,.66-9.52.5-7.85,1.3-23.48c.33-5.9.45-11.81.07-17.75l-.6-9.59c-.39-6.27-1.44-12.65-3.67-18.4s-7.6-8.38-13.33-6.83c-4.57,1.24-8.62,3.77-12.48,6.58-5.61,4.08-11.35,7.77-17.21,10.96l9.98,4.92c1.51-3.17,3.22-6.61,5.55-9.46-.69,3.51-3.03,6.06-3.98,9.3-1.68,5.68-2.7,11.44-3.77,17.3l-4.88,26.58-7.11,42.23c-.11.65.36,2.26.8,2.45,5.59,2.43,13.72,4.98,20.25,5.69,7.83.84,19.63,1.03,26.75-1.98ZM247.77,245.37h-9.56v148.79h9.56v-148.79ZM60.5,270.28c-2.58-.3-5.16-.55-7.26-2.03l15.5,2.1c5.44.74,18.1.97,23.49.48l7.15-.65c.75-.07,2.1-.3,2.21-.84l.44-2.2c-3.33-1.7-7.58-5.82-11.53-5.05l-12.83,2.52c-4.08.8-14.47-.5-18.95-1.7-1.53,2.05-3.25,4.54-5.67,5.26-6.86,2.06-23.48-3.97-30.1-6.8-.47,1.85-.8,5.26.66,6.3,5.4,3.83,30.35,8.86,37.52,9.57l17.17,1.7c4.32.43,8.5.45,12.79.01l8.65-.87,1.37-6.79-5.06.2-10.62.42c-1.86.07-3.54.12-5.39.02l-8.75-.47c-1.84-.1-3.82-.36-5.69-.58l-5.11-.6ZM362.74,274.56c-1.02-3.08-2.29-6.11-4.08-8.42l3.33,9.57c.09.26,1.27.41,1.18.14l-.43-1.29ZM20.8,312.09l4.48-19.46,4.03-17.52c1.1,1.85.4,3.58.06,5.44,1.96-2.6,3.82-4.47,6.74-6.82l-5.68-1.51c-1.76-.47-3.71-1.43-5.86-2.13l-3.54,15.75-11.49,50.76-5.25,22.33-2.91,13.21c.58.79,1.95,1.62,2.71,1.69s2.64-.75,2.81-1.52l13.89-60.24ZM512.44,377.91c-.99-7.24-2.38-13.53-3.85-20.47l-13.31-63.04-3.22-15.46-1.49-7.28-5.33,1.62,3.88,18.31,5.89,28.56,6.43,31.66,5.77,26.78c.36,1.67,5.44.92,5.22-.67ZM486.08,284.2l-2.22-10.57-6.2,1.75c3.45,3.03,5.94,5.59,8.42,8.82ZM72.89,279.78l-7.01-.68,6.69,9.83.31-9.15ZM76.36,383.4l.51-5.39.22-12.58.46-2.82.27-11.32.45-8.92.45-8.91.4-12.04.46-6.51c.1-1.38-.44-4.37.24-5.42.88-1.37,2.31-3.01,2.45-4.42.96-9.77,8.55-20.12,16.26-23.73.32-.15.66-1.33.77-1.57s-.85-.02-1.23-.01l-10.88.18-12.94.19-.69,17.33-.79,17.08-.31,13.72-.5,2.72-.16,13.28-.46,3.79-.57,16.63-.73,17.19-.52,7.79c-.22,3.22-.33,7.89.1,10.94.3,1.43,5.44,1.58,5.62.13l.85-7.04c.39-3.22-.11-6.51.25-10.28ZM426.68,394.29l.2-14.09.53-2.92.07-17.6.57-2.86.09-18.72.51-3.4.52-22.23c.06-2.62.2-4.89.81-7.6,1.98,1.21-.86,13.46,1.09,12.34.83-.47,2-2.25,2.22-3.23,2.91-12.98,9.44-26.1,21.75-31.97l4.34-2.07-15.45,3.13c-3.69.75-11.57,15.35-12.94,20.06-.62,1.11-.93-.21-.74-.97,2.37-7.05,5.57-12.47,10.01-18.33l-7.08.42-8.34.56-3.71.3-.4,19.06-.12,8.27-.22,26.79-.57,3.72-.05,25.54-.46,6.45-.11,29.92c1,1.27,6.22,1.5,6.59-.33.63-3.13.84-6.61.89-10.25ZM419.56,311.67c.51-3.63.11-6.82-1.14-9.99-2.72-6.89-6.48-12.86-12.08-17.68l-11.38-1.27c15.92,8.5,17.64,17.99,23.93,33.69l.66-4.75ZM419.43,300.09c.3-5.03.38-9.95.15-15.24l-6.18-.24c-.06,1.67-.15,4.01.45,5.11l5.59,10.36ZM418.4,363.04l.14-14.27.49-5.8.04-24.52c-1.22-1.45-2.67-3.54-3.23-5.19l-2.62-7.81-.29,7.01c-.15,3.68.28,7.17.3,10.8l.18,31.23c.01,2.63.2,6.03.51,8.31.66.79,3.65.94,4.47.24ZM185.84,320.78l5.99-5.18-6.95,2.02.96,3.16ZM278.65,353.19c7.19-2.18,19.34-5.61,23.72-10.4.1-4.85,1.01-9.85,2.71-14.34l2.12-5.59c-6.56-1.73-12.18-3.8-17.7-6.74l-4.88,12.04c-1.89,4.66-5.71,8.1-9.02,11.73l2.9,2.43c1.17.98,2.8,3.96,2.26,5.38l-2.1,5.49ZM176.18,343.1c-.03-2.74,9.64-3.33,12.67-5.4l-5.41-19.42c-6.87,2.05-13.4,5.04-19.56,8.62l6.07,14.24,4.25,1.03,2.06,7.86-.08-6.94ZM165.19,333.39l-2.79-5.87c-4.77,2.55-8.68,4.79-12.87,7.62,5.8.82,10.3-.06,15.66-1.76ZM304.38,358.43l-13.35,2.86c4.68.13,9.25-.58,13.35-2.86ZM114.78,370.38l1.46-8.65-18.52-2.83-.77,8.49,2.25,2.2c-.95,4.33-1.54,8.36-.87,12.32l.95-9.75c-.56-4.87,10.4-.39,15.51-1.79ZM348.06,384.97c.4-2.26-.68-4.8-.79-6.95-.15-2.99-.14-5.91.01-8.83l.25-4.86-18.26-.95-.53,6.99c-.19,2.54-.11,5.02-.98,7.28l-2.89,7.56c4.58,1.83,9.86,3.06,8.46,9.97-.15.74-.21,1.52-.25,2.32,4.29-2.22,14.21-8.27,14.97-12.54ZM273.29,366.72l-5.19.31c-4.83.29-9.7.3-14.53,0l-4.57-.28c.89.36,2.86,1.09,3.87,1.09l15.97-.02c1.16,0,3.29-.7,4.46-1.09ZM218.53,387.11l-5.84.25-12.13.53c4.17.59,13.24.77,17.97-.78ZM238.21,419.83c12.58.01,24.62-.75,36.89-3.07,3.47-.66,14.4-3.31,14.35-7.2-.08-6.36-31.45-10.83-37.22-10.07,1.04,1.92,2.86,4.05,3.88,5.07,1.78,1.78-4.36,1.94-7.17-10.4-3.96,1.41-8.05,1.67-12.13-.17-2.34,10.88-9.94,12.85-8.27,11.14l.85-.86c1.68-1.7,2.82-3.05,4.01-4.89-3.55-.23-6.09-.16-9.21.14l-6.44.63-5.83.61c-4.05.42-28.09,3.98-26.41,9.33.2.65,1.18,1.93,1.79,2.23,13.32,6.52,35.91,7.52,50.9,7.53ZM299.3,416.48c5.46,2.35,22.97.96,28.21-2.69l-10.4,2.34c-1.45.33-3.43.5-5.06.64-7.31.64-7.02-.56-12.75-.29Z"/>
        <g>
          <path class="cls-1" d="M390.56,64.53c2.21-.79,4.31-1.61,6.53-2.74-3.33-.35-5.43.21-8.49-1.11l10.3-1.1c-.77,3.77-4.38,6.83-8.35,4.95Z"/>
          <path class="cls-1" d="M402.64,37.47c-2.76-1.95-4.4-2.25-6.97-2.3l-1.31-.02c-2.51-.05,4.61-4.46,9.06,1.6-.21.2-.89.83-.77.72Z"/>
          <path class="cls-1" d="M398.29,43.39c.05,1.29-1.08,3.56-1.83,3.14-1.73-.99-1.84-4.62.11-5.83.62-.39,1.67,1.39,1.72,2.69Z"/>
        </g>
      </g>
      <path class="cls-1" d="M311.57,181.88c-1.24,1.09-4.05.77-5.2-.06-1.22-.87-2.42-2.49-2.87-4.27s.41-4.18,1.58-5.04c1.41-1.04,3.81-1.05,5.35,0,3,2.04,4.37,6.53,1.15,9.38Z"/>
      <g>
        <path class="cls-1" d="M178.02,104.8c-.38.73-.97,1.53-1.42,1.8s-1.8.06-1.98-.43-.17-1.81-.05-2.53,1.95-1.72,2.61-1.42,1.21,1.88.85,2.58Z"/>
        <g>
          <path class="cls-1" d="M116.4,38.94c.17,1.58-.38,4-1.79,3.85-.92-.09-1.89-1.89-1.87-2.73s.91-2.65,1.79-3.08c.45-.22,1.82,1.46,1.87,1.96Z"/>
          <path class="cls-1" d="M133.35,42.33c-1.22.31-2.01-1.97-1.94-2.81s.93-2.47,1.86-2.67c.71-.14,1.69,1.39,1.8,2.11.13.85-.38,3.03-1.72,3.37Z"/>
          <path class="cls-1" d="M115.14,59.77c3.75,2.89,8.14,4.62,12.01,1.19.05.11.47,1.38.24,1.49l-1.55.77c-4.19,2.08-9.38.32-12.04-3.51-2.81-4.04,4.96.32,13.17-1,1.07-.17,2.09-.23,2.52.25-1.22.57-3.43,1.34-4.61,1.28l-9.74-.47Z"/>
          <path class="cls-1" d="M137.6,33.99c1.59-1.8,1.7,9.71.47,8.9-.64-3.22-.56-5.6-.47-8.9Z"/>
        </g>
      </g>
    </g>
  </g>
</svg>