<?xml version="1.0" encoding="UTF-8"?>
<svg id="Calque_2" data-name="Calque 2" xmlns="http://www.w3.org/2000/svg" viewBox="0 0 952.13 590.65">
  <defs>
    <style>
      .cls-1 {
        fill: #18233f;
      }
    </style>
  </defs>
  <g id="Calque_1-2" data-name="Calque 1">
    <g>
      <path class="cls-1" d="M732.62,79.35c-1.02.08-2.04,1.79-3.16.38l35.91-37.24c4.99-5.18,9.64-10.25,14.02-15.4-1.16-.57-1.85-1.07-1.91-1.9l28.95-2.99,145.67-15.75.02,55.56-92.4,7.3-98.65,7.85-28.46,2.19Z"/>
      <path class="cls-1" d="M904.31,109.95l.02,197.29-.03,4.55c-1.06.19-3.35.29-4.37.2l-6.52-.56-13.68-.25-2.9-.54-15.71-.07-2.78-.57-15.72-.07-2.74-.55-16.87-.29-7.25-.46V119.05c0-3.3-.17-5.64-.4-8.69l-16.32,1.09-.63,10.05c-.11,1.68.77,3.91.77,5.82v162.04c.01.72-.97,2.57-1.25,2.74V119.03c-.01-2.78-.24-4.92-.51-7.43l-65.53,4.04.18-34.76,199.5-15.67,20.53-1.56.02,37.82-30.73,1.99-.53,5.24c.04,5.13-.04,10.15.26,15.21.17,2.88.51,5.65-.09,8.41-.2.92.5,2.74.5,3.97v320.62c0,1.07-.06,3.33.66,3.49l27.33,3.79-1.13,1-18.8-2.66-15.8-2.11-79.86-10.6-26.56-3.77c2.19-.62,4.21-.32,6.7.02l68.53,9.18,36.48,4.81.91-.32c.2-.07.27-.98.27-1.54V110.17c0-2.66-.19-4.38-.35-6.61l-15.59.93v5.47ZM868.22,309.45l4.17.51,14.71.15,5.68.52h10.28s0-4.65,0-4.65V112.04c-.01-2.87-.2-4.83-.48-7.46l-85.68,5.6c-.36,2.91-.5,5.46-.5,8.86v188.85s14.74.22,14.74.22l3.77.51,15.08.14,2.81.51,15.43.2Z"/>
      <path class="cls-1" d="M87.42,468.79l-37.57,5.58-42.55,6.4c-.21-.08-.73-.81-.52-.86l1.82-.47,103.02-15.33,32.57-4.79.03-88.4-12.67-4.4c-1.3-1.4,15.63,3.14,13.94,3.81l-.07,80.92-.66,7.12.02,1.48c0,.39-1.09.68-1.61.76l-55.74,8.19Z"/>
      <path class="cls-1" d="M826.78,421.68c-3.08-.32-5.58-.47-8.55-1.22,2.74-.47,5.38-.14,8.35.18l5.8.62,5.74.61,6.36.68,5.74.62,5.74.63,5.74.63,5.74.62,6.37.68,5.74.62,5.74.63,5.73.63,6.3.7,6.38.77v-99.96s-8.35-.46-8.35-.46l-11.98-.46-7.71-.41-7.74-.42-11.85-.29-2.84-.51-13.14-.09-2.74-.53c-3.23-.62-7.36.16-10.72-.2l-8.32-.91,11.35-.24,2.81.61,13.17.08,2.74.52,11.34.26,8.94.46,7.74.41,12.53.3,2.74.47,12.63.23.07,30.77.6,2.96v67.94c-3.1.15-5.9-.06-8.9-.4l-5.17-.59-5.74-.65-5.73-.63-5.74-.63-6.37-.7-5.1-.56-6.37-.68-5.74-.61-6.36-.68-5.74-.62-5.74-.62-5.48-.57Z"/>
      <path class="cls-1" d="M41.95,160.82c-6.08,5.97-9.87,13.64-17.88,17.38,5.75-6.24,11.63-11.22,16.17-17.93,12.06-17.84,13.96-26.71,20.47-46.58-2.3,16.14-9.24,30.41-17.18,44.72,10.88-6.87,20.01-15.06,28.7-24.16,12.68-13.27,18.29-25.42,23.35-42.88,1.45-5,2.1-9.89,3.78-14.72.28,5.54-1.59,10.34-2.92,15.5-2.2,8.51-5.36,16.56-9.25,24.39-.2.18-1.03.56-.97.79s.2.94.15.67l8.83-6.66c-1.99,4.85-7.2,5.65-9.99,9.15l-9.33,11.66c-11.9,14.87-34.37,29.11-33.93,28.67Z"/>
      <path class="cls-1" d="M760.17,410.7c1.44-.36,3.22-.94,4.65-1.38l.56-2.87c1.03,1.93,2.43,4.99,3.15,6.77.33.76,3.13.89,3.43.14l1.92-6.76.81,2.86c4.17-.3,5.46,5.49,5.45.45v-2.52s1.29,1.73,1.29,1.73c.29.39,1.83.23,2.09-.2l2.12-3.44c.74,1.25-.02,3.17-1.24,4.53l10.95,1.83c.86.14,2.49-.12,3.78-.32,1.26-.43.47.75-.27,1.16-16.3,4.04-38.79,3.14-54.82.38-1.29-.22-2.84-.93-3.64-1.44l5.89-.61,9.16-1-.46-3.33c1.43,1.69,2.87,4.6,5.19,4.02Z"/>
      <path class="cls-1" d="M794.61,407.7c.52.11-2.42-2.8,9.09,1.64,1.76.68,1.07,3.93.92,5.28l-.64,5.94c-1.55,14.41-4.26,28.28-7.82,42.37-.21.84-1.21,2.9-2.15,3.35-7.56,3.63-19.93,4.89-28.54,4.02l-5.76-.58c-3.83-.39-14.55-2.26-15.81-6.4-2.42-7.94-4.43-15.43-5.74-23.57l-2.22-13.8c-.19-1.17-2.1-16.19-.55-16.08,2.5-2.5,7.26-2.5,10.66-3.48.99-.15,2.12.18,1.22.72l-11.21,2.8c.02,2.9-.08,5.14.19,7.61l.7,6.32c1.45,13.17,4.04,25.79,7.87,38.47.36,1.21,1.53,2.81,2.62,3.17,5.21,1.75,10.12,3.05,15.61,3.5,9.68.79,22.34.52,31.21-4.09,3.96-13.79,6.55-27.28,8.21-41.47l.76-6.46c.22-1.9.57-4.88.17-6.57l-7.39-2.37c-.33-.11-1.15-.26-1.42-.32Z"/>
      <rect class="cls-1" x="779.44" y="115.69" width="1.27" height="154.78"/>
      <path class="cls-1" d="M74.14,176.67c-.16,2.8,3.85,4.76,5.83,4.92l1.68.13c3.52.28-4.07,4.6-9.58-4.68-2.48-.56-5.75-1.45-7.85-.56l-11.97,5.05c1.25-2.44,3.33-2.72,5.3-3.92l-5.04.24c-.25.01-.94-.19-1-.36-.79-2.24,10.61-16.59,12.86-19.27,11.58-13.79,29.46-33.64,45.7-40.08.25-.1.58.89.33,1l-1.14.55c-8.82,4.25-16.02,10.09-23.15,16.95-11.27,10.86-21.27,22.37-30.36,35.1-.98,1.37-1.7,2.88-2.58,4.68,3.42-.44,7.15-.38,10.55-1.31l18.36-5,1.27-.35c.27-.07.33,1.17.07,1.25l-4.4,1.35c-1.62.5-4.78,2.3-4.9,4.28Z"/>
      <rect class="cls-1" x="875.32" y="399.66" width="1.62" height="147.69" transform="translate(283.52 1273.89) rotate(-81.87)"/>
      <path class="cls-1" d="M115.18,91.34c-3.06-2.58-4.71-10.55-1.75-11.13s4.4,3.51,5.56,6.14c2.59-3.72,5.54-7.55,7.63-11.63l6.55-12.83c.59-1.16,1.35-2,2.74-2.76-.78,4.43-3.99,7.3-4.89,10.9,12.93-5.3,23.94-13.18,33.33-23.36,1.62-1.76,2.79-3.67,4.79-4.74-1.24,1.94-2.29,3.52-3.47,4.74l-6.98,7.22c-4.51,4.67-9.96,8.61-15.73,11.58l-13.49,6.93c-6.81,11.99-15.2,23.39-25.05,32.37-.21.19-1.39-.7-1.16-.79.25-.09,1.17-.53,1.39-.78l10.51-11.87ZM118.16,87.34l-2.7-5.17c-.18-.35-1.67-.77-1.83-.41-1.34,3.12-.15,5.34,2.05,8.47l2.48-2.89Z"/>
      <path class="cls-1" d="M37.08,443.28l-28.38,4.12c-1.43-.32-1.15-.88.37-.97l80.66-11.86c13.42-1.97,26.17-4.09,39.32-5.14l-41.85,6.38-50.12,7.47Z"/>
      <path class="cls-1" d="M1.09,223.27l-1.09-.95c8.74-14.85,14.02-33.33,16.87-49.89l6.92-40.18c.14-.82.6-1.58,1.39-1.84l-6.93,40.86c-2.98,17.56-8.28,36.05-17.17,52.01Z"/>
      <rect class="cls-1" x="6.31" y="377.38" width="106.89" height="1.7" transform="translate(-38.78 8.2) rotate(-5.93)"/>
      <rect class="cls-1" x="6.86" y="402.41" width="122.15" height="1.41" transform="translate(-44.12 9.97) rotate(-6.34)"/>
      <path class="cls-1" d="M8.61,263.27c-.15.51-1.51.95-1.4.63.09-.26.37-1,.45-1.27l2.54-8.95,5.13-17.11c2.94-9.81,6.1-19.2,10.4-28.51,4.39-9.52,11.11-18.56,20.65-23.55-12.91,11.72-18.85,19.19-24.37,35.81l-6.85,20.63-6.54,22.32Z"/>
      <path class="cls-1" d="M746.03,190.19l-14.99.05c-1.85,0-3.81,2.05-5.6-.53l8.14-.14c2.54-.04,4.62-.22,7.41-.48l.06-21.18-15.86-.24,10.12-.68c4.32-.29,8.48-.39,12.93-.39,5.09,0,11.23-1.23,17.86-.42-1.43.37-3.68.99-5.1,1.01l-14.79.16c-1.19.01-2.74.39-4.17.69l.04,20.9,18.97.23-8.98.64c-1.85.13-3.85.36-6.05.37Z"/>
      <path class="cls-1" d="M161.68,104.19c-1.18-1.3-1.99-4.94-.47-5.65l5.32-2.47c-4.78-.77-21.69,2.7-25.88,3.98l-6.87,2.09c-3.21.98-6.1,2.56-9.55,3.19,6.64-4.19,14.17-5.84,21.73-7.71l5.85-1.45-1.93-3.59c1.86.68,2.51,1.56,3.57,3.23l4.21-.44,5.75-.6c4.07-.42,7.84-.55,12.16-.69-.81,1.31-2.39.99-3.77,1.45l-7.7,2.6c2.74,1.37,10.27,6.03,8.7,10.4-3.98.48-8.11-1.12-11.07-4.36ZM172.13,107.32c-1.91-4.98-5.83-7.67-10.74-8.26-.63,5.49,7.31,9.23,10.74,8.26Z"/>
      <path class="cls-1" d="M754.65,391.04l-2.32-.11c-2.99-.14-5.19-.4-7.71-2.19l-4.72-3.35-3.66-1.7c-1.64-.76-4.95-.1-6,1.06-.41.45.68,2.34,1.3,2.52l8.67,2.39-2.9.08c-3.35.23-10.01-2.12-8.35-5.47,1.19-2.4,7.68-2.08,9.85-.58-.21-1.36-.17-3.19.58-3.76.94-.71,2.51-.42,3.12.34l-2.92,1.23c2.35,6.09,6.68,6.32,6.37,5.87.22.32.77,1.36,1.08,1.62,1.01.85,3.94.63,5.08.21l-1.46-4.83c-.31-1.04,1.4-3.56,2.57-3.02,2.78,1.26,6.12,7.13,3.37,6.19.03-1.85-2.04-5.01-3.92-5-1.84,2.39-.04,5.37,1.96,8.52Z"/>
      <path class="cls-1" d="M208.68,117.7c2.77,1.07,6.46,2.74,9.41,3.33,3.14-3.77-5.63-11.25-9.35-12.83,1.77-.4,15.08-2.03,12.2-5.13s-8.07-3.79-12.46-3.39c3.62-3.34,15.88,1.42,14.08,4.72-1.32,2.41-6.59,3.91-10.24,4.61,4.12,1.95,7.62,7.16,7.7,11.61.06,3.47-10.38-.22-11.33-2.92Z"/>
      <path class="cls-1" d="M800.25,338.13c-.75-4.14,4.63-4.66,5.85-6.94.28-.52-.13-2.34-.71-2.38l-3.82-.28,4.65-4.94c.5-.53.32-2.87-.18-3.05-3.16.11-6.74,5.68-7.72,4.24l1.73-4.74c.14-.38.08-1.32-.17-1.59-.33-.35-1.21-.02-2.47.43-.12.92-.44.49-.88-.94.69-.58,3.41-1.35,4.44-.67.79.52.46,3.05.38,4.06,1.47-1.15,4.75-3.11,6.09-1.31,1.78,2.4-.84,5.39-2.46,7.09,4.34,2.55,1.11,3.82,2.7,10.39-.6.45-2.32,1.43-2.79,1.64l1.1-5.35c-2.8.56-3.46,1.95-5.73,4.36Z"/>
      <path class="cls-1" d="M189.83,13.63c-4.47-.75-6.85,1.86-9.72,2.48-2.59.56,4.81-5.73,4.95-11.76.02-.9-.38-2.42-.91-2.73-3.33-1.92-8.99,3.64-10.11,7.96.12,1.68-.95,1.04-1.29-.03,1.27-5.13,5.24-8.61,10.37-9.5,5.5-.96,2.73,11.01-.6,13.48,2.48-.84,8.37-2.43,9.92.33s-2.12,8.08-5.28,7.65l4.18-4.63c.68-.75-.12-3.03-1.51-3.26Z"/>
      <path class="cls-1" d="M803.79,346.01l-3.37,3.46c-.59-1.79,1.72-4.89,3.75-4.17,1.85.65,1.48,4.23,1.01,6.27l4.99-2.14c.77-.33,1.91-1.91,1.73-2.83s-1.65-1.66-3.39-2.56l3.68-2.73c1.2-.89,3.02-3.23,2.34-4.76-.5-.72-2.6-.23-4.07-.14.34-.65,1.57-1.51,2.51-1.79.88-.26,3.08.79,3.13,1.78.17,3.19-2.49,5.6-4.8,7.26,3.53,3.94.96,4.45,1.06,6.39.13,2.58-.39,6.43-3.96,6.64l2.72-3.96c.13-.19.16-1.41-.05-1.5-.32-.13-1.36-.39-1.66-.22l-5.15,2.85c-4.04,2.39,1.76-4.05-.47-7.87Z"/>
      <path class="cls-1" d="M797.48,400.74c1.33-.36,1.6-2.97,1.83-4.41,1.98,1.69,5.73,2.88,7.29.87,0-2.73-.75-1.13-2.5-5.42-.68-1.66,5,2.6,6.94-.56-.39-1.87-3.23-3.46-5.37-4.97,2.21-1.15,8.15-1.75,8.2-5.16,0-.37-1.05-1.09-1.39-1.06l-3.99.3c1.29-2.3,4.27-2.07,5.99-.79,3.31,2.46-3.43,6.6-5.51,7.48,1.83.66,4.29,3.72,2.55,5.6-.86.95-3.77,1-5.2.89l1.71,2.29c.51.69-.49,3.09-1.31,3.31-2.04.54-4.41.16-6.38-.37-.13.34-.9,2.08-1.47,2.54-1.41,1.13-5.37.07-5.1-2.31,1,.57,2.92,1.96,3.71,1.74Z"/>
      <path class="cls-1" d="M158.2,70.2c-10,4.09-16.93,11.4-25.14,17.94,8.59-12.9,31.27-23.39,45.26-25.65-3.63,2.39-7.58,2.59-11.26,4.09l-8.86,3.62Z"/>
      <path class="cls-1" d="M104.38,192.57c3.36.87,5.86,1.09,9.05.53.78-.14,1.32-2.23.85-2.93-2.58-3.81-6.31-5-10.57-6.76,3.44-.53,6.46-.81,9.05-2.23.64-.35.76-2.69.19-3.22-3.52-3.28-6.9-3.48-11.2-3.67,4.07-1.71,8.32-.34,11.54,2.22,1.71,1.36,1.82,4.43-.22,5.58l-3.71,2.1c2.68,1.45,9.06,6.69,5.47,9.07-3.15,2.08-7,1.88-10.46.19-.99-.61-1.53-1.51,0-.87Z"/>
      <path class="cls-1" d="M186.2,128c-7.56-5.04-4.42-5.78-4.14-5.31l.71,1.19c1.26,2.13,5.87,4.15,6.39,2.77l.63-1.65c2.7-7.03-.27-4.33,1.45-11.13l4.91,6.92c.65.91,3.13,1.65,4.11,1.66,1.86-2.37,1.35-5.82.97-9.04,2.59,2.38,1.71,5.68.99,8.68-.33,1.38-2.64,2.29-3.93,1.48-2.47-1.55-4.4-3.56-5.97-5.74-.27,2.76-.61,5.55-1.26,8.3-.47,1.97-3.21,2.96-4.87,1.86Z"/>
      <path class="cls-1" d="M738.05,341.39c-1.05-.76-3.17-.87-4.56-.84-.44,4.02,5.15,7.17,8.19,7.67l1.45.24c.27.04-.07,1.07-.34,1.03l-1.2-.17c-7.1-.98-11.17-7.54-8.43-9.57.49-.36,1.99-.54,2.55-.32l4.76,1.89,2.25-1.96c-1.77-.71-2.77-4.02-1.71-5.22.36-.4,1.84-.7,2.34-.57s1.26,1.37,1.06,1.49l-2.25-.13c-.49-.03-.15,1.77.18,2.16l4.42,5.37-4.8-1.26,2.31,3.3.64.92c.2.29-1.21.02-1.53-.21l-5.33-3.83Z"/>
      <path class="cls-1" d="M41.64,350.12c3.75-1.85,5.26-5.19,4.49-6.79-1.18-2.46-7.33,2.38-9.34,3.62-1.73-2.64,8.95-11.31,4.57-16.94-.52-.66-2.44.8-3.09,1.92-.49.89-1.31-.39-.9-.96,1.11-1.52,3.26-2.91,4.61-2.21,3.64,1.9-.56,11.8-2.56,14.65l4.8-1.81c.7-.26,2.59.19,2.93.82,2.14,3.94-4.2,9.75-8.18,9.38.69-.54,1.7-1.2,2.68-1.68Z"/>
      <path class="cls-1" d="M788.13,294.49c-1.53,1.91-4.97,6.12-7.49,3.87,2.28-.76,5.18-2.45,5.65-4.12.21-.75-.72-2.73-1.22-3.03l-2.7.75c-.32.09-1.1-.17-1.41-.32-1.19-.57,6.7-6.6,3.85-10.97-1.12-1.72-4.28,4.17-4.69,3.9.23-2.42,2.49-6.04,5.24-5.18,3.29,1.03-.74,8.92-1.62,10.57,2.04-.07,3.47.9,3.74,2.91.6-.27,3.13-1.1,3.98-.59,1.28.76.68,4.1-.1,4.92l-.36-3.66c-.07-.75-2.41.38-2.88.97Z"/>
      <path class="cls-1" d="M232.07,31.59c.7-2.41,3.62-.08,7.8-2.9.46-.31.97-1.9.84-2.43-.16-.64-1.31-1.49-1.95-1.66l-3.48-.92c2.94-1.92,4.91-3.12,6.93-5.64.66-.82.21-2.99-.64-3.34-3.87-1.55-8.44,1.09-10.77,3.13-.19.08-1-.33-.85-.53,2.14-2.88,6.1-4.3,9.74-4.17,2.43.09,4.99,2.44,3.84,4.92-.88,1.88-2.98,3.81-4.45,5.22.93.59,2.51,1.68,2.86,2.53,1.37,3.39-5.69,6.57-9.86,5.79Z"/>
      <path class="cls-1" d="M795.94,312.16l4.98-7.29c.37-.54.13-2.48,0-3.45-2.59.16-7.5,5.49-7.59,4.69l-.14-1.21c-.16-1.44-.35-2.33-.88-3.93l-2.25,3.66c-.16.26-.53.99-.73.86-2.54-1.64,1.05-1.34,1-4.58l-.02-1.47c0-.42,1.69-.61,2-.32.92.87,2.04,3.41,2.19,4.54,1.78-1.07,4.67-4.02,7.06-2.65,2.77,1.6-1.4,7.13-2.07,8.61,1.05.33,2.67,1.49,2.87,2.58.17.91-1.09,2.75-1.73,2.65l.36-2.63c.08-.55-1.03-1.31-1.54-1.15l-3.49,1.08Z"/>
      <path class="cls-1" d="M129.97,337.25c.67,2.5-4.77,4.97-7.18,3.29l5.01-1.53c.28-.08.82-1.06.81-1.35-.06-2.2-5.51-1.93-8.17-1.2l-1.42.39c-2.97.82,5.75-6.06,3.3-9.45l-4.59,3.76c.04-2.22,3.02-5.24,5.4-4.66.97.77.9,3.53.48,4.72l4.26-.11c-1.55,1.71-4.18.58-6.19,3.49,2.02.37,7.44-.56,8.3,2.65Z"/>
      <path class="cls-1" d="M19.5,110.2c5.63-5.33,4.16-6.43,6.63-11.19,1.59,5.98-7.98,16.79-11.13,12.84-1.5-1.88-1.23-4.11-.81-6.33,1.03-5.51,3.77-9.83,8.68-11.94.24-.1.45.89.19,1.03-5.06,2.61-10.33,11.81-7.16,16.14.53.72,2.95.06,3.6-.55Z"/>
      <path class="cls-1" d="M738.83,324.07c-.66-.54-3.3-1.03-3.46-.23-.47,2.28,1.77,4.65,3.22,6.56-3.27-.37-6.47-7.4-3.58-8.29,1.6-.49,4.34.72,5.5,1.44l2.53-2.46-.31-5.55c-.02-.36.74-1.29,1.06-1.46,2.8-1.47,6.76,5.8,5.48,8.65-.92-2.93-2.07-5.94-4.6-7.89-2.01,3.51-.16,5.92,1.23,9.23l-3.7-1.33.08,4.13-3.44-2.81Z"/>
      <path class="cls-1" d="M102.9,322.4c.56-.53.78-2.95.21-3.42-2.4-1.97-3.56-.1-4.85-1.37l6.14-5.37c.99-.87,2.01-3.47,2.28-5.06-2.5-1.34-5.11,1.14-7.8,2.22.59-3.09,5.29-4.21,7.42-3.74,3.22.71-.96,8.89-4.64,10.9.93.64,2.06,1.42,2.67,2.01.69.68.33,3.33-.27,4.18-1.83,2.58-5.35,4.61-8.38,4.16,2.58-1.38,5.47-2.85,7.23-4.51Z"/>
      <path class="cls-1" d="M29.4,320.07c1.51-3.04,3.86-4.31,2.53-7.49-1.22-.63-9.57,6.85-8.63,3.85l2.09-6.68c.73-2.33.47-4.45-.79-6.94l-3.21,5.24c-1.18-1.69,1.68-7.18,3.87-6.19,1.66.75,1.83,5.35,1.43,6.98l-1.44,5.86,5.91-3.3c.72-.4,2.43.9,2.62,1.59-.44,3.35-1.56,5.74-4.38,7.09Z"/>
      <path class="cls-1" d="M87.54,193.07l.89-1c2.78,1.49,7.55,2.67,8.93.7,1.81-2.58-6.41-7.67-8.87-8.81,2.49-.72,5.46-.72,7.09-2.39,1.1-1.13-1.78-3.23-3.03-3.35l-4.91-.48c3.19-2.33,6.62-.18,8.78,1.58.63.51.65,2.91-.01,3.25l-3.89,2c2.72,1.76,7.32,5.54,6.02,8.73-1.15,2.82-6.93,1.5-11-.23Z"/>
      <path class="cls-1" d="M794.29,382.96l-.94-3.63c-.41-1.58,2.14.29,5.89.87.65.1,2.28-1.21,2.29-1.88,0-.78-.87-2.04-1.58-2.54l-2.52-1.76,6.42-4.34c.32-.21.8-2.11.41-2.12l-1.71-.04-1.23-.02c-.21,0-.31-.21-.21-.42.09-.19.89-1.01,1.11-.99l2.77.25c.79.07.89,2.76.34,3.41-1.28,1.56-3.56,3.22-5.33,4.42,2.14,1.22,4.03,3.97,1.96,6.13-1.53,1.61-4.49,1.23-6.67.43l.04,2.98c0,.37-1.28,1.05-1.6.87l-1.54-.83,2.09-.8Z"/>
      <path class="cls-1" d="M44.99,112.26c-3.17,2.38-7.85-7.13-7.56-9.92l-2.15,4.52c-1.11,2.34-3.12,4.9-5.78,5.45-1.54.31-3.12-2.18-2.3-3.68l2.04,2.77c1.66-.68,3.74-2.21,4.6-4.14l2.86-6.44c.12-.28.82-.94,1-1.13.27-.29.73.96.78,1.38,1.15,8.87,5.77,11.33,6.48,9.66l2.17-5.14c.88,1.79-.24,5.24-2.14,6.67Z"/>
      <path class="cls-1" d="M115.52,370.35l-1.3-.79c-.23-.14.17-1.23.4-1.09l1.02.64c2.39,1.51,4.88,2.78,7.71,2.34-.66-3.1-3.03-4.79-5.15-6.52-.8-2.34,7.17.32,10.2-5.46-.58-.77-2.65-1.55-3.63-1.49l-3.5.24c1.41-1.8,7.69-1.63,8.06.69.46,2.93-6.08,5.68-8.63,6.28,2.06,1.79,4.81,5.25,3.39,7.16s-6.47-.74-8.56-2.02Z"/>
      <path class="cls-1" d="M70.47,366.09c-1.76-.09-3.78-.16-4.75.36l-5.79,3.09c-.32.17-1.64.23-1.8-.05-.22-.37-.4-1.32-.3-1.78l.79-3.8-4.56-2.03,5-.12-2.99-2.43c1.05-.05,2.42-.02,3.11.29s1.07,2.35.95,3.11l-.9,5.61c3.23-.58,8.73-5.36,11.15-3.16,2.63,2.4-2.66,7.21-5.28,6.58,1.54-2.57,3.78-.64,5.4-5.67Z"/>
      <path class="cls-1" d="M32.13,343.64l-1.09.76c-2.04-4.03-4-7.23-7.9-9.17l-.83,2.81c-1.06-.56-1.46-3.81.21-3.99,1.56-.17,3.84,1.57,4.87,2.4l1-6.44c.07-.47,1.13-1.4,1.58-1.52.57-.16,2.07.48,2.31,1.11l1.9,4.85c-.45,1-1.62,1.46-1.37.1-.54-2.36-1.08-3.94-2.87-4.66-.97,2.55-1.73,6.15-.62,8.3l2.8,5.44Z"/>
      <path class="cls-1" d="M65.86,28c.51.31.21,1.03-.47,1.28l-6.59-7.21c.13-.52.88-1.4.93-1,.99.72,1.52,1.11,1.42,1.03-.23-2.75.76-10.11,3.7-9.39,3.68.9,5.42,7.87,4.93,11-1.01-1.28-2.36-9.62-5-9.64s-3.6,10.7,1.08,13.92Z"/>
      <path class="cls-1" d="M81.11,320.24c-1.36-1.27-3.6-.2-4.77.22l-1.31.47c-.27.1-.31-1.17-.11-1.38l3.57-3.78c2.32-2.45,3.77-5.11,2.67-8.87l-5.35,3.71c-.5-2.2,5.63-5.98,6.65-4.27,1.9,3.17-1.85,8.86-4.23,11.97.88-.09,3.29.04,3.96.79s.3,3.09-.3,3.83c-.73.89-2.44,1.86-3.3,1.53,1.17-1.35,3.38-3.42,2.53-4.22Z"/>
      <path class="cls-1" d="M809.11,372.2l-3.08-.09,5.39-1.87c2.78-.97-3.76-4.77-1.74-5.67,1.55-.7,7.28-3.1,6.39-5.3-.22-.53-1.45-.88-2.11-.97l-1.35-.17c-.17-.02-.32-.3-.16-.35l1.49-.52c.67-.24,2.48.33,3.01.8,2.49,2.2-3.07,6.58-5.9,7.42,1.17,1.08,2.6,3.33,2.05,4.56-.44.99-.86,1.97-.57,2.41.96,1.46.65,4.57-1.17,4.87.36-1.53.72-2.75.68-3.48-.05-.83-2-1.6-2.94-1.63Z"/>
      <path class="cls-1" d="M760.69,325.09c1.77.85,3.11.49,4.54,0l1.18-.4c2.41-.83-3.25,2.77-1.74,6.17-.29,0-1.04,0-1.1-.28s-.17-1.17-.16-1.5l.02-1.92c0-.21-3.6-.56-3.51-1.22l.32-2.29c-1.54-.37-3.92-1.38-4.78-2.99-.26-.48-.26-1.92-.04-2.38.28-.57,1.74-1.42,2.4-1.36l5.44.51c.61.25,1.47,1.81.16,1.11-1.91-.32-4.68-.48-6.01-.25-.64.11-.7,2.24-.22,2.66,1.41,1.24,4.18,1.81,6.44,1.72,1.26.41,1.83.94.05.78l-2.96,1.63Z"/>
      <path class="cls-1" d="M70.4,347.07c-.08-.49-1.96-.18-2.29.19l-2.97,3.33c-.23.26-1.21.78-1.32.49-1.11-2.99,1.53-8.72-1.58-11.26-.48-.39-2.15.68-2.32,1.39l-1.43,6.28c-1.12-2.72.01-7.35,2.9-8.83.88-.43,2.93,1.7,3.02,2.74l.64,7.24,2.33-2.3c.69-.68,3.23-1.27,3.75-.41,1.76,2.4-1.55,8.8-3.12,7.72-.19-.13-.41-.3-.24-.44l1.13-.92c.99-.81,1.64-3.79,1.48-5.23Z"/>
      <path class="cls-1" d="M88.58,294.47c.89-5.16,10.92-13.76,7.05-19.56-2.47,1.28-4.14,3.4-5.58,5.69-.81-1.67,3.92-7.59,6.15-6.15,4.14,2.68-1.86,11.98-3.22,14.72h2.5s-6.9,5.3-6.9,5.3Z"/>
      <path class="cls-1" d="M80.47,191.38l-.75-1.42c-.12-.24,1-.65,1.12-.41l.55,1.12c2.12,4.36,1.77,12.39-1.43,13.55-3.71,1.35-11.24-11.75-6.26-16.35-.91,5.46.1,11.03,3.94,14.54.5.46,2.34.7,2.75.09,1.61-2.38,1.79-7.84.08-11.12Z"/>
      <path class="cls-1" d="M116.78,130.16c3.76,1.09,8.57-7.06,7.75-10.49.08-.32.92-1.39,1.01-1.42,1.79,5.64-5.66,15.97-9.47,13.31-2.8-1.96-1.05-14.02,4.03-16.59-1.97,3.55-3.61,6.19-4.39,10.01-.27,1.35-.21,4.82,1.06,5.18Z"/>
      <path class="cls-1" d="M131.7,58.45c-.58-4.46.39-10.83-2.93-15.14-4.12,5.48-3.67,10.63.04,15.85-4.58-1.35-5.13-11.49-1.44-16.26.45-.58,2.58-.5,2.91.13.9,1.72,1.82,4.38,2,6.27l.62,6.6c.06.67-.81,2.27-1.21,2.56Z"/>
      <path class="cls-1" d="M157.69,434.34c.56-1.12,2.28-1.48,3.69-1.5l32.63-3.87c-1.7,1.15-3.63,1.37-5.69,1.62l-30.63,3.74Z"/>
      <path class="cls-1" d="M104.14,366.9c.69-.98-1.89-2.97-2.9-3.59l-1.36-.85c-1.36-.84,4.08-1.35,6.79-5,.21-.29.47-1.55.17-1.64s-1.17-.28-1.53-.27l-4.49.08c1.72-1.66,7.25-2.14,7.54.09.41,3.11-4.55,5.86-6.79,6.67,1.28.76,2.46,1.48,3.26,2.02.75.51.97,3.32.15,3.91-1.95,1.4-6.04.75-7.76-.93,2.54.05,5.41,1.67,6.94-.51Z"/>
      <path class="cls-1" d="M790.72,399.57l-3.15-2.52,3.17-.55c-.75-2.19-4.23-2.99-3.63-3.44,4.01-2.96,2.32-.32,5.59-3.9l-3.06-1.22c.59-.83,3.36-.77,3.7.5.68,2.53-1.93,3.81-3.71,4.83.91,1.02,2.89,2.86,2.67,3.96l-.69,3.41c-.52,2.53-7.99,1.44-7.11-.71,1.99.92,4.39,1.92,6.22-.36Z"/>
      <path class="cls-1" d="M787.73,358.11c-4.39,2.7,1.21,9.11-.25,9.92l-3.04-1.03-.34,4.48c-1.45-1.1-1.39-4.26-.58-5.21.33-.39,1.77-.96,1.83-.89.07-2.07-1.3-7.84,1.5-8.55.53-.14,2.01.34,2.28.81l1.87,3.38,1.9-.49c.34-.09,1.08.41,1.18.75s-.33,1.29-.67,1.3c-.41,0-1.3-.3-1.42-.02l-.64,1.44-.51,1.13c-.81,1.79-.72-5.78-3.11-7.02Z"/>
      <path class="cls-1" d="M755.54,368.56c-.52.31-1.2,1.84-.84,2.14s1.21.65,1.77.64l4.06-.02c-1.06,1.56-5.53,2.04-6.86.24-.57-.77-.06-2.92.49-3.69l-4.52-2.04c-1.37-.62-1.89-3.79-.38-4.43,2.11-.9,4.79-.35,6.76.55l1.22.56c.24.11-.6,1.06-.83.94-1.53-.79-5.28-2.93-6.71-.31-.59,1.08,2.16,2.71,3.38,2.92l5.14.9-2.66,1.61Z"/>
      <path class="cls-1" d="M83.93,32.83c3.01-3.01,5.9-6.64,6.87-10.94-3.29-2.43-10.61,4.44-13.88,6.7.1-3.39,11.8-10.2,13.86-8.18,2.4,2.36-1.78,9.79-5.61,12.98-.22.18-1.5-.29-1.23-.56Z"/>
      <path class="cls-1" d="M93.35,168.89c4.87-1.44,9.82-4.72,11.83-9.59-.41-.48-1.75-1.45-2.27-1.74-5.28.04-9.12,1.99-13.03,5.25,2.91-5.62,10.36-7.06,15.93-5.02.14,1.23-.17,3.09-.52,4.24-2.88,3.79-6.42,7.25-11.94,6.88Z"/>
      <path class="cls-1" d="M783.1,339.26c2.99.87,4.79,1.29,6.71.75.8-.22,1.11-2.81.44-3.22l-3.18-1.97c-4.03-2.5,3.25-1.18,5.87-8.23l-2.53-1.57c1.09-.27,2.29-.37,2.69.05,2.76,2.81-2.32,7.26-5.4,8.78,1.5.49,3.54,1.53,4.15,3.26.31.9.08,2.44-.33,3.09s-2.38,1.57-3.19,1.38l-5.46-1.29c.14-.66.23-1.03.23-1.02Z"/>
      <path class="cls-1" d="M138.06,57.82c4.56-3.29,7.56-7.64,6.98-12.95-3.35,2.16-4.89,5.2-7.01,8.55-1.83-2.24,8-14.22,8.42-8.39.34,4.62-3.3,12.55-8.65,13.71-.21.05.07-.78.26-.92Z"/>
      <path class="cls-1" d="M713.41,139.28l-3.55.6-12.01-.14c2.12-.4,4.51-.94,6.43-.97l15.11-.27,3.29-.6,11.56.29c-3.44,1.28-20.39,1.02-20.84,1.09Z"/>
      <path class="cls-1" d="M60.78,299.5c-2.61.24-3.57,2.1-6.2,3.74-.25.16-.19-1.21,0-1.43l3.48-4.01c1.59-1.84,2.52-4.15,3.02-6.54l-3.21-.1c.53-.57,1.82-1.48,2.6-1.75s2.18,1.93,1.87,2.68l-2.57,6.12,2.35.45c1.91.37-.14,6.32-4.07,6.87l2.67-3.08c.46-.53.75-2.99.07-2.93Z"/>
      <path class="cls-1" d="M78.56,350.93c-1.41-1.93,2.7-3.52,5.66-11.18.24-.62-.45-2.91-1.15-2.64-1.56.59-3.65,3.19-5.01,4.81-1.43-2.45,6.29-9.07,6.83-4.95.45,3.47-1.23,8.06-4.04,10.93,1.55-.38,2.29-.63,3.63-.55l-5.92,3.58Z"/>
      <path class="cls-1" d="M37.22,42.14c-1.68,1.3-1.4,3.78-.42,5.26,1.71,2.57,4.61,2.82,7.87,3.98-3.91,1.44-8.15-.83-9.45-4.6-.57-1.65.05-4.25,1.17-5.32,1.04-.99,3.47-2.03,5.06-1.51,2.99.97,6.88,3.62,5.79,6.21-1.15-1.78-2.35-3.59-3.55-4.32-1.76-1.08-4.78-.99-6.47.32Z"/>
      <path class="cls-1" d="M149.76,87.16c.34-.37.76-1.89.36-2.09-5.69-2.78-10.51,4.69-12.04,6.12-.13.12-.32-1.02-.2-1.26,3.08-6.39,12.4-8.32,13.63-5.42,1.09,2.58-4.5,8.59-6.92,8.3l5.18-5.64Z"/>
      <path class="cls-1" d="M168.72,32.78l-1.5-1.38c-.99,1.24-2.49,3.02-4.18,4.53-1.03.93-3.9-.43-4.25-1.58l-2.16-7.23,2.04-5.85c-.59,4.78-.86,9.46,1.66,13.27.4.6,2.5.79,2.88.19l3.61-5.76.57-.96c.11-.19,1.04.45,1.05.68l.27,4.08Z"/>
      <path class="cls-1" d="M247.32,58.44c-4.57-.98-6.93-3.51-9.16-7.11l1.19-.28c1.7,2.53,6.22,6.81,8.89,6.04,3.18-.92-1.24-9.77-4.45-12.1l1.04-.8c2.09,2.27,4.11,4.51,4.96,7.38.51,1.72.64,7.54-2.47,6.87Z"/>
      <path class="cls-1" d="M7.92,314.25c-2.74,1.75-.96,6-.22,7.83.18.44-1.07,1.62-1.49,1.39l-2.52-1.43,2.29-.37c-.65-2.11-1.5-7.86,1.08-8.48,4.03-.97,7.15,7.35,6.47,11.47l-1.33-1.19c.45-3.72-1.08-6.94-4.28-9.22Z"/>
      <path class="cls-1" d="M63.71,79.03c.37,2.83-4.2,8.67-7.7,6.48l-.28,4.09c-.16,2.4-.32,4.37-1.18,6.46-.45-4.66.01-8.56.54-12.99l.44-3.65c.03-.27,1.12-1.04,1.13-.77.05,2.07-.87,5.31,1.1,5.9,2.5.76,4.24-5.14,5.95-5.53Z"/>
      <path class="cls-1" d="M137.61,132.95l-1.68-1.1c-.43-.28.71-2.17,1.04-1.78l4.36,5.07c1.35,1.58,3.28,2.42,5.84,3.34.59-3.99.01-6.89-.96-11.25,1.93,1.63,3.77,9.07,1.61,11.5-2.41,2.73-8.47-3.49-10.2-5.78Z"/>
      <path class="cls-1" d="M732.34,378.67l2.49,1.8c-1.27.55-3.45-.5-3.7-1.84-.16-.84,1.37-2.49,2.01-2.98-2.03-.89-7.57-4.11-6.61-6.66.18-.48,1.19-1.33,1.7-1.48,2.36-.72,5.74.17,6.42,2.38-2.27-1.26-5.97-2.14-6.74-.27,1.15,3.8,5.46,4.44,9.09,5.67-1.65.96-4.29,1.9-4.66,3.4Z"/>
      <path class="cls-1" d="M776.39,397.26c.2-.28-.44-2.48-.7-2.31-.36.23-.83.53-1.3.94l-3.45,2.98c.57-2.84,1.82-4.23-.02-6.71-.86,1.9-1.05,3.88-1.31,6.31-1.84-1.76-1.22-6.05,1.24-7.34.97-.51,2.32,2.27,2.4,3.62l2.39-.87c.85-.31,2.26,1.73,2.1,2.58-.49,2.61-2.28,4.59-4.61,5.27l3.27-4.47Z"/>
      <path class="cls-1" d="M250.85,46.47c-.34-.08-1.28-1.25-1-1.24,3.47.14,4.72,1.73,9.42.9.49-.09,1.58-1.07,1.57-1.56-.04-3.41-5.88-5.54-9-7.02,4.19-1.37,12.99,5.76,9.91,8.33-1.98,1.65-5.18,1.98-7.57,1.4l-3.33-.8Z"/>
      <path class="cls-1" d="M80.19,78.15c.8-3.75-.19-6.68-1.02-10.42,2.86,2.52,3.02,6.58,2.23,10.06-.19.85-2.19,1.62-2.87,1.25-5.71-3.15-7.57-10.64-4.02-11.14-1.33,4.45.47,9.18,5.67,10.26Z"/>
      <path class="cls-1" d="M194.7,95.83l7.03-4.32c.72-.44.73-2.84,0-3.2-5.85-2.91-7.9-.48-12.56.25,3.51-4.08,13.59-3.24,14.48.8.63,2.86-5.7,7.14-8.94,6.47Z"/>
      <path class="cls-1" d="M789.24,325.43c.14,1.24-6.09,4.04-5.81,2.47.46-2.52,4.05-7.22,2.69-11.04-.12-.34-1.07-.64-1.35-.38l-2.6,2.44c-.92-2.07,2.06-4.06,3.52-4.04,3.85.05.49,10.2.06,11.18l3.49-.64Z"/>
      <path class="cls-1" d="M137.12,137.53c.06,1.54.65,6.69-1.75,8.03-4.71,2.64-11.01-13.08-7.26-14.96-.41,4.87,1.26,9.99,4.53,13.04.39.37,2.45.9,2.59.4l1.9-6.51Z"/>
      <path class="cls-1" d="M759.2,397.52c2.3,1.09-3,6.59-6.82,4.58-.41-.22-1.01-1.48-1.45-1.38l-2.04.46c-.55.12-1.1.22-1.43.27-.44.06-1.27-1.26-1.2-1.44,1.73-.03,3.47-.09,4.26-.83l4.41-4.17.03,1.83c-1.14.84-2.61,2.89-2.2,3.91,2.65,1.29,4.81-.71,6.45-3.22Z"/>
      <path class="cls-1" d="M199.58,71.27c1.82-3.3,2.52-6.08,3.02-9.76.58,2.55.39,9.54-2.86,10.9-.69.29-2.36-.43-2.87-1.02-4.27-4.95-2.93-11.7-2.69-11.74.28-.05,1.07-.02.98.24-1.07,3.28.33,9.92,4.41,11.37Z"/>
      <path class="cls-1" d="M115.83,357.81c2.41-2.23,6.83-6.34,5.59-8.86-4.03.1-5.67,3.58-7.89,6.47-.95-2.72,5.77-9.19,8.96-7.52.41.21.62,1.42.5,2.05-1.34,7.03-10.43,10.89-7.16,7.86Z"/>
      <path class="cls-1" d="M181.56,37.83c.59-1.22,1.47-1.81,1.3-.08.36,3.19,4.31,8.52,6.46,6.95,1-.73,2.18-3.42,1.96-4.63l-.93-5.02c2.73,2.84,2.51,6.39,1.16,9.32-.9,1.94-3.39,2.66-5.1,1.18-2.22-1.92-3.74-4.68-4.85-7.71Z"/>
      <path class="cls-1" d="M763.97,347.11c-4.25,2.14-3.03,8.91-3.99,8.79l-1.15-.14c-.4-.05-.29-1.09-.13-1.48,2.03-4.91,1.05-4.76,3.74-7.94.47-.56,2.77,0,2.99.78.96,3.45,1.01,7.97-1.82,10.64-.04-3.67,2.7-3.71.35-10.66Z"/>
      <path class="cls-1" d="M51.77,265.44c-.6-.61-2.56,1.48-2.77,2.4l-1.47,6.5-.22-4.03c-.14-2.62,2.41-5.97,4.14-6.28,2.7-.48,3.92,7.58,3.66,10.51-3.23,4.64.72-4.93-3.35-9.1Z"/>
      <path class="cls-1" d="M78.39,10.16c-3.51-.79-4.37,5.6-6.12,6.27-.7-2.19,3.83-8.62,6.02-7.83.71.25,1.41,1.28,2.07,2.29.15,3.56.62,7.32-2.11,10.24.53-3.55,1.95-7.55.14-10.97Z"/>
      <path class="cls-1" d="M95.4,311.62l-2.3.91c1.27-2.93,2.47-4.98,1.72-8.26-2.99,1.33-3.89,3.24-5.56,5.87l-.88-3.4c1.02-.45,2.44-1.12,3.32-2.09s3.38-1.75,4.09-.51c1.16,2.05.27,4-.26,6.06-.09.35,2.05.6,1.64,1.29l-.44.72c-.18.3-.85-.23-1.33-.59Z"/>
      <path class="cls-1" d="M168.51,119.89c1.4.84-1.77,7.07-3.07,8.81-.54.73-3.04,1.28-3.59.63-.75-.87-2.22-3.08-2.25-4.16l-.19-6.8c.7-.03,1.41-.13,1.33.14l-.45,1.52c-.56,1.9.59,5.89,1.69,7.73.38.64,2.33.2,2.99-.16l3.53-7.71Z"/>
      <path class="cls-1" d="M90.63,361.95c-6.36.48-4.39,4.82-7.27,3.84-.57-.2,2.33-3.28.23-5.43-2.14,2.36-3.02,4.43-4.71,7.3-1.33-2.01,4.4-10.57,5.73-8.16l1.5,2.72,3.66-1.34c.12.14,1.03,1.27.86,1.07Z"/>
      <path class="cls-1" d="M197.49,28.14c2.66-2.2,6.37-3.61,5.82-7.48-.26-1.79-3.89-1.69-5.27-1.01-1.09.53-1.87.82-2.92,1.13,1.26-2.56,6.9-3.84,9.07-1,.74.98.31,3.19-.4,4.33l-2.09,3.35c-.55.8-2.88,1.31-4.2.69Z"/>
      <path class="cls-1" d="M140.52,113.07c1.86,3.78-7.81,3.6-10.78,0-.14.07.57-.31.93-.51,2.13,1.81,6.52,3.05,8.41,1.38-.09-3.57-4.32-4.88-7.23-5.8,1.24-2.14,7.14,1.79,8.68,4.93Z"/>
      <path class="cls-1" d="M223.71,22.48c-.19-1.69-2.98-2.02-4.06-1.33-2.6,1.66-3.25,4.18-3.78,7.32-2.2-.9.29-8.61,4.88-8.78,3.33-.12,5.07,3.61,4.21,6.62-.33,1.16-.98,2.26-2.05,2.96.45-2.28,1.08-4.19.79-6.8Z"/>
      <path class="cls-1" d="M56.16,288.14c.85-1.14,8.24-13.49,4.19-12.6-1.26.27-3.12,1.76-4.42,3.46-.27,1.14-.97-.38-.77-.9,1.91-1.57,3.5-3.91,5.7-3.56,4.25.68-1.45,13.44-4.7,13.6Z"/>
      <path class="cls-1" d="M732.32,444.42c-1.73.75-3.39.39-5.17.12l-4.67-.52-16.51-2.29c1.61-.68,3.16-.46,4.91-.22l21.43,2.91Z"/>
      <path class="cls-1" d="M13.14,290.21l-.39-8.27c-.09-1.91-1.71-4.63-3.21-6.15-.57.51-1.37,1.58-2.37,2.87-.07-.15.07-2.12.24-2.92.16-.72,1.88-1.41,2.58-1.07,3.76,1.79,5.72,14.25,3.13,15.53Z"/>
      <path class="cls-1" d="M3.42,283.45l.94,6.15c-2.62-2.29-2.74-8.8-1.15-7.68.88.62,2.52,1.89,3.34,2.54l.62-3.07,2.44,8-1.32-.19c-1.2-2.41-2.3-4.23-4.87-5.75Z"/>
      <path class="cls-1" d="M772.44,307.25c.38-1.11-.48-3.57-1.06-4.62-3.5,2.46-3.21,5.59-3.64,9.33-2.29-.86-.16-8.11,3.24-10.12,2.83-1.67,3.29,10.78-.9,12.26l2.36-6.85Z"/>
      <path class="cls-1" d="M90.43,298.72l-.02-1.06c4.04-.9,10.32-4.14,10.68-8.51l-3.24-.58c.57-.56,1.98-1.22,2.82-1.22,1.26,0,2.02,2.06,1.49,3.26-1.29,2.96-3.63,5.36-6.57,6.36l-5.16,1.74Z"/>
      <path class="cls-1" d="M131.32,324.42c-.18.14-1.3.04-1.19-.18.99-2.05,3.72-5.09,2.42-8.29-.98-2.42-3.9,3.75-4.56,3.06-.04-1.97,2.41-4.76,4.5-4.28s1.68,4,1.31,5.51l.98.41c.29.12-.02,1.13-.26,1.32l-3.2,2.45Z"/>
      <path class="cls-1" d="M761.72,299.52c-.09-3.29-.45-5.6-2.76-7.89-1.52,2.07-1.5,4.13-.79,6.78,1.39.64.74.61-.79.36-1.25-2.44-1.45-7.43,1.37-8.13,3.06-.75,3.85,5.96,4.39,8.73-.61,1.08-1.61,1.55-1.43.15Z"/>
      <path class="cls-1" d="M17.94,301.06c1.15-2.43,6.3-10.52,2.6-12.68l-4.9,3.13c.33-1.08,3.41-5.01,5.84-4.48,3.12.68.84,12.34-3.53,14.03Z"/>
      <path class="cls-1" d="M41.06,275.74c-2.31,3.85.49,6.36,2.64,9.88-3.29-1.41-4.87-4.93-4.59-8.83.08-1.04,2.34-2.25,3.19-1.75,2.71,1.59,5.17,3.2,5.18,6.41-2.02-2.27-3.28-4-6.42-5.72Z"/>
      <path class="cls-1" d="M873.06,507.89l-7.07.21c-.83.03-2.85-.56-3.77-.58l-13.87-.28c2.72-2.39,5.56-.76,8.22-.54l10.17.22c1.73.04,3.73.51,6.33.97Z"/>
      <path class="cls-1" d="M740.7,363.91l-5.19-5.34c-1.66,3.32.1,5.32,1.67,7.65l.51.75c.1.14-.08.66-.26.65-2.39-.15-5.19-6.89-3.2-9.66.3-.42,2.13-.35,2.51.05l4.68,4.93c-.35.48-1.13,1.53-.72.97Z"/>
      <path class="cls-1" d="M84.25,294.57c.23-3.63.29-6.57-1.86-9.16-1.64,1.59-1.99,3.23-2.08,5.78.19,1.49-.72,1.06-1.39-.16.39-2.38,1.24-6.45,3.26-6.51,3.76-.12,4.47,13.45,2.06,10.06Z"/>
      <path class="cls-1" d="M743.83,397.06l4.48-2.32c1.47,2.12-11.37,7.35-11.56,1.9-.09-2.57,3.2-4.89,5.08-3.6-1.56.84-4.24,2.52-3.64,3.74.98,1.97,4.11,1.07,5.63.28Z"/>
      <path class="cls-1" d="M101.8,68.43c-.7-2,.54-8.91-2.68-10.06-.53-.19-1.76.8-1.99,1.37l-1.85,4.43c-.53-2.18,1.14-6.7,3.36-7.09,4.06-.71,5.43,10.72,3.16,11.35Z"/>
      <path class="cls-1" d="M141.12,319.37c-.4-.2-2.1.02-2.99.36l-1.28.48c-.26.1-.44-1.18-.18-1.27l3.28-1.18c.37-.13,1.43.05,1.76.22,3.03,1.58-3.64,12.15-8.78,10.8,3.81-2.69,7.42-3.66,8.19-9.42Z"/>
      <path class="cls-1" d="M751.74,350.27c-1.15,4.56,2.46,5.96,4.17,8.87.15.25-1.12.09-1.38-.12-4.18-3.38-5.84-9-3.33-9.82,3.82-1.26,8.03,4.72,5.58,3.45l-1.04-.54c-1.28-.67-2.86-1.38-4-1.83Z"/>
      <path class="cls-1" d="M210.93,563.48c-5.33.9-9.61.74-14.53.47,1.34-.42,3.45-1.1,4.44-1.1l15.82.04c-1.67,2.45-3.85,1-5.74.58Z"/>
      <path class="cls-1" d="M762.6,280.08c-2.13,3.03.92,6.75,2.08,8.67.14.22-.69,1.15-.82.92l-.7-1.21c-1.2-2.08-4.13-7.98-1.46-9.35,2.23-1.14,6.66,3.25,7.15,6.22-1.25,1.21-2.3-3.93-6.25-5.25Z"/>
      <path class="cls-1" d="M204.19,48.59c-2.1-.72-8.55-3.6-6.94-5.48,2.18,2.08,5.36,4.86,8.63,3.51,1.11-.46-.05-3.56-.62-4.58l-.64-1.15c-.13-.23,1.01-.64,1.12-.4l.53,1.14c.54,1.15,1.03,2.6,1.33,4.03.33,1.57-1.71,3.52-3.42,2.93Z"/>
      <path class="cls-1" d="M62.65,329.06c.1-3.17,0-5.5-1.55-7.69-1.49,1.27-1.71,3-1.82,5.55.18,1.4-.69.93-1.33-.14.14-2.48,1.2-7.12,3.12-6.68,3.93.91,3.16,12.1,1.58,8.96Z"/>
      <path class="cls-1" d="M168.97,10.45l-4.09-4.86c-3.02,3.05-1.13,5.78.31,9.06-3.44-1.68-4.18-6.13-2.06-9.46.59-.93,3.13-.45,3.79.39,1.22,1.55,1.97,2.69,2.06,4.88Z"/>
      <path class="cls-1" d="M246.28,35.88l4.8-3.71c.68-.53.44-2.89-.29-3.14-2.49-.89-4.52-.37-7.38-.08,1.95-2.62,8.51-1.68,9.54.76.98,2.3-3.68,6.71-6.68,6.19Z"/>
      <path class="cls-1" d="M69.44,305.66c-2.96,2.4-2.22,4.31-2.38,7.96.15.49-.08.54-1.29.15-.31-2.53.64-9.78,3.52-9.13,3.17.71,2.34,7.72,2.07,9.83-.46-3.17-.72-5.53-1.92-8.81Z"/>
      <path class="cls-1" d="M763.85,315.49c.03.27-.02.66-.28,1.83l-4.12-4.79c-1.34-1.56-2.63-5.38-1.1-7.11s5.26.5,5.14,2.58c-1.62-1.2-3.42-2.33-5.38-1.55,1,3.97,2.92,6.59,5.75,9.03Z"/>
      <path class="cls-1" d="M79.16,45.53l5.3-3.05c.97-.56,1.22-3.4.07-3.9-1.84-.81-3.2-.94-5.96-1.37.62-.99,2.12-2.2,3.83-2.77l-1.09,2.04c1.18.18,3.23.71,4.04,1.46,1.06.97,1.12,3.22.73,4.8-2.14,1.87-4.14,3.13-6.92,2.78Z"/>
      <path class="cls-1" d="M774.15,368.87c.12-.89-.44-2.61-1.05-3.86-2.61,2.53-2.48,5.22-2.88,8.77-1.66-2.02.07-10.09,3.14-9.95,2.83.13,1.97,9.15.06,10.2l.72-5.16Z"/>
      <path class="cls-1" d="M176.9,43.23l.97-5.11c1.68,1.26.62,7.34-1.62,7.45-3.31.17-6.38-5.3-6.26-7.94l4.28,6.02c.37.52,2.5.27,2.63-.42Z"/>
      <path class="cls-1" d="M44.77,308.8c-2.15,2.3.99,5.38,1.76,7.65-2.02-.08-5.28-6.87-2.98-8.78,2.11-1.75,7.72,3.51,6.13,6.17-.9-1.75-2.89-5.21-4.92-5.04Z"/>
      <path class="cls-1" d="M48.31,62.99l3.66-2.26c-.68,2.35-2.76,3.37-4.79,4.02-.89.29-2.9-.49-3.38-1.2-1.9-2.82.87-7.86,2.93-8.27-1.28,2.75-2.89,4.8-2.38,7.46.19.98,3.12.75,3.95.24Z"/>
      <path class="cls-1" d="M50.94,295.06l-1.6,1.61c-.3-.36-.86-1.78-.58-2.03l1.39-1.25c.28-.25,1.1-1.26,1.33-.97l1.11,1.36,3.41-2.44c-.25,3.4-2.9,1.22-4.46,9.7l-.84-.96c.89-1.46,1.12-2.71.23-5.03Z"/>
      <path class="cls-1" d="M67.22,100.85c-.09-.15,1.01-.06.98.15l-.25,1.46c-.33,1.97-.57,5.04-3.16,5.66-.84.2-3-.53-3.36-1.34l-2.32-5.25,1.38-1.24c.31,2.76.83,6.48,4.08,6.31,1.55-.08,2.49-3.92,2.64-5.75Z"/>
      <path class="cls-1" d="M26.09,357.28c-2.56-1.09-6.51-5.3-9.06-3.33-.3.23-.53,1.69-.28,1.98l3.13,3.66c-2,1.23-4.91-4-4.15-5.69,1.5-3.34,10.39.3,10.37,3.38Z"/>
      <path class="cls-1" d="M43.56,364.21c-2.52,2.19-1.56,6.58-2.25,6.88-.26.11-.97,0-.93-.27l.21-1.32.7-4.34c.1-.63,1.34-1.77,1.96-1.82,2.65-.22,3.43,4.57,3.69,7.37-.69,1.13-1.5,1.56-1.34.13-.21-2.72-.28-4.06-2.05-6.63Z"/>
      <path class="cls-1" d="M748.85,294.15c-.73-.49-1.45,1.99-1.2,2.72l4.36,6.49c-3.63-1.02-6.28-6.12-4.65-9.69,1.69-1.22,5.86,1.08,5.94,3.44l-4.44-2.97Z"/>
      <path class="cls-1" d="M104.64,334.01c.72-.48,1.39-3.09.55-3.41-3.37-1.27-6.43,2.84-7.93.16l6.55-1.49c.8-.18,2.62.87,2.9,1.62,1.12,2.99-3.52,6.85-5.93,5.7l3.86-2.58Z"/>
      <path class="cls-1" d="M72.31,99.16c1.47.77,3.74,2.19,5.16,2.08,2.25-1.96,1.31-5.51-.11-8.27,2.57,1.22,3.74,6.07,1.64,8.58-1.73,2.06-6.41.76-6.69-2.39Z"/>
      <path class="cls-1" d="M784.79,380.74c-2.35,1.41-3.8,5.19-4.2,7.19-.05.27-1.32.36-1.23.09s.3-.9.45-1.27l2.06-4.89c.4-.96,2.87-2.67,3.75-2.09,2.15,1.5,1.55,6.37-1.08,7.08.89-2.32,1.95-4.3.25-6.11Z"/>
      <path class="cls-1" d="M85.43,77.08l4.49.42c2.19-3.07,3.37-5.74,3.29-9.73l1.28-1.16c.66,3.49-2.63,12.68-6.09,12.29-.86-.1-2.2-1.08-2.97-1.81Z"/>
      <path class="cls-1" d="M205.41,36.2c.6-1.1,5.58-.63,4.98-3.16-.55-2.3-2.75-2.79-4.82-4.15,2.85-1.16,6.4,1.61,6.15,4.6-.22,2.53-3.18,4.02-6.31,2.71Z"/>
      <path class="cls-1" d="M224.57,57.69c-.24-.08-1.02-1.5-.77-1.51,3.21-.17,3.27,2.24,6.65,1.57.06-1.52-.75-3.3-1.45-4.36l-.7-1.06c-2.12-3.21,4.95,2.37,3.46,6.09-.19.48-1.72,1.01-2.2.86l-5-1.6Z"/>
      <path class="cls-1" d="M774.47,276.23c-3.66.53-2.67,4.43-3.72,7.02-.92-2.3.07-8.67,3.3-8.43,2.24.16,3.85,6.05,1.9,8.46-.31-2.28-.71-5-1.48-7.05Z"/>
      <path class="cls-1" d="M218.07,67c.78,1.2.86,3.5-.1,4.68-2.01,2.46-9.54-2.81-8.88-5.17l5.77,4.31c.32.24,1.92.25,2.03-.09l.49-1.54.69-2.2Z"/>
      <path class="cls-1" d="M94.15,335.41c-2.11.93-4.25.27-4.6-1.09,2,.33,3.67.47,4.66-.16,1.14-.72,1.31-3.09.73-4.16l-1.95-3.57c3.34.52,3.91,4.33,3.28,6.86-.14.58-1.44,1.81-2.13,2.12Z"/>
      <path class="cls-1" d="M73.2,87.42c-3.67.92-6.95-2.73-6.45-3.57.09-.16.55-.61.67-.47l.75.87c1.1,1.28,3.81,2.7,5.48,1.6.93-.61,1.9-2.64,2.68-3.88.98,2.09-.66,4.83-3.13,5.45Z"/>
      <path class="cls-1" d="M134.35,341.97c-.02-.22-.13-1.41-.13-1.4,1.9.69,3.55,1.29,4.83,1.16-.14-2.36-1.97-3.76-3.42-6.08,2.65.1,4.26,3.24,4.88,5.55.2.73-1.33,2.39-1.99,2.16l-4.17-1.39Z"/>
      <path class="cls-1" d="M177.65,133.58c.81-.18,1.66-2.28,2.02-3.17.36.61.22,3.47-.72,4.12-2.81,1.96-9.22-6.27-8.28-8.35,2.14,2.7,3.64,6.62,6.98,7.39Z"/>
      <path class="cls-1" d="M58.5,354.64c-1.72-1.33-3.19-3.98-5.33-2.93-1.06.89.43,3.99,1.18,5.82-2.21-.8-4.17-4.79-1.97-7.07,1.99-2.07,7.68,3.37,6.12,4.18Z"/>
      <path class="cls-1" d="M81.32,353.96c4.07-1.61,6.14-2.45,7.24-5.67l-2.99-.83c1.37-.71,2.43-1,3.15-.72s1.23,2.71.71,3.4c-1.63,2.18-4.17,3.7-7.08,4.73-.68-.6-1.15-1-1.03-.9Z"/>
      <path class="cls-1" d="M799.7,357.13c-2.04-1.14-3.66,2.68-5.12,2.1.85-2.4,2.57-3.51,4.82-3.82,1.06-.14,1.9,2.64,1.39,3.55l-2.68,4.74,1.6-6.58Z"/>
      <path class="cls-1" d="M754.88,345.12c-1.04,3.58-.93-8.15-1.74-8.07-.88.65-1.57,1.22-1.67,1.56l-.38,1.38c-.07.26-1.07-.53-1.06-.8.04-.94,1.69-3.27,2.7-3.2,2.46,1.8,2.94,6.41,2.14,9.14Z"/>
      <path class="cls-1" d="M54.6,56.55c-1.84-.87,4.33-6.07,1.37-8.14-.83-.58-3.02.39-4.18.81-.44-1.4,2.75-2.5,4.49-2.09,2.91.7.35,7.67-1.67,9.42Z"/>
      <path class="cls-1" d="M191.05,97.66l2.35,2.46c.09.1.07.77.09.91.03.21-.61,0-.77-.14-2.27-2.03-4.42-3.16-7.52-4.95l7.6-.04-1.76,1.76Z"/>
      <path class="cls-1" d="M27.15,119.31l2.5-1.84c-.53,2.32-1.3,3.34-3.52,4.71l-.72-6.83c.7-.91,1.62-1.34,1.38-.14l.36,4.1Z"/>
      <path class="cls-1" d="M777.5,341.72l-.91-1.5c-.14-.24-.87.86-.88,1.18l-.25,6.14c-1.76-2.18-1.82-6.83.45-8.74.66-.56,2.52,1.46,2.53,2.29v1.22c.02.29-.79-.32-.95-.58Z"/>
      <path class="cls-1" d="M839.29,488.08c-2.33.22-4.98.36-7.59.12l-9.63-.88c3.19-.3,6.79-.54,10.15-.13l7.07.88Z"/>
      <path class="cls-1" d="M72.45,287.78c-1.13-.02,1.01-14.51,2.31-13.02l-1.05,6.72c-.35,2.21-.75,4.22-1.27,6.3Z"/>
      <rect class="cls-1" x="126.99" y="504.87" width="19.43" height=".64"/>
      <rect class="cls-1" x="166.5" y="459.01" width="19.43" height=".64"/>
      <path class="cls-1" d="M115.75,324.48l-.55,1.41c-.1.26-1.07-.08-.97-.34l.45-1.14,3.9-9.74c.38-1.16.53-.9.87.36l-3.7,9.45Z"/>
      <path class="cls-1" d="M142.4,336.44c1.32-.36,3.85-.6,4.29-1.63.7-1.6-1.72-3.5-3.1-3.79l-1.34-.28c-.27-.06.13-1.2.38-1.1l1.23.48c1.76.68,3.66,2.21,4.15,4.17.22.89-1.57,2.39-2.33,2.62l-3.29-.47Z"/>
      <rect class="cls-1" x="664.43" y="554.55" width="18.8" height=".64"/>
      <path class="cls-1" d="M98.53,355.82c.86-1.69,1.5-2.91,1.09-5.2l-3.67,2.56c-.42-1.39,2.1-4.35,4.11-3.41,2.11.99,1.33,5.62-1.53,6.06Z"/>
      <path class="cls-1" d="M112.23,62.93c.92,1.38-.34,4.93-3.23,4.53-1.44-.2-3.64-2.49-4.23-3.77-.09-.19.84-1.08.97-.9l.98,1.45c.47.7,1.91,1.93,2.73,1.91s1.57-1.35,2.78-3.21Z"/>
      <path class="cls-1" d="M753.13,492.19c-1.91,2.73-4.14.55-6.2.73l-7.07-.51,13.27-.22Z"/>
      <path class="cls-1" d="M763.05,374.53c-.63.43-1.27,2.48-.75,3.02l2.29,2.44c-1.12.3-3.02-1.12-3.55-2.39-.67-1.61.41-4.33,1.65-4.52.25-.04,1.33.32,1.57.38s-.54.61-1.21,1.07Z"/>
      <path class="cls-1" d="M47.73,292.73l-6.15-3.09,4.42.28-1.35-2.21c2.78.1,3.21,2.19,3.08,5.02Z"/>
      <path class="cls-1" d="M445.72,573.46c1.26-.55,2.35-.51,1.48.9-2.29.69-15.98,1.38-16.76-.88l4.9.21c.97.04,3.04.63,3.86.53l6.52-.76Z"/>
      <rect class="cls-1" x="51.17" y="502.96" width="15.61" height=".64"/>
      <g>
        <path class="cls-1" d="M538.73,408.27c-13,2.82-18.19,17.34-19.94,29.04l-4.31,28.71-3.09,23.67-5.96-.3c-9.92,19.99-1.69,15.99-2.63,31.18l-.53,8.53c-.07,1.16-1.24,3.03-2.59,3.36-4.14,1.02-9.13,1.9-13.15,2.29-.92.09-2.36-1.75-3.1-2-.78-.27-2.55.47-3.42.95-10.53,5.79-22.75,6.18-34.3,3.78-.14,7-.42,13.81.21,20.76.14,1.59,1.47,3.76,1.93,5.79l7.77.92c8.04.95,15.74,2.14,23.51,4.42,2.38.7,4.69,2.01,6.79,3.5,1.5,1.06,1.96,3.62,1.75,5.47-.54,4.88-10.1,7.63-14.51,8.55-20.82,4.35-43.34,4.22-64.48,2.01-7.26-.76-21.42-3-26.77-7.69-1.88-1.65-1.97-5.87-.24-7.65,5.22-5.38,26.21-7.74,33.96-8.32l7.67-.58,7.31-.63,1.86-4.19c.72-1.61,1.02-2.63,1.02-4.76l-.05-139.88-.13-19.94c0-.57-.28-1.79-.67-2.13s-1.54-.38-2.31-.43l-5.85-.36-14.52-.4-6.44-.42-6.43-.44-6.88-.4-6.38-.64-5.74-.63-5.13-.56-9.73-.98,3.37,11.21,3.35,12.02,3.31,13.25c2.45,9.8.49,9.56,1.85,13.4l9.15,25.87,5.15,14.8c.33.95,1.09,3.38.28,4.1l-6.92,6.15c.16,1.75.79,4.35,1.39,6.28l2.1,6.72,3.3,1.53c1.36,10.67,11.37,27.25,19.96,33.23,7.66,5.33,14.6,3.84,16.45,12.6.48,2.28,0,4.35-2.46,5.3-9.22,3.56-20.57,4.36-30.27,2.47-4.43-.87-7.48-3.27-9.55-7.43-8.86,3.62-5.62,4.21-15.51,1.33-.53-.15-1.35-1.76-1.44-2.33l-2.19-14.24c-2.08-13.54,2.81-14.33-.67-23.61-1.77-4.73,1.89-3.08-1.68-9.35l-10.99,2.02c-1.64.3-4.9-.06-6.69-.52-.87-3.08-1.54-6.12-2.2-9.19l-2.58-12.12-2.27-10.31-.75,10.27-.53,6.99-.59,7.72-.43,7.52-.38,5.79-.61,7.09c-.2,2.31.57,6.57-1.25,8.43s-10.44,2.81-13.38,2.92l-5.11.21c-2.61,10.66.27,5.57-.05,11.18-.25,4.51-.09,8.73,1.34,12.85,3.47,10,5.7,16.41,14.43,22.4,2.06,1.41,4.31,3.07,5.66,5.33,1.17,1.96,1.61,5.98.98,8.15-.31,1.08-3.08,2.12-4.2,2.27-9.33,1.25-18.62.09-27.14-3.64-6.26-2.74-4.16-9.16-6.43-8.67l-5.89,1.28c-2.76.6-5.89-1.89-8.34-3.4l-.19-16.49c-.15-12.97,4.84-12.47,4.89-24.55.02-5.51,3.89.95,3.14-9.97l-8.55-3.65c-.9-.38-.33-3.03-.17-4l1.71-10.36,9.81-57.5c-4.38,1.96-7.37,5.2-9.99,8.92-3.4,4.84-4.53,10.46-6.4,16.03-.65,1.92-1.57,3.62-1.72,5.82l-.4,5.85-.27,12.55-.48,2.81-.27,12.58-.45,8.93-.44,8.91-.42,11.41-.39,7.71c-.16,3.1-.2,5.86-.55,8.97-.26,2.32.34,5.89-.6,7.96-1.2,2.64-6.66,2.19-8.28.12-.4-1.27-.33-4.06-.25-5.53l.5-8.95.72-17.22.72-17.2.52-8.92.26-11.32.49-2.76c.69-3.93-.08-8.6.32-12.52.37-3.63.14-6.17-1.03-9.52-1.79-5.09-2.9-10.39-5.21-15.24-3.3-6.94-8.69-11.58-15.81-14.01,3.1-.49,5.82.78,8.21,2.53,8.7,6.39,11.65,16.91,14.09,26.62l.5-6.62c.19-2.59.64-5.98-.18-8.47-1.66-5.04-4.49-9.44-8.5-13-1.39-1.23-4.8-1.18-6.68-1.48-6.24-1-11.86-2.66-18.26-3.27-3.87-.37-10.1,8.34-11.43,14.75l-2.18,10.52.29.86c4.46-1.38,2.21-9.2,9.39-17.74,2.82-3.35,6.67-6.14,11.28-5.3-10.6,3.42-13.83,9.63-16.51,20.27-1.31,5.2-4.79,2.72-5.67,6.51l-4.67,20.23-6.8,29.43-4.33,19.39c-.23,1.05-2.88,1.7-3.95,1.75-1.2.06-3.59-1.25-4.04-2.64l6.44-28.1,2.72-11.97,6.78-29.63,7.2-33.13c-4.25-6.07.46-8.8-3.16-10.32-1.76-.74-2.97-2.5-2.52-4.35l3.4-14.06c-4.72-20.79-9.9-40.72-15.82-61.07-2.61-8.98-4.56-15.01-3.71-24.2,1.62-17.65,18.23-22.62,32.46-23.98.28-.03,1.19.75.97.78l-1.1.19c-9.17,1.59-11.89,1.52-19.73,5.81-7.07,3.87-11.36,11.01-11.57,19-.17,6.18.88,11.53,2.48,17.44l14.13,52.11,2.8,10.89,3.54-11.56c-2.7-12.51-5.85-24.31-9.18-36.57l-3.56-13.1c-2.1-7.73-3.54-11.87-3.05-19.75.49-7.78,6.03-13.48,13.2-15.51,4-1.14,7.84-2.11,12.04-2.4-.14.72-.91,1.04-1.67,1.18l-7.61,1.49,7.48,50.21,1.26,7.74c.35.16.83.36.58.25l3.22-8.25.79.1c4.87,13.64,24.31,17.76,36.99,20.1-1.99,4.19-4.12,8.43-5.4,12.91l-6.06,21.26-4.76,15.38c22.18,6.46,34.38-2.31,51.21-14.11,6.21-4.36,10.1-6.05,17.25-5.97.35-3.96,1.62-7.21,3.54-10.92l1.23.07-1.08,2.3c-1.14,2.43-3.21,6.21-1.73,8.93.97,1.32,4.13,2.76,5.03,4.38,7.21,12.9,5.12,30.48,5.75,33.63l.56,2.82c.63,3.17-.87,12.61-.39,15.03l2.7,13.73,5.09,22.57c7.2-4.83,14-8.58,21.5-11.81l8.95-3.85c4.26-1.83,8.28-2.97,12.81-4.47-.61-2.17-1.28-4.44-2.05-6.63l-3.51-9.93-5.83-16.5-2.84-7.98-10.89-30.46c-2.79-7.81-5.79-14.97-9.35-22.44l-10.49-2.44c-2.37-.55-12.49-3.62-12.61-6.58l-.41-9.56c-10.67-1.21-24.4,1.9-35.71,4.34l-5.36,7.19c-.44.59-2.54,1.27-3.27,1.15-8.69-1.37-17.69-3.42-26.12-5.86-17.14-4.96-25.47-10.25-26.79-29.51-1.04-15.25-1.5-30.12-.89-45.31.34-8.5,1.6-16.51,4.22-24.47,4.93-15.01,16.18-17.78,29.35-23.34,1.35-.57,4.7-.76,5.15.7l-3.16,13.16,9.26,4.54-.49,1.36-7.17,5.48,10.88,22.13c5.5,11.2,8.77,23.02,9.69,35.53.11,1.55.06,2.39,1.13,3.35.05-2.05.05-3.64-.23-5.36l-1.44-8.9c-1.95-12.08-9.61-28.96-15.52-39.84l-2.71-4.99c-.21-.39-.58-1.48-.3-1.73l1.18-1.05,6.7-5.95-8.84-4.09c-.63-.29-1.36-1.81-1.16-2.49l3.16-10.74-.68-1.19c-2.53-1.17-5.29-3.26-6.7-5.52l-.5-.95,1.51,3.77c-4.57-.29-7.39-2.81-9.26-6.28-3.94-7.31-.91-14.1,1.98-21.66-5.79,6.62-8.95,13.87-3.32,23.03-3.36-.73-4.82-3.75-5.5-6.6-2.02-8.46,2.46-14.85,7.12-21.4,10.88-15.27,7.8-24.88,18.95-37.71,10.29-11.84,26.01-15.59,39.84-8.72,1.87.93,3.5,1.32,5.64,1.58,7.75.97,13.94,6.74,16.64,13.95,2.99,7.97.52,11.38,3.03,16.69,1.82,3.87,1.77,7.26,1.39,11.53-.46,5.26,7.8,12.29,1.45,24.55-1.16,2.24-1.39,5.23-.8,7.64l2.31,1.67c.03,1.27-2.52.59-2.46.7l-2.41-4.44c.29-1.14.16-.6-.06.23-1.95,4.29-6.36,8.66-11.33,7.47l-4.43,1.54,6.36,9.93c.29.45,1,1.88.62,2.19l-1.62,1.32-4.4,3.54,8.09,5.49c.81.55.1,3.21.01,4.16l-.67,7.56c-1.02,11.58-3.52,22.53-6.55,33.66l-4.96,18.21c0,1.02.09,2.1.78,1.07l7.45-28.05c1.96-7.37,3.05-14.66,3.99-22.18l.58-4.68c.4-3.24.8-7.23.2-10.28l-7.44-5.1,4.33-3.34c.45-.35,1.17-1.05,1.47-1.43s-.45-1.48-.78-1.99l-5.71-9.06c.26-.69,2.45-2.22,3.3-1.92,10.38,3.7,18.89,6.12,23.07,17.26,2.6,6.93,4.29,14.01,6.09,21.3.3.47.82,1.28.39.61l1.59-4.7,3.36-10.16,2.3-7.67c.81-2.7,2.9-4.67,5.87-4.32l16.4,1.94c1.74.21,3.26,2.5,2.75,4.16l-5.52,18.25c2.21,2.73,2.52,5.87,2.18,9.29-.19,1.83.57,4.41-.28,6.31l-5.22,11.57c-.59,1.31-1.31,3.35-1.05,4.71.78,4.1,2.7,8.72.73,12.71-3.23,6.52-7.38,12.48-11.95,18.05-6.18,7.54-15.73,8.35-23.32,1.79-3.09-2.67-5.13-6.17-6.85-9.91-1.15-2.5-.89-5.1-.61-7.77l.72-7.01.63-5.73.67-5.74.6-5.12.64-6.46c.44-4.4-.36-13.22.77-14.91.13-.2-1.13-.13-1.14.11l-.25,7.9-.64,9.66c-.13,2.02-.39,4.22-.65,6.25l-.57,4.48-.7,5.74-.66,5.75c-1.18,10.18-.55,21.33,3.75,31.07l9.28-1.66c5.72-1.02,11.29-1.72,17.07-2.26l5.73-.53,7.7-.64,8.29-.64,8.28-.48,7.12-.41,11.26-.28,2.75-.57,44.37.07,5.04.15-2.79-13.13-5.64-24.9c-.5-2.19-1.18-5.14,1.68-6.25,2.75-1.07,6.38-.25,9.45-.05l8.96.59,10.78.72,8.92.63,7.25.52,10.26.51c.4.02,1.31.12,1.28-.16-.2-1.99-5.31-13.29-7.11-14.61l-12.2-4.04c-5.78-1.91-10.77-5.53-15.67-9.11l-4.09-2.98c-.54-.39-1.94-1.11-1.83-1.69l.57-2.92c.11-.58-.15-1.94-.1-2.54s1.54-1.25,1.83-1.78c.66-1.23,1.79-3.5,4.01-3.05l18.51,3.7c1.95.39,4.53.43,6.1.58-2.42-2.18-6.31-9.07-3.17-10.66s5.78,3.75,9.72,7.52c3.04,2.91,5.88,5.28,7.47,9.3.82,2.08.75,5.78,1.83,7.56l9.87,16.36,3.22,1.33,5.08,8.22,5.23,2.02c1.77-3.51,3.86-7.23,5.31-11.01l4.61-11.98,6.69-18.81c2.11-5.93,4.99-11.07,10.61-14.46,4.1-2.47-4.02-6.45,2.35-19.29,3.8-7.66,5.42-9.57,4.22-18.36l-3.42-1.73c-1.91-.97-2.05-3.55-.63-5.04,3.3-3.46,7.86-8.04,5.53-13.84-.91-2.28-2.01-4.68-1.92-7.21.2-6.11,3.36-11.08,8.18-14.4s10.69-4.62,16.73-5.24c5.91-.61,11.76-1.22,17.58.16,16.06,3.81,21.16,17,24.52,31.21l4.25,17.93c3.51,14.81,14.3,17.5,12.52,33.29,2.8,1.85,5.73,3.51,8.04,5.94,10.63,11.2,10.15,35.59,11.04,35.73l1.84.28c11.02,1.66,24.38,3.24,30.13,14.04,4,7.52,3.7,15.85,1.36,23.94l-5.15,17.82-5.31,17.54-5.02,16.65-11.14,36.02c-.7,2.26-1.15,4.18-1.03,6.72.27,5.48-2.7,4.58-2.14,7.42l3.65,18.36,2.13,10.01,9.28,44.12,6.55,33.39c-.26,2.24-6.67,3.35-7.61.88-1.13-2.95-1.47-6.31-2.12-9.42l-5.28-25.23-4.81-23.26-3.3-15.92c-.61-2.95-4.77-1.83-5.79-5.37-2.9-10-5.7-17.96-17.54-20.58-1.5.44-.83-.33-.04-1.06,5.65.65,10.31,3.46,13.41,7.96,5.46,7.92,4.25,13.83,7.33,15.12l1.53.64c.96.4-1.63-10.33-2.36-12.35-1.76-4.85-6.2-12.11-11.42-13.85-4.51.33-9.65.9-13.37,3.24l-3.91,2.46c-12.38,7.78-19.2,11.07-23.86,32.55-.48,2.23-2.45,3.66-4.18,4.92-.66,3.2-.18,7.29-.51,10.89l-.53,5.78-.19,17.7-.53,2.71-.1,20.25-.57,3.8c-1.26,8.34.14,16.39-.78,24.89-1.09,2.38-9.51,2.37-9.48-1.13l.21-21.02.55-5.17-.16-11.48c0-.3-.1-1.24-.12-1.47-.04-.47-5.05.28-5.58-1.49-.37-1.25-.53-3.34-.54-4.72l-.18-38.8-.37-7.11c-.19-3.65.11-8.24-.27-11.65-5.86-12.68-17.86-20.18-31.41-21.02-.59-.04-2.2-.48-2.9-.47-4.61.08-9.14,2.23-12.7,5.17-2.6,2.15-1.16-3.09,8.12-5.95l-6.27-1.53c-.9-.22-3.38-1.2-3.52.52l-6.7,82.62c-.09,1.08-1.05,2.46-1.91,2.57l-4.91.62c-.93,4.97-1.53,14.77.76,19.15.7,1.34,1.8,2.79,2.21,4.22,1.2,4.21,1.66,7.96,1.7,12.38.02,2.29.94,6.56-.95,8.39-2.31,2.25-6.89,3.18-9.73,4.27-2.35.9-3.88-2.26-6.24.02-3.22,3.12-6.51,5.29-10.75,6.6-8.09,2.5-23.84,4.94-30.66-.02-1.37-.99-.81-4.06-.61-5.52.46-3.37,1.89-5.45,4.53-7.35,5.55-3.98,11.17-7.82,15.1-13.51l4.15-6.01c.53-.77,3.03-1.09,4.09-1.4,2.14-2.9,4.26-7.56,4.58-11.4l.51-6c.1-1.18-.18-3.22-.42-4.66-2.89-1.35-16.01-2.69-15.51-6.84l4.66-38.48.76-5.86,3.14-22.98,3.23-19.61c1.69-10.25,6.98-25,18.93-26.25,3.96-.41,7.97.25,11.41,1.92l7.37,3.56,20.79,10.38,6.14,2.71,5.73,2.57-15.06,6.43c-1.06-.34,0,.21.81.6l4.97.93,19.08,2.63,5.43.39c1.76.13,3.59.38,5.35.37l17.3-.14c2.07-.02,4.63-.53,6.75-.73l1.1-.1c.33-.03.85-.08,1.14-.13,16.75-2.9,32.85-6.89,49.23-12.01,1.17-.59.82-.07.12.86-3.45,1.21-6.98,2.5-10.55,3.39l-24.44,6.1c-1.68.42-3.6.76-5.3,1.05l-9.29,1.55c-1.79.3-3.8.5-5.61.64l-7.13.58c-3.89.31-8.07.31-12.01.03l-8.95-.64c-2.22-.16-4.73-.33-6.87-.64l-17.29-2.45c-1.67-.24-3.96-1.01-5.51-1.52l-11.12,4.65.49.64,11.5,2.15,18.25,2.73c3.67.55,7.26.89,10.95,1.13l16.2,1.05c2.56.17,5.18-.06,7.69-.35l7.05-.82c6.43-.74,12.52-1.99,18.79-3.53l20.41-5.01c4.69-1.15,9.16-2.56,13.84-4.19,1.11-.39,1.58-3.28,1.57-4.46-.03-2.66.57-4.69,1.33-7.2l25.69-84.37c4.84-15.91,3.76-30.12-13.53-36.59-2.07-.77-17.97-5.12-17.77-2.42l.37,5.09,6.12.95c8.54,1.32,17.99,4.53,19.82,14.05,1.35,7.03-.37,13.64-2.31,20.41l-4.56,15.88-7.9,26.46-5.22,17.8-7.2,24.33c-.11.37-.63,1.2-.76,1.03l-.7-.89c-.29-.37-1.49-.99-2.06-1.11l-10.73-2.09c-2.06-.4-4.26-.67-6.3-.91-13.63,16.61-49.06,14.74-67.43,9.27-7.13-2.12-13.49-5.49-20.21-8.55-8.95-4.07-14.73-7.76-24.27-12.13-4.05-1.86-8.71-3.38-13.15-2.41ZM301.34,203.88c1.33-4.32,4.72-5.98,8.21-6.18s6.7,2.15,8.47,5.42l5.57-.28c1.64-4.13,5.22-5.36,9.42-6.02-2.15-2.08-8.22.31-7.58-.82,1.46-2.58,4.34-1.97,7.12-1.62-1.38-5.95-4.97-11.51-10.67-14.32-1.13-.56-1.78-1.79-2.11-3.17-2.65,7.26-6.73,11.8-12.21,17.49,5.49-1.03,8.15,2.03,6.69,2.02-3.66-.02-7.17-.64-11.53,1.99l-7.22,4.36c-.4.24-1.07,1.33-1.05,1.6l6.89-.47ZM608.8,267.43c2.08.22,4.6-.28,6.29-.64.98-10.58,7.26-23.94,4.99-34.21-.5-2.28-4.1-5.33-.53-7.98.31.36,1.05,1.31,1.38,1.06l1.52-1.13c.92.93,1.12,3.94.34,5.1-.19.29-1.33.72-1.52.43l-.99-1.55c-.23-1.04-.43-1.59-.7-.23.07,1.29,1.13,2.8,2.09,2.86.85.05,2.57-1.36,2.54-2.25l-.15-4.07c3.18-2.58,5.27-6.28,4.36-10.53-.29-1.37-1.47-3.07-2.51-3.44-4.85-1.77-3.89,4.08-9.19,2.59-3.04-.86-3.48-4.37-5.44-6.13-7.19-6.44-13.53-12.58-14.68-23.21-2.38,1.14-5.14,3-6.86,5.61-6.01,9.14-2.72,13.69-3.71,17.31-1.68,6.15-7.47,8.69-6.71,10.8.82,2.29,4.62,2.03,4.89,3.72.19,1.2.18,3.83.49,4.88,1.17,3.94,2.27,7.9,2.82,11.81,1.32,9.39,18.23,2.12,23.31-1.14.34-.22,1.56-.46,1.4-.2-1.91,3.23-5.05,3.57-8.75,5.57l2.46,12.17c.19.96-.38,2.99-.84,3.95l-1.07-5.17c-1.01,1.36-2.93,3.57-3.16,5.14-.68,4.65,3.32,8.39,7.95,8.89ZM333.94,213.79c4.75-2.5,5.93-8.91,2.83-12.91-2.18-2.81-6.32-2.59-8.85-1.07-2.75,1.65-3.94,4.8-3.33,8.28.34,1.91,1.63,4.17,2.9,5.09,1.61,1.18,4.37,1.71,6.45.61ZM316.88,208.39c.61-3.7-.85-6.88-3.71-8.35-2.58-1.32-6.22-1.02-8.54,1.16-1.99,1.87-2.56,5.18-1.72,8.04,1.03,3.55,3.74,5.77,7.25,5.63,3.2-.13,6.07-2.54,6.72-6.47ZM289.03,264.9c4.12,5.65,20.99,7.81,26.66-.36l-1.71-10.67c-.12-.74-1.17-2.11-1.71-2.48l-1.2,4.83c-.38-.79-.77-2.26-.64-2.93l2.05-9.83c-5.13-2.11-10.61-2.69-13.76-7.54,6.06,3.05,10.94,6.14,17.53,6.38,2.7.1,6.4-.32,8.31-2.35,6.16-6.55,9.18-15.32,9.74-24.37-2.57.15-4.91-.06-7.33-.75.2.97.03,2.91-.78,3.62-.91.79-3.06,1.32-4.03,1.13l-1.49-.3c-.27-.05.08-1.11.35-1.04l1.28.3c.85.2,2.7-.33,3.19-1.04,1.39-2.02-2.29-3.93-3.1-12.13-.08-.83-2.19-1.21-3-.76-1.8,1,.33,8.29-6.22,10.97-3.03,1.24-6.67.86-9.2-1.67-2.17-2.17-2.78-5.01-3.2-8.23l-7.15.66c-1.38,2.28-2.68,4.37-4.31,6.04l-3.18-3.16c-1.9,1.64-3.77,3.58-4.66,5.99s1.26,6.1,3.25,6.69c.49.14,2.33-.42,2.45.04l.36,1.47,2.32-.86c.49,1.8.53,3.57.21,5.62-1,6.42-.86,16.9,5.37,20.86-1.48,4.04-6.99-.96-8.37-1.52l3.14,3.59-4.29,1.61c1.14,3.57.78,8.96,3.13,12.18ZM343.33,231.07c.98-4.51-.4-8.76-2.88-12.05l2.88,12.05ZM287.91,227.44c-.15.55-1.85.3-2-.22-.11-.39-.25-1.47-.19-1.88l.41-2.73c-.9.82-1.88,2.46-1.7,3.39.15.82,1.33,2.42,2.13,2.89.66.39,2.17-.69,2.55-1.34.43-.75.42-2.37-.36-3.23l-.83,3.11ZM658.66,238.37c1.92,5.23,4.83,9.72,4.9,15.58.01,1.08.3,1.93,1.03,2.6,1.04-5.43-1.87-14.01-5.93-18.17ZM580.16,241.11l-.98,1.09c-1.3,4.39-2.2,8.42-.83,12.45l1.81-13.54ZM571.87,304.62l2.51-14.04c.12-1.51.76-1.27,1.18-.07l-2.36,13.2c-.58,3.23-.35,7.29,0,10.66.7,6.81,6.21,18.63,6,25.59-.15,4.76-1.94,7.43-1.05,10.4,11.74-1.97,6.81-1.97,17.19,1.52l7.29,2.45c3.52,1.18,7.47,1.06,11.15.26l13.29-2.87c1.27-8.55,12.84-6.8,19.21-9.82l3.8-4.06c.89-3.05.63-8.28.67-11.86.03-2.83.33-5.18.43-7.8l.43-11.33.4-5.8.42-5.25c.2-2.51.23-4.86,1.89-7.34l-.85,8.15-.61,7.07-.37,12.6c-.06,1.92-.41,3.86-.43,5.77l-.17,15.38c4.06-1.11,7.99-2.31,12.16-.61-8.06,1.89-4.74-1.51-13.8,2.8-.75.36-1.78,1.88-2.22,2.83,5.79,2.05,9.23,5.7,11.53,11.05.51,1.18.8,2.98.54,4.13-1.88-5.94-6.39-13.48-13.65-13.82-4.73-.22-9.6,2.06-14.45,2.93-1.41.25-2.83,2.91-3.15,4.2,1.84.97,3.15-2.48,5.95-.37,4.92,3.71,6.18,8.98,5.94,14.9-.13,3.1-.46,6.41-3.44,6.94-.23.04-.66-.71-.48-.85l1.15-.86-6.54.2c1.86,4.45,5.78,4.84,9.8,4.58,14.41-.95,32.54-3.03,38.25-18.29,1.93-5.16,3.11-10.51,3.6-16.07l.62-7.02.37-10.69c.09-2.5.66-5.17.52-7.68l-1.07-19.01c-.52-9.33-2.06-18.41-6.21-26.88-2.94-5.99-8.21-10.34-14.44-12.62l-14.8-5.41c.47,9.38.93,17.38-3.49,25.79-2.51,4.78-6.81,8.33-12.15,8.84l2.3-4.45c-3.02,5.14-8.96,7.85-14.46,5.44,2.43-2.27,6.38-6.76,5.51-9.94-1.08,2.33-1.99,5.07-3.65,6.9-2.3,2.54-5.68,3.26-8.6,1.26,6.08-6.54,3.73-7.61,2.82-14.04-.9,3.27-2.51,6.66-4.26,9.97l-1.62.16,3.2-6.66c-6.56.1-14.48-.73-16.62-7.86,4.47,5.28,9.67,8.65,16.97,6.18l1.09-4.85-5.79.02c-4.92.02-8.42-2.88-10.06-7.92-2.65,3.81-5.02,7.7-6.55,12.1-3.42,9.8,3.11,12.89.84,13.51-2.88.79-6.1-1.14-6.97-4.02l-1.05.13,3.18,4.18c-2.67.96-5.51.59-7.39-1.53s-2.58-4.97-3.2-7.45c-.07,2.44.46,4.41,1.09,7-1.56-.43-3.43-1.72-4.29-3.37-3.44-6.63-.9-12.32,1.1-20.04-3.99,3.18-7.13,7.54-9.01,12.9l-5.1,14.5c-3.45,9.81-7.2,19.13-11.65,28.68,4.29-.02,8.6,1.51,10.13,5.51-2.67-2.19-5.15-4.25-8.29-4.24,2.68,3.95,5.17,7.19,5.94,11.61-3.77-5.61-6.27-12.52-13.91-14.7l.77,4.73c-.01.2-1.09.43-1.15.14l-.34-1.52c-.5-2.24-.88-4.61-2.09-6.41l-3.88-5.78c-1.34,2.85-2.82,4.97-4.94,7.17,2.44.27,5.69,1.27,6.25,3.85l7.83,36.16c13.77,7.39,24.98-11.78,29.85-22.26-1.1-5.68-4.03-12.02-4.54-17.74-.25-2.76-.53-6.16,0-9.11ZM618.31,263.7c.11-4.95.43-.81.32-4.81-.19-6.68-3.37,11.89-.56,15.38l.24-10.58ZM487.75,281.03l7.74,3.85c1.05.52,1.94.49,2.36,2.06l-10.84-4.81c-.46-.21-1.59-.09-1.91.18s.28,1.47.71,1.75l9.05,5.82c7.06,4.53,12.02,4.05,19.16,7.03,3.01,5.26,5.33,10.44,7.68,16.01,6.56.93,10.31,1.86,13.69-5.54-3.15-6.44-7.81-12.55-10.59-19.13-1.9-4.49-2.11-9.31-5.88-12.8-3.38-3.13-6.61-6.59-9.69-10.08-.44-.49-1.44-.82-1.99-.82-.44,0-.83,1.92-.62,2.42,2.92,6.74,6.84,6.63,5.01,11.18l-1.29-2.36c-6.89-.95-14.47-2.46-21.34-4.06-2.41-.56-4.63-1.22-6.64.91l17.06,5.02c.92.75-.31,1.14-1.03.8l-7.76-2.29c-2.5-.74-6.77-1.66-9.1-1.67-.41,0-1.24,1.25-.95,1.38.19.08.92.5,1.16.57l15.68,4.75c.89.41,1.56,1.48.29,1.22l-9.13-2.9c-1.18-.37-8.87-2.28-8.37-.36.08.29.38,1.12.57,1.35,2.48,3.14,4.07-.9,6.95.53ZM290.78,346.01c9.35,2.21,14.19-.74,19.01-.31,3.72.33,7.1.92,10.55-.48-1.62-21.09,1.26-37.87-1.64-59.47l-2.62-19.51c-6.18,6.64-17.53,6.18-26.98,1.06l3.61,19.19c4.14,21.99,3.28,38.15-1.92,59.51ZM365.23,293.23c-.81-1.96,1.26-3.79,2.59-3.4l7.19,2.12,5.65,1.83c-1.2-2.97-11.12-5.97-7.29-9.69.85-.82,3.5-.3,4.62.24l6.76,3.24,5.55-17.06c.17-.52-.09-2.19-.5-2.52-.31-.25-1.16-.55-1.61-.59l-5.1-.54-8.33-.63c-1.27-.1-4.18.64-4.66,1.85-2.19,5.58-3.81,10.67-5.61,16.28l-7.88,24.6c-.28.88.88,2.59,1.85,2.6l13.47.19c-3.35-3.83-5.25-3.19-7.69-7.04-.27-.43-.11-2.04.4-2.17l1.84-.48c-1.43-.58-3.38-2.52-3.63-4.11-.11-.73,1.05-2.45,1.72-2.4.56.04,1.44.23,2.31.44l2.17.51c-1.3-.78-3.19-1.8-3.81-3.28ZM367.41,267.69l-13.2,41.47,1.53.49,13.2-41.47-1.53-.49ZM366.63,305.79l5.95,4.48c.52.39,1.47,2.02,1.38,2.35l-3.3.98c-1.43,1.7-.41,3.97.68,5.95-1.27-.23-2.04-1.58-2.59-3.19-1.16,1.5-3.79,4.43-4.32,6.34-.07,5.67,3.92,10.02,9.1,11.59,5.06-10.21,7.1-17.22,11.73-27.82,2.37-5.41,1.82-6.13,1.6-13.17-.12-4.02-8.76-8.69-12.81-8.52-.8,5.08,8.17,3.93,9.45,12.58-2.6-1.62-16.59-8.39-16.97-5.37-.05.44.5,1.81.99,2.07l10.03,5.34c1.52.81,2.82,2.12,3.58,3.56l-12.62-5.13c-.95-.39-2.73-.8-3.81-.71-.79.07.23,2.48.94,2.89l12.42,7.02c-.07.77-1.05.73-1.96.32l-9.42-4.24c-.39-.17-1.41,1.08-1.15,1.37.19.22.79,1.11,1.07,1.33ZM263.21,337.28l.11-10.71c-.5-2.59-.6-5-.63-7.7-.03-2.42-.28-4.68-.4-7.07l-.42-8.13-.69-7.83c-.7.7-.7,1.52-.62,2.73l.48,7.52.4,7.69.43,7.71c.18,3.35.21,6.69.25,10.07l1.1,5.71ZM666.11,375.96c4,15.78,5.99,30.44-1.26,44.88l8.38,1.52,6.84-31.54,5.16-23.55,11.23-51.68,1.05-5.75c-3.78-1.29-7.73-1.98-11.95-2.2l.24,6.27c.05,1.42-.46,3.48-.5,5.01l-.35,13.27-.56,6.46-.72,6.21c-.6,5.17-1.94,10.22-3.9,15-2.5,6.08-7.95,10.04-13.86,12.48-.19.78-.1,2.44.2,3.62ZM222.72,390.03l7.09-20.32-.75-6.37-8.05-54.83-3.19,1.24c-9.3,3.62-12.71,13.79-10.41,22.36l9.43,35.17,5.88,22.76ZM687.33,411.59l3.47-11.92,12.82-43.16c3.01-10.13,5.85-19.55,7.71-30.07.22-1.22-.76-3.94-1.1-5.18-1.56-5.75-5.63-9.67-11.4-10.92l-2.06,8.78-18.97,87.18-3.49,16.29,8.99,1.95,4.03-12.97ZM549.31,374.64l-4.87-24.08-6.54-31.01c-.56-2.68-2.35-4.27-5.03-4.46l-6.37-.44-11.46-.79-6.45-.48-7.53-.45-5.79-.4-7-.49-8.92-.63-7.68-.42c-2.38-.13-6.35-.59-8.39-.04-.83.23-1.49,2.73-1.31,3.52l9.43,41.58,2.73,11.61c.42,1.81,3.42,2.68,5.08,2.87l6.45.73,5.7.66,12.91,1.54,5.71.63,6.96.71,14.5,1.6,4.73.57c3.62.44,8.84.91,12.47,1.04.67-.12.86-2.48.68-3.38ZM347.7,334.07l1.09.49c1.09-2.52,1.85-4.83,3.27-6.5l3-3.53c2.18-2.56,4.74-4.65,6.62-7.5l-8.18,7.16c-1.76,1.54-5.2,1.07-5.91,3.63l5.63-2.8c-.97,1.37-1.95,2.39-2.47,3.35l-3.05,5.7ZM570.84,353.78c1.34-1.26,3.93-2.35,5.39-2.88l1.72-11.11c.21-1.34-.68-4.11-1.06-5.57-5.75,9.69-9.55,17.36-19.83,22.15l9.88,1.1,3.89-3.68ZM315.36,358.87c2.69.3,5.66.03,7.79-.06l-2.74-12.07c-7.24,1.11-10.41-.01-16.59.82l-.02,8.59c-1.58-2.98-.95-5.43-.98-8.22l-10.34-.57c-1.28-.07-2.45.83-3.46,2.27l-20.43-6.43c-2.55-.8-2.88-1.11-4.12-3.43-1.61-3.01-6.42-3.68-9.85-2.61.06.25.63.78.86.84,3.02-.07,5.03,0,7.64.77.86.25,1.77,2.87.92,3.02-4.12.71-8.19.67-10.97,3.88l5.68-2.09c3.32-1.22,6.25-.93,9.48.26,5,1.84,9.7,3.43,14.95,4.95l16.39,4.74c.74.21,1.54,2.2,2.07,2.47,1.95.76,5.81,1.97,8.14,2.24l5.59.63ZM582.27,362.1c2.48-1.19,5.26-1,8.29-1.7.2-.05.46.39.91.92-5.5.85-9.78,1.33-15.24,5.84,7.75,2.02,8.79-4.67,21.25,1.01,10.65,4.85,13.44,1.1,15.72,1.11l25.25.15c3.28-3.87-.28-15.53-4.55-17.8l-21.34,4.3c-3.54.71-7.06.77-10.49-.48l-13.68-4.96c-2.72-.99-11.81,1.59-14.4,2.88-1.46.73-11.11,8.7-9.28,10.15l7.65-6.52c1.88-1.6,4.41-2.85,6.8-3.31l5.64-1.09c0-.07-.05.56-.1.98-2.35.68-5.47.88-7.59,1.93-4.28,2.13-8.01,5.7-11.21,9.09.61,1.01,2.04.92,2.8.4l8.87-6.01c1.69-1.14,9.35-3.32,10.75-2.3-2.49,1.17-5.12,1.15-7.44,2.04-4.06,1.55-7.49,4.37-10.85,7.15.84.59,2.48.87,3.21.52l9-4.32ZM457.31,381.34l17.52-.1c4.89-.82,8.02-.58,14.12-.98l6.25-.42,6.46-.59,6.92-.69,5.74-.6,6.62-.63,1.13-.86-8.33-.83-6.37-.76-6.94-.78-5.73-.64-5.1-.58-5.73-.66-5.74-.62c-2.16-.23-4.65-1.46-5.18-3.69l-2.98-12.3c-2.56-.22-4.6-.44-7.28-.44h-46.31s-2.82.57-2.82.57l-11.84.27-6.48.41-7,.49-8.28.65-7.66.65c-1.94.17-3.84.4-5.76.69l-18.93,2.87c-1.95.3-14.86,3.1-15.19,5.7-.45,4.22,20.06,8.23,23.33,8.69l14.65,2.04c2.31.32,4.63.56,6.94.74l7.71.61,8.93.65,7.64.48,7.13.4,15.72.26,2.8.58h27.07s2.99-.59,2.99-.59ZM567.24,366.84c-1.5-.04-4.45-1.89-4.19-3.81.16-1.22,1.5-2.8,2.53-4.31l-18.48-2.55,1.75,9.12,19.84,2.45c-.08.25.84-.83.56-.84l-2-.06ZM331.94,365.66c-6.77-7.82-13.29-5.32-21.47-6.16-4.06-.42-7.83-1.63-12.13-2.56-2.94,4.11-5.06,8.1-6.85,12.9,3.84.62,7.07.06,10.78-.56l15.85-2.63,8.97-.95-3.77-3.32c4.5.34,4.79,5.47,8.62,3.27ZM572.18,371.15l16.82-2.73c1.1-.18,1.82-.35,2.56-.85-8.77-2.13-12.68,4.18-16.39-.03l-4.75.58,2.7.98c-7.67,2.71-15.27,1.84-22.65,4.98,7.55-.6,14.3-1.72,21.71-2.92ZM553.41,377.76l39.42-6.92c.51-.09,1.64-.74,1.53-.99l-.48-1.1-27.57,4.64-13.24,2.02-1.85.27c-.41.06-.49,1.29-.56,1.86.02.32,1.67.41,2.73.23ZM535.12,377.89c-4.44-.58-8.36-.38-12.52.11l-8.15.96-5.75.59-6.44.62-7.02.63-6.99.54-5.84.39-10.65.28-2.72.53-19.47.06-2.86.6h-12.49s-2.78-.6-2.78-.6l-19.55-.06-2.84-.54c-2.99-.57-7.28,0-10.54-.25l-7.76-.62-7.66-.62-7.01-.62-6.75-.75c-11.4-1.27-27.88-3.6-37.36-8.95-.35,2.17-1,5.57.71,7.37,2.96,3.14,13.6,5.96,17.55,6.59l22.66,3.63c2.32.37,4.65.54,6.96.74l7.08.6,7.65.64,6.99.5,6.44.39,10.13.36,3.79.46,36.34.02c2.17,0,4.33-.32,6.43-.41l10.08-.44,7.07-.39,7.63-.49,7.65-.64,6.44-.63c11.36-1.11,34.29-4.26,44-8.78l-7.6-1.17-4.89-.64ZM655.49,395.01l-5.27-9.27-3.3-5.81c.79,5.82,6.2,10.49,7.97,16.7.07.26,1.07-.12,1.01-.38s-.26-.98-.41-1.24ZM373.39,432.14c-1.81-12.37-5.43-23.17-8.42-34.57l-3.33-10.08-5.7-.83,4.9,11.84,6.74,18.1,5.81,15.55ZM445.57,515.81c0,1.75.24,2.93.4,3.96,7.59-2.34,13.96-6.37,19.25-12.55,1.15-1.35,3.67-1.3,5.01-1.78,7.63-5.4,12.03-14.77,14.29-23.87l-6.16-4.94c-.58-.46-.87-2.43-.62-3.11l25.87-68.99c2.07-5.51,4.25-10.04,6.68-15.46-1.97.07-4.06.17-6.13.37l-6.32.62-7,.63-8.29.6-10.2.66-15.22.38-7.76.42c-.96.05-2.26.1-2.81.42-.45.26-.85,1.58-.85,2.16l-.08,19.18-.03,101.3ZM332.72,524.1l.28-7.7.42-6.43.48-7,.66-9.52.5-7.85,1.3-23.48c.33-5.9.45-11.81.07-17.75l-.6-9.59c-.39-6.27-1.44-12.65-3.67-18.4s-7.6-8.38-13.33-6.83c-4.57,1.24-8.62,3.77-12.48,6.58-5.61,4.08-11.35,7.77-17.21,10.96l9.98,4.92c1.51-3.17,3.22-6.61,5.55-9.46-.69,3.51-3.03,6.06-3.98,9.3-1.68,5.68-2.7,11.44-3.77,17.3l-4.88,26.58-7.11,42.23c-.11.65.36,2.26.8,2.45,5.59,2.43,13.72,4.98,20.25,5.69,7.83.84,19.63,1.03,26.75-1.98ZM444.3,411.69h-9.56v148.79h9.56v-148.79ZM257.03,436.6c-2.58-.3-5.16-.55-7.26-2.03l15.5,2.1c5.44.74,18.1.97,23.49.48l7.15-.65c.75-.07,2.1-.3,2.21-.84l.44-2.2c-3.33-1.7-7.58-5.82-11.53-5.05l-12.83,2.52c-4.08.8-14.47-.5-18.95-1.7-1.53,2.05-3.25,4.54-5.67,5.26-6.86,2.06-23.48-3.97-30.1-6.8-.47,1.85-.8,5.26.66,6.3,5.4,3.83,30.35,8.86,37.52,9.57l17.17,1.7c4.32.43,8.5.45,12.79.01l8.65-.87,1.37-6.79-5.06.2-10.62.42c-1.86.07-3.54.12-5.39.02l-8.75-.47c-1.84-.1-3.82-.36-5.69-.58l-5.11-.6ZM559.26,440.88c-1.02-3.08-2.29-6.11-4.08-8.42l3.33,9.57c.09.26,1.27.41,1.18.14l-.43-1.29ZM217.33,478.41l4.48-19.46,4.03-17.52c1.1,1.85.4,3.58.06,5.44,1.96-2.6,3.82-4.47,6.74-6.82l-5.68-1.51c-1.76-.47-3.71-1.43-5.86-2.13l-3.54,15.75-11.49,50.76-5.25,22.33-2.91,13.21c.58.79,1.95,1.62,2.71,1.69s2.64-.75,2.81-1.52l13.89-60.24ZM708.96,544.23c-.99-7.24-2.38-13.53-3.85-20.47l-13.31-63.04-3.22-15.46-1.49-7.28-5.33,1.62,3.88,18.31,5.89,28.56,6.43,31.66,5.77,26.78c.36,1.67,5.44.92,5.22-.67ZM682.6,450.52l-2.22-10.57-6.2,1.75c3.45,3.03,5.94,5.59,8.42,8.82ZM269.41,446.1l-7.01-.68,6.69,9.83.31-9.15ZM272.89,549.72l.51-5.39.22-12.58.46-2.82.27-11.32.45-8.92.45-8.91.4-12.04.46-6.51c.1-1.38-.44-4.37.24-5.42.88-1.37,2.31-3.01,2.45-4.42.96-9.77,8.55-20.12,16.26-23.73.32-.15.66-1.33.77-1.57s-.85-.02-1.23-.01l-10.88.18-12.94.19-.69,17.33-.79,17.08-.31,13.72-.5,2.72-.16,13.28-.46,3.79-.57,16.63-.73,17.19-.52,7.79c-.22,3.22-.33,7.89.1,10.94.3,1.43,5.44,1.58,5.62.13l.85-7.04c.39-3.22-.11-6.51.25-10.28ZM623.21,560.61l.2-14.09.53-2.92.07-17.6.57-2.86.09-18.72.51-3.4.52-22.23c.06-2.62.2-4.89.81-7.6,1.98,1.21-.86,13.46,1.09,12.34.83-.47,2-2.25,2.22-3.23,2.91-12.98,9.44-26.1,21.75-31.97l4.34-2.07-15.45,3.13c-3.69.75-11.57,15.35-12.94,20.06-.62,1.11-.93-.21-.74-.97,2.37-7.05,5.57-12.47,10.01-18.33l-7.08.42-8.34.56-3.71.3-.4,19.06-.12,8.27-.22,26.79-.57,3.72-.05,25.54-.46,6.45-.11,29.92c1,1.27,6.22,1.5,6.59-.33.63-3.13.84-6.61.89-10.25ZM616.08,477.99c.51-3.63.11-6.82-1.14-9.99-2.72-6.89-6.48-12.86-12.08-17.68l-11.38-1.27c15.92,8.5,17.64,17.99,23.93,33.69l.66-4.75ZM615.96,466.41c.3-5.03.38-9.95.15-15.24l-6.18-.24c-.06,1.67-.15,4.01.45,5.11l5.59,10.36ZM614.92,529.35l.14-14.27.49-5.8.04-24.52c-1.22-1.45-2.67-3.54-3.23-5.19l-2.62-7.81-.29,7.01c-.15,3.68.28,7.17.3,10.8l.18,31.23c.01,2.63.2,6.03.51,8.31.66.79,3.65.94,4.47.24ZM382.37,487.1l5.99-5.18-6.95,2.02.96,3.16ZM475.18,519.51c7.19-2.18,19.34-5.61,23.72-10.4.1-4.85,1.01-9.85,2.71-14.34l2.12-5.59c-6.56-1.73-12.18-3.8-17.7-6.74l-4.88,12.04c-1.89,4.66-5.71,8.1-9.02,11.73l2.9,2.43c1.17.98,2.8,3.96,2.26,5.38l-2.1,5.49ZM372.71,509.42c-.03-2.74,9.64-3.33,12.67-5.4l-5.41-19.42c-6.87,2.05-13.4,5.04-19.56,8.62l6.07,14.24,4.25,1.03,2.06,7.86-.08-6.94ZM361.71,499.71l-2.79-5.87c-4.77,2.55-8.68,4.79-12.87,7.62,5.8.82,10.3-.06,15.66-1.76ZM500.9,524.75l-13.35,2.86c4.68.13,9.25-.58,13.35-2.86ZM311.3,536.7l1.46-8.65-18.52-2.83-.77,8.49,2.25,2.2c-.95,4.33-1.54,8.36-.87,12.32l.95-9.75c-.56-4.87,10.4-.39,15.51-1.79ZM544.59,551.29c.4-2.26-.68-4.8-.79-6.95-.15-2.99-.14-5.91.01-8.83l.25-4.86-18.26-.95-.53,6.99c-.19,2.54-.11,5.02-.98,7.28l-2.89,7.56c4.58,1.83,9.86,3.06,8.46,9.97-.15.74-.21,1.52-.25,2.32,4.29-2.22,14.21-8.27,14.97-12.54ZM469.82,533.04l-5.19.31c-4.83.29-9.7.3-14.53,0l-4.57-.28c.89.36,2.86,1.09,3.87,1.09l15.97-.02c1.16,0,3.29-.7,4.46-1.09ZM415.05,553.43l-5.84.25-12.13.53c4.17.59,13.24.77,17.97-.78ZM434.74,586.15c12.58.01,24.62-.75,36.89-3.07,3.47-.66,14.4-3.31,14.35-7.2-.08-6.36-31.45-10.83-37.22-10.07,1.04,1.92,2.86,4.05,3.88,5.07,1.78,1.78-4.36,1.94-7.17-10.4-3.96,1.41-8.05,1.67-12.13-.17-2.34,10.88-9.94,12.85-8.27,11.14l.85-.86c1.68-1.7,2.82-3.05,4.01-4.89-3.55-.23-6.09-.16-9.21.14l-6.44.63-5.83.61c-4.05.42-28.09,3.98-26.41,9.33.2.65,1.18,1.93,1.79,2.23,13.32,6.52,35.91,7.52,50.9,7.53ZM495.83,582.8c5.46,2.35,22.97.96,28.21-2.69l-10.4,2.34c-1.45.33-3.43.5-5.06.64-7.31.64-7.02-.56-12.75-.29Z"/>
        <g>
          <path class="cls-1" d="M587.08,230.85c2.21-.79,4.31-1.61,6.53-2.74-3.33-.35-5.43.21-8.49-1.11l10.3-1.1c-.77,3.77-4.38,6.83-8.35,4.95Z"/>
          <path class="cls-1" d="M599.16,203.79c-2.76-1.95-4.4-2.25-6.97-2.3l-1.31-.02c-2.51-.05,4.61-4.46,9.06,1.6-.21.2-.89.83-.77.72Z"/>
          <path class="cls-1" d="M594.81,209.71c.05,1.29-1.08,3.56-1.83,3.14-1.73-.99-1.84-4.62.11-5.83.62-.39,1.67,1.39,1.72,2.69Z"/>
        </g>
      </g>
      <path class="cls-1" d="M508.1,348.2c-1.24,1.09-4.05.77-5.2-.06-1.22-.87-2.42-2.49-2.87-4.27s.41-4.18,1.58-5.04c1.41-1.04,3.81-1.05,5.35,0,3,2.04,4.37,6.53,1.15,9.38Z"/>
      <g>
        <path class="cls-1" d="M374.55,271.12c-.38.73-.97,1.53-1.42,1.8s-1.8.06-1.98-.43-.17-1.81-.05-2.53,1.95-1.72,2.61-1.42,1.21,1.88.85,2.58Z"/>
        <g>
          <path class="cls-1" d="M312.93,205.26c.17,1.58-.38,4-1.79,3.85-.92-.09-1.89-1.89-1.87-2.73s.91-2.65,1.79-3.08c.45-.22,1.82,1.46,1.87,1.96Z"/>
          <path class="cls-1" d="M329.88,208.65c-1.22.31-2.01-1.97-1.94-2.81s.93-2.47,1.86-2.67c.71-.14,1.69,1.39,1.8,2.11.13.85-.38,3.03-1.72,3.37Z"/>
          <path class="cls-1" d="M311.67,226.09c3.75,2.89,8.14,4.62,12.01,1.19.05.11.47,1.38.24,1.49l-1.55.77c-4.19,2.08-9.38.32-12.04-3.51-2.81-4.04,4.96.32,13.17-1,1.07-.17,2.09-.23,2.52.25-1.22.57-3.43,1.34-4.61,1.28l-9.74-.47Z"/>
          <path class="cls-1" d="M334.12,200.31c1.59-1.8,1.7,9.71.47,8.9-.64-3.22-.56-5.6-.47-8.9Z"/>
        </g>
      </g>
    </g>
  </g>
</svg>