<?xml version="1.0" encoding="UTF-8"?>
<svg id="Calque_2" data-name="Calque 2" xmlns="http://www.w3.org/2000/svg" viewBox="0 0 978.38 353.35">
  <defs>
    <style>
      .cls-1 {
        fill: #18233f;
      }
    </style>
  </defs>
  <g id="Calque_1-2" data-name="Calque 1">
    <g>
      <g>
        <path class="cls-1" d="M155.97,298.31c-7.33-.35-11.87-6.87-10.79-13.49.68-4.14,4.06-6.95,8.35-7.07,3.58-.1,7.09,1.9,8.95,4.39,2.21,2.94,3.08,6.7,2.01,10.23s-4.21,6.15-8.53,5.94ZM158.8,295.67c2.75-.99,4.3-4.31,4.16-6.69-.13-2.23-1.43-4.9-3.11-6.6-2.79-2.82-6.82-3.64-9.97-1.4-2.57,1.83-3.7,5.53-2.19,8.96,1.79,4.09,6.06,7.52,11.11,5.72Z"/>
        <g>
          <path class="cls-1" d="M316.53,345.4l-56.83,7.95-170.63-6.79c-4.49-.18-7.9-3.73-8.74-7.43l-2.85-12.45H1.92c-.63,0-2.14-.69-1.9-1.01s1.25-1.15,1.78-1.15l75.28.06-20.34-93.82c-1.03-4.75,2.26-9.76,7.32-9.67l90.45,1.72,13.3-44.33c3.99-13.3,13.99-22.38,28.4-24.8-16-13.42-12.49-28.05-5.01-44.21-5.27,4.8-8.64,10.68-10.3,17.35s.89,11.54,3.96,18.37c-9.31-6.11-10.43-18.34-6.15-27.72,6.14-13.47,17.54-18.11,18.62-34.98,1.6-24.95,12.9-47.79,31.68-64.3,15.26-13.42,40.66-21.81,59.58-10.89,12.95-1.97,24.96,4.5,34.29,13.67,12.19,11.99,19.27,27.45,20.62,44.55.57,7.21,3.38,13.13,8,18.45,12.25,14.1,1.71,19.55,12.64,31.28,7.45,8,6.48,23.75-1.48,24.95,7.18-10.03,4.49-18.34-3.5-26.36,3.28,9.79,6.17,19.79-1.55,27.88-3.92,4.11-8.85,5.07-15.77,6.44,22.56,5.96,47.8.31,61.31,25.85,15.51,29.32,39.34,78.86,48.79,109.99,3.48,11.47,6.05,32.5-6.01,40.57h110.02c-6.69-11.96-1.99-32.21,1.38-44.95l6.06-22.9c-1.29-1.85-3.53-4.94-3.06-7.03l20.62-48.76c21.93-51.84,46.18-37.07,49.1-47.95,2.63-9.81,4.88-19.24,6.63-29.32,4.33-24.88,13.96-62.81,25.51-84.95,11.36-21.76,29.21-36.52,54.19-38.64,8.06-.68,13.98,3.08,20.84,4.68s13.28.48,19.54,4.73c7.37,5,13.59,11.16,18.09,19.2,20.52,36.62,6.92,68.69,21.4,101.68,4.58,10.44,8.83,21.85,3.34,32.75,10.72,4.7,19.1,12.43,23.49,23.33,2.91,7.22,5.17,14.41,6.29,22.3l7.32,51.89c.73,5.18-1.57,9.04-6.49,11.19-1.64,17.38-1.02,37.24-14.01,52.72l84.22-.04h22.15s47.6.07,47.6.07h6.47c.27.01,1.38.41,1.63.47.38.1-.39,1.62-.88,1.62l-163.81.05c-12.93,11.85-31.33,10.53-44.56-.05l-94.21.15c-14.83,6.14-28.79,10.69-44.34,3.72-2.5-1.12-5.25-1.13-7.94-.41-17.41,4.71-34.37,9.57-52.14,4.2-4.95-1.49-9.01-3.53-12.61-7.74l-117.58.69-27.12,4.29c2-.32-95.72,9.15-87.54-1.89-15.58-2.61-21.18,3.88-32.76,4.36-16.38.69-20.93-4.4-36.8-4.1,2.24-3.04,6.34-2.29,9.53-1.63,14.2,2.93,24.02,5.97,38.28,1.53,2.64-.82,6.01-2.32,8.7-2.41l24.81-.91c2.11-10.41-4.2-24.15-10.57-32.28-.62.71-.89,1.01-.88,1l1.31,1.26c1.46,1.4-22.25,4.3-26.23,4.11-11.56-.54-22.45-3.08-33.77-4.93-5.77-.95-10.71-.45-16.39,2.45l-13.23-65.62c-.61-3.01-2.85-5.61-5.93-5.83,1.24,1.44,3.43,3.54,3.84,5.54l10.58,51.77,12.73,65.56,1.93.29-2.85-15.05,14.99.23,1.24.63c1.49.76-9.71.6-13.28-.05.26,3.25.84,6.82,1.74,11l57.09-8.86c1.05.86,1.47,3.27,1.09,4.43s-2.04,2.92-4.19,3.22ZM723.45,139.9l19.6-11.89c3.15-1.91,5.76-6.1,8.03-9.14l1.73-8.65c1.3-6.53,11.17-4.23,11.36-3.99l2.81,3.71c6.33-3.85,12.04-23.06,4.44-25.4-1.16-.36-3.59.49-4.52,1.42l-4.4,4.36c-2.02-5.68.5-11.4-1.82-16.19l-11.1-22.98c-4.69-9.71-9.94-18.74-17.74-26,1.18-4.57,2.24-8.18,2.85-12.19l-4.25,11.65c-11.6,4.47-21.84,10.77-31.09,18.97l-23.62,20.96-4.39,15.01c-1.86-3.22-2.77-6.28-5.15-7.99-2.47-1.77-5.64.89-6.57,3.39-2.75,7.34-1.82,16.57,2.52,22.81.55.71,1.04.96,1.79,1.44.28.18.46.47.88.75l1.11.7c1.03.44,2.37.69,2.45.13l.31-2.06c.07-.49.42-1.73.56-2.19.09-.29.94.16,1.09.43,1.04,1.82.12,24.39,19.46,40.15,8.12,6.62,17.64,9.71,28.06,6.98,1.5-1.07,3.67-3,5.61-4.17ZM249.29,82.91c1.91-6.16,6.87-9.21,12.22-11.14,8.36-3.03,17.42-1.14,22.99,6.01,3.84-3.09,8.07-4,12.51-2.58,4.14-11.96,17.43-14.78,28.82-10.74-5.34-14.87-19.03-33.38-34.46-37.62l-1.1-2.89c-7.41,14.68-16.73,28.12-27.63,40.98,3.15-.73,13.26-2.37,12.87,2.04-.25,2.84-5.05-1.8-17.11,4.1l-5.96,2.91-12.19,7.47c-1.38.85-1.83,4.38-1.44,5.82l10.47-4.36ZM329.87,73.13c-.41,3.11,0,4.94-1.41,7.22l-2.06-12.28c-7.81-5.26-19.65-4.23-25.3,3.74-4.17,5.88-2.32,14.12,2.25,18.81,4.71,4.84,11.9,6.61,18.26,3.35,7.78-3.99,10.62-13.02,8.26-20.84ZM274.2,102.71c6.7-2.83,10.43-8.75,10.53-15.72.08-5.94-3.13-11.17-8.95-13.21-8.25-2.89-18.81-.03-23.38,7.88-3.37,5.85-.74,13.49,3.39,17.68,4.76,4.84,11.82,6.15,18.41,3.37ZM249.12,126.96c.29,5.13,5.87,9.86,10.31,12.47,7.84,4.6,15.47,9.02,24.7,10.36,6.89,1,14.64,1.57,21.02-1.93,11.42-6.26,19.37-17.45,22.83-29.88,1.89-6.79,2.03-12.86,2.88-19.99l2.59,2.13c.4.33,1.01.19,1.21-.29,1.82-4.46,1.94-12.47-2.18-16.61-1.77,6.39-5.59,11.05-10.61,13.04-6,2.38-12.32,1.75-17.5-1.75-5.6-3.79-7.42-10.15-8.44-16.54-2.55-2.5-8.12-.82-10.14,1.95,2.75,7.69.58,16.27-5.48,21.56-6.18,5.4-15.14,6.45-22.45,2.16-11.31-6.63-6.65-18.45-12.46-16.23l-7.81,2.99-2.26,8.48-.49-.43c-2.15-1.9-5.55-1.32-6.85,1.23-1.44,2.83-2.02,6.02-1.29,9.16,1.34,5.79,11.24,8.59,14.41,5.94.87,5.99,7.56,4.2,8.01,12.2ZM665.49,107.08c-2.34-1.4-2.47-5-1.18-7.15-3.11.1-2.61,3.2-1.95,5.7.47,1.78,2.03,3.15,3.86,2.81,1.45-.27,3.22-2.78,2.31-3.88-.68,1.52-2.06,3.1-3.04,2.52ZM333.72,107.26c.16.45.63,1.61.97,1.42l1.98-.84c2.46-1.32,2.57-5.2,1.15-7.42-4.95-2.6.78,1.32-.29,4.98-.39,1.33-2.17,1.78-3.81,1.87ZM807.23,289.69c-3.77-6.62-6.44-12.67-10.15-18.5l-19.71-30.98c-13.93-21.89-25.22-45.09-34.66-69.14-4.7-11.98,9.98-16.15,19.8-27.79,2.16-2.56,2.7-7.34,3.87-10.64l-4.25,5.73c-3.16-1.47,5.17-8.04,6.07-15.86.51-4.41-2.61-10.72-4.29-14-.29-.56-2.79-1.27-2.84-.75-.4,4.73,2.31,9.83,1.45,13.42-1.24,5.14-4.06,10.43-7.91,14.05-.14-5.77,5.35-8.63,5.84-13.85.43-4.68-.76-9.57-2.57-14.1-1.55,1.04-3.05,2.66-3.24,3.88l-1.3,8.42c-2.58,3.09-5.19,7.38-8.38,9.64-6.72,4.78-13.6,8.3-20.53,12.53-8.79,5.35-12.68,15.04-10.06,25.2l10.03,38.97c7.26,28.23,16.43,68.62,28.08,94.41,8,17.7,23.05,35.86,44.61,32.23,10.74-1.81,19.1-9.32,23.59-19.07,7.05-15.28,7.22-36.95,6.98-53.96-11.78-3.1-23.6-3.43-35.53.17,2.75,4.89,18.43,26.12,15.1,29.99ZM257.44,233.84c2.52-5.09-2.34-8.53-2.46-8.54l-2.03-.11,8.36-25.19c3.76-11.34,7.11-22.29,10.18-33.86,2.04-7.69-.42-15.31-6.64-20.63-5.24-4.48-12.06-7.03-18.22-10.35l-9.55-5.13,3.82-4.82.1,4.61,5.64,3.17c2.18-5.86-.36-10.27-5.08-13.13-2.39-1.45-5.25-3.46-8.08-1.02s-4.48,6.04-6.94,9.38c-.87-5.09,3.17-8.02,6.02-11.29-2.58-1.9-6.07-3.14-8.79-1.86-3.02,1.42-4.72,4.37-4.82,7.9l-.46,15.49c-.06,2.16.3,6.73,1.99,8.23,6.27,5.53,12.34,10,18.9,15.04,1.71,1.31,4.01,4.24,3.34,6.42-1.58,5.14-3.57,9.15-6.21,13.84l-11.71,20.74c-.34.61-2.61.44-2.63-.16l-.1-2.98c-2.7.69-5.02,2.6-6.63,5.11-4.19,6.56-8.44,12.64-12.26,19.7,6.37-6.52,9.84-14.71,15.22-22,.94-.49,2.92.3,3.91,1.16,11.27,9.71,22.9,17.99,35.38,26.27-4.62,11.02-9.82,21.04-13.26,31.78,5.46-9.1,8.35-18.39,12.98-27.77ZM796.86,162.48c7.9-8.18-.32-27.71-4.58-34.52l3.28,22.09c.6,4.04-.09,8.45,1.3,12.42ZM718.52,190.86l-5.84-22.14c-2.03-7.7-1.48-14.93,3.05-21.88-10.35,1.13-18.69-1.52-26.12-7.31l-5.14-4.01c-1.04,9.16.79,17.36-2.84,25.77-2.68-3.59.66-6.65-.18-10.3-.15-.14-2.14.95-2.3,1.64l-5.51,23.34c8.75,15.99,28.1,23.04,44.88,14.89ZM318.16,186.75c-.83-11.15-2.14-21.72-4.51-32.42l-.03,10.77c-.59.12-1.89-1.11-1.89-1.71l.06-16.78c-15.24,9.75-26.46,6.2-41.73,1.28,3.9,6.09,5.21,12.35,3.39,18.77l-7.04,24.91c14.69,11.4,39.41,10.61,51.74-4.82ZM350.63,208.45l1.71-9.14-16.42-9.4,11.7-7.77c.62-.41,1.62-1.75,1.64-2.46.01-.57-.49-1.83-.83-2.4l-9.97-16.46c-2.4-3.97-4.87-7.78-8.47-10.81l7.93,12.05,10.64,17.92-14.39,10.14,17.02,9.76c-5.22,25.63-11.73,50.11-18.56,75.02-1.1,4.02-2.63,7.51-2.13,11.69,7.42-25.8,15.11-51.25,20.13-78.13ZM230.3,163.73c-6.6-.38-11.35-1.79-16.88-4.14,4.65,4.3,11.36,5.54,16.88,4.14ZM694.23,314.63l-5.82.04c-2.96,3.96-6.17,6.9-10.18,9.93l88.04-.03c-8.2-8.4-13.58-17.57-17.98-28.12-4.59-11.46-8.46-22.65-11.59-34.73l-15.58-60.02c-18.22,8.38-38.27,3.82-50.71-11.16-.58,5.48-.47,10.1.14,14.74,1.64,6.3,3.9,10.94,9.3,15.23-10.48,3.86-19.73,2.02-26.95-6.29,1.09,2.34,2.15,3.3,4.29,5.89-8,3.54-15.97-3.23-22.58-8.89l3.63,5.78c-6.32,0-10.74-4.31-14.07-9.11-9.08-13.12-4.12-34.45,2.9-48.45-14.18,2.28-25.67,10.17-33.24,22.02-5.87,9.18-10.28,18.65-14.52,28.74l-15.37,36.52c16.85-1.95,37.68,7.43,49.79,18.11.81-2.29,1.05-4.54,1.17-7.04l1.01-20.52c.56-11.39-4.49-21.37-5.16-33.03,5.03,10.25,6.82,21.85,7.17,33.01.24,7.7-.82,15.07-.97,22.73-.23,11.68.49,22.85,2.07,34.46,1.18,1.63,4.61.02,5.59-1.55,4.9-7.83,11.2-13.15,19.35-17.58l-3.43-22.11c-.38-2.47.36-5.33,1.93-6.82,1.93-1.83,4.58-1.86,7.34-1.87l32.93-.09c4.91-.01,8.08,1.69,8.86,6.92l8.38,55.94c.54,3.64-1.68,7.33-5.76,7.35ZM777.36,235.86l13.46,21.95c13.92-4.07,30.1-4.17,43.59,2.14-2.31-18.65-4.73-36.58-7.95-54.84-1.26-7.12-3.41-13.77-6.46-20.1-7.49-15.53-21.47-21.09-37.32-25.69,1.53,20.57,4.18,47.45-13.76,61.88l6.02,10.76,3.06-13.68c.12-.52,1.54-1.67,1.7-1.22,1.12,3.17-3.26,12.98-2.33,18.8ZM230.84,189.33c-3.5-2.55-6.98-4.09-10.62-5.86l5.1-15.02c-2.01,1.87-6.49,13.91-5.97,15.64,4.25,2.11,7.21,4.49,11.5,5.24ZM720.7,199.84l-1.74-6.76c-17.36,7.44-35.69,1.58-46.13-13.77l-1.98,8.09c11.48,16.13,31.77,20.17,49.85,12.44ZM206.96,213.63c-.89-11.64-5.22-22.95-11.83-31.88,5.4,10.89,8.88,20.46,11.83,31.88ZM375.77,232.49c-.3-8.2-1.03-15.98.08-23.58l3.87-26.5c-5.69,15.83-9.52,54.53.85,70.54-1.4-7.04-4.52-13.1-4.8-20.46ZM670.93,214.02l-2.94-10.33-.02-14.94c-2.61,4.08-1.85,21.59,2.96,25.27ZM265.74,293.41c12.15,1.83,23.7,4.59,35.79,5.19,6.34.31,12.41-1.79,18.68-2.47l.17-63.95c.04-14.14-.91-27.5-1.99-42.11-14.73,14.21-36.09,14.48-52.58,3.89-.87,2.27-2.25,5.39-2.43,7.41l2.9,44.68c1.04,16.04.2,31.33-.54,47.35ZM257.21,351.84l-4.86-25.13-18.49-91.91c-1.17-5.8-5.05-8.27-10.88-8.39l-158.13-3.19c-1.86-.04-4.02.82-4.84,1.72-.87.95-1.66,3.43-1.3,5.08l23.38,107.61c.93,4.27,3.26,6.38,7.75,6.58l167.37,7.63ZM651.98,296.84l35.15-4.61c3.08-.4,5.71.21,8.65,1.56l-6.15-41.88c-.55-3.75-2.84-5.8-6.86-5.8h-33.76c-1.67,0-4.19.85-5.08,1.79-.79.83-1.56,3.35-1.36,4.56l4.54,28.55c9.26-2.81,18.09-4.11,27.6-4.14,2.07,0,4.45,1.84,4.83,3.48,2.37,10.16-24.92,7.96-27.57,16.51ZM653.92,298.89c-2.65.36-5.36-.22-7.14-1.38,6.99-11.04,32.21-9.72,30.74-16.57-.17-.79-1.59-1.79-2.99-1.89-12.45-.92-27.27,3.05-37.53,9.17-.6.36-2.17-.36-1.93-.66s1.02-1.28,1.42-1.47l8.6-4.14-.99-4.04c-9.24,4.35-14.6,11.32-20.23,19.46-9.71-.61-19.1-2.45-28.58-4.86-7.14-1.82-13.46-.72-21.16.8,3.14-6.54,23.3-2.9,28.91-1.15l8.96-25.96c-12.09-10.4-27.17-16.8-43.58-17.82-4.59,14.71-8.55,28.93-11.74,43.74-2.98,13.86-4.99,32.45,10.58,38.83,17.51,7.18,35.26,2.41,52.97-2.28,2.14-.57,6.02-1.56,7.99-1.23,11.45,5.65,23.1,5.65,34.93,1.63,8.67-2.95,17.31-6.87,22.69-14.95-10.37,2.8-19.59,9.28-30.45,7.64,13.7-4.18,26.09-6.71,37.17-14.64.75-.53,1.57-2.55,1.28-3.35-1.31-3.57-35.28,10.47-42.64,7.25,3.2-2.61,47.63-8.6,43.2-14.81-1.29-1.8-4.3-2.31-6.48-2.01l-33.98,4.68ZM391.32,278.72l-11.75-24.64-2.5,27.23,14.25-2.59ZM616.61,294.58l-2.34-26.97-9.08,24.95c4.11,1.03,7.39,1.66,11.42,2.03ZM419.93,269.93c-3.88-2.99-7.26.39-10.94.64-4.49,2.13-10.01,2.92-12.35,7.83,7.29-5.15,14.54-8.24,23.3-8.47ZM426.43,281.48c-7.69-5.13-16.53-5.15-25.07-4.15,4.36,2.4,8.73.08,12.92,1.12l12.16,3.03ZM329.13,290.96c15.71-2.93,30.86-4.35,46.18-8.42l-48.13,7.41c-2.9.45-5.77,3.42-4.44,6.55,1.31-3.52,2.27-5.97,6.39-5.54ZM688.68,312.53l6.07-.2c1.87-.06,3.48-2.36,3.2-4.12l-1.35-8.57c-4.59,1.02,1.98,4.51-1.08,7.5-2.18,2.14-4.18,3.54-6.85,5.39ZM318.44,339.69l-57.15,9.14.46,2.88,57.15-9.14-.46-2.88Z"/>
          <g>
            <rect class="cls-1" x="254.83" y="317.89" width="6.61" height="2.14" transform="translate(-85.41 94.58) rotate(-17.87)"/>
            <path class="cls-1" d="M279.84,120.84c-.33-.13-1.17-.98-1.37-1.21-.28-.31,1.38-.96,1.93-.74,8.24,3.37,20.68,1.94,27.65-3.73.42-.34,2.16-.27,2.13.12-.23,3.61-16.63,10.89-30.34,5.55Z"/>
            <path class="cls-1" d="M298.35,105.62c1.3-1.97,3.8-4.1,3.61-6.14-.22-2.33-2.27-4.48-3.65-7.03,3.44-.73,5.41,3.71,5.57,6.63s-1.83,7.16-5.53,6.54Z"/>
            <path class="cls-1" d="M318.29,61.16c-10.47-3.52-16.94,4.79-18.45.17,3.43-5,15.74-7.18,20.21-1.68.35.43-1.23,1.69-1.77,1.52Z"/>
            <path class="cls-1" d="M271.35,84.6c.07,1.68-.34,3.59-.85,4.61-.47.92-2.88,1.71-3.91,1.23-3.98-1.86-4.26-8.25-.75-10.36,2.7-1.62,5.39,1.43,5.51,4.51Z"/>
            <path class="cls-1" d="M314.38,77.3c.52,2.78-.87,6.71-4.09,5.86-3.94-1.04-4.8-7.55-1.46-10.17.8-.63,3.36-.54,3.96.23s1.3,2.54,1.59,4.08Z"/>
          </g>
        </g>
      </g>
      <g>
        <path class="cls-1" d="M705.73,63.26c1.34,3.65-8.41-3.55-19,.98-.58.25-1.52.31-1.91.32-.5,0-.54-2.05-.03-2.38,7.09-4.63,18.91-4.43,20.94,1.08Z"/>
        <path class="cls-1" d="M749.97,72.94c-9.05-7.79-18.27-2.57-19.51-5.33-1.64-3.61,15.11-5.27,21.56,4.43.24.36-1.62,1.26-2.05.89Z"/>
        <path class="cls-1" d="M726.22,116.92c-9.8,3.29-20.52,2.01-29-3.18-.4-.24-.78-1.29-.78-1.71,0-2.32,12.72,8.85,28.72,3.02.5-.18,1.85.11,1.94.43s-.24.65-.88,1.44Z"/>
        <path class="cls-1" d="M698.98,77.79c-.26,3.39-2.51,6.73-5.69,5.25-2.63-1.22-2.4-4.94-1.45-7.48.72-1.93,2.68-3.35,4.4-2.92,1.91.48,2.92,2.76,2.74,5.15Z"/>
        <path class="cls-1" d="M739.57,87.84c-.47.87-2.67,1.75-3.55,1.57-3.47-.72-3.5-7.02-.85-10.02.58-.66,2.6-1.11,3.39-.89,2.62.73,3.17,5.33,1,9.34Z"/>
        <path class="cls-1" d="M707.98,97.22c-1.13,1.98,1.87,4.37,2.86,6.33-1.7.72-4-1.43-4.65-2.88-2.39-5.36,2.96-5.75,5.88-17.39.1-.39,1.03-1.41,1.15-1.06,1.41,4.08-2.46,10.14-5.25,15Z"/>
        <path class="cls-1" d="M771.66,91.67c-10.23,2.58-.55,10.98-8.95,12.09,1.97-3.43,2.05-4.64,1.44-7.46-.41-1.86,3.63-6.65,7.41-6.08.39.06.48,1.36.11,1.45Z"/>
        <path class="cls-1" d="M666.45,91.82c-3.82-2.76-2.26-5.85-.87-9.02,1.17-2.69-4.77-5.59-3.61-6.11,3.74-1.66,6.37,5.43,6.2,7.5-2.26,1.28-2.7,2.68-1.69,4.82.35.75.36,1.58-.03,2.81Z"/>
        <g>
          <circle class="cls-1" cx="650.51" cy="255.39" r="3.4"/>
          <circle class="cls-1" cx="651.59" cy="263.02" r="3.45"/>
        </g>
      </g>
    </g>
  </g>
</svg>