<?xml version="1.0" encoding="UTF-8"?>
<svg id="Calque_2" data-name="Calque 2" xmlns="http://www.w3.org/2000/svg" viewBox="0 0 409.14 1219.8">
  <g id="Calque_1-2" data-name="Calque 1">
    <g>
      <path d="M234.26,1042.72l-.47,8.76c9.92,1.98,2.31,11.66,9.87,29.82,7.79,18.71,23.86,43.43,41.81,52.91l20.89,11.03c5.95,3.14,8.21,8.84,9.06,15.24.45,3.43,2.55,8.75-.33,11.91-3.01,3.31-8.65,5.07-13.3,6.01-22.69,4.6-46.09,2.68-67.52-5.72-8.09-3.17-12.69-9.55-15.66-17.36-24.66,7.64-14.48,9.96-41.71.84l-2.11-35.6c-.65-10.93-.44-20.86,3.78-31.37,10.56-26.32-1.21-37.23,10.55-40.11l.04-9.87-20.59-6.24,4.53-102.04,6.08-119.7.97-27,1.1-42.76c.47-18.43.58-35.83-.38-54.7l-42.54,245.13-20.16,121.89c-11.02,3.91-21.4,5.35-33.26,6.51-5.26,15.23,2.27,8.35,1.42,17.25l-2.73,28.82c-.71,7.5,4.37,10.38,1.31,33.22-1.4,10.48.97,21.62-1.2,32.04-.71,3.39-2.65,6.55-2.22,10.31.71,6.16,1.37,13.08-1.47,18.71-8.7,17.25-29.95,21.7-47.58,17.89-26.81-5.8-20.38-41.38-12.64-59.55,3.3-7.74,5.23-15.62,7.15-23.84,4.81-20.55,8.42-40.47,10.05-61.71.62-8.09,7.52.18,5.61-18.85-9.73-3.41-18.45-7.33-27.16-12.93l5.18-34.86,29.27-188.58,8.35-54.24c3.26-21.2,3.29-42.02,4.02-63.48l1.15-33.82.99-30.89c.59-18.51,2.03-36.38,3.82-54.53l-7.02-2.08,12.84-30.51c-5.35,5.38-15.72,37.73-18.37,39.74-.79.6-3.4-.24-4.1-.95l-4.93-5.04c-7.73-4.3-24.19-8.03-20.64-19.9l17.18-57.31c-1.94-1.75-4.33-3.72-5.4-5.34l-16.43-24.95v-6.8c-14.39-23.19-24.3-36.35-20.57-65.07,5.51-42.48,12.24-83.98,20.47-125.93,11.5-58.6,25.2-62.57,78.87-82.96-7-3.85-11.92-10-14.69-17.42-.67,4.12,1.98,7.21,4.24,11.2-9.9-.08-17.55-6.39-21.43-15.04-6.87-15.34-1.19-30.71,5.72-45.08.23-1.27.42-2.53-.1-1.26-12.39,12.76-19.27,35.49-7.87,47.93,4.67,5.09-13.97-.92-13.47-21.39.63-25.6,23.81-41.59,33.68-66.57l13.36-33.82C115.85,11.51,163.84-13.59,204.81,7.8c3.62,1.89,6.4,2.72,10.47,3.18,17.82,2.03,30.72,15.13,37.92,30.64,6,12.92,3.29,25.49,3.33,38.96.04,9.96,3.88,21.19-6.36,29.23,5.9,15.79,18.47,30.53,19.55,46.43.89,13.07-4.52,26.4-15.35,34.45,3.72-7.97,6.99-14.75,4.54-23.5.08-2.02.04-2.07-.19.18-2.61,16.44-9.1,27.76-27.3,29.13,2.25-3.63,4.73-5.11,5.34-9.24-4.9,7.34-12.28,13.51-21.53,10.06-2.14-.8-6.74-.01-9.18.46l12.41,1.41c3.59.41,5.38,1.08,7.85,3.94l-1.21-3.46c-.32-.91,3.25-2.37,4.18-2.17,11.99,2.54,25.34,7.1,35.57,14.56,7.4,5.4,11.88,13.28,15.93,21.31l32.77,65.08c-8.67,20.77,1,10.6-4.01,22.7-.97,2.35-2.27,3.75-4.87,4.89l2.61.72-2.61,8.14c-2.09,6.53-6.2,26.88-2.6,31.59l.52-12.57c.53-12.7,5.38-24.63,9.44-36.65l2.9,1.75c-2.93-4.73-3.89-7.21-2.73-11.58l7.3-27.61c1.46-5.54,5.84-8.21,11.59-9.44,2.78-11.74,5.72-24.87,7.24-37.18-15.06-33.07-4.49-38.46-7.15-72.98-.11-1.37,1.49-3.99,2.71-4.2,8.95-1.53,11.13,15.92,12.17,23.16l5.82-24.88c1.45-6.2,5.51-26.67,12.32-24.82,1.73.47,4.06,4.12,3.73,6.24l-4.03,26.06c.32.53,1.13,1.84.7,1.14l11.72-31c.9-2.37,4.52-4.63,6.46-4.24,2.27.45,4.69,4.37,3.98,7.01l-7.33,27.21c-.01,2.49.61.78,1.25-.91l8.99-20.16c.57-1.27,3.23-2.98,4.57-3.09,6.5-.54,3.69,11.53,2.14,16.07l-9.59,28.05,14.57-19.94c.92-1.26,4.61-1.93,6.02-1.43,6.31,2.24-6.13,21.59-8.79,26.12-11.07,18.92-5.85,33.41-24.95,53.38-.96,4.14-2.04,9.19-2.49,13.51l-2.6,25.19c4.94,3.89,12.17,8.92,10.89,15.87l-6.55,35.63-4.78,4.48c-3.77,21.26-6.76,46.14-21.16,62.79-8.69,10.06-21.82,13.12-33.96,7.63-16.89-7.63-28.89-22.72-39.35-38.09l-.09-65.17c0-5.8-2.9-26.22-4.7-31.92-.75,4.75,2.7,22.72,2.72,26.77l.26,66.48,1.37,9.32c3.52,23.97-.77,23.78,11.45,56.52l7.48,20.04c.52,1.39-1.72,4.47-1.15,6.52l28.57,102.25c1.46,5.24.4,8.06-3.4,11-6.23,4.82-13.62,8.19-21.2,11.33l-5.46,92.75-21.88,361.41c-10.77,4.98-21.01,6.99-33.38,8.41ZM154.73,88.48l16.44-1.9c2.93-9.17,10.43-13.61,19.08-13.55,8.11.06,15.18,5.05,18.21,13.49,4.14-1.12,7.77-1.27,11.89-.19,3.24-9.51,12.21-14.56,22.75-14.24-5.24-5.37-11.17-2.08-17.94-2.26,3.53-6.46,10.72-5.39,16.63-3.29-3.62-16.27-13.91-30.36-30.06-37.52-6.33,13.62-16.03,25.22-27.35,36.58,15.27-2.49,17.13,3.5,15.43,3.76-5.79.89-7.63-1.69-13.97.06-15.35,4.23-13.18,6.46-29.33,14.84-1.38.72-2.78,3.35-1.77,4.23ZM193.06,111.69c7.89-1.99,12.17-9.27,13.04-15.55,1.08-7.81-2.3-14.94-9.13-18.67-6.17-3.37-12.82-1.37-17.64,2.43-5.36,4.23-6.7,10.76-5.52,17.63,1.54,8.99,9.33,16.66,19.25,14.16ZM249.99,83.33l-4.34,7.78c.08,4.97,1.38,10.38,3.26,15.22,7.46-7.63,8.21-20.58.12-27.79-5.72-5.09-14.83-3.47-19.96.65-10.13,8.13-7.45,25.33,1.64,30.49,4.24,2.4,9.69,3.18,14.2-.23.45-11.49-2.05-18.54-.8-32.36,2.31.39,7.02,4.2,5.89,6.24ZM144.31,193.87l-8.8,3.62,7,29.14c12.53,7.5,25.8,11.79,40.37,9.93,7.67-.98,18.62-4.78,20.81-12.72-.36-9.78-4.84-19.8-8.26-29.27-4.25,3.72.53,8.56-4.73,12.08.52-9.99,2.47-20.11,4.43-29.95-11.34-3.8-23.5-6.85-30.95-16.89,13.49,7.81,25.51,15.34,40.74,15.27,7.28-.03,14.59-2.19,19.28-7.95,11.57-14.21,21.17-34.89,21.04-53.9-6.77,2.38-12.57,1.29-18.04-1.95.5,2.61.97,6.61-.28,8.22-3.37,4.36-10.63,6.08-14,2.25,4.46.02,13.75-.59,12.11-6.08-2.5-8.38-6.02-16.65-6.49-25.26-.86-1.56-4.79-2.38-6.33-1.55-5.26,2.83-.61,14.79-11.64,22.4-5.34,3.69-12.13,4.75-18.23,2.08-8.55-3.75-12.19-12.05-12.08-21.99-5.56-.53-12.52-.55-17.58.46-2.64,6.05-5.74,10.96-10.45,14.15l-6.18-7.96-3.92,3.92c3.65,2.93,6.14,4.21,6.14,8.39l-7.23-7.05c-6.9,6-7.71,14.99-1.15,21.81.73.75,2.42,2.2,3.23,2.73.67.45,2.52-.84,3.44-1.19.61-.23,3.1.46,2.77,1.05l-1.53,2.77,6.58-.78c.83,4.85.76,8.69.14,13.21-2.05,14.87-2.16,38.3,12.41,47.54-7.59,5.23-14.88.25-20.43-5.19,1.97,3.7,3.85,4.78,7.8,8.63ZM138.4,140.74c-4.19-.16-4.01-4.89-3.39-7.16l1.37-4.96c-4.74,3.01-4.59,12.65,1.15,13.92,4.3.95,6.63-6.34,4.4-8.72-.21,1.96-1.56,7-3.54,6.92ZM340.38,237.05l-10.3,48.77c9.65,8.51,22.06,13.23,33.98,11.38,2.6-19.57,3.14-38.19,7.38-56.89,4.61-7.89,11.67-14.95,14.5-24.16,2.29-7.47,3.01-15.38,6.59-22.24l14.06-26.86c.47-.9.16-3.62-.23-4.52s-3.43.76-4,1.57l-16.05,22.66c-.37.52-2.22,1.71-2.5,1.16s-.95-2.61-.64-3.5l12.14-34.6c2.33-6.64-.48-10.1-1.14-9.74-5.52,3.03-14.45,34.18-21.13,41.03-2.7-8.96,17.08-49.23,9.26-51.05-2.02-.47-4.51,3.38-5.3,5.59l-13.48,37.85c-.37,1.04-1.66,2.2-2.13,2.66-6.42,6.17,8.31-45.29,2.37-44.8-3.56,1.54-5.07,5.71-5.99,9.45l-11.63,47.14c8.55,7.25,15.69,17.31,12.71,28.62-2.52-10.03-3.88-20.18-13.42-25.28-4.14-10.15.24-22.92-8.12-31.83-.55-.58-2.91-1.45-3.15-.76-.18.52-.59,2.11-.53,2.73,2.57,30.08-7.87,38.27,5.26,66.88,1.04,2.26,2.01,6.25,1.49,8.72ZM266.08,160.36c.12-6.51-1.26-12.93-5.56-17.68l5.56,17.68ZM115.44,275.64l-11.33-21.05,18.05-15.69-22.66-12.08,5.33-29.08,4.28-2.12-7.76-1.1,1.81,2.48c.31.42-.02,1.52-.18,2.45l-4.56,25.4c-.27,1.49,1.25,4.25,2.54,4.89l18.84,9.37-17.52,15.06,13.58,25.27c6.49,12.08,11.9,24.07,17.61,36.66,10.52,23.21,14.54,47.3,18.93,72.06-1.22-39.66-18.62-78.48-36.95-112.53ZM124.63,197.8c.89.07,2.89.26,2.6.06s-1.27-1.07-1.61-1.15l-8.87-1.91-5.93,1.94,13.81,1.06ZM232.27,392.12l9.42-45.54c3.89-18.81,6.69-37.17,8.07-56.35.94-13.03.23-25.4.46-38.78.03-1.75-2.1-4.68-3.5-5.47l-16.3-9.19,11.8-11.07c-4.46-6.93-7.92-13.59-13.73-19.38l11.93,19.16-12.28,11.28,20.05,12.39c.06,14.51,1.73,14.51.68,29.94l-.77,11.47c-1.61,23.83-5.9,46.66-10.82,69.99-2.29,10.87-4.88,20.95-5,31.57ZM190.38,425.79l13-3.36c15.6.37,8.57,4.47,28.42-.47-3.22-25.77-5.74-50.05-6.85-75.52-1.33-30.67-5.03-60.1-12.31-89.92l-7.17-29.35c-15.98,18.48-42.74,12.91-62.13,2.81l11.98,52.89c11.31,49.95,4.22,93.89-7.74,142.43,14.52,1.3,29.14,4.02,42.79.49ZM83.92,315.83c.05-.72,1.5-22.93-1.66-20.26-.22,9.2.18,17.55-.52,26.45-1.44,18.43-5.52,35.77-6.99,54.26,4.62-15.22,8.1-44.57,9.17-60.44ZM88.41,474.8c3.39-2.41,3.62-7.2,4.33-10.69,6.1-.31,6.88-5.66,7.68-11.74-1.1,1.84-2.04,3.97-2.69,6.53-.48,1.88-4.54,5.75-5.75,3.38l-13.31-26.18c-2.12-4.17-6.99-6.39-5.86-12.37,4.12-21.77,6.17-15.23,1.41-43.45l-6.53,28.12c.7,2.75,3.98,7.3.08,10.03-7.64-8.43-28.23-7.73-35.97.1,11.55-4.81,24.1-7.46,34.97.16,3.72,2.6,4.97,9.8,6.33,13.98-9.2.44-18.21,1.57-24.98,7.36,9.44-3.2,18.8-7.9,28.57-4.59l12.96,25.79c2.49,4.95.48,8.63-1.24,13.57ZM64.75,406c-5.38-4.05-11.56-4.85-17.89-6.8-2.77-.17-5.6.33-7.92,1.52,9.55.2,17.05,2.35,25.81,5.27ZM235.31,443.12l-2.88-18.58-9.83,1.8,1.39,18.98,11.32-2.2ZM217.84,446.07c-5.74-.07-10.14,2.88-15.64-.37l19.35-2.59-1.47-16.34-27.21,2.43,1.06,17.23c.09,1.42,2.21,4.11,4.02,3.94l20.91-2c.52-.05,2.11-2.27,1.65-2.27l-2.65-.03ZM190.52,428.8l-14.09.56-29.88-1.45-6.49,18.78c18.05,1.91,34.11,2.03,51.85,1.25l-1.4-19.12ZM101.48,440.74c-8.32-4.8-16.05-7.81-24.82-9.61,8.29,4.14,16.58,7.28,24.82,9.61ZM289.32,454.52l-14.84,5.07c-3.35-5.11-5.36-23.01-8.13-21.57l5.01,17.77c.45,1.61,2.71,4.94,4.35,4.72,5.1-.71,9.98-2.49,13.61-5.99ZM18.48,1040.66c30.16,18.1,65.04,21.63,97.51,11.27l18.72-115.17,27.22-158.38,24.56-139.41c3.64-20.64,7.4-39.39,12.22-59.77,2.38-2.17,32.54-33.8,32.11-30.02-.05.43-.32,2.02-1.02,2.71l-28.89,28.59c-3.38,12.24-17.12,84.2-17.12,91.21v30.77s-.18,27.69-.18,27.69l-.77,50.45-11.79,250.5c29.85,9.99,64.73,14.02,93.98,1.42l16.68-282.96,10.84-168.75c-12.76,3.32-23,.97-28.02-11.44-12.97-32.1-22.08-88.54-28.96-123.72-15.99,1.28-9.57,3.82-21.6,6.04l2.4,27.36c1.8,20.56,2.59,41.09-3.03,61.63-1.1-14.1,2.31-26.71,1.78-40.13-.66-16.67-1.81-32.68-3.43-48.71l-15.87.57c-2.94-1.59-5.86-2.31-9.16-2.21-16.33.47-31.81.08-48.03-1.24-8.01,19.5-20.44,34.84-35.81,48.66l5.62,4.8c2.4-4.33,3.19-7.9,6.91-11.23-2.89,10.44-7.68,18.93-12.55,28.19l-21.92,41.68c-4.13-3.96,4.08-1.28-3.29-17.55-9.44,37.58-10.24,79.2-11.59,116.89l-1.03,28.83c-.95,26.53-.43,52.42-4.62,78.78l-15.02,94.39-22.25,145.98-4.6,32.27ZM95.22,528.68c4.45-8.37,8.56-16.12,12.25-24.09-7.01-4.94-11.51-10.1-15.42-16.98l-11.15-19.59c-12.68,2.84-22.48,10.75-28.77,20.67,7.18,11,16.15,19.58,21.3,30.89,4.52,9.93,4.36,21.66,9.7,31.83l12.09-22.73ZM204.65,1058.25c2.82-1.81,19.53,1.14,26.34-1.73l.51-13.75c-13.84.33-25.98-.5-39.36-2.98l-.04,14.49,7.54,3.05.67,12.1c1.19-3.55.69-8.83,4.33-11.17ZM80.04,1075.47l1.34-15.14c-12.84-.15-23.49-1.65-35.8-4.86l-.95,18.11c10.8,6.07,23.72,6.73,35.41,1.9ZM210.28,1141.29c-2.03-5.3-24.66-14.92-30.97-17.68,5.42,4.59,11.92,6.4,17.96,9.98l13.01,7.7ZM199.17,1152.84l-.74-16.95c-.65,8.07-.57,15.3-.35,23.21,3.42-1.22,1.19-3.96,1.09-6.26ZM309.18,1167.07l-19.08,3.05c-15.8,2.53-42.71-2.14-58.43-8.61,11.33,7.6,25.13,8.03,38.56,9.89,9.61,1.33,32.73-.49,38.95-4.33ZM62.47,1204.96c-13,3.51-24.19,3.88-35.77.07,11.19,6.15,25.33,4.9,35.77-.07Z"/>
      <g>
        <path d="M206.81,145.62c6.75,1.39,9.73-3.46,15.29-5.63-3.36,9.45-15.05,9.45-22.45,5.56-4.83-2.54-9.35-6.15-10.42-11.79,12.27,2.5,22.92,2.49,35.17,2.54-10.48,4.89-20.79.8-31.57.82,3.08,4.43,8.23,7.32,13.97,8.5Z"/>
        <path d="M196.59,92.13l-.87,4.92c-.21,1.22-3.84,2.7-4.94,1.94-3.95-2.71-3.63-10.43.7-12.8,2.92-1.59,5.63,2.99,5.11,5.94Z"/>
        <path d="M238.75,93.06c-.23,3.27-2.59,7.02-5.7,5.15-3.46-2.08-3.14-9.77.48-11.75,3.51-1.92,5.47,3.09,5.23,6.6Z"/>
      </g>
    </g>
  </g>
</svg>