<?xml version="1.0" encoding="UTF-8"?>
<svg id="Calque_2" data-name="Calque 2" xmlns="http://www.w3.org/2000/svg" viewBox="0 0 349.6 1181.06">
  <g id="Calque_1-2" data-name="Calque 1">
    <g>
      <path d="M176.71,1058.93c11.35-27.34-.82-38.31,11.03-41.35.11-2.57-.15-6.89-.72-8.51l-18.7-5.71,2.44-54.34,7.77-158.57,1.03-31.2v-86.04s-59.57,337.49-59.57,337.49l-1.87,12.58c-11.47,3.72-21.89,5.15-34.07,5.94l-1.39,8.6c1.79,2.58,3.16,5.13,2.82,8.16-1.06,9.72-2.01,18.45-2.43,28.15-.18,4.15,1.17,9.1,1.74,13.27.87,6.3-.48,12.01-.77,18.29l-1.4,30.11c-.17,3.67-2.63,6.7-2.04,10.91.79,5.65,1.33,12.76-1.94,17.62-13.61,20.23-47.17,21.03-58.83,8.29-5.73-6.26-6.45-13.73-5.73-22.04.6-6.95,1.12-13.76,3.91-20.36,3.86-9.13,6.91-18.2,8.97-27.93l5.76-27.18,4.4-33.7c.36-2.73,2.6-4.66,4.96-6.62l.65-11.41c-9.2-3.21-17.14-6.46-26.04-11.8l24.77-156.7,17.08-104.49c1.7-10.43,1.66-20.62,2-31.06l1.13-34.98,1.01-39.96,1.07-26.97,3.33-45.73-6.19-1.88,13.45-30.3c-3.01,1.6-3.49,4.7-4.86,7.54-4.27,8.84-7.72,17.34-10.89,26.81-.65,1.94-3.23,6.55-5.03,5.34l-8.36-5.61-13.82-6.36c-4.73-2.18-6.29-7.32-5.05-12.31,4.79-19.28,10.53-38.06,16.44-56.88-2.44-2.2-4.74-4.49-6.35-6.95l-13.55-20.75c-1.33-2.04-1.39-6.13-1.53-8.44-11.81-21.93-24.27-36.77-20.72-63.53,5.87-44.23,13.07-87.53,21.32-131.31,2.03-10.79,5.08-20.42,8.79-30.41,10.63-28.63,42.24-35.69,68.32-45.97-6.95-3.9-11.66-9.39-14.87-16.85.15,3.62,2.22,7.07,4.69,11.18-9.5-.18-17.53-6.38-21.32-15.06-7.37-16.86-.26-33.18,7.39-48.23-12.92,12.72-22.12,35.67-10.06,49.76,5.21,6.1-13.92-2.13-12.78-21.82.68-11.75,5.68-22.42,12.95-31.79,31.79-40.99,23.27-63.01,49.99-92.91C137.1.23,172.2-7.26,201.95,7.64c3.24,1.62,5.17,2.57,8.99,2.92,18.5,1.72,33.08,15.05,39.36,32,4.43,11.94,4.27,23.59,3.04,36.1,5.21,10.19,3.28,13.88,6.59,24.87,10.09-.78,4.77,5.65,15.9,16.19,4.3,4.07,10.53,12.74,11.06,19.08,1.94,23.12,7.83,14.85,4.75,35.86-1.44,9.85-3.22,20.82-3.48,30.87,4.6,15.99,11.16,30.85,17.33,45.77,4.68-.45,9.35-.24,12.76,1.92l11.42,31.86c.94,2.62,1.05,5.69.59,8.53l15.25,36.39c7.46,17.8,4.5,37.86-7.19,52.83-15.44,19.75-44.29,7.73-58.24-8.59-3.77-4.41-7.15-8.96-10.41-13.83l.16-49.69c0-.42.33-1.83.37-2.18.06-.5,2.58,1.42,2.7,1.91l6.74,28.34-1.81,14.77c3.1-2.81.43-5.24,2.21-9.95,3.4,7.08,3.75,15.85,10.85,21.96-10.41-20.23-9.9-31.35-15.89-53.31l1.64-2.37c-3.1-.2-5.15-2.17-5.91-5.18l-7.46-29.47c-1.25-4.95.49-8.55,5.74-11.4.95-.37.55-.7-1.3-1.51-2.52,2.41-7.46,5.92-6.71,9.12l6.68,28.33.1,48.76,1.04,14.98c2.65,38.07,8.24,47.18,19.95,81.72-.64,1.02-2.12,3.36-1.84,4.38l27.62,101.07c1.07,3.9.32,6.84-2.42,9.08-6.15,5.05-13.02,8.54-20.59,11.53l-2.68,49.31-23.34,384.48c-11.33,4.07-21.9,6.1-33.26,7.13l-.79,7.96c8.89,2.29,3.43,10.88,8.18,25.27,5.44,16.51,14.3,31.11,25.69,44.1,5.27,6.01,11.65,10.3,18.54,14.13l16.1,8.96c8.37,4.66,9.44,21.18,7.25,23.79-2.61,3.11-7.58,4.68-11.71,5.51-20.41,4.07-41.24,2.72-60.93-3.38-9.39-2.91-15.41-8.96-19.18-18.24l-17.46,6.55c-7.57-1.04-14.76-3.3-21.64-6.23l-2.34-32.83c-.71-9.95-1.37-19.02,2.74-28.9ZM168.95,84.72c3.24-9.17,10.68-13.41,19.35-12.98,7.59.37,14.65,5.26,17.6,12.79,4.3-1.17,8.05-1.22,12.12-.42,3.19-9.39,11.87-13.77,22.17-12.94-4.06-6.17-12.18-1.87-17.31-2.76-2.03-.36,4.47-7.77,15.69-3.31-2.89-13.47-10.87-26.37-23.12-33.55-2.54-1.49-4.61-2.78-6.18-4.44-6.54,14.37-16.7,27.11-28.19,37.56,11.42-3.26,19.68,2.79,16.64,3.5-5.92,1.37-8.08-2.56-18.11,1.41-1.75.69-4.26,1.17-5.69,1.49-6.01,3.9-11.66,7.5-18.13,10.87-2.01,1.04-3.04,2.43-3.2,4.76l16.38-1.98ZM241.12,75.66c2.37.8,4.94,2.96,5.15,4.77.87,7.45-4.73,4.68-3.15,14l1.93,11.42c6.43-7.15,9.5-18.34,3.02-26.59-5.57-7.11-17.73-6.77-23.52.09-6.09,7.21-5.83,17.87-.25,25.01,4.57,5.85,12.45,6.25,18.4,2.6l-1.38-17.34c-.35-4.37-.21-8.04-.21-13.94ZM188.31,110.03c9.35-.63,14.71-8.94,15.2-17.31.6-10.19-6.49-18.28-16.03-18.03-9.93.25-16.59,7.57-16.13,18.07.39,9.03,6.74,17.97,16.97,17.27ZM134.2,194.08l6.77,28.25c10.96,8.02,22.59,10.81,36.22,10.48,8.2-.2,22.43-3.49,23.83-13.29,1.33-9.29-5.14-20.17-7.83-28.3-4.47,3.75.86,8.51-4.44,10.92.59-9.87,2.36-18.99,4.29-28.42-10.81-3.98-23.12-6.69-30.75-16.45,12.57,6.7,22.78,13.74,36.71,14.36,7.16.32,15.88-.07,20.95-5.79,13.5-15.21,21.54-34.6,22.01-54.96-6.42,2.2-12.06,1.55-17.6-1.69,1.87,5.11.82,9.79-4.18,11.09-3.07.8-6.45.97-10.19-.74l8.09-1.09c12.12-1.63-3.79-16.35-1.93-29.99-1.12-1.37-3.98-2.56-5.39-2.25-1.24.27-3.81,2.3-3.81,3.58,0,7.69-2.69,15.71-9.2,19.85-8.55,5.44-19.46,3.77-25.32-4.58-3.34-4.76-4.06-9.91-4.67-16.19l-17.08,1.18c-2.19,6.09-5.85,10.67-9.95,14.21-2.72-3.75-4.02-5.46-6.55-8.02-4.77,4.68-9.05,8.92-10.24,15.08-1.09,5.64,3.53,12.58,7.97,14.49,1.34-.46,3.56-1.18,4.55-1.45.76-.21.41,2.26.38,3.68l5.02-.96c2.9,3.38,1.36,8.43.84,12.67-1.86,15.28-2.02,37.76,12.07,47.29-6.43,6.32-16.23-2.57-20.01-4.83l8,8.25-8.56,3.62ZM278.63,127.05l-10.52-12.48c-2.35-2.79-2.37-7.74-6.15-9.23-1.79,2.24-.75,5.78.84,8.65l-3.11.51c-.52.09-3.09-22.15-5.13-23.45-1.14,5.58-.75,8.51.44,12.72l2.89,10.28c-1.16.91-3.17,2.35-2.67,3l2.02,2.59c.83,1.07,4.41.56,5.67,1.07l15.71,6.32ZM252.33,117.42c.91-5.4,4.58-.87.41-16.74l-5.45,7.29c.79,3.51,5.94,16.58,7.21,17.95.61.65,2.36-1.41,2.79-2.19,1.09-1.99-5.41-3.67-4.96-6.3ZM284.79,143.6c-.11-3.61-.05-9.6-2.78-11.86-7.87-6.54-25.78-9.59-25.53-3.62.3,7.38,13.74.77,21.25,12.61l7.06,2.88ZM139.66,129.63c-.05,4.9.21,8.42-3.75,9.87-4.73-3.62-2.08-7.97-.95-13.67-3.26,2.11-3.93,7.01-2.98,11.11.51,2.19,3.51,4.23,5.52,3.14,3.73-2.04,4.87-8.11,2.17-10.45ZM272.37,151.65c-.54,4.81,2.96,9.37,1.07,13.71-1.61,3.7-5.07,7.04-8.82,8.94l8.41-10.62-4.37-12.49c-4.13-1.66-7.46-3.58-10.1-6.39l4.54-7.76c-4.83-2.2-6.87-3.49-10.97-6.87,7.05,27.44,10.67,18.71,5.21,47.82-.51,2.74.18,5.6-3.83,5.79,1.67-8.1,2.79-15.7.81-23.21-.15,7.76-1.12,14.4-4.18,21.19-.59,1.82,4.96,5.1,6.5,3.88,7.65-6.04,14.57-12.02,21.04-19.1.96-4.87-1.18-11.46-5.3-14.87ZM248.23,183.83l-6.71,5.57c5.5,24.14,16.38,17.26,21.33,37.55l10.94,44.88c12.14.75,23.75-3.23,33.41-9.77l-21.28-54.58c.16-10.04,4.95-35.61,4.1-43.51-.6-5.59-2.82-13.61-6.67-17.53-5.45-5.55-14.49-4.76-21.07-3.97-.62,7.21,10.31,5.42,15.19,9.46l2.3,12.72c1.17,6.46-20.09,13.71-15.34,40.69-3.39-3.74-3.12-8.88-2.08-13.09l2.74-11.1c-2.21,2.14-5.36,5.03-8.24,6.54-3.96,2.08-7.35-.54-8.62-3.86ZM246.66,287.6l.15-36.97c0-2.23-.66-5.62-1.25-7.59l-17.67-10.73,11.67-10.91-17.51-25.25c1.18-1.15,4.54-2.63,6.17-2.22l12.86,3.24-1.63-6.31-9.84,1.87,5.23-9.95c-4.35,5.74-8.29,10.2-15.08,12.18l17.97,26.26-12.45,11.21,19.85,11.96c-.68,13.93.51,14.7.07,27.32l-.69,19.68c-.67,19.14-4.95,37.28-8.63,56.1-2.56,13.11-6.3,25.31-6.11,38.79l8.78-42.95c2.45-11.98,4.39-23.58,6.15-35.74-.12.85,1.96-22.17,1.95-19.98ZM148.04,369.53c.73,4.61.01,9.61,2.8,13.73-2.62-45.74-18.58-77.92-39.49-116.9l-8.47-15.78,17.67-15.93-22.23-11.35,5.53-29.63c16.69-1.58,11.05,2.03,23.21.73-4.85-1.26-9.74-1.92-13.29-4.26l-2.29-1.51c-.26-.17-.17.79.04,1.03l1.51,1.76c-3.48,2.58-8.6,1.2-12.89-.91,1.15,1.86,2.26,4.08,1.82,5.79-2.5,9.65-3.97,18.38-5.09,28.24l21.36,10.43-17.03,15.04,10.96,21.46,16.66,33.29c10.27,20.53,15.62,42.07,19.22,64.78ZM189.61,419.83l13-3.41c3.1-.81,6.81,1.66,9.58,1.93,5.68.55,11.96-1.17,17.39-2.63-4.22-27.92-6.28-54.56-7.55-82.34-1.22-26.92-4.95-52.71-11.24-78.79l-7.65-31.7c-13.92,17.69-43.13,13-61.33,3.08,7.27,32.98,18.6,73.02,17.35,106.64-1.11,29.74-6.07,57.95-13.17,86.81l15.79,1.39c9.21.81,18.79,1.38,27.84-.99ZM73.67,370.21c5.76-17.89,6.3-35.73,9.2-53.84.19-8.58.52-16.71-.63-25.67-2.65,8.62-.48,16.51-1.42,24.82l-1.02,9.05-6.13,45.63ZM78.34,433.76l11.19,23.14c1.76,3.65-2.01,7.75-2.52,12.35,3.93-1.66,3.27-7.88,4.52-11.48,7.38.61,11.06-17.25,10.99-21.43l-7.09,18.94c-.34.91-4.31.96-4.71.16l-1.64-3.29c-3.84-7.72-7.23-16.67-11.98-23.42-3.53-5.01-7.14-7.69-4.82-15.03,5.25-16.64,2.64-24.46,1.19-41.39l-6.61,29.28c1.82,2.82,3.16,6.94.09,10.25-8.06-9.06-27.86-7.74-37.12.56,6.26-1.77,11.87-4.47,18.11-4.86,6.83-.42,14.25.41,19.03,5.47,3.07,3.26,4.24,8.87,5.3,13.32-9.88-.54-19.16,2.04-26.43,8.13,8.55-3.25,16.25-7.23,25.01-7.18,4.94.03,5.67,2.69,7.5,6.46ZM65.16,400.92c-7.68-7.33-18.42-8.86-27.2-6.88,10.05.52,18.65,3.28,27.2,6.88ZM232.96,437.15l-3.01-18.56-9.36,1.81,1.44,18.63,10.93-1.88ZM201.12,439.26l18.39-2.31c-.28-6.35-.64-10.98-1.43-15.98l-26.79,2.13.99,17.5c.1,1.74,2.45,4,4.66,3.77l18.5-1.92c.63-.06,2.38-.95,2.78-1.15,8.16-4.06-18.88,1.97-17.1-2.05ZM190.35,441.47l-1.48-18.2-43.91-.98-6.57,18.21c18.68,1.74,33.42,2.74,51.97.97ZM101.49,433.93c-8.54-4.13-16.59-7.28-25.83-9.25,8.41,4.25,16.77,7.2,25.83,9.25ZM286.24,448.28l-15.56,4.46-7.12-20.92c-.59,2.12,4.92,23.15,7.97,22.5.69-.15,15.71-4.59,14.71-6.04ZM63.36,715.83c-.37,15.48-1.05,29.54-3.46,44.24l-13.94,84.94-26.37,165.3c29.78,16.6,63.93,20.41,96.05,11.04l30.24-175.09,32.77-184.8,15.1-79.07c.89-4.64,2.14-11.49,5-15,9.01-11.09,19.11-20.82,30.43-29.13-7.27,11.02-17.64,16.67-25.23,26.3-8.72,11.05-20.68,82.03-20.77,92.85l-.84,99.74-1.07,34.29-10.5,209.99c30.35,10.33,62.56,11.5,92.54,1.95l1.78-38.54,19.93-325.32,4.05-67.01-8.19,1.28c-8.21,1.28-15.84-2.68-19.33-10.4-3.78-8.38-6.5-16.97-8.7-26.25-7.69-32.38-13.67-64.29-19.57-97.33-16.07.6-9.61,3.89-20.81,5.45l2.01,24.53c.81,9.84,1.56,51.7-2.7,61.51-1.39-7.03,1.15-13.13,1.11-19.79l-.2-42c-.01-2.98-.6-6.98-.97-9.93l-1.79-13.99c-9.72-.83-12.42,3.02-19.57-1.4-17.68.49-35.09.03-52.86-1.26-10.01,21.9-18.5,30.89-35.28,47.38l5.16,4.13c3.85-3.91,1.93-9.11,7.55-11.14-5.36,13.98-11.98,26.3-18.89,39.02l-16.16,29.71c-1.37-2.87-.17-4.33,1.07-6.77l-4.68-11.13c-6.16,27.29-8.74,54.22-9.89,82.17l-1.15,28.06-.98,33.98-.89,37.49ZM82.61,542.14l24.08-45.06c-4.61-4.06-9.89-7.22-12.88-12.36l-13.86-23.84c-12.01,2.78-22.13,10.72-28.4,20.66,6.55,10.33,15.2,18.35,20.43,28.83,4.96,9.94,4.47,21.8,10.64,31.76ZM228.42,1025.16l.99-12.76-17.61-.31c-7.27-.13-13.9-1.29-21.11-2.19-.21,4.15-.15,9.5.41,13.36,4.56,1.19,7.53,2.3,7.41,6.83l-.33,12.13,1.77-10.64c1.62-9.78,16.98-2.45,28.48-6.41ZM79.13,1043.76l2.05-14.58c-12.9-.37-23.93-1.92-35.9-5.01l-.78,17.74c10.98,4.79,22.82,5.9,34.63,1.85ZM218.22,1117.92c-5.72-7.9-13.22-14.8-21.99-19.06l-20.38-9.91c.96,1.43,2.77,2.96,4.33,3.75l20.11,10.1c7.07,3.55,11.11,10.69,17.93,15.13ZM197.36,1124.61c2.59-4.41,1.4-8.43,1.5-12.51l-1.68-9.17c-.38,7.61-.41,14.21.18,21.68ZM302.33,1131.27c-24.75,6.44-46.55,4.55-70.63-2.21,12.65,8.7,57.57,9.36,72.15,2.68,1.29-2.2.4-2.1-1.52-.47ZM62.63,1167.35c-16.32,3.79-22.74,3.94-36.84-.13,9.35,6.68,29.18,5.59,36.84.13Z"/>
      <g>
        <path d="M191.18,134.56c1.54,2.91,5.7,5.69,9.49,7.27,6.17,2.57,12.28.34,17.69-4.25.54,2.4-1.89,5.2-4.58,6.14-10.44,3.63-23.36-1.44-26.85-12.55,11.8,2.35,21.74,3.64,32.36,1.76.6-.11,1.57-.19,1.99-.21s.61.92.58,1.34c-.21,3.47-25.32.95-30.68.5Z"/>
        <path d="M194.2,89.14l-.59,5.58c-.13,1.27-3.4,2.8-4.56,2.12-3.98-2.33-3.73-9.57.04-12.19,2.28-1.58,5.4,1.75,5.11,4.49Z"/>
        <path d="M235.39,88.09c1.16,3.26-.59,9.05-4.2,8.31-4.74-.96-3.68-8.55-.99-11.11.52-.49,2.7-1.24,3.21-.81.67.57,1.35,1.82,1.98,3.61Z"/>
      </g>
    </g>
  </g>
</svg>