<?xml version="1.0" encoding="UTF-8"?>
<svg id="Calque_2" data-name="Calque 2" xmlns="http://www.w3.org/2000/svg" viewBox="0 0 758.75 766.33">
  <g id="Calque_1-2" data-name="Calque 1">
    <g>
      <path d="M189.06,735.1c-34.1-2.88-66.31-7.73-99.05-15.72-30.65-7.48-59.29-18.08-88-30.78-1.07-.47-2.2-2.44-1.99-3.37s2.7-2.24,3.82-1.74c29.22,12.87,59.89,23.87,91.24,31.28,31.65,7.48,62.27,12.27,94.55,14.99,1.1.09,2.51,1.45,2.86,2.28s-1.86,3.18-3.43,3.05Z"/>
      <path d="M168.4,697.86c1.68.23,3.48,2.13,3.42,3.07-.07,1.13-2.1,2.63-3.69,2.42-41.95-5.46-82.03-16.49-120.99-32.92-1.13-.48-2.27-2.45-2.07-3.39s3.01-2.2,3.94-1.8c38.32,16.34,77.74,26.9,119.41,32.62Z"/>
      <path d="M446.56,731.89c-1.24,1.34-3.47,1.87-4.22,1.24s-1.06-3.3-.35-4.06l23.93-25.82c.74-.8,3.04-.95,3.85-.62s1.13,3.09.54,3.72l-23.75,25.55Z"/>
      <path d="M462.32,742.3c-.82.42-3.12-.61-3.25-1.46s.76-3.16,1.54-3.55l23.89-11.96c.7-.35,3.35.48,3.62,1.19.34.89-.37,2.82-1.44,3.37l-24.36,12.41Z"/>
      <path d="M523.06,455.89c-4.55-2.4-7.89-2.55-12.54-2.28-10.07.57-19.07-3.55-28.04-8.1-10.94,1.78-20.8,6.88-29.08,14.19-9.89,8.73-19.1,17.53-28.83,27.1,16.34,7.61,91.44,41.42,83.04,63.59l-16.76,44.22c-2.43,6.42-6.94,10.25-14.38,11.08l-35.95,71.58c-13.56,27.01-25.84,53.62-37.6,81.34-2.06,4.84-6.97,7.24-12.12,7.54-13.87.79-27.03-.76-40.86-3.79-36.78-8.06-72.01-20-106.13-35.74-7.32-3.38-30.86-14.84-31.11-23.58,12.89-57.47,23.91-114.74,34.06-172.94-5.11-4.12-7.23-9.64-5.45-15.65l13.21-44.47c1.97-6.65,5.19-11.46,12.44-13.5,24.13-5.93,54.39-.09,79.07,4.83,1.35-18.88.79-37.35-2.43-55.9-4.59-3.34-8.38-7.19-11.72-12.03-6.75-10.31-12.85-20.64-20.77-30.11l-24.99-29.9c-5.99-7.16-17.96-24.82-12.24-33.24,1.55-2.28,5.56-5.04,9.34-5.23,25.22-1.26,49.92,9.83,65.48,29.84,18.2,23.4,18.34,55.43.79,79.1,3.48,19.81,4.21,38.65,2.39,58.82l14.93,3.62c5.26-16.24,7.84-31.53,11.14-48.14,7.98-40.12,14.36-79.9,16.12-120.95-13.97-11.36-18.12-33.7-19.63-51.41-14.27-24.75-37.34-42.4-64.84-50.4-9.48-2.76-22.94-6.67-23.28-16.84-.36-10.82,15.21-15.55,25.43-15.63,25.75-.2,51.04,6.6,73.47,19.13,24.53,13.71,43.38,38.68,40.42,67.97-1.86,18.34-10.89,34.42-24.99,46.43-.94,17.96-1.83,35.34-4.78,53.45l-11.23,68.98,27.9-69.9,51.51-130.36c9.02-22.83,16.25-45.19,23.32-68.91-8.07-15.36-11.01-49.74-10.55-66.98.59-22.25,6.86-43.3,19.76-61.32,5.58-7.8,12.42-14.24,20.87-18.44,10.4-5.17,22.31-3.52,30.33,5.05,7.16,7.65,11.14,17.4,13.24,27.94,5.36,26.92-2.12,54.05-18.77,75.74-12.94,16.85-28.93,30.19-48.25,38.62-6.88,22.52-14.13,43.69-22.23,65.51l-20.09,54.11c23.8-29.76,43.6-50.15,77.81-68.22,12.5-6.6,25.27-8.15,38.34-12.01,22.95-6.78,45.31-11.92,69.58-10.23,34.01,2.36,64.67,18.3,84.48,46.04,4.72,6.6,12.25,19.24,6.81,26.09s-26.49,3.02-36.52,1.94c-16.3-1.76-31.82-3.47-47.78-7.36-31.21-7.61-58.91-23.79-79.42-48.72-47.81,6.67-92.03,50.54-116.69,89.82-2.66,4.24-6.82,8.07-8.66,12.67l-51.36,128.34-15.13,40.07,18.34,5.59c19.28-32.97,41.5-56.56,69.19-81.86,2.71-24.94,19.84-53.27,39.22-68.92,14.68-11.85,38.51-22.65,57.12-17.2,16.9,4.95,2.53,30.83-4.28,40.18-19.87,27.31-53.23,46.15-87.05,49.99-26.63,23.12-49.69,49.01-68.37,80l20.93,8.2c27.44-28.32,56.88-52.56,88.94-74.96,34.82-24.32,78.8-50.87,120.26-59.77,12.35-2.65,23.33-1.41,35.25,1.44,19.83,4.74,38.28,11.39,54.72,23.83,25.91,19.6,41.25,50.25,41.37,82.79.02,4.87-1.72,9.79-6.06,11.82-2.59,1.21-7.39-.15-9.8-2.07l-27.9-22.23c-29.6-23.58-49.92-51.01-56.73-88.64-24.84-8.92-67.71,10.78-89.82,22.45-26.92,14.21-51.58,30.66-76.11,48.64,9.52-3.25,18.23-5.41,28.19-5.17,29.14.7,55.85,13.76,73.25,37.02,3.91,5.23,10.21,16.83,4.33,21.36-1.58,1.22-5.43,2.15-7.97,1.52-23.55-5.76-45.29-14.98-67.06-26.44ZM482.49,597.32c1.04-1.28,2.59-3.3,3.01-4.39l16.99-44.39c3.51-9.18-20.86-25.04-27.61-29.22-49.72-30.77-111.87-52.84-170.12-59.02-8.24-.87-40.6-2.4-43.38,6.78l-14.92,49.23c-.54,1.77.07,4.71.99,5.84,1.77-2.99,4.03-6.04,7.55-6.45,9.48-1.11,17.99-1.37,27.82-.44,58.43,5.52,114.63,23.18,165.48,52.23,10.23,5.85,19.13,11.97,28.08,19.23,3.42,2.77,5.02,6.68,6.12,10.6ZM398.87,753.34c12.72-29.5,26.2-57.86,40.63-86.56l36.73-73.06c-8.11-6.83-16.16-12.88-25.51-18.39-50.91-30.04-107.94-48.39-166.85-54.53-10.55-1.1-19.44-.71-29.63.47-1.24,5.38-2.14,9.49-3.07,14.98-9.21,54.55-19.72,108.36-32.02,162.21,12-.8,22.3.61,33.46,3.13,44.29,10.01,86.8,24.27,128.52,42.06,6.32,2.7,11.61,5.91,17.74,9.69ZM396.41,759.42c-2.13-2.62-4.07-4.48-7.05-5.83-46.22-20.94-94.05-37.14-143.76-47.71-9.06-1.92-17.4-3.01-26.45-.87,8.47,7.64,17.04,11.97,26.58,16.43,29.17,13.65,59.24,23.95,90.53,31.99,13.4,3.44,48.08,11.05,60.15,5.99Z"/>
    </g>
  </g>
</svg>