<?xml version="1.0" encoding="UTF-8"?>
<svg id="Calque_2" data-name="Calque 2" xmlns="http://www.w3.org/2000/svg" viewBox="0 0 394.69 1147.76">
  <g id="Calque_1-2" data-name="Calque 1">
    <g>
      <path d="M136.37,1034.32c-.78,17.11,3.7,12,6.76,22.01,2.89,9.45,3.84,18.33,3.74,28.02-.08,7.62.8,14.77-.81,22.69-10.87,3.76-20.87,6.27-31.89,8.18-8.32-3.29-7.28-6.97-18.44.63-11.19,7.62-23.09,11.81-36.61,13.58-15.57,2.04-44.26,3.51-56.51-6.58-4.39-3.62-2.24-10.18-.64-14.35,4.21-10.93,7.63-11.63,19.84-17.98,16.76-8.72,31.75-19.99,43.56-34.86,2.46-3.1,6.68-2.33,9.57-4.22,5.13-3.37,9.53-11.14,11.68-17.23,3.48-9.85,3.94-20.18,4.21-30.16-8.99-2.22-16.59-4.71-24.29-9.75l7.08-114.97,8.53-150.8c4.27-75.49,6.29-165.18,20.76-238.8,5.01-25.47,13.82-48.94,26.39-71.53l2.56-13.56c-12.89-9.45-7.77-21.81-3.44-35.28,5.2-16.15,4.11-17.41,1.05-34.37-19.39,13.77-39.57,25.19-62.79,24.41-14.67-.49-26.54-8.49-31.41-22.11-8.28-23.13-3.08-45.42,9.27-65.89,3.01-5,8.76-7.58,11.99-11.76,6.88-8.9,11.21-26.3,18.65-24.99,9.24-17.09,20.72-33.09,27.7-51.59s-6.44-49.04,13.47-65.07c1.37-9.26,9.06-13.36,16.5-17.79,6.69-3.98,19.24-14.78,22-22.97,1.82-5.4,1.46-13.34.38-18.8-.88-4.46-3.57-8.62-3.31-13.37.78-14.27,8.55-25.71,20-33.3,11.43-7.58,23.74-9.18,37.06-10.5,15.27-1.51,29.88-2.7,44.7,2.8,28.26,10.48,39.28,34.66,45.69,62.49l8.82,38.27c8.5,36.87,33.41,45.58,27.61,79.88,10.92,6.7,18.86,15.69,24.34,27.18,7.14,14.98,12.16,30.29,16.14,46.68,8.12,33.5,13.76,66.66,17.78,101.09,3.22,27.58-6.08,54.38-25.42,73.67-5.04,5.03-11.61,7.05-18.42,6.86l-28.69,28.16c8.14,27.43,10.75,54.19,8.7,82.33l-11.04,151.68c-1.59,21.8-1.07,42.29,2.63,63.56,4.25,24.41,7.36,47.88,9.04,72.72l10.56,155.84c-9.09,5.68-18.26,8.8-28.99,12.18-.65,9.2-.94,18.71-.36,28.65,1.41,23.98,5.19,15.23,9.18,27.81,3.05,9.6,4.73,18.56,4.78,28.46.04,7.03,1.6,14.77-.72,21.83-8.16,4.6-16.66,8.06-25.25,11.35l-8.1-2.64c-5.91,3.99-10.06,9.65-16.25,13.04-20.8,11.4-45.32,14.79-68.62,11.25-5.02-.76-10.88-2.78-13.98-6.18-3.63-3.98-1.14-9.95-.35-14.1,1.31-6.85,4.37-11.38,9.91-15.45,13.35-9.82,26.82-19.65,36.18-33.42l7.83-11.52c1.87-2.75,6.5-3.7,10.05-4.24,10.39-16.27,9.16-30.42,7.35-49.14-10.8-1.09-20.35-2.6-28.79-8.06l-10.33-116-13.47-135.76-11.73-102.58c-4.57,43.34-9.13,85.64-10.95,129.02l-3.92,93.47-6.49,125.77c-13.26,4.44-25.62,6.61-39.28,8.26-1.31,9.35-2.32,18.2-2.76,27.83ZM224.55,201.72c.69-9.31,1.84-16.84,4.48-24.67,5.51-16.31,8.39-32.5,7.86-49.7-6.16-3.61-6.35-12.72-1.36-16.58.81.94,2.52,3.9,3.08,3.21l2.61-3.21c1.59,1.27,3.97,10.22-.75,12.4-.75.35-3.2-.88-3.33-1.68l-1.17-7.36c-1.16,2.51-1.46,6.29-.02,8.95,1.29,2.39,5.97,2.53,7.46.29,2.24-3.37,1.71-7.53.51-11.45,7.91-5.62,12.46-15.19,9.77-24.85-.86-3.09-4.02-5.81-6.75-6.37-8.28-1.7-6.86,7.18-16.12,5.93-7.62-1.02-8.13-8.87-12.2-12.47-18.4-14.88-29.73-27.58-33.06-51.93-16.96,5.93-22.46,19.23-26.19,34.4,15.21,29.47-32.9,35.19-2.5,46.45-.78,5.27-.38,10.69,1.49,15.74,7.92,21.47,2.42,30.35,17.44,31.35,13.61.91,28.16-4.72,39.2-12.05.7-.47,2.75-.5,2.68.08-.58,4.43-15.27,9.69-19.25,11.64,1.09,4.82,8.32,32.15,2.46,33.84l-.82-9.12c-3.26,3.37-6.63,7.12-7.54,11.47-1.01,4.83,2.65,10.08,6.4,12.83,7.41,5.42,17.61,6.32,25.64,2.85ZM158.85,72.47c2.21-4.68,2.98-8.27-.23-11.81-.36,4.31-.28,8.17.23,11.81ZM144.35,102.6c2.5-.58-.1-5.57-1.74-5.68-2.44,1.21-4.95,3.32-7.24,5.48,2.94.47,5.96.9,8.98.2ZM140.8,111.44c1.18-.05,3.44-1.92,3.19-2.95-1.18-4.85-12.37-3.1-15.78-1.74-4.41,1.76-7.36,5.28-8.2,9.45,17.7-2.14,5.68-4.06,20.79-4.76ZM161.89,146.9l-13.91,16.96c-1.09,1.33-3.94,2.79-5.42,2.87s-4.54-1.41-5.46-2.61l-8.73-11.27c2.43,9.07,7.49,17.09,1.22,25.14,1.37-20.1-3.96-17.17-5.23-30.93l-4.54-7.17c-2.21-3.5-2.41-7.74-.35-11.09,4.75-7.71,14.1-.49,15.77-8.95-9.36-4.8-19.36-.31-23.79,8.48-2.6,5.15-3.79,9.69-3.88,15.61l-.47,31.97c-.06,4.19-.78,8.4-2.68,12.17-8.83,17.49-18.24,33.78-28.62,51.1,8.34,10.4,21.31,16.54,34.37,16.07,6.33-18,12.36-35.09,19.77-52.18,7.08-16.34,18.23-12.78,25.45-32.68,6.24-17.21,15.91-19.87,6.5-23.5ZM141.53,163.36l-17.14-24.9c-2.36-3.42-2.09-6.08.99-10.37-4.01,1.08-5.76,6.35-3.26,9.92l16.3,23.32c.61.87,2.91,2.16,3.1,2.03ZM331.71,182.75c3.01-9.96.57-20.04-4.84-28.06,2.88,9.61,4.06,17.81,4.84,28.06ZM50.4,268.68c-14.48,18.79-19.95,42.68-13.32,65.05,3.75,12.65,13.49,20.97,26.47,22.49,22.5,2.63,48.77-11.09,65.33-25.1-3.3-17.47-6.01-23.77-5.08-41.39.44-8.33,2.8-16.28,4.81-24.27l4.01-15.98c.66-.01,1.72-.07,1.85.31s.29,1.93.12,2.66l-6.62,28.02c-2.21,9.35-2.29,18.73-.53,28.03l6.5,34.45c3.45,18.29-3.83,25.46-7.13,43.66-1.33,7.36,2.63,14.11,9.48,16.8,39.01,15.28,119.63,16.54,159.01,4.45,8.04-2.47,13.4-9.51,12.57-18.27-.56-5.95-2.33-11.8-4.27-17.47-5.44-15.95,6.49-40.22,5.51-49.56l-4.07-38.7c-.75-7.11-1.01-13.68,1.09-21.01l1.97,23.96,9.88,68.86c1.05,7.31-1.76,15.39,5.07,20.58-7.55,8.94-14.53,19.8-9.83,31.67,1.3-4.41,4.89-6.91,9.78-6.4,16.88,1.75,34.92,18.86,30.73,35.93,5.83-.95,10.79-4.07,14.82-8.32,18.14-19.13,25.7-45.05,22.42-71.5-3.72-29.96-8.5-58.67-14.98-88-3.94-17.82-8.96-34.45-15.85-51.1-12.44-30.06-34.52-36.79-63.07-46.9,2.56,22.62.11,52.46-17.74,67.48-5.29,4.45-11.74,8.05-18.66,7.14,2.59-3.8,5.98-5.81,6.06-9.65-6.78,11.82-20.66,18.04-33.45,11.25,9.08-5.9,14.83-14.25,15.24-24.27l-5.16,12.37c-4.02,9.64-19.37,16.63-26.22,7.76,7.01-4.56,11.47-10.67,12.21-18.65l-3.41-9.77c-.66,4.22-7.76,25.72-15.43,21.69,10.04-10.12,11.96-18.45,13.74-31.35-14.79,1.89-29.29.36-34.73-15.71-9.45,12.42-23.58,34.32-12.98,49.44.69.98,1.37,2.21,1.64,2.92s-2.08,1.93-3.03,2.16c-6.49,1.58-11.78-3.64-15.45-10.26-.11,4.04,3.38,6.86,6.24,9.82-6.62,3.89-14.54.89-18.58-5.83-2.73-4.54-3.14-10.26-4.93-15.47-1.13,5.68,1.15,10.67,3.21,16.85-5.31.45-8.74-4.4-10.8-8.83-4.59-9.86-2.49-19.98-.33-30.13-8.29,17.42-14.15,34.59-20.29,52.15l1.79,4.68-7.51,22.88c-.49,1.49.62,4.74.7,6.65.62,14.82-2.62,32.31-14.47,42.7,5.83-14.8,16.85-30.17,10.22-46.99l7.79-24.7c-14.52,2.11-33.68-6.93-40.58-19.87l-13.76,25.1c-2.32,1.2-5.91,2.82-7.98,5.51ZM230.56,218.74c.61-6.42.76-11.13-.36-16.81-2.33,6.16-1.57,11.84.36,16.81ZM319.16,376.38c-5.18-6.29-3.52-13.01-3.94-19.89-.49-8.1-2.15-15.93-4.41-24.73-1.81,10.73-8.2,21.97-5.62,32.98l5.65,24.1,8.31-12.45ZM303.31,423.63l7.77-12.18-2.33-9.28-8.54,7.1c.53,4.22,1.46,8.71,3.1,14.37ZM329.82,456.08l21.72-21.83c2.24-14.25-20.73-34.79-33.7-28.83-10.94,18.8-21.99,38.26-37.53,53.7l17.35,33.51c3.94-7.12,8.03-13.3,13.57-18.65l18.58-17.9ZM292,425.23c1.41-1.87.39-1.68-1.36-.68l-33.75,5.89c11.89.46,23.24-2.65,35.11-5.21ZM226.8,432.27l-31.34-1c-15.5-.5-29.99-3.94-45.55-6.43,10.31,4,21.34,4.52,32.51,6.51l11.11.86c11.27.87,22.54.57,33.26.07ZM172.71,505.68c.02-14.94-1.7-37-.29-52.7l1.3-14.45c-.92,1.71-1.51,3.97-1.71,6l-.8,8.15-.03,43.93c0,2.56.97,6.12,1.54,9.07ZM268.57,440.01c2.82,6.97,5.51,12.44,9.12,18,2.75,2.88-10.63-25.64-9.12-18ZM199.25,648.71c1.22-4.94.52-9.36-.07-14.2l-7.49-60.55c-1.03-8.29-2.37-17.76-5.7-25.47-10.15-10.7-21.07-20.89-33.23-28.56,6.8,8,31.69,23.84,33.57,33.51,2.62,13.46,4.48,27.04,6.17,40.68l6.75,54.59ZM86,1081.1c17.35-6.14,38.07-16.02,49.73-28.56-3.73-15.2-1.84-30.24.18-45.71-14.35,1.28-28,.73-41.77-2.01l-1.92,18.45c-1.19,11.41-6.15,20.88-13.72,29.9,7,3.07,12.77,8.4,12.07,16.18-.37,4.15-3.02,7.98-4.58,11.75ZM277.92,1082.47l-1.4,7.83c11.54-6.68,33.32-21.38,36.06-32.88l-3.47-21.26c-1.54-9.42-.17-18.89-.06-28.47-14.01,3.58-27.45,5.38-41.65,5.02l.63,16.54c.45,11.67-1.81,22.79-7.87,32.75,9.56,3.24,19.99,7.92,17.75,20.47ZM139.11,1091.36l-28.16,7.57c9.79-1.06,18.94-3.5,28.16-7.57ZM12.35,1116.45c13.49,7.08,58.93,3.5,70.88-5.24-14.91,5.09-38.36,9.34-53.34,7.45l-17.54-2.21ZM200.13,1133.52c13.75,7.48,53.2,3.15,65.96-5.22-17.04,5.33-35.4,9.69-53.08,7.11l-12.88-1.88Z"/>
      <g>
        <path d="M176.43,117.89l-14.02.8c-.51.03-1.85-.42-2.23-.52s.26-2.19.66-2.22l20.53-1.49c-1.63,8.72-11.91,14.08-18.79,10.23,5.71-2.18,11.38-2.03,13.86-6.8Z"/>
        <path d="M191.18,65.49c-.93,2.23-6.96-7.8-17.58-4.63-.45.14-2.07-1.24-1.81-1.48.41-.36,1.47-1.3,2.01-1.63,5.76-3.52,19.67,2.21,17.38,7.74Z"/>
        <path d="M180.69,78.41c.06,3.05-1.62,8.08-4.56,6.39-3.45-1.98-3.28-10.38.17-12.17,2.67-1.39,4.33,2.93,4.39,5.78Z"/>
      </g>
      <path d="M361.83,357.95c-23.6.31-21.44,4.63-30.49,8.75-.33.15-1.41-.33-1.47-.68-1.02-5.57,26.36-14.69,31.96-8.07Z"/>
    </g>
  </g>
</svg>