<?xml version="1.0" encoding="UTF-8"?>
<svg id="Calque_2" data-name="Calque 2" xmlns="http://www.w3.org/2000/svg" viewBox="0 0 453.62 1199.02">
  <g id="Calque_1-2" data-name="Calque 1">
    <g>
      <path d="M258.8,1102.4c6.76,18.87,6.04,18.9,7.35,37.49.45,6.32,2.41,22.33-3.87,24.67-8.61,3.21-16.36,5.92-25.54,7.53-2.53.44-7.34-3.29-9.94-3.63-11.19,4.64-11.88,10.5-25.55,15.15-21.66,7.37-46.99,8.86-68.84,1.11-7.18-2.54-4.21-12.21-3.03-17.1,1.22-5.09,3.36-10.32,8.15-13.24l16.23-9.89c14.26-8.69,26.2-20.59,33.86-35.4,2.77-5.36,7.55-4.81,11.35-7.68,6.57-4.96,8.2-17.33,7.35-25.12l-1.77-16.28c-15.74-1.65-31.57-6.29-45.85-12.47-.76-1.17-1.5-4.2-1.56-5.55l-.87-19.04-.88-19.97-1.35-32.4-3.69-91.43-1.22-33.98-.82-24.08-1.19-35.96-1.12-34.21-1.72-71.72c-.73-30.51-1.14-59.9-.22-90.28,1.37-45.23,6.11-77.02,24.4-118.71,3.5-7.98,7.62-14.78,11.67-22.53,1.96-3.74,2.17-9.7,3.2-14.06-15.83-7.4-16.11-17.71-12.02-32.6,5.52-20.13,7.04-21.22,4.43-44.63-12.08,21.96-24.09,45.02-48.7,55.13-15.89,6.53-32.85,2.57-43.84-10.38-4.62-5.44-8.51-11.11-11.36-17.76-6.07-14.17-9.09-29.35-8.76-44.78.18-8.73,2.96-16.02,5.44-24.37l-1.1-14.64c-.73-9.68,1.01-18.04,11-22.02l-.68-24.15-.87-10.97c-.11-1.41-1.59-4.18-2.56-5.19-14.4-15-16.81-29.24-26.33-47.91-2.78-5.45-16.91-29.51-6.25-31.74,1.79-.37,5.08,1.32,6.05,3.01l3.93,6.85c-.1.32.21-.71.31-1.03-2.1-7.77-11.96-26.63-5.42-32.08,1.5-1.25,4.83-1.1,7.09-.34l-.36-3.68c-.23-2.37,1.39-5.67,3.43-6.6,1.76-.81,6.03-.09,7.19,1.59l5.68,8.18c-.57-2.64.04-5.89,2.27-7.51,5.14-3.73,10.75,5.99,12.47,10.18l10.47,25.53c3.07,7.48,5.95,14.04,9.69,21.23,2.6-9.37-.16-17.41,6.36-25.51,1.26-1.57,4.82-2.65,6.54-2.29,6.71,1.38,2.61,17.4,3.93,28.5l1.77,14.91c1.12,9.47-2.05,18.39-6.28,26.67l-3.38,6.62c.92,13.45,2.77,26.42,5.21,39.35,4.31.72,7.07,2.69,8.88,5.68.75.92,1.66,1.99.85.89l14.91-30.58c5-10.25,11.76-19.35,20.31-26.7-4.28-12.53-1.55-22.82,3.82-34.21l8.06-17.1c4.67-9.92-6.27-19.39,2.49-44.48,4.8-13.74,8.06-27.23,10.05-41.76C193.08,46.35,211.06,7.88,250.74.43c7.73-1.45,14.82,1.22,22.05,1.56,7.96.37,15.45-.94,23.26,2.22,12.3,4.97,22.36,13.25,29.97,24.39,16.41,24.05,17.28,42.16,31.02,68.94,2.67,5.2,5.13,10.31,7.35,15.71,9.62,23.38.53,35.42,8.98,49.83l10.63,18.12c6.1,10.41,9.03,21.84,7.21,33.79,13.02,6.56,23.55,16.26,29.43,29.61,4.37,9.93,7.47,19.96,9.51,30.61,1.65,8.62,3.28,16.97,4.27,25.63l3.9,34.06,11.13,86.5c3.59,27.9,8.83,54.29-3.98,80.55.82,1.91,2.12,5.21,1.99,6.97l-1.61,21.47c-.26,3.49-3.07,7.34-6.3,8.52l-7.17,2.63-.91,13.78c-.54,8.17-1.68,16.72-.37,24.85l4.67,29.06c2.11,13.12.45,26.26-4.72,38.3-3.96,9.23-24.79,23.48-33.9,29.07l5.89,59.46,14.44,138,5.88,55.69,10.82,106.18c.26,2.59-1.09,5.37-3.19,6.48-8.29,4.39-16.07,7.58-25.11,10.92-1.92,16.28-1.28,27.17,2.04,43.16,3.86,3.01,7.82,16.79,9.38,22,1.81,6.06,1.95,12.08,2.32,18.27l.78,13.18c.13,2.23.41,7.9-1.12,9.61-3.48,3.13-8.75,7.05-12.91,10.16s-7.24-1.88-9.32,1.53l-5.67,9.27c-2.82,4.62-8.06,7.84-13.06,10.01-19.66,8.56-42.34,11.23-63.15,5.19-8.19-2.38-5.04-13.08-4.23-18.04.88-5.44,2.4-10.4,6.12-14.55,11.04-12.33,17.87-19.63,25.73-34.94,5.14-10,2.19-14.79,13.88-21.7,8.27-14.74,4.4-29.62,2.77-45.35-.05-.47-1.41-1.8-2.05-1.84-12.99-.8-27.64-3.81-40.34-8.39-1.23-.44-2.14-3.5-2.32-4.98l-14.35-116.92-17.25-147.09-15.22-140.49-.79-8.24-.73-9.97-.44-5.95-.89-9.07-1-8.89-1.16-10.97c-.23-2.15-.48-4.23-.82-6.23l-.57-3.34c.18-1.77,0-1.68-.9.36l.94,10.21,1,9.01,1,9,.98,9.02.59,15.76c.15,4.08.73,7.98.82,12.11l.88,40.95.94,24.97.94,24.96,1.11,31.01,1.02,31.01,1.06,34.97.76,28.98,1.26,42.97,1.65,50.19,1.12,33.88,1.01,30.13.86,26.38c.18,5.39-19.69,10.59-23.61,11.62-.66.17-2.08,1.96-2.09,2.62l-.11,21.07c-.03,6.13,1.24,12.8,2.45,18.42.81.9,3.19,2.97,3.61,4.03ZM219.2,133.36c3.28,7.81,5.48,14.08,9.97,20.1,7.58,10.15,17.94,17.31,29.77,21.69,18.37,6.8,33.01-3.81,45.12-16.29,6.46-6.66,10.92-14.72,13.04-23.8l2.89-12.38,3.39.93.71.19c1.48.42,1.35-.5,1.65-1.98.1-1.11,2.22-1.25,2.6-.13,1.8,3.92,3.02,6.84,2.2,10.38-.26,1.14-2.21,2.93-3.27,3.02s-3.33-1.47-3.57-2.48l-1.41-5.98c-.95,1.84-.76,5.83.54,8.09.66,1.15,3.97,2.24,5.28,1.97s3.33-2.09,3.85-3.55c1.48-4.18.34-8.05-2.04-11.65,8.31-7.98,11.15-20.58,5.83-31.18-1.26-2.51-4.13-3.87-6.79-3-4.18,1.36-4.22,5.13-7.29,9.61-.24.35-1.88-1.37-2.04-1.92l-5.11-17.94c-14.61-10.73-27.75-22.58-37.07-38.04l-7.84-13.01c-10.11,6.76-12.08,9.64-17.05,21.3-4.15,9.73-9.23,18.69-16.66,26.1l9.19,1.36c.49.07,1.31,2.15,1,2.54-1.32,1.69-14.16-3.28-21.07,6.24-.31.43-2,1.22-2.41.97l-1.66-1-8.18,5.52-.02,15.7c0,1.16-.84,3.57-1.43,2.93l-3.44-3.7c-1.11-1.2-2.99-1.21-4.15-.05-1.87,1.87-3.71,4.16-3.89,6.01-1.03,10.2,4.6,19.67,11.87,25.19-1.49,2.33-2.52,4.81-2.58,7.47-.07,3.42,2.12,7.04,5.65,7.19,1.59.07,4.28-1.8,4.6-3.33.35-1.66.18-4.11-.36-6.04l-1.28,5.06c-.25,1.01-2.18,2.74-3.23,2.62-5.83-.65-2.79-13.95-.7-15.71l.1.17c1.09,1.92,3.68,2.33,5.31.84h0ZM357.33,108l7.84,35.8c1.35-13.52-2.37-26.85-7.84-35.8ZM110.8,236.07c-.56-3.96,1.29-8.12,2.86-10.9,11.51-20.24,4.72-31.36,4.72-42.62v-21.59c0-1.21-1.81-3.76-2.79-3.36-9.61,3.91-5.16,26.61-9.98,30.54-4.93,4.03-8.32,7.46-10.7,14.22-.03,0-.75-.93-1.38-1.76,1.84-5.9,5.09-10.13,10.01-13.47-1.77-3.36-4.02-7.02-5.53-10.65l-15.88-38.32c-1.16-2.8-5.6-11.9-9.04-9.91-2.9,1.67.3,11.58,1.45,14.76l10.23,28.21-1.14,1.56c-.25.34-1.75-.85-1.98-1.44l-13.48-32.96c-1.66-4.06-5.65-13.37-10.27-12.07s.24,11.87,1.75,15.82l12.84,33.59c.27.7-.07,2.14-.28,2.61s-2-.68-2.24-1.28l-14.85-35.63c-.84-2.02-3.33-5.39-5.08-5.41-2.45.23-3.66,5.22-2.91,7.6,4.36,13.92,9.2,26.78,15.05,40.14.36.83.33,2.03.13,2.7-.15.5-2.29-.52-2.69-1.16l-13.35-21.91c-.68-1.11-3.14-2.79-4.37-3.03-5.68,3.04,9.82,30.75,12.69,36.55,7.85,15.86,7.64,23.88,22.14,38.93,2.1,2.18,3.12,5.48,3.27,8.53l.58,12.19.56,32.54c12.94,3.04,26.54-.42,35.82-9.28l-6.16-43.75ZM179.48,155.83c2.32-9.1,2.83-18.1,2.67-27.85-3.3,6.33-4.5,19.72-2.67,27.85ZM282.33,227.22c9.96-1.37,23.59-4.93,30.24-12.91l-3.55-20.48c-.86-4.98-2.37-10.1-2.77-15.23l-1.28-16.32c-16.9,16.89-34.22,23.81-56.5,11.02l1.43,16.24c.45,5.11.1,9.96-1.51,15.33l-1.23-7.44c-1.4-.06-3.12,3.04-3.29,4.96l-1,11.19c7.69,11.21,26.48,15.42,39.46,13.63ZM171.14,195.06l4.72-15.23c-6.15,9.91-13.22,23.91-9.14,37.96,5.05-.23-.86-5.66,4.42-22.73ZM386.67,212.95l-.64-11.89c-2.9-7.6-5.23-15.31-10.84-21.93,3.69,9.37,8,18.08,8.7,28.39.16,2.36-.82,4.12,2.78,5.43ZM158.55,380.11c5.74-9.19,13.23-18.91,15.66-29.48,1.45-7.65-1.92-16.39-1.6-24.13.36-8.6,1.57-17.21,1.08-25.26-.47-5.79-7.87-10.11-6.44-16.95l7.45,13.48c1.9-13.87-3.04-18.06-3.78-31.45,2.03,3.16,2.66,6.13,3.47,9.74l2.17,9.73c1.23,5.52.9,11.96.27,17.76-4.01,37.38,3.97,52.38,2.46,74.89-.64,9.53-4.01,18.49-6.55,27.45-2.47,8.71-.62,17.29,6.87,22.88,2.3,1.72,6.18,2.6,9.18,2.28l28.23-2.97-19.07-6.72c3.54-.2,6.18.92,9.3,1.74l17.21,4.56c10.72,2.84,21.29,4.19,32.43,4.13,14.26-.07,27.94.91,42.09,2.04l20.82,1.66c11.61.93,22.48,3.48,33.99,5.5,3.56.62,7.67.03,10.4-2.19,10.52-8.55,9.3-19.17,8.25-30.37l-2.06-22.12-2.31,8.6c-1.02-5.1.3-8.7.83-13.14l5.01-42.24c.44-3.72.82-7.3,1.04-11.09l.57-9.99c.29-5.05.85-9.35,1.74-14.72,1.46,2.17,1.19,3.06,1.48,6.06-.38.24-.14.09.54-.34,1.55-4.6,2.88-8.74,4.03-13.34.77-3.07.31-6.49,2.82-9.14-.63,10.42-3.89,20.57-7.78,29.79-.67,1.58-.84,4.97-.97,6.6l-.92,11.15-.83,10.07-2.14,21.31c-1.46,14.54.22,28.79,1.77,43.33,2.07,19.43-2.64,16.58-2.43,29.18l.32,18.61c.27,15.94.68,37.16,13.51,48.07-3.87,6.78-.35,13.17-.21,24.3.06,4.92,4.53,9.09,8.1,9.01.63,0,.71-2.12.16-2.51l-2.62-1.84c9.18-6.14,39.29-6.56,45.56-1.07.3.26-.25,1.45-.64,1.39l-1.91-.33-1.97-.35c-.72-.13-.96,4.71-.02,4.46l2.08-.54c5.77-1.5,8.46-5.44,8.47-11.26.02-11.45,2.64-17.77-1.22-24.18,3.4-8.14,6.91-16.85,7.77-25.98,1.33-14.13.33-27.67-1.68-41.77l-7.47-52.4-9.1-79.06c-1.98-17.2-4.98-33.72-10.7-49.88-7.82-22.12-23-34-44.42-41.05,3.49,13.17,4.54,23.14-.8,35.02-.81,1.8-4.11,2.59-5.77,2.16-.46,2.58-.9,5.99-1.82,9.02-1.45,4.77-12.19,14.68-14.51,10.65,3.04-4.23,6.28-9.03,6.43-14.17-2.33,3.87-4.19,7.96-6.83,11.59-6.09,8.34-20.78,15.22-29.85,9.87,5.94-5.29,9.53-10.46,12.43-17.3l.75-1.77c.16-.39-1.47-1.01-1.67-.64-2.9,5.36-4.35,14.26-14.9,18.84-5.38,2.33-11.62,2.91-17.04-.99,19.36-10.71,16.06-39.62,10.03-56.54-19.48,16.02-54.07,16.95-71.73-.88l-3.62,11.3c-.16.5,1.05,2.56.66,2.84l-1.87,1.37c-4.61,14.94-1.84,19.77,7.07,31.1-3.26-.13-5.82-1.67-7.85-3.89.94,6.4,5.54,10.81,11.9,13.31-9.08,7.51-21.5,2.6-28.22-5.98-.96.19-2.08.41-1.3.26,6.55,7.88,4.73,4.45,10.23,9.76,2.25,2.17-28.29,9.21-37.4-24.51-.81,6.61,2.4,11.51,6.11,17.64-2.8,1.02-6.3.07-9.03-1.84-17.12-11.99-14.14-35.94-7.43-53.75-16.52,5.93-27.17,18.23-34.6,33.34l-15.08,30.67c-3.92,7.97,1.69,24.22,1.82,24.42l6.35,9.47c2.49,3.72,1.52,9.65,3.72,13.48l6.05,10.52c2.01,3.49,3.14,7.18,2.62,11.27-2.62-6.21-3.8-12.02-8.88-17.29l.13,11.18c.07,5.73-.99,15.57-3.66,20.17-.85-6.15,1.9-11.42,1.66-17.13-.53-12.85-.87-28.72-8.75-38.06-.48-.57-2.55-1.2-3.08-1.72s.47-2.69.31-3.57l-3.88-21.35c-.56-3.09-4.16-6.05-6.25-5.01,1.22,2.73,1.67,5.02-.14,6.73-10.54,9.97-25.52,13.48-39.61,9.73-1.68-.45-3.75-2.23-4.56-3.23l3.43-1.01-.14-5.74c-6.28,2.53-8.83,7.96-8.08,14.23,1.51,12.62-.95,12.34,3.17,20.61-4.09-1.81-6.95,15.21-7.11,17.21-1.81,22.81,4.71,52.56,21.31,68.39,7.17,6.84,16.32,10.96,26.31,10.16,18.31-1.45,35.47-17.1,44.67-31.83ZM395.12,541.64c-12.22-2.91-10.91-9.26-12.11-20.22-.59-5.34-.72-10.48-.53-15.85-11.73-15.42-11.43-28.83-11.74-47.18l-.35-21.09c-4.25,3.62-7.13,5.46-11.51,7.2.15,3.14.15,8.47.78,11.26,13.37,28.46,21.33,65.51,25.28,96.54l4.22,33.19c1.8-3.81,4.23-7.8,5.5-12.06,1.51-5.06,2.29-11.76,1.81-16.98l-1.35-14.8ZM270.63,444.43c0-2.81-2.28-5.1-5.09-5.1s-5.09,2.28-5.09,5.1,2.28,5.1,5.09,5.1,5.09-2.28,5.09-5.1ZM312.85,456.43l-.07-15.37-2-1.82.03,19.34,2.04-2.14ZM242.89,454.92l-14.06-1.34-8.62-.82c-2.4-.16-1.43,1.12.22,1.38l7.62.9,9.95,1.34c1.6.22,4.23-.62,4.88-1.47ZM303.7,458.1l-15.83-1.06-8.72-.8.17,2.3,24.38-.44ZM167.04,489.49c14.45-6.88,22.44-14.14,30.17-26.85,1-1.65,1.56-3.34,1.32-5.51l-7.89,13.02c-4.69,7.74-16.26,14.32-25.46,18.47-.38-.18,1.03.48,1.86.86ZM256.5,518.99c-.08-2.53-.73-5.39-.72-7.64l.08-15.85.91-4.3.1-25.26c0-.79,1.05-2.54.6-2.64-.61-.14-1.63-.35-1.44-.16l-.97,12.26v57.87s.86,11.16.86,11.16c.16,2.05.78,4.49,1.62,7.01.24-3.62-.26-7.19-.39-11.19l-.66-21.25ZM364.55,498.94c-12.13-4.82-21.8-13.16-28.5-23.79l-5.76-12.36c.25,10.02,10.43,22.26,18.31,28.65,4.8,3.89,10.19,6.71,15.77,9.25l1.79.81c.38.17.99-1.53.6-1.69l-2.2-.88ZM412.37,648.5c-2.16,9.53-7.82,16.49-13.56,23.7,10-5.08,17.3-13.76,20.53-25.13l4.45-15.67c1.29,10.42-3.88,18.58-6.48,27.53,7.03-5.08,10.12-19.53,11.49-27.45.11-.64,1.29-1.79,1.93-1.96l-4.26,20.3c11.85-17.58,6.65-44.68,2.53-64.88-1.35-6.63-.84-12.89-.56-19.62l.69-16.2.66-16.34c-11.33-1.58-21.41-1.5-32.01,1.62.7,12.46,1.39,24.07.38,36.42-.66,8.1-12.78,20.37-13.49,41.44-.37,10.9-.09,21.03.43,32.01.05,1.12,1.25,3.04,2.21,3.19,4.51.67,6.26-6.3,6.74-10.37l2.42-20.4c.05-.44.94-1.99,1.22-1.89s.55.14,1.49.37c3.23,20.07,3.73,34.15-8.35,51.03-1.91,2.66-1.87,6.82.54,8.84,11.86-8.7,18.48-21.07,21.19-34.93l1.6-8.21c.38-.3,1.48.33,1.75.93l-3.55,15.7ZM259.76,577.21c-7.92-6.96-16.27-11.94-24.91-16.83l-7.6-4.31c.03.43.17,2.17.15,1.97l12.85,6.85c6.54,4.39,12.62,8.81,19.51,12.33ZM394.72,654.35c3.64-9.45,4.5-18.87,3.62-29.22-1.07,2.43-1.64,5.15-1.51,8.03.63,13.74-6.08,11.3-2.11,21.19ZM387.08,1126.37l-.44,7.95c29-30.41,16.13-37.43,16.08-53.42l-.09-26.58c-13.43,3.97-26.86,5.55-40.51,5.42,1.93,16.07,3.39,32.59-1.61,47.07,11.73.43,27.39,5.01,26.58,19.56ZM215.95,1133.31c13.63-7.23,29.87-16.8,37.08-30.31-3.76-19.24-3.35-26.26-2.89-45.52-14.07,3.19-28.16,4.26-42.3,2.97,1.33,18.23,3.43,26.84-4.98,42.34,6.95,1.99,13.62,5.57,16,12.46,2.11,6.1-.64,11.5-2.92,18.06ZM173.65,1178.54c13.05-1.49,25.81-4.25,37.1-10.73l6.44-3.69c4.44-2.55,9.05-5.22,13.97-6.92l25.31-8.71c2.22-.76,4.87-2.25,6.67-4.12l-24.19,8.64c-8.69,3.1-16.93,6.38-24.81,11.1-10.09,6.05-18.67,9.12-30.48,11.46-3.34.66-16.33,1.91-18.6,1.8l-11.26-.52c-7.24-.34-14.1-2.48-21.06-3.62,7.25,5.87,32.91,6.21,40.91,5.3ZM345.75,1188.18c10.29-1.08,20.1-3.55,29.59-7.78,8.42-3.75,14.31-10.75,20.07-17.71l8.31-10.03c-8.6,4.23-13.29,17.59-24.44,23.8-19.88,11.08-43.84,13.25-65.06,7.07,6.61,5.64,23.7,5.47,31.52,4.64Z"/>
      <path d="M2.68,175.54c-.76,13.71,1.33,26.68,10.2,36.52.27.3.04,2.37-.24,2.2-.43-.26-1.7-1.05-2.09-1.47C1.86,203.34-1.5,187.02.61,175.28c.15-.83,2.22-2.56,2.19-2.05l-.13,2.31Z"/>
      <path d="M28.19,206c.17.76.52,1.8.17,1.72-9.78-2.2-16.58-38.05-9.34-35.48-1.54,12.66,1.59,23.87,9.18,33.76Z"/>
      <path d="M312.48,233.41c-.51,1.04-2,2.27-3.49,3.48-14.78,7.19-26.32,10.91-43.38,8.62-22.01-2.96-30.95-20.02-24.3-14.1l1.92,1.71c7.31,6.5,16.63,9.21,26.36,10.88,15.08.7,28.69-3.31,42.88-10.59Z"/>
      <path d="M78.34,318.97c7.76,1.54,14.17,2.13,22.49,1.26,9.37-.98,16.1-6.7,24.81-11.06-7.41,11.06-21.21,13.75-33.63,13.38-4.9-.15-9.51.5-13.66-3.58Z"/>
      <path d="M438.08,500.81c-10.14-2.8-20.1-3.03-29.32-2.21-6.43.57-12.31,3-18.73,4.22,8.76-8.07,37.67-7.99,48.21-3.69,1.44.98,2.26,2.64-.16,1.68Z"/>
      <path d="M273.51,150.06c-15.49,4.01-29.06-12.78-20.85-12.78,10.84-.01,20.86-.85,31-3.95,1.77-.54,4.57-1.07,5.78-.15-.7,8.34-7.44,14.68-15.94,16.89ZM278.18,145.31c3.84-2.23,6.92-5.29,7.79-9.5-11,2.69-20.93,3.9-32.08,4.45,5.83,8.35,15.81,9.97,24.29,5.05Z"/>
      <path d="M293.27,93.07c.28,3.97-1.66,7.82-5.4,7.21-3.44-.56-4.88-5.12-4.68-8.68.16-2.94,2.22-6.15,5.32-5.68,2.87.44,4.53,3.85,4.76,7.14Z"/>
      <path d="M239.36,106.23c-4.24-.6-4.87-5.06-4.86-8.63,0-2.82,2.04-6.34,4.97-5.71,3.94.86,4.92,5.04,4.86,8.83-.05,2.58-2.14,5.91-4.96,5.51Z"/>
      <path d="M301.5,73.14c7.03,7.21-11.66-6.84-23.35.4-.56.34-3.27-.15-3.03-.64l1-2.04c8.41-4.81,18.48-4.78,25.37,2.28Z"/>
      <path d="M265.92,122.1l4.13.02c-2.47,4.18-7.05,3.2-10.21,1.32-9.22-5.5,2.92-16.42-1.04-28.36-.13-.4,1.27-.84,1.53-.51,6.94,8.86-10.21,27.46,5.59,27.54Z"/>
      <path d="M330.78,93.49c-8.36,14.19,1.14,10.69-5.69,18.33.31-3.45.5-5.74.08-8.69-.57-3.94,1.75-8.56,5.62-9.64Z"/>
      <circle cx="265.6" cy="444.47" r="3.58"/>
    </g>
  </g>
</svg>